<?xml version="1.0" encoding="UTF-8"?>
<svg width="445px" height="11px" viewBox="0 0 445 11" version="1.1" xmlns="http://www.w3.org/2000/svg" xmlns:xlink="http://www.w3.org/1999/xlink">
    <!-- Generator: Sketch 52.6 (67491) - http://www.bohemiancoding.com/sketch -->
    <title>Combined Shape</title>
    <desc>Created with Sketch.</desc>
    <g id="Page-1" stroke="none" stroke-width="1" fill="none" fill-rule="evenodd">
        <g id="04-02-Экспресс-продление" transform="translate(-611.000000, -307.000000)" fill="#333333" fill-rule="nonzero">
            <g id="Group-2" transform="translate(608.000000, 210.000000)">
                <g id="Group-4" transform="translate(0.000000, 72.000000)">
                    <path d="M3.45355191,25.3333333 L5.90710383,25.3333333 L5.90710383,36 L3.45355191,36 L3.45355191,25.3333333 Z M445.092896,25.3333333 L447.546448,25.3333333 L447.546448,36 L445.092896,36 L445.092896,25.3333333 Z M371.486339,25.3333333 L373.939891,25.3333333 L373.939891,36 L371.486339,36 L371.486339,25.3333333 Z M297.879781,25.3333333 L300.333333,25.3333333 L300.333333,36 L297.879781,36 L297.879781,25.3333333 Z M224.273224,25.3333333 L226.726776,25.3333333 L226.726776,36 L224.273224,36 L224.273224,25.3333333 Z M150.666667,25.3333333 L153.120219,25.3333333 L153.120219,36 L150.666667,36 L150.666667,25.3333333 Z M77.0601093,25.3333333 L79.5136612,25.3333333 L79.5136612,36 L77.0601093,36 L77.0601093,25.3333333 Z M40.2568306,25.3333333 L42.7103825,25.3333333 L42.7103825,30.6666667 L40.2568306,30.6666667 L40.2568306,25.3333333 Z M113.863388,25.3333333 L116.31694,25.3333333 L116.31694,30.6666667 L113.863388,30.6666667 L113.863388,25.3333333 Z M187.469945,25.3333333 L189.923497,25.3333333 L189.923497,30.6666667 L187.469945,30.6666667 L187.469945,25.3333333 Z M261.076503,25.3333333 L263.530055,25.3333333 L263.530055,30.6666667 L261.076503,30.6666667 L261.076503,25.3333333 Z M334.68306,25.3333333 L337.136612,25.3333333 L337.136612,30.6666667 L334.68306,30.6666667 L334.68306,25.3333333 Z M408.289617,25.3333333 L410.743169,25.3333333 L410.743169,30.6666667 L408.289617,30.6666667 L408.289617,25.3333333 Z" id="Combined-Shape" transform="translate(225.500000, 30.666667) scale(1, -1) translate(-225.500000, -30.666667) "></path>
                </g>
            </g>
        </g>
    </g>
</svg>