<?xml version="1.0" encoding="UTF-8"?>
<svg width="150px" height="150px" viewBox="0 0 150 150" version="1.1" xmlns="http://www.w3.org/2000/svg" xmlns:xlink="http://www.w3.org/1999/xlink">
    <!-- Generator: Sketch 52.6 (67491) - http://www.bohemiancoding.com/sketch -->
    <title>Artboard Copy 5</title>
    <desc>Created with Sketch.</desc>
    <g id="Artboard-Copy-5" stroke="none" stroke-width="1" fill="none" fill-rule="evenodd">
        <g id="Group" fill-rule="nonzero">
            <path d="M75,140 C110.898509,140 140,110.898509 140,75 C140,39.1014913 110.898509,10 75,10 C39.1014913,10 10,39.1014913 10,75 C10,110.898509 39.1014913,140 75,140 Z M75,150 C33.5786438,150 0,116.421356 0,75 C0,33.5786438 33.5786438,0 75,0 C116.421356,0 150,33.5786438 150,75 C150,116.421356 116.421356,150 75,150 Z" id="Oval" fill="#000000"></path>
            <circle id="Oval-Copy" fill="#FFF200" cx="75" cy="75" r="59"></circle>
        </g>
        <path d="M84.8994949,75 L101.162951,91.263456 C103.896621,93.997126 103.896621,98.4292809 101.162951,101.162951 C98.4292809,103.896621 93.997126,103.896621 91.263456,101.162951 L75,84.8994949 L58.736544,101.162951 C56.002874,103.896621 51.5707191,103.896621 48.8370491,101.162951 C46.1033791,98.4292809 46.1033791,93.997126 48.8370491,91.263456 L65.1005051,75 L48.8370491,58.736544 C46.1033791,56.002874 46.1033791,51.5707191 48.8370491,48.8370491 C51.5707191,46.1033791 56.002874,46.1033791 58.736544,48.8370491 L75,65.1005051 L91.263456,48.8370491 C93.997126,46.1033791 98.4292809,46.1033791 101.162951,48.8370491 C103.896621,51.5707191 103.896621,56.002874 101.162951,58.736544 L84.8994949,75 Z" id="Path" fill="#000000" fill-rule="nonzero"></path>
    </g>
</svg>