<?xml version="1.0" encoding="UTF-8"?>
<svg width="245px" height="89px" viewBox="0 0 245 89" version="1.1" xmlns="http://www.w3.org/2000/svg" xmlns:xlink="http://www.w3.org/1999/xlink">
    <!-- Generator: Sketch 52.4 (67378) - http://www.bohemiancoding.com/sketch -->
    <title>logo</title>
    <desc>Created with Sketch.</desc>
    <g id="Page-1" stroke="none" stroke-width="1" fill="none" fill-rule="evenodd">
        <g id="01-Главная" transform="translate(-24.000000, -40.000000)">
            <g id="logo" transform="translate(24.000000, 40.000000)">
                <g id="logo-shape">
                    <path d="M17.7820342,17.4758731 C3.02848758,32.3216294 3.02848758,56.3916794 17.7820342,71.2379919 C32.5355807,86.0843044 56.4566801,86.0843044 71.2102267,71.2379919 C85.9643261,56.3916794 85.9643261,32.3216294 71.2102267,17.4758731 C56.4566801,2.62956062 32.5355807,2.62956062 17.7820342,17.4758731 Z M13.3745994,75.6729731 C-3.81290373,58.3774919 -3.81290373,30.3363731 13.3745994,13.0408919 C30.5626553,-4.25403313 58.4296056,-4.25403313 75.6176615,13.0408919 C92.8051646,30.3363731 92.8051646,58.3774919 75.6176615,75.6729731 C58.4296056,92.9678981 30.5626553,92.9678981 13.3745994,75.6729731 Z M48.3828323,48.2678706 C46.239646,50.4244519 42.7520621,50.4244519 40.6088758,48.2678706 C38.4662422,46.1112894 38.4662422,42.6024644 40.6088758,40.4458831 C42.7520621,38.2893019 46.239646,38.2893019 48.3828323,40.4458831 C50.5260186,42.6024644 50.5260186,46.1112894 48.3828323,48.2678706 Z" id="logo-shape-2" fill="#1D1D1B"></path>
                    <path d="M20.411072,20.1212869 C33.7124261,6.73679938 55.2791714,6.73679938 68.5810783,20.1212869 C81.8829851,33.5063306 81.8829851,55.2073119 68.5810783,68.5923556 C55.2791714,81.9773994 33.7124261,81.9773994 20.411072,68.5923556 C7.10971801,55.2073119 7.10971801,33.5063306 20.411072,20.1212869 Z M37.7469453,37.5655094 C34.0194484,41.3163031 34.0194484,47.3972281 37.7469453,51.1480219 C41.4744422,54.8988156 47.5181503,54.8988156 51.2450944,51.1480219 C54.9725913,47.3972281 54.9725913,41.3163031 51.2450944,37.5655094 C47.5181503,33.8147156 41.4744422,33.8147156 37.7469453,37.5655094 Z" id="logo-shape-1" fill="#FFF200"></path>
                </g>
                <path d="M99.1612204,20.7529288 L99.1612204,17.4351997 L97.1525173,20.8382434 L95.1465704,17.4351997 L95.1465704,20.7529288 L94,20.7529288 L94,15.4022417 L95.1465704,15.4022417 L97.1525173,18.8372784 L99.1612204,15.4022417 L100.305586,15.4022417 L100.305586,20.7529288 L99.1612204,20.7529288 Z M101.624032,15.4021294 L102.780524,15.4021294 L102.780524,18.0670893 L104.861439,15.4021294 L106.173932,15.4021294 L104.041752,18.0990823 L106.447344,20.7528165 L105.038937,20.7528165 L102.780524,18.2489442 L102.780524,20.7528165 L101.624032,20.7528165 L101.624032,15.4021294 Z M124.102985,30.0710272 C124.532949,31.3838623 124.674616,32.5962282 124.532949,33.7114926 C124.459634,34.2716505 124.425458,34.7313392 124.425458,35.0944877 C124.425458,35.3397673 124.378052,35.5098353 124.28379,35.6063756 C124.184568,35.6765356 123.982815,36.0177942 123.673572,36.6262222 C123.316371,37.3525192 122.839553,38.0086561 122.246974,38.590704 C121.649435,39.1727519 120.647839,39.9955892 119.242739,41.0631447 C119.12257,41.1372337 119.001849,41.141724 118.88609,41.0850346 C118.765369,41.023855 118.726783,40.931805 118.778599,40.8094459 C118.800097,40.6865255 118.765369,40.6388166 118.671108,40.6651968 C118.598345,40.6651968 118.396041,40.7129056 118.06089,40.8094459 C117.132609,41.0760541 116.036752,41.1372337 114.77332,40.9929846 C114.391313,40.9447145 114.158692,40.9228246 114.07766,40.9362953 C113.991116,40.9492047 113.939851,41.0148746 113.913943,41.1372337 C113.867088,41.2601541 113.776685,41.3213337 113.647145,41.3213337 C113.514297,41.3213337 113.269548,41.2601541 112.912348,41.1372337 C112.556249,40.9929846 112.138964,40.7437761 111.662145,40.393537 C111.184775,40.0388078 110.828677,39.7194391 110.591645,39.4264507 C110.351306,39.1115723 110.162232,38.9538525 110.016155,38.9538525 C109.827081,38.9538525 109.564693,38.8623638 109.230093,38.682754 C108.8988,38.498654 108.623733,38.2977156 108.408752,38.0788162 C107.811212,37.4967683 107.300216,36.7092918 106.870253,35.7158253 C106.44525,34.7184298 106.230268,33.8563029 106.230268,33.130006 C106.230268,32.8892166 106.239088,32.735987 106.264444,32.6748075 C106.285943,32.6136279 106.346027,32.5827575 106.44525,32.5827575 C106.608416,32.5827575 106.711497,32.6613367 106.746224,32.8190565 C106.78426,32.9767764 106.848754,33.0553556 106.943567,33.0553556 C107.063736,33.0553556 107.192725,33.2259849 107.334393,33.5672435 C107.386209,33.6637837 107.433615,33.7468532 107.481022,33.8209423 C107.527877,33.8955926 107.562053,33.9477917 107.587961,33.9831523 C107.60946,34.022442 107.635368,34.0398417 107.656866,34.0398417 C107.682774,34.0134615 107.656866,33.834413 107.587961,33.4931544 C107.48929,33.1563861 107.441884,32.8628364 107.441884,32.6181181 C107.441884,32.4514178 107.463382,32.3464584 107.49811,32.311659 C107.531735,32.2718081 107.596781,32.2549696 107.695452,32.2549696 C107.858618,32.2807885 107.96666,32.4250376 108.017925,32.6922072 C108.038872,32.7404773 108.06919,32.8763072 108.103918,33.0946453 C108.142505,33.3135447 108.172823,33.4712645 108.194321,33.5672435 L108.267084,34.0050423 L108.335437,33.4577938 C108.382843,33.0682651 108.464978,32.8763072 108.567507,32.8763072 C108.67555,32.8763072 108.778631,32.828037 108.872892,32.7270065 C109.066376,32.4867785 109.208043,32.5215779 109.302305,32.8364562 C109.323803,32.9369255 109.337033,33.0682651 109.337033,33.2394557 C109.337033,33.5801529 109.431845,33.8692124 109.624778,34.114492 C109.887166,34.4293703 110.269723,34.8407889 110.768592,35.3481865 C111.271319,35.8600744 111.636237,36.2013329 111.876576,36.3680332 L111.911304,36.3680332 C111.795544,36.2232228 111.567884,35.991414 111.232181,35.6765356 C110.136324,34.6084188 109.590601,33.8473224 109.590601,33.3837047 C109.590601,33.2871645 109.607689,33.2259849 109.642417,33.204095 C109.676594,33.1777148 109.745498,33.1777148 109.83976,33.204095 C110.007886,33.204095 110.088918,33.1777148 110.088918,33.130006 C109.827081,32.4996879 109.754318,32.12363 109.874487,32.0007096 C109.947251,31.9530007 110.007886,31.9266205 110.055293,31.9266205 C110.102148,31.9266205 110.153413,31.9530007 110.214049,32.0007096 C110.274133,32.0489797 110.333667,32.1365394 110.394303,32.2549696 C110.454387,32.3773288 110.506204,32.5344873 110.55361,32.7270065 C111.172096,34.4293703 112.138964,35.7511859 113.449803,36.695821 C114.261773,37.3042491 114.743553,37.6365272 114.89845,37.698268 C115.052796,37.7594476 115.297545,37.7420479 115.628838,37.6410174 C116.036752,37.5231485 116.543889,37.3216488 117.150248,37.0415698 C117.755505,36.7659811 118.203109,36.525753 118.490302,36.3326725 C118.873411,36.0660643 119.230061,35.5496862 119.565212,34.7835383 C119.895954,34.022442 120.063529,33.3354346 120.063529,32.7270065 C120.063529,32.3638581 120.123614,32.0972498 120.244335,31.9266205 C120.312688,31.8300803 120.338596,31.7341013 120.312688,31.6375611 C120.29119,31.5415821 120.17102,31.3355922 119.956589,31.0162235 C119.672703,30.5570961 119.419135,30.3033973 119.204153,30.2551272 C119.156746,30.228747 119.044846,30.1978766 118.864591,30.1630772 C118.688747,30.1282778 118.572436,30.0974074 118.52503,30.0710272 C118.073568,29.9750482 117.501937,29.8959077 116.810687,29.8347281 C116.118886,29.7735485 115.59411,29.7561488 115.23746,29.782529 C114.760641,29.8302378 114.502663,29.8173284 114.467935,29.7432394 C114.433758,29.6730793 114.17578,29.6118997 113.698961,29.5636296 C113.389167,29.5153595 113.191824,29.4715796 113.110793,29.4367802 C113.028658,29.3974906 112.972984,29.31835 112.951485,29.1959909 L112.912348,28.9069314 L114.236416,28.9815817 L115.559933,29.0517418 L114.842224,28.9069314 C114.41667,28.8109524 114.094748,28.7497728 113.879766,28.7233927 C113.71164,28.7233927 113.557294,28.6706323 113.415075,28.5617439 C113.269548,28.4522942 113.260729,28.3383542 113.377039,28.2159951 C113.471301,28.1194548 113.746367,28.1065454 114.201688,28.1806344 C114.652599,28.2507945 114.89404,28.2507945 114.914987,28.1806344 C114.940895,28.1284353 114.90286,28.0582753 114.808047,27.9622963 C114.665829,27.813557 114.593066,27.6822173 114.593066,27.5592969 C114.593066,27.4369377 114.657009,27.327488 114.790408,27.2309478 C114.919397,27.1349688 115.057206,27.0737892 115.202732,27.0518993 C115.366449,27.0255191 115.735777,26.9907197 116.311819,26.9424496 C116.88345,26.8941795 117.167337,26.8459094 117.167337,26.7937103 C117.167337,26.69717 117.042206,26.6359904 116.793047,26.6141005 C116.543889,26.5877203 116.260002,26.6141005 115.950759,26.6842606 C115.572611,26.7589109 115.194464,26.7937103 114.825136,26.7937103 C114.455257,26.7937103 114.249094,26.7589109 114.201688,26.6842606 C114.154282,26.5877203 114.1846,26.4872511 114.292091,26.3778014 C114.395723,26.268913 114.532981,26.2116624 114.700005,26.2116624 C114.914987,26.2116624 115.0098,26.1549731 114.988302,26.0326139 C114.988302,25.9096935 115.048386,25.8440236 115.164146,25.8311142 C115.284866,25.8176435 115.688371,25.8356044 116.380723,25.8838746 C116.500893,25.8838746 116.643111,25.8748941 116.810687,25.8485139 C116.977711,25.826624 117.137019,25.7873343 117.291916,25.7390642 C117.446813,25.6907941 117.592339,25.638595 117.721328,25.5774154 C117.854728,25.5156746 117.95395,25.454495 118.026713,25.3933154 C118.099476,25.3321358 118.120974,25.2928462 118.099476,25.266466 C118.073568,25.1441069 118.241144,24.7674876 118.598345,24.1377309 C119.12257,23.2626946 119.419135,22.6323766 119.491898,22.2473381 C119.58671,21.6608 119.616477,21.3111222 119.5823,21.1882018 C119.543714,21.0703329 119.337,20.8385241 118.954994,20.4967042 C118.477624,20.0375768 118.091208,19.7137179 117.794643,19.5346694 C117.493668,19.3505694 117.167337,19.22372 116.810687,19.149631 C115.976667,19.0048206 115.104612,19.1406505 114.201688,19.5515078 C113.961349,19.6744283 113.737548,19.8405673 113.523117,20.0594667 C113.308135,20.2783661 112.912348,20.7638738 112.341267,21.5165509 C111.627417,22.4398574 111.163277,23.0219052 110.948846,23.2626946 C110.733864,23.5074129 110.55361,23.6168626 110.411391,23.5904824 C110.102148,23.5208836 110.183731,23.2144245 110.66055,22.6806467 C111.090514,22.1726878 111.459841,21.7219796 111.769636,21.3369412 C112.032024,20.9698637 112.151642,20.7767832 112.125734,20.7509643 C112.104236,20.7026942 111.756958,20.9215936 111.090514,21.4071012 C110.493525,21.8230101 110.171052,21.8926089 110.123646,21.6260006 C110.123646,21.5030802 110.088918,21.4463909 110.016155,21.4463909 C109.947251,21.4463909 109.874487,21.3593924 109.801724,21.1882018 C109.73282,21.1882018 109.698092,21.2280527 109.698092,21.2976515 C109.698092,21.5429311 109.754318,21.7966299 109.874487,22.0632381 C109.968749,22.2563186 110.012296,22.4263866 109.999067,22.571197 C109.986388,22.7199363 109.921342,22.7900964 109.801724,22.7900964 C109.685414,22.7900964 109.560283,22.6935561 109.427435,22.5010369 C109.298997,22.3040275 109.208043,22.0896183 109.161188,21.8449 L109.053146,21.3717405 L108.765952,22.4263866 C108.597825,23.1049748 108.43907,23.4462333 108.284172,23.4462333 C108.129275,23.4462333 108.06478,23.3238742 108.086279,23.0830848 C108.086279,22.3786778 108.172823,21.8712802 108.335437,21.5513503 C108.382843,21.4553713 108.43907,21.3414314 108.499154,21.2061628 C108.559239,21.0748232 108.597825,20.9653735 108.623733,20.8817427 C108.645232,20.7947442 108.645232,20.7509643 108.623733,20.7509643 C108.597825,20.7509643 108.408752,21.0922228 108.052102,21.7702497 C107.50252,22.9124555 107.231863,23.8576519 107.231863,24.6103291 C107.231863,24.8292285 107.218634,24.9644971 107.192725,25.0127672 C107.171227,25.0610373 107.097913,25.078437 106.978295,25.0655276 C106.857574,25.0565471 106.78867,25.0127672 106.762762,24.9381169 C106.741815,24.8679568 106.715907,24.7063081 106.694408,24.46608 C106.6685,23.905922 106.853164,23.1442644 107.248951,22.1726878 C107.639778,21.2016725 108.133685,20.3266362 108.731224,19.5515078 C109.13528,19.0182914 109.505159,18.4362435 109.83976,17.8059255 C110.578967,16.4448202 111.056337,15.7667934 111.271319,15.7667934 C111.340223,15.7667934 111.395347,15.8324632 111.430075,15.9682931 C111.464251,16.0990714 111.447163,16.2259208 111.378259,16.3488413 C111.305495,16.5194705 111.184775,16.7248992 111.01775,16.9656885 C110.828677,17.258677 110.815998,17.3681267 110.983023,17.2940376 C111.077835,17.2721477 111.219503,17.1716785 111.412986,17.0049782 C112.199049,16.3971114 113.153238,15.9374226 114.270593,15.618054 C114.842224,15.5001851 115.452442,15.4384443 116.097388,15.4384443 C117.811731,15.4120641 119.217382,15.898133 120.312688,16.8955285 C120.742652,17.258677 121.060163,17.4646669 121.263018,17.5123758 C121.464771,17.5606459 121.718339,17.6964758 122.031992,17.9153752 C122.362734,18.1297843 122.711115,18.6416721 123.067213,19.4420581 C123.686251,20.7285131 124.008724,21.940879 124.030222,23.0830848 C124.030222,24.2247294 123.733657,25.1833965 123.136117,25.9579636 C122.947043,26.2026819 122.835143,26.3778014 122.797107,26.4872511 C122.76238,26.5967008 122.758521,26.7852911 122.780019,27.0518993 C122.852231,27.4852079 122.925545,27.8741753 122.99445,28.2159951 C123.067213,28.5044933 123.119029,28.6751225 123.157616,28.7233927 C123.192343,28.7716628 123.291015,28.7845722 123.45859,28.7626823 C123.673572,28.7144122 123.781063,28.7626823 123.781063,28.9069314 C123.781063,29.0298518 123.888003,29.4148903 124.102985,30.0710272 Z M145.087648,36.1141099 C145.538559,35.6544212 145.985611,34.9455239 146.428805,33.9829278 C146.870896,33.024822 147.211008,32.0139558 147.446937,30.9464003 C147.614513,30.215613 147.709326,29.3315962 147.735234,28.2859306 C147.756181,27.244194 147.709326,26.443808 147.588605,25.8836501 C147.257863,24.1375064 146.303674,22.6237328 144.730999,21.3372779 C144.253629,20.9477492 143.575057,20.5273501 142.693631,20.0811321 C141.808898,19.6304239 141.060871,19.3200358 140.441833,19.1494065 C139.677269,18.9086172 139.135405,18.7817678 138.813483,18.7688583 C138.49101,18.7553876 138.129951,18.8255476 137.722036,18.9697967 C136.866518,19.2852364 136.067226,19.770744 135.328019,20.4268809 C134.829702,20.8601895 134.344063,21.4989267 133.879923,22.3346734 C133.415782,23.1749103 133.063543,24.0280567 132.827063,24.903093 C132.659487,25.533411 132.543176,26.4303373 132.487501,27.594433 C132.427417,28.7624578 132.457735,29.6947447 132.573494,30.3991518 C132.934553,32.7273433 133.621944,34.4162364 134.648897,35.457973 C135.195171,36.0394596 135.904061,36.5732374 136.776667,37.0593063 C137.644312,37.5448139 138.534006,37.9124527 139.440789,38.153242 C140.012421,38.3238713 140.48924,38.3586707 140.867939,38.2626917 C141.585096,38.0915011 142.363441,37.7945838 143.209588,37.3696944 C144.056286,36.9453663 144.684144,36.5255285 145.087648,36.1141099 Z M151.310549,23.5206591 C152.715649,25.6557702 153.253104,27.874512 152.917401,30.1808136 C152.629656,32.0970253 151.838633,33.8650589 150.541575,35.4753727 C149.239005,37.0896154 147.601835,38.3676512 145.625103,39.2993768 C143.643962,40.236154 141.559739,40.6997717 139.367475,40.6997717 C135.79216,40.6997717 133.123627,39.4133168 131.361878,36.8404069 C131.120988,36.4772584 130.798515,36.0310404 130.39501,35.4972626 C130.085216,35.107734 129.797471,34.6480452 129.535083,34.1142675 C129.320101,33.6506498 129.010857,33.094982 128.607353,32.4382839 C127.631665,30.8105704 127.029716,29.160967 126.802056,27.4849833 C126.574395,25.81349 126.707243,24.2598655 127.192882,22.8291615 C127.68293,21.3939673 128.534038,20.0985318 129.750064,18.9349973 C130.966091,17.7664113 132.466554,16.8694851 134.254212,16.239167 C134.898606,15.998939 135.564499,15.8277484 136.2563,15.7272792 C136.471282,15.6790091 137.175761,15.53476 138.366431,15.2939707 C139.105087,15.1452313 139.569778,15.0621618 139.763262,15.0357816 C140.072505,14.9880728 140.626497,14.9880728 141.42193,15.0357816 C142.221222,15.088542 142.788444,15.1587021 143.123595,15.254681 C143.811538,15.4253103 144.485699,15.7671301 145.143874,16.2745277 C145.796537,16.7864155 146.351081,17.3813729 146.801992,18.0593997 C147.06438,18.4708184 147.352125,18.7856967 147.661919,19.0051574 C148.065424,19.2498757 148.559882,19.6916035 149.144192,20.3348309 C149.729053,20.9780584 150.128699,21.4949977 150.34313,21.8800362 C150.532755,22.2471136 150.854677,22.7898719 151.310549,23.5206591 Z M173.364885,36.4421784 C174.030778,37.7769034 174.353251,38.56438 174.331753,38.8096596 C174.305845,39.0498876 174.228672,39.1857175 174.099682,39.2076074 C173.966835,39.2339876 173.815796,39.1464279 173.65263,38.9539087 C173.532461,38.8315495 173.210539,38.1709223 172.686314,36.9714659 C172.161538,35.7680805 171.899701,35.1080146 171.899701,34.9850942 C171.899701,34.936824 171.7878,34.6876155 171.560139,34.2413975 C171.331928,33.7906892 171.100409,33.3618709 170.863929,32.9459621 C170.623039,32.5345435 170.494049,32.3291148 170.468141,32.3291148 C170.446643,32.3773849 170.554134,32.9106014 170.790614,33.9304481 C171.031504,34.9502948 171.194119,35.5800515 171.293341,35.8253311 C171.456507,36.2367497 171.654401,36.9147766 171.882612,37.8599729 C172.110273,38.8096596 172.234301,39.4876864 172.255799,39.899105 C172.281707,40.0478444 172.269029,40.1309139 172.221622,40.1528038 C172.174767,40.179184 172.041368,40.1920935 171.826386,40.1920935 C171.5425,40.1920935 171.349567,40.2274541 171.254755,40.3015432 C171.160493,40.3498133 171.095999,40.2931239 171.061271,40.1354041 C171.022684,39.9776843 170.911335,39.899105 170.72171,39.899105 C170.623039,39.899105 170.541456,39.8643056 170.468141,39.7896553 C170.399788,39.7194953 170.313795,39.548866 170.218983,39.2822578 C170.077315,38.8708391 170.004001,38.6255596 170.004001,38.5514705 C170.004001,38.4813105 169.943916,38.4420208 169.828157,38.4420208 C169.634673,38.4420208 168.856879,36.927686 167.485956,33.8956487 C166.115032,30.8585599 164.963501,28.0802213 164.03522,25.5595106 C163.67857,24.6362041 163.425002,24.0283373 163.283334,23.7392779 C163.141116,23.4243995 163.067801,23.3497492 163.067801,23.5209397 C163.067801,23.6432989 162.647208,25.0173136 161.80051,27.651403 C160.953812,30.2854925 160.38659,32.0007657 160.102704,32.801713 C159.552571,34.2587972 158.994169,35.5362716 158.423089,36.6436781 C157.850906,37.746033 157.468348,38.2977717 157.279274,38.2977717 C157.11225,38.2977717 157.021847,38.2360309 157.008618,38.118162 C156.995939,37.9958028 157.025706,37.7634327 157.09902,37.4266644 C157.21919,37.037697 157.266596,36.7924174 157.240688,36.6958772 C157.193282,36.6958772 156.965621,37.3654848 156.562117,38.7002099 C156.394541,39.3041477 156.28264,39.6757154 156.222004,39.807055 C156.16192,39.9428849 156.067658,40.0085547 155.938669,40.0085547 C155.805821,40.0085547 155.728097,39.9776843 155.706599,39.9165047 C155.680691,39.8598154 155.680691,39.6802056 155.706599,39.3911462 L155.775503,38.7002099 L155.384677,39.5359565 C155.238048,39.899105 155.126699,40.1309139 155.045116,40.2274541 C154.958572,40.3234331 154.860452,40.3717032 154.739731,40.3717032 C154.357725,40.3717032 154.202276,39.9602846 154.275591,39.1374474 C154.297089,38.9191093 154.310319,38.7220998 154.310319,38.5514705 C154.28882,38.5778507 154.1681,38.9539087 153.953118,39.6802056 C153.81145,40.1920935 153.69514,40.5249328 153.613557,40.6826526 C153.528115,40.8398112 153.428893,40.9189517 153.308723,40.9189517 C153.261317,40.9189517 153.213911,40.8706816 153.166504,40.7741413 C153.119098,40.6298923 153.798772,38.1355617 155.203872,33.2917109 C156.609523,28.4523503 157.515755,25.498331 157.91981,24.4307755 C158.229054,23.581558 158.435767,22.9383306 158.530028,22.5010931 C158.646339,22.0369141 158.985349,20.9345592 159.548712,19.1884155 C160.107114,17.4383429 160.425177,16.4931465 160.49353,16.3488974 C160.588343,16.1782681 160.709063,16.1036178 160.850731,16.129998 C160.996808,16.1563782 161.09107,16.2613376 161.138476,16.4583471 C161.185882,16.6508663 161.125798,16.8955846 160.958222,17.1846441 C160.889317,17.3288932 160.781826,17.5696825 160.640159,17.8935414 C160.49353,18.2218904 160.382181,18.5277883 160.300598,18.8033771 C160.215156,19.083456 160.184838,19.2237762 160.210746,19.2237762 C160.257601,19.2237762 160.373912,19.0312569 160.566845,18.6417283 C160.755918,18.2521996 160.924045,18.0596804 161.065713,18.0596804 C161.185882,18.0596804 161.258645,18.0950411 161.280144,18.1691301 C161.306052,18.2392901 161.306052,18.4099194 161.280144,18.6765277 C161.32755,18.751178 161.474179,18.4576283 161.710108,17.8059816 C161.757514,17.6353523 161.817598,17.4776325 161.890913,17.3288932 C162.15275,16.6025962 162.376,16.3707873 162.569484,16.6373956 C162.664297,16.760316 162.784466,16.6772465 162.926134,16.3836968 C163.21443,15.8016489 163.472408,15.7887394 163.712747,16.3488974 L163.893001,16.8214956 L164.250202,16.2394477 C164.464633,15.945898 164.641028,15.7668495 164.787106,15.6921992 C164.928773,15.6181102 164.997678,15.6703092 164.997678,15.8370096 C164.997678,16.0076388 164.928773,16.2742471 164.787106,16.6373956 C164.61953,17.0533044 164.533537,17.280623 164.533537,17.3288932 C164.533537,17.3552733 164.61953,17.3816535 164.787106,17.4035435 L165.070992,17.9855914 C165.191161,17.7925109 165.290384,17.674642 165.375825,17.6392813 C165.457408,17.6044819 165.547811,17.6482618 165.642072,17.766692 C165.689478,17.840781 165.67239,18.0725898 165.590256,18.4576283 C165.504814,18.8471569 165.406143,19.0789658 165.285974,19.1491259 C165.143755,19.2501563 165.251246,19.7923533 165.607896,20.7903101 C165.728065,21.1051884 166.037859,21.8230662 166.536177,22.9383306 C167.038904,24.0547175 167.520132,25.0958929 167.984273,26.0674694 C168.448413,27.039046 168.693162,27.5110829 168.71907,27.485264 C168.835381,27.3668338 168.276979,25.4506221 167.038904,21.7355064 C166.347103,19.6262143 165.977775,18.4228289 165.930368,18.1298404 C165.90446,17.9154313 165.810199,17.5741727 165.642072,17.114484 C165.500405,16.6772465 165.427641,16.3707873 165.427641,16.204087 C165.427641,16.0553477 165.470638,15.9548785 165.552221,15.8936989 C165.637662,15.8325193 165.736885,15.8370096 165.857054,15.9110986 C165.90446,15.9374788 166.201025,16.7777157 166.751159,18.4402286 C167.301292,20.1033027 167.825517,21.796686 168.323834,23.5209397 C168.775296,25.0257328 169.583408,27.2573841 170.738798,30.2153324 C171.895291,33.1777709 172.767346,35.2517024 173.364885,36.4421784 Z M192.707638,36.1141099 C193.158549,35.6544212 193.605601,34.9455239 194.048794,33.9829278 C194.490885,33.024822 194.830998,32.0139558 195.066927,30.9464003 C195.234503,30.215613 195.329315,29.3315962 195.355223,28.2859306 C195.376721,27.244194 195.329315,26.443808 195.208594,25.8836501 C194.877853,24.1375064 193.923664,22.6237328 192.350988,21.3372779 C191.873618,20.9477492 191.195047,20.5273501 190.313621,20.0811321 C189.428887,19.6304239 188.680861,19.3200358 188.061823,19.1494065 C187.297259,18.9086172 186.755394,18.7817678 186.433472,18.7688583 C186.110999,18.7553876 185.74994,18.8255476 185.342026,18.9697967 C184.486508,19.2852364 183.687216,19.770744 182.948009,20.4268809 C182.449692,20.8601895 181.964053,21.4989267 181.499912,22.3346734 C181.035772,23.1749103 180.683532,24.0280567 180.447052,24.903093 C180.279476,25.533411 180.163166,26.4303373 180.107491,27.594433 C180.047406,28.7624578 180.077724,29.6947447 180.193484,30.3991518 C180.554543,32.7273433 181.241934,34.4162364 182.268886,35.457973 C182.815161,36.0394596 183.52405,36.5732374 184.396656,37.0593063 C185.264301,37.5448139 186.153996,37.9124527 187.060779,38.153242 C187.63241,38.3238713 188.109229,38.3586707 188.487928,38.2626917 C189.205086,38.0915011 189.983431,37.7945838 190.829578,37.3696944 C191.676276,36.9453663 192.304133,36.5255285 192.707638,36.1141099 Z M198.930538,23.5206591 C200.335638,25.6557702 200.873093,27.874512 200.537391,30.1808136 C200.249645,32.0970253 199.458622,33.8650589 198.161564,35.4753727 C196.858994,37.0896154 195.221824,38.3676512 193.245093,39.2993768 C191.263951,40.236154 189.179729,40.6997717 186.987464,40.6997717 C183.412149,40.6997717 180.743617,39.4133168 178.981867,36.8404069 C178.740977,36.4772584 178.418504,36.0310404 178.015,35.4972626 C177.705205,35.107734 177.41746,34.6480452 177.155072,34.1142675 C176.94009,33.6506498 176.630847,33.094982 176.227342,32.4382839 C175.251655,30.8105704 174.649706,29.160967 174.422045,27.4849833 C174.194385,25.81349 174.327233,24.2598655 174.812871,22.8291615 C175.30292,21.3939673 176.154028,20.0985318 177.370054,18.9349973 C178.58608,17.7664113 180.086544,16.8694851 181.874201,16.239167 C182.518596,15.998939 183.184489,15.8277484 183.87629,15.7272792 C184.091272,15.6790091 184.795751,15.53476 185.98642,15.2939707 C186.725076,15.1452313 187.189768,15.0621618 187.383252,15.0357816 C187.692495,14.9880728 188.247038,14.9880728 189.04192,15.0357816 C189.841212,15.088542 190.408433,15.1587021 190.743585,15.254681 C191.431527,15.4253103 192.105688,15.7671301 192.763864,16.2745277 C193.416527,16.7864155 193.97107,17.3813729 194.421981,18.0593997 C194.684369,18.4708184 194.972114,18.7856967 195.281909,19.0051574 C195.685413,19.2498757 196.179872,19.6916035 196.764182,20.3348309 C197.349043,20.9780584 197.748689,21.4949977 197.96312,21.8800362 C198.152745,22.2471136 198.474666,22.7898719 198.930538,23.5206591 Z M220.275875,17.65713 C220.464949,17.9024096 220.323282,18.0730389 219.845911,18.1690178 C219.463354,18.2391779 218.68997,18.3267376 217.52135,18.4227166 C216.854906,18.4973669 216.519755,18.5933459 216.519755,18.7162663 C216.519755,18.7381563 216.553931,18.7645364 216.627246,18.7858651 C216.722058,18.8341352 216.756235,18.9346044 216.734737,19.0794148 C216.708829,19.2236639 216.639924,19.3331136 216.519755,19.4077639 C216.352179,19.4773627 216.077112,19.5868124 215.698965,19.7355517 L215.127333,19.9499609 L216.128929,19.9499609 C216.601338,19.9499609 216.885224,19.9628703 216.966807,19.9892505 C217.04839,20.0111405 217.091386,20.0987002 217.091386,20.2429493 L217.091386,20.536499 L214.302133,20.4972094 C212.445571,20.4753194 211.495792,20.4837386 211.461615,20.536499 C211.426888,20.5847691 211.358534,22.8377491 211.263722,27.305542 C211.096697,37.5713625 210.954479,42.7519816 210.834309,42.8485219 C210.765405,42.9226109 210.666182,42.9445008 210.550423,42.9226109 C210.430253,42.874902 210.370169,42.3495435 210.370169,41.356077 C210.370169,40.0477321 210.322762,39.4527748 210.22795,39.5706437 C210.202593,39.5970239 210.181095,39.6582034 210.155187,39.7547437 C210.108332,39.9472629 210.013519,40.0477321 209.871852,40.0477321 C209.772629,40.0477321 209.708134,39.9601724 209.673958,39.7895431 C209.63923,39.623404 209.609463,39.124987 209.584106,38.2976595 C209.489294,36.8927744 209.41598,36.1883673 209.369125,36.1883673 C209.321718,36.2849076 209.248404,36.8315948 209.153591,37.8250613 C209.05933,38.844908 208.994835,39.3915952 208.960659,39.4617553 C208.921521,39.5358443 208.83167,39.5487537 208.689451,39.5010449 C208.569833,39.4746647 208.487699,39.5139543 208.440292,39.6104946 C208.392886,39.7064736 208.366978,39.8771028 208.366978,40.1178922 C208.366978,40.3149016 208.316264,40.4591507 208.208222,40.5551297 C208.101282,40.6516699 207.989381,40.6516699 207.868661,40.5551297 C207.748491,40.4591507 207.688407,39.9472629 207.688407,39.0284467 L207.65423,37.6409613 L207.546739,38.8797074 C207.426018,40.5770196 207.250174,41.5749764 207.009835,41.8634746 C206.940931,41.986395 206.811942,42.0430843 206.635546,42.0301749 C206.455292,42.0167041 206.330162,41.9645051 206.257399,41.8634746 C206.162586,41.7456057 206.162586,41.3914377 206.257399,40.8093898 C206.35607,40.2537221 206.407886,37.934511 206.420564,33.8562468 C206.433794,29.7824729 206.390798,26.4434151 206.296536,23.8486153 L206.188494,20.3877597 L204.649995,20.1688603 C202.742168,19.9280709 201.598905,19.6827914 201.216899,19.4425633 C201.053182,19.3196429 200.902694,19.3286234 200.769295,19.459963 C200.640857,19.5957929 200.515727,19.6350825 200.396109,19.5868124 C200.25389,19.5391035 200.193805,19.4380731 200.219162,19.2809145 C200.24066,19.1231947 200.327204,18.9918551 200.468872,18.8958761 C200.636448,18.7729557 200.645267,18.7162663 200.503049,18.7162663 C200.382879,18.7162663 200.301296,18.6545255 200.25389,18.5321663 C200.207035,18.4098072 200.227982,18.3003575 200.327204,18.2043785 C200.327204,18.0814581 200.227982,18.0247687 200.038908,18.0247687 C199.77652,18.0247687 199.613905,17.937209 199.557679,17.7665797 C199.497595,17.6004407 199.325609,17.4646108 199.037864,17.3680705 C198.6079,17.1980025 198.303067,16.9791031 198.126671,16.7119336 C197.945866,16.4447641 197.941456,16.1652464 198.109583,15.8761869 C198.156989,15.7538278 198.346063,15.6314686 198.681214,15.5130385 C199.011956,15.3906793 199.360337,15.3031195 199.716435,15.2548494 C199.953466,15.2329595 201.366835,15.2374497 203.954336,15.2722491 C206.541285,15.3115387 208.878525,15.3642991 210.980387,15.4383881 C213.434488,15.5130385 215.127333,15.5220189 216.055614,15.4737488 C217.62829,15.4035888 218.449631,15.5130385 218.522394,15.8015366 C218.522394,15.8761869 218.505306,15.9373665 218.466719,15.9856366 C218.431992,16.0339068 218.341589,16.0731964 218.199921,16.112486 C218.058254,16.1478467 217.877448,16.1781559 217.663018,16.204536 C217.448036,16.226426 217.164149,16.2393354 216.8075,16.2393354 C215.660378,16.3358757 213.863901,16.506505 211.405941,16.746733 C211.027793,16.7731132 210.834309,16.7994934 210.834309,16.8213833 C210.834309,16.8477635 210.860217,16.9179236 210.907624,17.0402827 C210.92857,17.1626419 211.706364,17.2328019 213.232185,17.2591821 C214.564522,17.2591821 216.089791,17.2810721 217.808544,17.3293422 C218.831638,17.3815413 219.484852,17.4208309 219.773148,17.4601205 C220.060893,17.4949199 220.224059,17.561151 220.275875,17.65713 Z M236.966908,36.1141099 C237.417819,35.6544212 237.865423,34.9455239 238.308065,33.9829278 C238.750156,33.024822 239.090268,32.0139558 239.326197,30.9464003 C239.493773,30.215613 239.588585,29.3315962 239.614494,28.2859306 C239.635992,27.244194 239.588585,26.443808 239.467865,25.8836501 C239.137675,24.1375064 238.182934,22.6237328 236.61081,21.3372779 C236.132889,20.9477492 235.454317,20.5273501 234.573443,20.0811321 C233.688158,19.6304239 232.940131,19.3200358 232.321093,19.1494065 C231.556529,18.9086172 231.015216,18.7817678 230.692743,18.7688583 C230.37027,18.7553876 230.009762,18.8255476 229.601296,18.9697967 C228.745778,19.2852364 227.947037,19.770744 227.20783,20.4268809 C226.708962,20.8601895 226.223323,21.4989267 225.759183,22.3346734 C225.295042,23.1749103 224.942803,24.0280567 224.706322,24.903093 C224.538747,25.533411 224.422436,26.4303373 224.367312,27.594433 C224.306677,28.7624578 224.336994,29.6947447 224.452754,30.3991518 C224.813813,32.7273433 225.501204,34.4162364 226.528157,35.457973 C227.074431,36.0394596 227.78332,36.5732374 228.655927,37.0593063 C229.523572,37.5448139 230.413266,37.9124527 231.320049,38.153242 C231.891681,38.3238713 232.3685,38.3586707 232.747198,38.2626917 C233.464356,38.0915011 234.242701,37.7945838 235.089399,37.3696944 C235.935546,36.9453663 236.563404,36.5255285 236.966908,36.1141099 Z M243.189809,23.5206591 C244.594909,25.6557702 245.132364,27.874512 244.796661,30.1808136 C244.509467,32.0970253 243.718444,33.8650589 242.420835,35.4753727 C241.118265,37.0896154 239.481095,38.3676512 237.504363,39.2993768 C235.523222,40.236154 233.438999,40.6997717 231.247286,40.6997717 C227.671971,40.6997717 225.002887,39.4133168 223.241138,36.8404069 C223.000248,36.4772584 222.677775,36.0310404 222.27427,35.4972626 C221.964476,35.107734 221.676731,34.6480452 221.414342,34.1142675 C221.199361,33.6506498 220.890117,33.094982 220.486613,32.4382839 C219.510925,30.8105704 218.908976,29.160967 218.681316,27.4849833 C218.453655,25.81349 218.586503,24.2598655 219.072142,22.8291615 C219.562742,21.3939673 220.413298,20.0985318 221.629324,18.9349973 C222.845902,17.7664113 224.345814,16.8694851 226.133472,16.239167 C226.777866,15.998939 227.44431,15.8277484 228.13556,15.7272792 C228.350542,15.6790091 229.055021,15.53476 230.246242,15.2939707 C230.984898,15.1452313 231.449038,15.0621618 231.642522,15.0357816 C231.951765,14.9880728 232.506308,14.9880728 233.301742,15.0357816 C234.100482,15.088542 234.667704,15.1587021 235.002855,15.254681 C235.690797,15.4253103 236.36551,15.7671301 237.023134,16.2745277 C237.675797,16.7864155 238.230341,17.3813729 238.681251,18.0593997 C238.94364,18.4708184 239.231385,18.7856967 239.541179,19.0051574 C239.944684,19.2498757 240.439694,19.6916035 241.023452,20.3348309 C241.608313,20.9780584 242.007959,21.4949977 242.222941,21.8800362 C242.412015,22.2471136 242.734488,22.7898719 243.189809,23.5206591 Z M121.279555,64.4426108 C121.791102,65.4663864 122.035851,66.0663953 122.019314,66.2544243 C121.997816,66.437963 121.941589,66.5384322 121.838508,66.5603222 C121.739837,66.5782831 121.623526,66.5126133 121.498947,66.3633127 C121.408544,66.271824 121.159386,65.7638651 120.760291,64.8450489 C120.360094,63.930723 120.158342,63.4233254 120.158342,63.3312754 C120.158342,63.2919858 120.072349,63.1039568 119.900363,62.758208 C119.724519,62.4169494 119.547573,62.0886003 119.367318,61.773722 C119.182654,61.4582823 119.083983,61.2966335 119.066344,61.2966335 C119.044846,61.3359232 119.13139,61.7428515 119.311644,62.5219089 C119.491898,63.300405 119.620887,63.7864739 119.694201,63.9700126 C119.822639,64.284891 119.973678,64.8057593 120.145112,65.5281273 C120.317098,66.2544243 120.41191,66.7702411 120.433408,67.090171 C120.450497,67.1996207 120.441677,67.2647292 120.40309,67.2826902 C120.368914,67.3000899 120.269691,67.3085091 120.102116,67.3085091 C119.887685,67.3085091 119.741608,67.3393795 119.668293,67.3921399 C119.594979,67.4314295 119.543714,67.3876496 119.517806,67.2692194 C119.488039,67.1468603 119.402046,67.090171 119.255418,67.090171 C119.182654,67.090171 119.11816,67.0593005 119.066344,67.0026112 C119.010669,66.9498508 118.946726,66.8185112 118.873411,66.6130825 C118.765369,66.2982042 118.710245,66.1141042 118.710245,66.0574148 C118.710245,66.0001642 118.662839,65.9743453 118.572436,65.9743453 C118.426359,65.9743453 117.828819,64.8147398 116.784779,62.4955287 C115.735777,60.1763176 114.855454,58.0496258 114.146013,56.1199434 C113.871498,55.4155364 113.681873,54.9513574 113.570523,54.728529 C113.462481,54.4877397 113.406806,54.4349793 113.406806,54.5618287 C113.406806,54.65444 113.084884,55.7085248 112.435529,57.7212767 C111.791134,59.7345899 111.35676,61.0468637 111.13792,61.659782 C110.721186,62.7756077 110.291222,63.7516745 109.852989,64.5958404 C109.414757,65.4405675 109.12646,65.8648956 108.980383,65.8648956 C108.851394,65.8648956 108.783041,65.8166255 108.774221,65.7245755 C108.765952,65.6330868 108.787451,65.453477 108.842574,65.195288 C108.933528,64.8978093 108.967705,64.7137093 108.950616,64.6396203 C108.915888,64.6396203 108.740044,65.1470178 108.43025,66.1713548 C108.30567,66.6349725 108.220229,66.9150514 108.172823,67.0200109 C108.125416,67.1204801 108.052102,67.1732405 107.953431,67.1732405 C107.85476,67.1732405 107.794124,67.1468603 107.777035,67.1030804 C107.760498,67.0548103 107.760498,66.9195417 107.777035,66.696152 L107.83271,66.1713548 L107.532287,66.810092 C107.420386,67.090171 107.334393,67.2647292 107.269898,67.3393795 C107.205955,67.4134685 107.128231,67.4488292 107.037828,67.4488292 C106.746224,67.4488292 106.629914,67.1333896 106.68173,66.5036328 C106.703228,66.3374938 106.711497,66.1887545 106.711497,66.0574148 C106.689998,66.0748145 106.599596,66.3633127 106.43643,66.9195417 C106.328939,67.3085091 106.239088,67.5666981 106.178452,67.6851283 C106.113957,67.8074875 106.036784,67.868667 105.946933,67.868667 C105.907795,67.868667 105.873618,67.8293774 105.834481,67.7552884 C105.800304,67.6458387 106.315709,65.7380462 107.395029,62.03584 C108.469387,58.334195 109.161188,56.0761635 109.470432,55.2578165 C109.706912,54.6100988 109.861258,54.116172 109.934572,53.7833326 C110.024975,53.4330936 110.287363,52.5889277 110.716776,51.2497124 C111.141778,49.9149874 111.382668,49.1931806 111.438343,49.0792407 C111.511658,48.9523913 111.601509,48.8957019 111.71341,48.9131016 C111.821452,48.9305013 111.894215,49.0135709 111.932802,49.1623102 C111.966978,49.3116108 111.920123,49.4996398 111.795544,49.7185392 C111.739318,49.8319178 111.657735,50.0115276 111.550795,50.2607361 C111.438343,50.5149962 111.35235,50.7468051 111.288407,50.9606529 C111.223913,51.1711331 111.202414,51.2805828 111.219503,51.2805828 C111.258089,51.2805828 111.347941,51.1318435 111.494569,50.8338035 C111.640647,50.5368862 111.765226,50.3875855 111.876576,50.3875855 C111.966978,50.3875855 112.023204,50.4139657 112.040293,50.4706551 C112.057932,50.5279057 112.057932,50.6592453 112.040293,50.8601837 C112.075021,50.9174343 112.18637,50.6940447 112.366624,50.1950663 C112.405211,50.0637267 112.448207,49.9413675 112.504433,49.8319178 C112.706186,49.2762501 112.878171,49.0972016 113.024249,49.3026303 C113.097563,49.394119 113.187414,49.3290105 113.299315,49.1101111 C113.518707,48.6638931 113.716049,48.6549126 113.900713,49.0792407 L114.034112,49.4423892 L114.309179,48.9961712 C114.472345,48.7733428 114.610154,48.6330227 114.717645,48.5808236 C114.829546,48.523573 114.88522,48.5589336 114.88522,48.6902733 C114.88522,48.8210516 114.829546,49.0225513 114.717645,49.3026303 C114.593066,49.6175087 114.528571,49.7926282 114.528571,49.8319178 C114.528571,49.8493175 114.593066,49.8672785 114.717645,49.8891684 L114.936485,50.3308962 C115.026888,50.1866471 115.104612,50.0945971 115.168556,50.0682169 C115.23305,50.0418367 115.301955,50.0727072 115.375269,50.1647572 C115.409997,50.2214465 115.396767,50.396566 115.336683,50.6940447 C115.272188,50.9915234 115.194464,51.1666429 115.100202,51.2233322 C114.992711,51.2979825 115.074294,51.7133301 115.349361,52.4749878 C115.439212,52.7157771 115.675693,53.2624643 116.05825,54.116172 C116.440808,54.9732473 116.810687,55.7697044 117.167337,56.5094721 C117.519576,57.2531687 117.708099,57.6163172 117.725738,57.5989175 C117.816141,57.5029386 117.390587,56.0368739 116.440808,53.2012847 C115.912724,51.5864807 115.628838,50.6676645 115.594661,50.4448362 C115.577021,50.2781358 115.503707,50.0160178 115.375269,49.6657788 C115.267778,49.3290105 115.211552,49.0972016 115.211552,48.9703523 C115.211552,48.855851 115.24187,48.7772718 115.306365,48.7334919 C115.370859,48.685783 115.448032,48.6902733 115.538435,48.7469626 C115.577021,48.7643623 115.804682,49.4075898 116.221416,50.680574 C116.643111,51.9501905 117.042206,53.2450646 117.425315,54.5618287 C117.773145,55.713015 118.387773,57.4193078 119.268647,59.6863198 C120.153932,61.9482802 120.824235,63.5367041 121.279555,64.4426108 Z M136.61295,64.1932339 C136.961331,63.8390659 137.300892,63.2963076 137.639902,62.5655204 C137.975605,61.8302429 138.237441,61.0556758 138.417696,60.2418191 C138.547236,59.6861514 138.619999,59.0081245 138.637087,58.2071772 C138.654176,57.4107202 138.619999,56.7983631 138.525738,56.3734738 C138.272169,55.0348198 137.541782,53.8752142 136.342293,52.8952185 C135.977375,52.5977398 135.457008,52.2778099 134.782296,51.9326224 C134.107583,51.5908026 133.531542,51.3545035 133.059133,51.2237251 C132.478682,51.0396251 132.061947,50.9391559 131.817199,50.9301754 C131.571899,50.9217562 131.292973,50.9739553 130.983179,51.083405 C130.326106,51.3241943 129.715337,51.6963233 129.153076,52.1992306 C128.769967,52.53207 128.401191,53.0175776 128.04399,53.6563148 C127.68734,54.2995423 127.420542,54.9517503 127.235878,55.6213579 C127.11185,56.1023753 127.025306,56.7893827 126.9779,57.6818187 C126.931045,58.5703257 126.956402,59.2837132 127.046804,59.8219813 C127.322422,61.6029243 127.846647,62.8938695 128.63271,63.6942555 C129.049444,64.1365445 129.591309,64.5474019 130.257201,64.9156019 C130.923645,65.2871696 131.602217,65.5672486 132.294018,65.7507873 C132.73225,65.8821269 133.097719,65.9085071 133.389874,65.8344181 C133.936149,65.7070074 134.533137,65.4796888 135.177532,65.151901 C135.826336,64.8274808 136.303155,64.5086735 136.61295,64.1932339 Z M141.370666,54.5622216 C142.444473,56.1944253 142.852939,57.8922989 142.59937,59.6558422 C142.380529,61.1213456 141.77417,62.4734704 140.781395,63.7077262 C139.78917,64.9414208 138.534006,65.9129973 137.025825,66.6303138 C135.513234,67.3437014 133.918509,67.6984307 132.237791,67.6984307 C129.504765,67.6984307 127.463539,66.7184349 126.118523,64.7489016 C125.933859,64.4733128 125.689111,64.127564 125.379316,63.7206357 C125.142836,63.423157 124.923995,63.068989 124.722243,62.6614994 C124.559077,62.3118216 124.322597,61.8830033 124.013354,61.3840249 C123.265327,60.1413499 122.805045,58.8767849 122.633611,57.5987492 C122.457215,56.3167845 122.560296,55.1307987 122.934586,54.0329341 C123.308323,52.9389984 123.957128,51.9455319 124.885409,51.0570248 C125.8181,50.1645888 126.965221,49.4775815 128.332286,48.9960028 C128.821783,48.812464 129.33333,48.6811244 129.861965,48.6064741 C130.025131,48.5716747 130.562035,48.458296 131.473227,48.274196 C132.040449,48.1608174 132.39324,48.0945863 132.538766,48.0771866 C132.775246,48.0423872 133.201352,48.0423872 133.811018,48.0771866 C134.421236,48.1164762 134.85561,48.1692366 135.108627,48.2433256 C135.637262,48.3746652 136.153219,48.6328543 136.655946,49.022383 C137.154263,49.4119116 137.579817,49.8671101 137.923788,50.3879784 C138.125541,50.7028568 138.344932,50.9436461 138.581413,51.1097852 C138.890656,51.2978141 139.268804,51.6345825 139.715856,52.1290706 C140.162357,52.6190685 140.467741,53.0130874 140.630907,53.3105661 C140.777536,53.590645 141.022285,54.0065539 141.370666,54.5622216 Z M167.13333,66.2936578 C167.159238,66.4513776 167.171917,66.5827173 167.171917,66.6831865 C167.171917,66.7881459 167.159238,66.8448353 167.13333,66.8667252 C167.107973,66.8841249 167.056157,66.8841249 166.983394,66.8667252 C166.854405,66.8448353 166.781091,66.7707462 166.764002,66.6438968 C166.708328,66.2891675 166.656511,66.2364072 166.600837,66.4777578 C166.583748,66.5518468 166.56225,66.652316 166.545162,66.7836557 C166.527522,67.116495 166.471847,67.3090142 166.381445,67.3657036 C166.308682,67.4223929 166.273954,67.5408231 166.273954,67.7288521 C166.273954,67.8955524 166.218279,67.9780606 166.106378,67.9780606 C165.998887,67.9780606 165.886986,67.8029411 165.780047,67.4487731 C165.689644,67.0990953 165.642238,66.8448353 165.642238,66.6960959 C165.642238,66.5518468 165.560655,66.4379069 165.397489,66.3638179 C165.251411,66.2891675 165.122422,66.0573587 165.014931,65.66783 C164.924529,65.409641 164.868854,65.0638922 164.851214,64.6395641 C164.829716,64.2107458 164.821448,63.2088601 164.821448,61.6333457 C164.804359,59.4061847 164.748684,57.3670526 164.658282,55.5075302 C164.550791,53.6912265 164.512204,52.177453 164.550791,50.9740675 L164.576148,49.110055 L164.412982,49.3289544 C164.340219,49.4428943 164.297222,49.7269023 164.288954,50.1776105 C164.280134,50.632809 164.284544,52.1117831 164.306042,54.6190232 C164.340219,57.8306703 164.395894,60.1066627 164.469208,61.449807 C164.542522,62.7974415 164.688048,64.5564946 164.90303,66.7269663 C164.941617,67.7462518 164.924529,68.2671201 164.851214,68.2845198 C164.739865,68.2845198 164.705688,68.3327899 164.739865,68.4248399 C164.779002,68.5163286 164.813179,68.6830289 164.851214,68.9238183 C164.868854,69.0545966 164.868854,69.1376661 164.851214,69.1775171 C164.829716,69.2123164 164.787271,69.2297161 164.713957,69.2297161 C164.606466,69.2297161 164.525434,69.1859363 164.481886,69.089396 C164.43448,68.9979073 164.348487,68.7004286 164.220049,68.2014502 L164.030975,67.4487731 L164.08665,68.1750701 L164.112558,68.9238183 L163.923484,68.8710579 C163.828672,68.8710579 163.764729,68.8182975 163.730001,68.7178283 C163.691414,68.6128689 163.648418,68.3193192 163.592192,67.8383018 C163.519429,67.1338947 163.420757,66.5035767 163.291217,65.947909 C163.055288,64.9460233 162.900391,63.7117674 162.827077,62.246264 C162.754865,61.169728 162.754865,59.6952441 162.827077,57.8177608 C162.883303,55.7219394 162.900391,54.422575 162.883303,53.9230353 L162.883303,52.8380801 L162.526653,54.2867451 C162.127007,55.8790979 161.748859,57.1610626 161.39221,58.12422 C161.035009,59.0913063 160.524014,60.2598923 159.849301,61.6333457 C159.775987,61.7820851 159.673457,61.9746043 159.548326,62.2153936 C159.093005,63.1650802 158.839437,63.7297284 158.796441,63.9132671 C158.749034,64.1012961 158.826759,64.2764156 159.028511,64.4425547 C159.084186,64.4818443 159.118914,64.5082245 159.136002,64.5261855 C159.445796,64.7883035 159.591323,64.9808227 159.574234,65.1121623 C159.50092,65.427602 159.27326,65.3793318 158.891253,64.9724035 C158.654773,64.7316141 158.525784,64.6221644 158.508696,64.6395641 C158.473968,64.6743635 158.414434,64.8803535 158.3323,65.2524824 C158.250717,65.6240501 158.207721,65.855859 158.207721,65.947909 C158.207721,66.0747584 158.33671,66.2891675 158.590278,66.5866462 C158.848257,66.8841249 158.972285,67.0901148 158.972285,67.1995645 C158.972285,67.4223929 158.817939,67.4049932 158.508696,67.1423139 C158.45247,67.0901148 158.401205,67.0328642 158.34553,66.9761749 C158.035735,66.6612965 157.889658,66.5608273 157.907297,66.6697157 C157.907297,66.6876767 157.915566,66.7269663 157.937064,66.7836557 C158.005417,66.9497947 157.924386,67.0990953 157.687906,67.2259447 C157.524189,67.3000337 157.417249,67.4661728 157.361023,67.7288521 C157.28826,67.9303518 157.214945,68.0790911 157.142182,68.1750701 C157.068868,68.2671201 156.995553,68.2845198 156.923342,68.2278304 C156.832388,68.1750701 156.850027,67.8775914 156.978465,67.3393234 C156.995553,67.2259447 156.995553,67.1731844 156.978465,67.1731844 C156.978465,67.190584 156.961377,67.2169642 156.923342,67.2562539 C156.867115,67.3309042 156.785533,67.3309042 156.67749,67.2562539 C156.604727,67.2169642 156.553462,67.212474 156.527554,67.2388542 C156.501646,67.2691633 156.466918,67.3657036 156.432742,67.5318426 C156.377067,67.7726319 156.359979,67.9870411 156.377067,68.1750701 C156.432742,68.4332591 156.385887,68.5516893 156.239258,68.5342896 C156.093732,68.5163286 155.98569,68.3675893 155.912926,68.0875103 C155.840163,67.8472822 155.702354,67.5144429 155.500051,67.0901148 C155.302708,66.6612965 155.173719,66.4468874 155.118044,66.4468874 C155.066228,66.4468874 154.881564,66.1931886 154.572321,65.6813008 C154.262527,65.1733419 154.117,64.889334 154.133537,64.8320833 C154.172124,64.7579943 153.936195,64.1933461 153.424648,63.1342098 C152.9346,62.1149244 152.260438,60.4737402 151.40051,58.2072895 C150.58413,56.0020184 150.171255,54.8598125 150.171255,54.7857235 C150.171255,54.7677625 150.167396,54.7503628 150.158576,54.7284729 C150.149757,54.7110732 150.145898,54.7110732 150.145898,54.7284729 C150.10676,54.7677625 150.145898,55.3891 150.253389,56.5969757 C150.455141,58.7281578 150.519636,60.4563405 150.446873,61.7736658 C150.407735,62.6442119 150.424823,63.3968891 150.498138,64.0266458 C150.609487,64.8629538 150.622717,65.6942102 150.541134,66.5299569 C150.459551,67.3657036 150.317332,67.8293213 150.11558,67.9213713 C149.952414,67.9780606 149.870831,67.9039716 149.870831,67.6979816 C149.870831,67.6064929 149.896188,67.4970432 149.952414,67.3657036 C150.025728,67.0901148 150.089672,66.836416 150.145898,66.6130264 C150.162986,66.4642871 150.162986,66.3722371 150.145898,66.3374377 C150.1244,66.298148 150.080852,66.2807483 150.00864,66.2807483 L149.814605,66.2807483 L149.870831,64.4425547 C149.88792,63.348619 149.8791,62.8502019 149.844923,62.9416906 C149.789248,63.2178406 149.729164,63.7600376 149.664669,64.5694041 C149.604033,65.3748416 149.569857,66.0483782 149.569857,66.5866462 C149.569857,67.2343639 149.53127,67.5975124 149.449687,67.6721627 C149.363694,67.7462518 149.324557,67.8209021 149.324557,67.8955524 C149.324557,68.0437304 149.234705,68.0701106 149.04949,67.9780606 C148.976727,67.9432612 148.916642,67.8865719 148.860967,67.8119216 C148.770565,67.6805819 148.72371,67.5228621 148.72371,67.3393234 C148.72371,67.1512944 148.676303,66.9851554 148.585901,66.836416 C148.513138,66.6876767 148.47841,66.6612965 148.47841,66.7527852 C148.47841,66.8100359 148.487229,66.9413755 148.504318,67.1423139 C148.520855,67.4796435 148.517547,67.6895624 148.491639,67.7855414 C148.465731,67.8775914 148.396827,67.9213713 148.284926,67.9213713 C148.195075,67.9213713 148.130029,67.8731011 148.095852,67.7681417 C148.057266,67.6676725 148.031357,67.4487731 148.013718,67.116495 C148.013718,66.8931054 148.010411,66.7836557 147.997181,66.7836557 C147.988912,66.7836557 147.975683,66.9497947 147.958594,67.282634 L147.958594,67.3393234 C147.941506,67.6721627 147.915598,67.8775914 147.88969,67.9522417 C147.863782,68.0263307 147.803697,68.0701106 147.713846,68.0875103 C147.584305,68.1094002 147.519811,68.1924698 147.519811,68.3412091 C147.519811,68.4686198 147.481775,68.5601085 147.395231,68.6038884 C147.313649,68.6521585 147.228207,68.6257783 147.137804,68.5342896 C147.06449,68.4815292 147.008264,68.2935002 146.974639,67.9780606 C146.935501,67.6631822 146.853918,67.4397926 146.729339,67.3090142 C146.617438,67.2169642 146.600349,67.1030243 146.673664,66.9632654 C146.746427,66.8229453 146.746427,66.486177 146.673664,65.947909 C146.600349,65.427602 146.583261,65.129562 146.617438,65.055473 C146.673664,64.9982224 146.754695,64.9724035 146.862738,64.9724035 C146.918412,64.9724035 146.961409,64.9370428 146.987317,64.8629538 C147.012674,64.7883035 147.017084,64.6569638 146.999995,64.4734251 C146.982907,64.2848348 146.95314,64.0485358 146.905734,63.7600376 C146.858328,63.4754683 146.780604,63.0994104 146.673664,62.6352314 C146.273467,60.797599 146.136209,59.480835 146.265198,58.6843779 C146.316463,58.4216986 146.363869,58.2555596 146.398597,58.1809093 C146.437184,58.1068203 146.488449,58.0624791 146.561763,58.0411504 C146.690752,58.0237508 146.746427,57.94012 146.729339,57.7919419 C146.690752,57.5685523 146.656576,57.1043733 146.617438,56.3999662 C146.600349,55.6955592 146.501127,54.4792643 146.316463,52.7550106 C146.062895,50.0069812 145.981312,48.5150976 146.071714,48.2743083 C146.12794,48.1429687 146.265198,48.0946985 146.48018,48.1339882 C146.754695,48.1693488 146.901324,48.1912388 146.918412,48.1912388 C147.081578,48.2086385 147.185211,48.3180882 147.219387,48.5235168 C147.257422,48.7295068 147.275062,49.3199739 147.275062,50.3044599 C147.275062,53.069889 147.330737,54.4528841 147.438228,54.4528841 C147.472956,54.4528841 147.519811,53.5907573 147.576037,51.8625746 C147.593125,50.2129712 147.619033,49.2284852 147.65762,48.9130455 C147.691796,48.7295068 147.726524,48.6200571 147.752432,48.5936769 C147.782199,48.5633678 147.842284,48.5543873 147.945365,48.5633678 C148.044036,48.5762772 148.108531,48.6065864 148.134439,48.663837 C148.164757,48.7165973 148.195075,48.8473757 148.229251,49.0533656 L148.284926,49.276194 C148.302014,48.8473757 148.413915,48.6329665 148.615667,48.6329665 C148.70607,48.6329665 148.753476,48.6593467 148.766706,48.7031266 C148.774975,48.7513967 148.770565,48.9130455 148.749066,49.1931245 C148.71489,49.5607632 148.727568,49.7487922 148.792063,49.7487922 C148.856557,49.7487922 148.869236,49.6657227 148.830649,49.4995836 C148.813561,49.3856437 148.813561,49.3154836 148.830649,49.2896647 C148.852148,49.2632846 148.895144,49.2453236 148.968458,49.2453236 C149.096896,49.2453236 149.161391,49.1538349 149.161391,48.9702961 C149.161391,48.7817059 149.213207,48.6767464 149.324557,48.6503662 C149.432599,48.6200571 149.505362,48.4584083 149.543948,48.1603683 C149.578125,47.8628897 149.625531,47.679351 149.681757,47.6047006 C149.755072,47.5306116 149.797517,47.4952509 149.814605,47.4952509 C149.870831,47.4952509 149.965093,47.5917912 150.10235,47.7843104 C150.240159,47.9813199 150.34324,48.1912388 150.416555,48.4146284 C150.472229,48.5235168 150.515777,48.6065864 150.541134,48.663837 C150.566491,48.7165973 150.592399,48.7598159 150.609487,48.7861961 C150.627127,48.8170665 150.644215,48.829976 150.665713,48.829976 C150.682802,48.829976 150.70871,48.8215568 150.747296,48.8035958 C150.820059,48.7295068 150.902193,48.7076168 150.992596,48.7469065 C151.082447,48.7817059 151.129854,48.8473757 151.129854,48.9394257 L151.155762,49.0533656 C151.194348,49.0135147 151.18167,48.8563562 151.129854,48.5807675 C151.000865,48.0424994 151.048271,47.771401 151.267663,47.771401 C151.374602,47.771401 151.465005,47.9588686 151.538319,48.3270687 C151.649669,48.9613156 152.010728,50.1119407 152.633625,51.7795051 C153.252663,53.4509984 153.871149,54.9513012 154.490187,56.2905165 C154.911331,57.1790236 155.247034,57.9754806 155.500051,58.6843779 C155.64668,59.0739066 155.818665,59.4847639 156.007188,59.9225627 C156.200671,60.3558713 156.368798,60.7100393 156.514325,60.9772088 C156.660953,61.2483073 156.741985,61.3706664 156.759625,61.3532667 C156.815299,61.2965774 156.914522,61.0120082 157.060599,60.4917012 C157.240853,59.8613831 157.40457,59.296735 157.550097,58.7938276 C157.769488,58.1635096 158.035735,57.1526434 158.34553,55.761229 C158.891253,53.2932786 159.419888,51.5864246 159.931435,50.6372992 C160.128777,50.2477706 160.274855,49.998562 160.369116,49.8891123 C160.46007,49.7751724 160.549922,49.740373 160.640324,49.7751724 C160.824988,49.8498227 160.811759,50.0462709 160.614416,50.3617105 C160.33935,50.7512392 160.055463,51.3243066 159.767718,52.0859642 C159.656368,52.3828816 159.483832,52.9868195 159.247352,53.8972164 C159.011423,54.8031232 158.899522,55.2667409 158.921571,55.2886308 C158.938659,55.3060305 159.011423,55.1617814 159.136002,54.8553223 C159.264991,54.5494244 159.411069,54.1857146 159.574234,53.770367 C159.7374,53.3544582 159.875209,53.0042192 159.986559,52.7247015 C160.240127,52.0023334 160.395024,51.5650959 160.45125,51.4163566 C160.721907,50.6372992 160.941299,49.7095026 161.103914,48.6329665 C161.177228,48.2260382 161.258811,48.0032098 161.353623,47.9678491 C161.495291,47.8937601 161.581284,47.9678491 161.598372,48.1912388 C161.598372,48.3180882 161.568054,48.549897 161.516789,48.8866653 L161.461114,49.6090333 C161.495291,49.5736727 161.607192,49.3199739 161.787446,48.8563562 C161.955022,48.4494278 162.105509,48.1429687 162.238908,47.93754 C162.376166,47.7360403 162.501296,47.6529708 162.608236,47.6877702 C162.771953,47.7624205 162.728957,48.011629 162.470978,48.4404473 C162.307261,48.7165973 162.20859,48.922026 162.170004,49.0533656 C162.152915,49.1628153 162.157325,49.2284852 162.187092,49.2453236 C162.213,49.2677748 162.32435,49.276194 162.526653,49.276194 C162.707458,49.276194 162.827077,49.2587943 162.883303,49.2195047 C162.939529,49.1847053 162.999613,49.0707653 163.072376,48.8866653 C163.236093,48.549897 163.373351,48.4494278 163.485252,48.5807675 C163.519429,48.6329665 163.537068,48.7165973 163.537068,48.829976 C163.537068,48.9787153 163.566284,49.0707653 163.62251,49.110055 C163.674326,49.1628153 163.687004,49.2413946 163.661096,49.3463541 C163.635188,49.4468233 163.583923,49.5433635 163.51116,49.6348522 C163.38162,49.7313925 163.321535,49.8498227 163.321535,49.998562 C163.321535,50.2213904 163.403118,50.1731203 163.566284,49.8582419 C163.691414,49.5607632 163.764729,49.3025742 163.786227,49.0797458 C163.786227,48.9130455 163.798905,48.8035958 163.824262,48.7469065 C163.85458,48.6902172 163.910255,48.6548565 164.005067,48.6329665 C164.129647,48.6155668 164.194141,48.6464373 164.194141,48.7165973 C164.194141,48.7906864 164.224459,48.7996668 164.288954,48.7334357 C164.352897,48.6683272 164.43448,48.6329665 164.538112,48.6329665 C164.636784,48.6329665 164.688048,48.6020961 164.688048,48.5369876 C164.688048,48.4713178 164.761363,48.4404473 164.90303,48.4404473 C165.049659,48.4404473 165.122422,48.479737 165.122422,48.5633678 C165.122422,48.6503662 165.186917,48.6902172 165.315906,48.6902172 C165.405757,48.6722562 165.466393,48.6986364 165.49175,48.7732867 C165.522068,48.8473757 165.552386,49.0617848 165.590421,49.4120239 C165.625149,49.8408422 165.672556,50.5194303 165.72382,51.4466657 L165.780047,52.7550106 L165.805955,51.0268279 C165.805955,49.8582419 165.835721,49.2369044 165.886986,49.1628153 C165.926124,49.110055 166.055113,49.0707653 166.273954,49.0533656 L166.626193,49.0224952 L166.600837,49.6921029 L166.545162,50.3617105 L166.78991,50.3044599 L167.039069,50.2477706 L166.983394,53.0305993 C166.944256,54.684693 166.89244,56.5009967 166.820228,58.4873685 C166.690688,61.9964942 166.746914,64.3594852 166.983394,65.5847605 C167.056157,65.8996389 167.107973,66.135938 167.13333,66.2936578 Z M176.71265,58.2948492 C176.660834,58.3470483 176.729739,59.1261057 176.931491,60.63146 C177.133794,62.1323241 177.29696,63.1342098 177.425949,63.6376784 C177.477765,63.8386168 178.027899,64.0266458 179.063671,64.1933461 C179.664518,64.3027958 180.421364,64.2416162 181.332557,63.9963367 C182.372739,63.7207479 183.257472,63.3968891 183.98345,63.0247601 C184.185753,62.9113814 184.327421,62.8148412 184.409555,62.7317717 C184.490587,62.6487022 184.585399,62.4864921 184.696749,62.246264 C184.967957,61.5766564 185.023632,61.0383884 184.860466,60.63146 C184.787152,60.4080704 184.641625,60.1588618 184.422234,59.8787828 C184.202842,59.5987039 184.022588,59.4235843 183.87651,59.3494953 C183.493953,59.1479956 182.436682,58.9902758 180.7047,58.8768971 C178.990356,58.7455575 177.816775,58.5878377 177.176791,58.4042989 C176.866996,58.3122489 176.71265,58.2729593 176.71265,58.2948492 Z M188.577449,60.0449219 C188.942918,60.7886185 189.110494,61.3931177 189.080727,61.8567354 C189.054819,62.3203531 188.813929,62.8412214 188.358608,63.4142888 C188.122128,63.6943677 187.782567,64.0137364 187.348744,64.3729559 C186.910512,64.7361044 186.600717,64.9460233 186.416605,64.9982224 C186.325651,65.0380733 186.226979,65.1694129 186.11563,65.3922413 C185.990499,65.5931797 185.775517,65.8300401 185.475094,66.1011386 C185.17467,66.3677468 184.878106,66.5866462 184.585399,66.7527852 C183.911238,67.1075145 183.103126,67.3393234 182.152796,67.4487731 C181.078989,67.562713 179.828235,67.5144429 178.409905,67.3090142 C178.134838,67.2736536 177.65802,67.1642039 176.975038,66.9761749 C176.290955,66.7926362 175.88304,66.6697157 175.759012,66.6130264 C175.719875,66.5956267 175.693967,66.5866462 175.676878,66.5866462 C175.621203,66.5692465 175.603564,66.7527852 175.621203,67.1423139 C175.638292,67.7726319 175.547889,68.0875103 175.346137,68.0875103 C175.272822,68.0875103 175.208328,68.0437304 175.157063,67.9522417 C175.100837,67.8383018 175.027522,67.5408231 174.937671,67.0592444 C174.864357,66.5608273 174.782774,66.2627874 174.692922,66.1712986 L174.636696,66.1404282 C174.59811,66.1623182 174.581022,66.3374377 174.581022,66.6697157 C174.59811,67.0766441 174.563933,67.3000337 174.473531,67.3393234 C174.379269,67.3746841 174.310365,67.3701938 174.254139,67.3264139 C174.198464,67.2781438 174.133969,67.0547542 174.060655,66.6568063 C173.987892,66.2582971 173.953715,65.8648395 173.953715,65.4753108 L173.89804,64.9151529 L173.760231,65.8648395 C173.687468,66.4379069 173.640062,66.7836557 173.609744,66.8931054 C173.583836,67.0025551 173.523751,67.0592444 173.4339,67.0592444 C173.325858,67.0592444 173.270183,67.190584 173.270183,67.4487731 C173.287271,67.6373633 173.287271,67.750742 173.270183,67.7990121 C173.253095,67.842792 173.214508,67.8691722 173.158833,67.8691722 C173.050791,67.8691722 172.96094,67.7855414 172.888177,67.6149121 C172.814862,67.3746841 172.754226,66.2936578 172.707371,64.3729559 C172.664375,62.4516927 172.659965,60.7801993 172.694693,59.3494953 C172.694693,58.9992563 172.699103,58.6316175 172.707371,58.2510694 C172.72005,57.8705212 172.728318,57.5550815 172.737138,57.305873 C172.745958,57.0521742 172.750368,56.8332748 172.750368,56.6362653 L172.750368,56.3168967 C172.732728,54.9995714 172.806042,53.1529585 172.969208,50.7770581 C173.059611,49.1448544 173.124105,48.2653278 173.158833,48.1339882 C173.180331,48.0424994 173.239865,48.0032098 173.351766,48.0206095 C173.42508,48.0424994 173.480755,48.0817891 173.514932,48.1474589 C173.554069,48.2131287 173.579426,48.3663583 173.597066,48.6065864 C173.652741,48.9613156 173.726055,49.2453236 173.815906,49.4687132 L173.89804,49.6348522 C173.89804,49.5433635 173.906309,49.4776937 173.927807,49.4428943 C173.962535,49.3508443 173.970804,49.2587943 173.953715,49.1622541 C173.953715,49.0707653 173.987892,48.9871345 174.060655,48.9130455 C174.133969,48.8563562 174.142789,48.6812367 174.090973,48.383758 C174.052386,48.0688796 174.060655,47.8847796 174.116881,47.8280903 C174.190195,47.75344 174.271227,47.7450208 174.36163,47.8017101 C174.434944,47.8763604 174.48235,47.9942293 174.498887,48.1603683 C174.516527,48.2569086 174.555113,48.3483973 174.610788,48.4404473 C174.735919,48.6065864 174.799862,48.6065864 174.799862,48.4404473 C174.799862,48.3483973 174.847268,48.2743083 174.937671,48.2170577 C175.010434,48.1603683 175.092568,48.1429687 175.182971,48.1603683 C175.272822,48.2002193 175.320229,48.291708 175.320229,48.4404473 C175.320229,48.5150976 175.346137,48.5588775 175.401812,48.5807675 C175.458038,48.5981671 175.621203,48.6065864 175.89186,48.6065864 C176.149839,48.5891867 176.321273,48.5807675 176.411675,48.5807675 C176.450262,48.5588775 176.47617,48.549897 176.49381,48.549897 C176.548933,48.5324973 176.566022,48.4668275 176.548933,48.3573778 C176.548933,48.2832888 176.566022,48.2260382 176.605159,48.1912388 C176.639336,48.1693488 176.70383,48.1519491 176.793682,48.1339882 C176.961809,48.1165885 177.077568,48.0772988 177.150883,48.0206095 C177.206557,47.9678491 177.288692,47.93754 177.395631,47.93754 C177.507532,47.9588686 177.589115,48.0032098 177.64479,48.0772988 C177.713694,48.1519491 178.573071,48.2350187 180.210792,48.3270687 C181.852372,48.4230476 183.411818,48.4668275 184.886374,48.4668275 C186.10681,48.4668275 186.871925,48.4887174 187.181169,48.5235168 C187.490412,48.5588775 187.649719,48.663837 187.649719,48.829976 C187.649719,48.9613156 187.683896,49.0354047 187.756659,49.0533656 C187.847061,49.088165 187.886199,49.1448544 187.86415,49.2195047 C187.847061,49.3115547 187.782567,49.3766632 187.675627,49.4120239 C187.417649,49.5080029 186.042315,49.626433 183.545769,49.7751724 C181.890959,49.8891123 180.284107,49.8975315 178.736788,49.8054815 L177.77874,49.718483 L177.833864,50.0243809 C177.87245,50.2129712 177.898358,50.3134404 177.915998,50.3308401 C177.954584,50.3701297 178.014669,50.3617105 178.10893,50.3044599 C178.199333,50.2477706 178.418725,50.2567511 178.762696,50.3308401 C179.127614,50.3880907 179.711924,50.3791102 180.511767,50.3044599 C181.349645,50.2303709 182.59158,50.2039907 184.22875,50.2213904 C185.98168,50.2213904 186.910512,50.2129712 187.017452,50.1950102 C187.146992,50.1731203 187.228575,50.1731203 187.26661,50.1950102 C187.301338,50.2303709 187.327246,50.2870602 187.348744,50.3617105 C187.348744,50.4357995 187.335515,50.4795794 187.318426,50.5014694 C187.301338,50.53683 187.245112,50.5536684 187.15526,50.5536684 C187.064858,50.5536684 187.000363,50.5626489 186.966738,50.5845389 C186.944688,50.6019386 186.944688,50.6372992 186.966738,50.6939886 L187.017452,50.8601276 C187.017452,50.8999785 187.099586,50.9173782 187.26661,50.9173782 C187.430327,50.9173782 187.546087,50.9431971 187.619401,51.0004477 C187.692715,51.0571371 187.701535,51.1317874 187.649719,51.2232761 C187.593493,51.3153261 187.40056,51.3635962 187.073678,51.3635962 C186.746795,51.3461965 186.553862,51.3546157 186.497636,51.3899764 C186.407785,51.4466657 185.779927,51.4904456 184.615717,51.5297353 C183.429458,51.5650959 182.518265,51.5650959 181.878281,51.5297353 C181.478635,51.5123356 180.7047,51.521316 179.557578,51.5561154 L177.859772,51.639185 C177.404451,51.5650959 177.068749,51.521316 176.849908,51.5033551 C176.83282,51.9102834 176.793682,52.3261923 176.742968,52.7550106 C176.686742,53.5907573 176.639336,54.312564 176.605159,54.9254823 L176.548933,55.6472891 L179.282511,55.6209089 C181.104897,55.6209089 182.243199,55.6781595 182.698519,55.7876092 C183.975181,56.0850879 185.135533,56.6143754 186.184534,57.376033 C187.232433,58.1371294 188.031725,59.0256365 188.577449,60.0449219 Z M198.389004,52.921318 C198.298602,53.1621074 198.152524,53.5252558 197.95463,54.0068345 C197.679564,54.6758809 197.288738,55.7221078 196.777191,57.1528118 C196.231468,58.6755658 195.85773,59.6555616 195.655426,60.1017796 L195.384769,60.7146979 L195.767327,60.6574473 C196.055623,60.6226479 197.086985,60.600758 198.853145,60.600758 C200.623714,60.6226479 201.504038,60.5962677 201.504038,60.5350881 C201.504038,60.4694183 201.323783,60.0450903 200.958865,59.2660329 C200.047673,57.2448618 199.37296,55.5554075 198.939138,54.2032827 C198.681159,53.4202964 198.53894,52.9740784 198.513584,52.851158 C198.487675,52.733289 198.444679,52.755179 198.389004,52.921318 Z M207.847659,65.8077573 C208.049411,66.0311469 208.161312,66.1798862 208.191079,66.2539753 C208.216987,66.3286256 208.204308,66.3898051 208.148082,66.4470558 C208.075319,66.5211448 207.959008,66.5121643 207.791984,66.4206756 C207.645355,66.3067356 207.456281,66.0968167 207.220352,65.7819383 C206.983872,65.4664987 206.854332,65.3525588 206.837244,65.4446088 C206.816297,65.5366588 206.76448,65.5933481 206.674078,65.6107478 C206.65258,65.6107478 206.644311,65.637128 206.644311,65.6809079 C206.644311,65.729178 206.661399,65.8038283 206.699986,65.9042975 C206.734714,66.009257 206.78212,66.1316161 206.837244,66.2803554 C206.88906,66.4290948 206.962374,66.6261042 207.057187,66.8668936 C207.439193,67.7946903 207.546684,68.2672884 207.382967,68.2846881 C207.344932,68.2846881 207.310755,68.2757077 207.276027,68.258308 C207.181215,68.236418 206.88024,67.6066613 206.373103,66.363425 C206.060001,65.5849289 205.82738,65.0118615 205.673034,64.6397325 C205.518688,64.2676035 205.376469,63.9572154 205.251889,63.7074456 C205.1229,63.4537468 205.033049,63.3094977 204.976823,63.2612276 C204.921148,63.2129575 204.860512,63.1910675 204.787749,63.1910675 C204.732074,63.1910675 204.689078,63.200048 204.66317,63.2174477 C204.637262,63.2393376 204.624583,63.2567373 204.624583,63.274137 C204.641671,63.292098 204.684668,63.3925672 204.757982,63.5676867 C204.830745,63.7428063 204.946505,64.0094145 205.101402,64.3596535 C205.256299,64.7138215 205.397967,65.0292612 205.522546,65.3048499 C206.106856,66.6261042 206.381923,67.3220921 206.343336,67.3922521 C206.253485,67.6150805 206.098036,67.5404302 205.879196,67.1733527 C205.844468,67.1166634 205.806433,67.0504323 205.772256,66.9763433 L205.552864,66.5868146 C205.587041,66.7181542 205.70721,67.0156329 205.905104,67.4792506 C206.292071,68.350358 206.360425,68.7881568 206.123944,68.7881568 C205.999916,68.7657055 205.883606,68.6130372 205.784934,68.328468 C205.681302,68.0399698 205.561684,67.8205092 205.415055,67.6717698 C205.308116,67.5623201 205.139989,67.3394918 204.921148,67.0027235 C204.723254,66.6872838 204.577177,66.5301253 204.487325,66.5301253 C204.392513,66.5301253 204.29329,66.4032759 204.186351,66.1405966 L203.992867,65.8341374 C203.975779,65.8560274 204.031454,66.0659463 204.156033,66.4773649 C204.267934,66.8276039 204.323608,67.0594128 204.323608,67.1733527 C204.323608,67.2822412 204.267934,67.3394918 204.156033,67.3394918 C204.048542,67.3394918 203.949871,67.2255518 203.855058,67.0027235 C203.765207,66.7619341 203.567313,65.9654771 203.25366,64.6088621 C203.163257,64.1671343 203.089943,63.926345 203.038678,63.8870553 C203.000091,63.8696557 202.527131,63.7860249 201.615938,63.6372855 C200.829876,63.5059459 200.168393,63.388077 199.622119,63.274137 C199.162388,63.1826483 198.509174,63.1646873 197.654207,63.2174477 C196.777191,63.292098 195.930493,63.3751675 195.110254,63.4711465 L193.880447,63.6372855 L193.550257,64.3332734 C193.403628,64.6661127 193.244872,65.0859505 193.072887,65.5849289 C192.900901,66.0878362 192.815459,66.4032759 192.815459,66.5301253 C192.815459,66.6261042 192.763643,66.6788646 192.664421,66.6962643 C192.561891,66.7181542 192.484167,66.6872838 192.432351,66.6131948 C192.303913,66.4470558 192.183192,66.5385445 192.075701,66.8932738 C192.059164,66.9499631 192.050344,67.0027235 192.050344,67.0594128 C191.938443,67.4663412 191.856309,67.7335107 191.801186,67.8513796 C191.74937,67.9737387 191.684875,68.0354796 191.611561,68.0354796 C191.500211,68.0354796 191.400989,67.9434296 191.310586,67.7554006 C191.255462,67.624061 191.242233,67.4972116 191.268141,67.3658719 C191.298459,67.2345323 191.409808,66.8932738 191.611561,66.3376061 C191.903716,65.5366588 192.230598,64.722802 192.595516,63.8870553 C192.922399,63.1253977 193.26196,62.2722513 193.60538,61.3270549 L194.125747,59.8789512 L194.151655,59.7695015 C194.10039,59.8043009 193.812094,60.3992583 193.292278,61.5504446 C192.772463,62.7010696 192.350768,63.6726462 192.020026,64.4735935 C191.602741,65.4754792 191.336494,66.0878362 191.229554,66.3067356 C191.117653,66.5301253 191.027802,66.6435039 190.954488,66.6435039 C190.735096,66.6435039 190.765414,66.2983164 191.03607,65.6107478 C191.255462,65.0943697 191.559744,64.3024029 191.951122,63.2477568 C192.341948,62.1891818 192.540393,61.6424946 192.540393,61.6026437 C192.522753,61.4365046 192.109878,62.3946105 191.310586,64.4735935 C190.984254,65.3615392 190.752184,66.0002765 190.627605,66.3898051 C190.499167,66.8186235 190.404354,67.0987024 190.339308,67.2255518 C190.275365,67.3568915 190.206461,67.4225613 190.133146,67.4225613 C190.026207,67.4225613 189.961712,67.3703622 189.944624,67.2693317 C189.926984,67.1688625 189.961712,66.9763433 190.051563,66.6962643 C190.180553,66.363425 190.198192,66.1972859 190.107789,66.1972859 C189.888398,66.1972859 190.060383,65.5849289 190.627605,64.3596535 C190.752184,64.0840648 190.91976,63.738316 191.117653,63.3313876 C191.555886,62.4389516 192.066881,61.1300455 192.651742,59.406353 C194.473577,54.1724123 195.655426,51.4378536 196.20115,51.1970643 C196.33069,51.140375 196.532442,50.764317 196.803099,50.0683292 C197.078166,49.3723414 197.271649,48.9962834 197.37914,48.9395941 C197.48608,48.8868337 197.606801,48.7644746 197.735239,48.5809358 C197.860369,48.3923456 197.924313,48.2436062 197.924313,48.1341565 C197.924313,48.0600675 197.988807,48.0291971 198.118348,48.0381776 C198.242376,48.0465968 198.31569,48.1605367 198.337188,48.3839264 C198.354828,48.6067547 198.419322,48.7162044 198.526262,48.7162044 C198.638163,48.7162044 198.762742,48.8649438 198.90882,49.1624224 L199.15412,49.6092017 L199.291377,49.3291228 C199.403278,49.1450227 199.454543,48.9395941 199.454543,48.7162044 C199.454543,48.5326657 199.519038,48.4406157 199.648027,48.4406157 C199.777016,48.4406157 199.84592,48.5062855 199.867419,48.6331349 C199.901595,48.7470749 199.957821,48.7908547 200.030584,48.7728938 C200.138075,48.7380944 200.249425,48.8127447 200.356916,48.9962834 C200.468817,49.1843124 200.640802,49.6002212 200.877282,50.247939 L201.070215,50.6677768 C201.070215,50.5757268 200.975954,50.2389585 200.795148,49.6658911 C200.593396,49.0709337 200.533311,48.7380944 200.606074,48.6640054 C200.730654,48.497305 200.859643,48.5809358 200.988632,48.9132139 C201.079035,49.1186426 201.195346,49.4599011 201.340872,49.9414798 C204.039722,58.6845463 206.206079,63.9701249 207.847659,65.8077573 Z M213.87691,55.4810378 C213.722013,56.9863921 213.670748,57.7654495 213.726423,57.8176486 C213.743511,57.8395385 213.898408,57.8002489 214.190563,57.7081989 C214.826689,57.5246601 216.004129,57.3669403 217.714613,57.2356007 C219.446596,57.122222 220.495047,56.9645022 220.859965,56.7630025 C221.006593,56.6889134 221.182438,56.5093037 221.39301,56.233715 C221.599723,55.953636 221.741391,55.7044274 221.814154,55.4810378 C221.960231,55.0741094 221.878648,54.5358414 221.569405,53.866795 C221.461914,53.6260057 221.362692,53.4637956 221.28166,53.3807261 C221.199526,53.2976566 221.04959,53.2011164 220.830198,53.0877377 C220.103669,52.7156087 219.210116,52.3917499 218.152846,52.1116709 C217.241653,51.8708815 216.485358,51.809702 215.883959,51.9191517 C214.843778,52.085852 214.306323,52.273881 214.272146,52.4753807 C214.160796,52.978288 214.031256,53.9801737 213.87691,55.4810378 Z M225.204805,52.698209 C225.677765,53.2757667 225.939602,53.7921447 225.982599,54.2557624 C226.030005,54.7199414 225.879518,55.3238792 225.531688,56.0675759 C225.024551,57.0868613 224.259436,57.9753684 223.236342,58.7364647 C222.21821,59.4981224 221.079357,60.0274099 219.820334,60.3248886 C219.364462,60.4343383 218.22616,60.4915889 216.403775,60.4915889 L213.670748,60.4652087 L213.75178,61.1870155 C213.808006,61.7999338 213.88132,62.5217405 213.971171,63.3574872 C214.095751,64.3593729 214.160796,65.3045693 214.160796,66.1975666 L214.190563,67.5317303 L213.945815,67.5626008 C213.816825,67.5800005 213.701066,67.5272401 213.601843,67.4093712 C213.502621,67.287012 213.395681,67.0591322 213.28819,66.7268541 L213.150933,66.2542559 L213.125024,66.5870952 C213.103526,66.7358346 213.077618,66.8318135 213.04289,66.8800837 C213.004304,66.9238635 212.94036,66.9502437 212.849958,66.9502437 L212.630566,66.9502437 L212.574891,65.6677178 C212.557252,64.9807104 212.540163,63.9131549 212.523075,62.4689801 C212.523075,61.6158338 212.514255,61.082056 212.492757,60.8676468 C212.475669,60.6532377 212.437633,60.5482782 212.372588,60.5482782 C212.308093,60.5482782 212.269507,60.5965484 212.260687,60.7015078 C212.252418,60.801977 212.265097,61.0556758 212.303683,61.4670944 C212.411725,63.8609558 212.441492,65.3792196 212.385817,66.0308663 C212.347231,66.3811053 212.316913,66.5955144 212.291005,66.6701648 C212.260687,66.7442538 212.158157,66.8363038 211.977352,66.9502437 C211.775048,67.0770931 211.629522,67.120873 211.539119,67.0726029 C211.448717,67.028823 211.384773,66.8929931 211.345635,66.6701648 L211.293819,66.3373254 L211.156562,66.6437846 C211.0623,66.8671742 211.001664,67.1511822 210.963078,67.5059114 C210.94599,67.7467008 210.924491,67.8993691 210.894725,67.9650389 C210.868817,68.0307087 210.817,68.0699983 210.743686,68.087398 C210.636746,68.1098493 210.563432,68.0699983 210.524845,67.9785096 C210.490118,67.84717 210.400266,66.9676434 210.254189,65.3354397 C210.017708,62.9595393 209.880451,61.1129264 209.841864,59.7956011 C209.841864,59.7782014 209.837454,59.6687517 209.828635,59.4762325 C209.820366,59.279223 209.807136,59.0563946 209.790048,58.8066248 C209.76855,58.5574163 209.751462,58.2419766 209.733822,57.8614284 C209.716734,57.4808802 209.695236,57.1132415 209.678147,56.7630025 C209.588296,55.3322985 209.53207,53.6563148 209.514981,51.7395419 C209.497893,49.81884 209.523801,48.7378137 209.596564,48.4975857 C209.652239,48.3269564 209.733822,48.2433256 209.841864,48.2433256 C209.896988,48.2433256 209.936126,48.2697058 209.953214,48.3134857 C209.970302,48.3617558 209.979122,48.4756957 209.979122,48.6637247 C209.979122,48.9219137 210.034797,49.0532534 210.142839,49.0532534 C210.236549,49.0532534 210.297185,49.1099427 210.335772,49.2193924 C210.370499,49.3288421 210.434443,49.6745909 210.524845,50.2476583 L210.692421,51.1973449 L210.718329,50.637187 C210.718329,50.2476583 210.743686,49.8542007 210.799912,49.4556915 C210.856138,49.0577436 210.907403,48.834354 210.963078,48.7860839 C211.018753,48.742304 211.092067,48.7378137 211.181918,48.7731744 C211.272321,48.812464 211.319727,49.0358537 211.319727,49.4427821 C211.319727,49.7750601 211.337367,49.9546699 211.375953,49.9720696 L211.427218,49.9411992 C211.517621,49.8497104 211.590935,49.5522318 211.64661,49.0532534 C211.719373,48.5716747 211.783868,48.274196 211.840094,48.1608174 C211.891359,48.0687674 211.955853,48.0204972 212.028617,48.0204972 C212.23092,48.0204972 212.329591,48.3398659 212.329591,48.9701839 C212.329591,49.3597125 212.359909,49.5432513 212.411725,49.5258516 C212.428814,49.5258516 212.45858,49.5168711 212.492757,49.4994714 C212.622297,49.4427821 213.021392,49.3198616 213.696656,49.1363229 C214.370817,48.9527842 214.843778,48.8388442 215.118844,48.8040448 C216.541032,48.5980549 217.787928,48.5497848 218.861735,48.6637247 C219.812065,48.7731744 220.632304,49.0049833 221.324656,49.3597125 C221.61626,49.5258516 221.917235,49.744751 222.226478,50.0113592 C222.536273,50.2824577 222.755113,50.5193181 222.880244,50.7202565 C223.008682,50.9436461 223.121134,51.0744245 223.210985,51.1097852 C223.391239,51.1664745 223.704892,51.3769547 224.152496,51.7395419 C224.598997,52.0987614 224.951236,52.41813 225.204805,52.698209 Z M233.460332,54.5621093 C233.460332,54.6541593 233.137859,55.7088054 232.489055,57.7215573 C231.84025,59.7343092 231.410286,61.0471444 231.191446,61.6600627 C230.770302,62.7534371 230.353016,63.7205234 229.932423,64.5562701 C230.881651,64.5562701 232.291712,64.5388704 234.169221,64.4995808 C235.536286,64.4821811 236.721994,64.4513106 237.723038,64.4165113 C237.487109,63.8956429 237.194403,63.2569057 236.850983,62.4952481 C235.793713,60.176037 234.908429,58.0499064 234.199539,56.1196628 C233.924473,55.415817 233.730989,54.951638 233.623498,54.7282484 C233.516558,54.4880203 233.460332,54.4352599 233.460332,54.5621093 Z M243.791042,67.5316181 C243.976257,67.553508 244.092016,67.571469 244.148242,67.5888687 C244.182419,67.6236681 244.203917,67.6809187 244.203917,67.7550077 C244.203917,67.829658 244.148242,67.8779282 244.036341,67.8953279 C243.985077,67.8953279 243.890264,67.9043083 243.765133,67.9211468 L243.684102,68.7002041 C243.391947,70.5950871 243.181375,71.5795731 243.051834,71.6542234 C243.017658,71.6710618 242.970803,71.6710618 242.918987,71.6542234 C242.824174,71.6143725 242.798266,71.3915442 242.837404,70.9846158 L242.888669,70.3716975 L242.700146,70.7045368 C242.497842,71.1507548 242.325857,71.3079134 242.179779,71.181064 C242.124105,71.1423356 242.084967,71.1378454 242.0552,71.1636643 C242.029292,71.1945347 241.994564,71.273114 241.960939,71.4005246 C241.904713,71.6059533 241.797222,71.8770518 241.634056,72.2093299 C241.560742,72.3934299 241.496247,72.515789 241.441124,72.5730396 C241.384897,72.6252387 241.311583,72.6561091 241.22118,72.6561091 C241.097152,72.6561091 240.99793,72.5859491 240.937845,72.4461902 C240.873351,72.3058701 240.813266,72.0437521 240.75704,71.6542234 L240.701916,71.3168938 L240.676008,71.3477643 C240.676008,71.4746137 240.602694,71.5402835 240.456065,71.5402835 L240.237225,71.5402835 L240.293451,70.3716975 C240.327627,69.5758017 240.357945,68.8489434 240.375034,68.2012257 C239.755996,68.2365864 238.926386,68.275876 237.886755,68.3106754 C236.210447,68.367926 235.102464,68.4246154 234.551779,68.4813047 C231.474781,68.7748544 228.922559,68.8315437 226.898422,68.648005 C226.790379,68.6261151 226.67903,68.6171346 226.571539,68.6171346 L226.571539,68.6743852 C226.554451,69.3434316 226.524133,69.7110703 226.489405,69.7857206 C226.434281,69.8598096 226.408373,70.3150081 226.408373,71.1507548 C226.425461,72.1352408 226.343879,72.6252387 226.163624,72.6252387 C226.142126,72.6252387 226.116218,72.6168195 226.07708,72.5988585 C225.969589,72.5814588 225.914466,72.53375 225.914466,72.4590997 C225.914466,72.3844494 225.84942,72.34965 225.724841,72.34965 C225.652078,72.34965 225.600261,72.3232698 225.574353,72.2794899 C225.544587,72.2312198 225.514269,72.1262603 225.479541,71.9601213 C225.440954,71.715403 225.351103,71.3258743 225.204474,70.7876063 L225.011542,70.2055584 L225.011542,70.4856374 C225.157619,71.9472119 225.213294,72.7301982 225.179117,72.8222482 C225.157619,72.8968985 225.084856,72.9227174 224.959726,72.9053177 C224.831288,72.887918 224.757973,72.7655588 224.740885,72.5421692 L224.684659,72.183511 L224.659302,72.5421692 C224.620716,72.7655588 224.538581,72.887918 224.409592,72.9053177 C224.319741,72.9227174 224.255246,72.8789375 224.220518,72.7655588 C224.181932,72.6561091 224.130667,72.275561 224.057353,71.623353 L224.001678,71.0676853 L223.945452,71.623353 C223.838512,72.6252387 223.665975,73.0804372 223.430046,72.9883872 C223.390909,72.9709875 223.357283,72.9406784 223.318697,72.9053177 C223.210654,72.813829 223.134033,72.4809896 223.086626,71.9163414 C223.03922,71.3522545 223.03481,70.712956 223.073397,70.008549 L223.262471,68.0878471 C223.447135,66.941151 223.593763,66.122804 223.700703,65.6417866 C223.700703,65.5497366 223.653297,65.4531964 223.563445,65.3617076 C223.473043,65.2696576 223.430046,65.1602079 223.430046,65.0288683 C223.408548,64.8980899 223.438315,64.8234396 223.511629,64.8054786 C223.528717,64.7886402 223.593763,64.7577698 223.700703,64.7229704 C223.791106,64.7050094 223.937183,64.6573006 224.139487,64.5826503 C224.319741,64.525961 224.482907,64.4821811 224.628984,64.4428914 C225.067216,64.3154808 225.368191,64.2324112 225.531357,64.1931216 C225.587583,64.1583222 225.652078,64.1364323 225.724841,64.1364323 C225.84942,64.1364323 225.952501,64.2021021 226.025815,64.3334417 C226.042904,64.408092 226.068812,64.5085613 226.107398,64.6399009 C226.287652,64.6573006 226.489405,64.6573006 226.708797,64.6399009 C226.90669,63.8956429 227.155849,63.0250969 227.448555,62.0226499 C228.522362,58.3294241 229.214714,56.0764442 229.523406,55.2580972 C229.759887,54.6103795 229.914784,54.1158913 229.988098,53.783052 C230.07795,53.4333742 230.340338,52.5886471 230.765892,51.249993 C231.195856,49.915268 231.436194,49.1934613 231.492421,49.0795213 C231.565184,48.9526719 231.655586,48.8954213 231.767487,48.9133823 C231.874427,48.930782 231.947741,49.0138515 231.981918,49.1625908 C232.021056,49.3113302 231.973649,49.4993591 231.848519,49.7182585 C231.793395,49.8321985 231.711261,50.0118082 231.59936,50.2610168 C231.492421,50.5147156 231.405876,50.7465244 231.341382,50.9609336 C231.277439,51.1708525 231.25594,51.2803022 231.273029,51.2803022 C231.307205,51.2803022 231.402018,51.1315629 231.547544,50.8340842 C231.694173,50.5366055 231.818201,50.3878662 231.930653,50.3878662 C232.021056,50.3878662 232.076179,50.4136851 232.093819,50.4709357 C232.110907,50.5281863 232.110907,50.6589647 232.093819,50.8604644 C232.127995,50.9171537 232.239896,50.6937641 232.42015,50.195347 C232.459288,50.0640073 232.502284,49.9416482 232.557959,49.8321985 C232.759712,49.2765308 232.931697,49.096921 233.077775,49.3023497 C233.150538,49.3943997 233.241492,49.3287299 233.348431,49.1103917 C233.567823,48.6636125 233.770127,48.6551932 233.950381,49.0795213 L234.087638,49.4426698 L234.362705,48.9958905 C234.526422,48.7730622 234.66368,48.6333033 234.771171,48.5805429 C234.88252,48.5238536 234.934337,48.558653 234.934337,48.6899926 C234.934337,48.8213323 234.88252,49.0222707 234.771171,49.3023497 C234.642182,49.6177893 234.582097,49.7923476 234.582097,49.8321985 C234.582097,49.8495982 234.642182,49.8669979 234.771171,49.8888878 L234.990011,50.3306156 C235.080414,50.1863665 235.157587,50.0948778 235.222082,50.0684976 C235.286576,50.0421174 235.355481,50.0724265 235.428244,50.1644765 C235.462972,50.2217272 235.449742,50.3968467 235.385247,50.6937641 C235.321304,50.991804 235.24358,51.1669235 235.153177,51.2236129 C235.046237,51.2982632 235.127269,51.7136107 235.398477,52.4752684 C235.49329,52.7154965 235.729219,53.262745 236.112327,54.1158913 C236.494334,54.9735279 236.864213,55.769985 237.215901,56.5091914 C237.573102,57.2534494 237.762176,57.6165979 237.779264,57.5991982 C237.869667,57.5026579 237.439703,56.0365932 236.494334,53.2015654 C235.965699,51.5867614 235.681812,50.6679452 235.647636,50.4445555 C235.626137,50.2784165 235.553374,50.0157372 235.428244,49.6654982 C235.316894,49.3287299 235.265078,49.096921 235.265078,48.9700716 C235.265078,48.8561317 235.295396,48.7775524 235.359339,48.7337725 C235.424385,48.6855024 235.501558,48.6899926 235.591961,48.746682 C235.626137,48.7640817 235.854349,49.4073091 236.274942,50.6808546 C236.696086,51.9499098 237.096283,53.2453453 237.47829,54.5621093 C237.822261,55.7132957 238.445157,57.4195884 239.334852,59.6860391 C240.155642,61.8172212 240.796178,63.3489557 241.251498,64.2767524 L241.303315,64.2767524 C241.47089,64.2587914 241.625787,64.2503722 241.771314,64.2503722 C241.749816,64.0836719 241.749816,63.9876929 241.771314,63.9702932 C241.788402,63.8956429 241.861716,63.869824 241.986296,63.8872237 C242.115285,63.9046234 242.188599,64.0095829 242.205688,64.1931216 L242.28727,64.1931216 C242.342945,64.0095829 242.425079,63.9046234 242.536429,63.8872237 C242.626832,63.869824 242.691326,63.9130426 242.726054,64.0269826 C242.743142,64.061782 242.75086,64.1100521 242.75086,64.1667414 L243.189643,64.1667414 C243.279495,63.869824 243.391947,63.7469036 243.520385,63.8035929 C243.554561,63.8215539 243.589289,63.8518631 243.627876,63.8872237 C243.684102,63.9265134 243.727098,64.0269826 243.765133,64.1931216 C243.945939,64.2324112 244.04902,64.2767524 244.066108,64.3334417 C244.083197,64.4428914 244.018702,64.5085613 243.873176,64.525961 L243.82136,64.525961 C243.838448,64.6399009 243.855536,64.7487893 243.873176,64.8627293 L243.873176,64.9457988 C244.492213,65.0204491 244.840043,65.0726482 244.912806,65.1119378 C244.986121,65.1691884 245.012029,65.2213875 244.99494,65.2786381 C244.977852,65.3353274 244.611832,65.3701268 243.902942,65.3920168 C243.902942,65.8169061 243.890264,66.2805238 243.873176,66.7834312 L243.791042,67.5316181 Z" id="logo-text" fill="#121617"></path>
            </g>
        </g>
    </g>
</svg>