<?xml version="1.0" encoding="UTF-8"?>
<svg width="150px" height="150px" viewBox="0 0 150 150" version="1.1" xmlns="http://www.w3.org/2000/svg" xmlns:xlink="http://www.w3.org/1999/xlink">
    <!-- Generator: Sketch 52.6 (67491) - http://www.bohemiancoding.com/sketch -->
    <title>Artboard Copy 3</title>
    <desc>Created with Sketch.</desc>
    <g id="Artboard-Copy-3" stroke="none" stroke-width="1" fill="none" fill-rule="evenodd">
        <g id="Group" fill-rule="nonzero">
            <path d="M75,140 C110.898509,140 140,110.898509 140,75 C140,39.1014913 110.898509,10 75,10 C39.1014913,10 10,39.1014913 10,75 C10,110.898509 39.1014913,140 75,140 Z M75,150 C33.5786438,150 0,116.421356 0,75 C0,33.5786438 33.5786438,0 75,0 C116.421356,0 150,33.5786438 150,75 C150,116.421356 116.421356,150 75,150 Z" id="Oval" fill="#000000"></path>
            <circle id="Oval-Copy" fill="#FFF200" cx="75" cy="75" r="59"></circle>
            <g id="Shape-2" transform="translate(55.000000, 41.000000)" fill="#000000">
                <g id="Shape-3">
                    <path d="M60,29.1427048 L60,38.8570286 L60,61.8320056 C60,65.2345995 57.1962269,68 53.7289297,68 C52.586894,68 51.4667745,67.6932599 50.4892978,67.113188 L3.03231067,38.9504047 C0.0704109754,37.1927007 -0.883312368,33.4102684 0.894527047,30.4958798 C1.43268758,29.6136803 2.1868683,28.8775606 3.08871907,28.3549599 L50.5457062,0.854784254 C53.5365132,-0.87831606 57.3868827,0.108430917 59.1397502,3.05111833 C59.703173,3.99698383 60,5.0732396 60,6.1690466 L60,29.1427048 Z M46,20 L21,34.3273931 L46,49 L46,20 Z" id="Shape" transform="translate(30.000000, 34.000000) scale(-1, 1) translate(-30.000000, -34.000000) "></path>
                </g>
            </g>
        </g>
    </g>
</svg>