<?xml version="1.0" encoding="UTF-8"?>
<svg width="150px" height="150px" viewBox="0 0 150 150" version="1.1" xmlns="http://www.w3.org/2000/svg" xmlns:xlink="http://www.w3.org/1999/xlink">
    <!-- Generator: Sketch 52.6 (67491) - http://www.bohemiancoding.com/sketch -->
    <title>Artboard Copy 4</title>
    <desc>Created with Sketch.</desc>
    <g id="Artboard-Copy-4" stroke="none" stroke-width="1" fill="none" fill-rule="evenodd">
        <g id="Group" fill-rule="nonzero">
            <path d="M75,140 C110.898509,140 140,110.898509 140,75 C140,39.1014913 110.898509,10 75,10 C39.1014913,10 10,39.1014913 10,75 C10,110.898509 39.1014913,140 75,140 Z M75,150 C33.5786438,150 0,116.421356 0,75 C0,33.5786438 33.5786438,0 75,0 C116.421356,0 150,33.5786438 150,75 C150,116.421356 116.421356,150 75,150 Z" id="Oval" fill="#000000"></path>
            <circle id="Oval-Copy" fill="#FFF200" cx="75" cy="75" r="59"></circle>
            <g id="Combined-Shape-2" transform="translate(44.000000, 35.000000)" fill="#000000">
                <path d="M21.4852814,28 L25.2426407,31.7573593 C27.5857864,34.1005051 27.5857864,37.8994949 25.2426407,40.2426407 C22.8994949,42.5857864 19.1005051,42.5857864 16.7573593,40.2426407 L1.75735931,25.2426407 C-0.585786438,22.8994949 -0.585786438,19.1005051 1.75735931,16.7573593 C1.93661777,16.5781009 2.12439693,16.4125563 2.31939307,16.2607256 L16.8227593,1.75735931 C19.1659051,-0.585786438 22.9648949,-0.585786438 25.3080407,1.75735931 C27.6511864,4.10050506 27.6511864,7.89949494 25.3080407,10.2426407 L21.5506814,14 L41,14 C57.5685425,14 71,27.4314575 71,44 C71,60.5685425 57.5685425,74 41,74 L12,74 C8.13400675,74 5,70.8659932 5,67 C5,63.1340068 8.13400675,60 12,60 L15.6182435,60 L15.6153811,59.9954678 C15.7432219,59.9984836 15.8714339,60 16,60 L43,60 C51.836556,60 59,52.836556 59,44 C59,35.163444 51.836556,28 43,28 L21.4852814,28 Z" id="Combined-Shape"></path>
            </g>
        </g>
    </g>
</svg>