<?xml version="1.0" encoding="UTF-8"?>
<svg width="28px" height="28px" viewBox="0 0 28 28" version="1.1" xmlns="http://www.w3.org/2000/svg" xmlns:xlink="http://www.w3.org/1999/xlink">
    <!-- Generator: Sketch 63.1 (92452) - https://sketch.com -->
    <title>Arrow_down</title>
    <desc>Created with Sketch.</desc>
    <g id="Page-1" stroke="none" stroke-width="1" fill="none" fill-rule="evenodd">
        <g id="V1---МК-Золото-карта-После-скрола-Copy" transform="translate(-720.000000, -554.000000)">
            <g id="Загляни-к-нам" transform="translate(0.000000, -88.000000)">
                <g id="Arrow_down" transform="translate(720.000000, 642.000000)">
                    <circle id="Oval" stroke="#1D1D1B" stroke-width="2" fill="#FFF200" cx="14" cy="14" r="13"></circle>
                    <path d="M21.6881691,13.2385235 C22.1028504,13.6539957 22.1028504,14.3454747 21.6946898,14.7552629 L16.9595777,19.6766338 C16.5608204,20.1065804 15.8997992,20.1065804 15.4930669,19.683838 C15.0946769,19.2707319 15.0946769,18.5933999 15.4929845,18.1650615 L18.474666,15.0717927 L7.02741761,15.0717927 C6.4566275,15.0717927 6,14.5877173 6,13.9960111 C6,13.403857 6.45695938,12.9286146 7.02741761,12.9276575 L18.4762544,12.9276575 L15.4930669,9.82704637 C15.0936771,9.4129035 15.0936771,8.73121733 15.4926557,8.31653423 C15.8985599,7.89465303 16.5561644,7.89344082 16.9557266,8.31918603 L21.6881691,13.2385235 Z" id="Path" fill="#000000" fill-rule="nonzero" transform="translate(14.000000, 14.000000) scale(-1, 1) rotate(90.000000) translate(-14.000000, -14.000000) "></path>
                </g>
            </g>
        </g>
    </g>
</svg>