<?xml version="1.0" encoding="UTF-8"?>
<svg width="50px" height="50px" viewBox="0 0 50 50" version="1.1" xmlns="http://www.w3.org/2000/svg" xmlns:xlink="http://www.w3.org/1999/xlink">
    <!-- Generator: Sketch 52.4 (67378) - http://www.bohemiancoding.com/sketch -->
    <title>Group 2</title>
    <desc>Created with Sketch.</desc>
    <g id="Page-1" stroke="none" stroke-width="1" fill="none" fill-rule="evenodd">
        <g id="04-новичкам-на-пробу" transform="translate(-1354.000000, -65.000000)" fill-rule="nonzero">
            <g id="Group-2" transform="translate(1354.000000, 65.000000)">
                <path d="M25,50 C11.1928813,50 0,38.8071187 0,25 C0,11.1928813 11.1928813,0 25,0 C38.8071187,0 50,11.1928813 50,25 C50,38.8071187 38.8071187,50 25,50 Z" id="Path" fill="#FFF200"></path>
                <path d="M25,48 C37.7025492,48 48,37.7025492 48,25 C48,12.2974508 37.7025492,2 25,2 C12.2974508,2 2,12.2974508 2,25 C2,37.7025492 12.2974508,48 25,48 Z M25,50 C11.1928813,50 0,38.8071187 0,25 C0,11.1928813 11.1928813,0 25,0 C38.8071187,0 50,11.1928813 50,25 C50,38.8071187 38.8071187,50 25,50 Z" id="Oval" fill="#000000"></path>
                <g id="Path-2" transform="translate(16.000000, 16.000000)" fill="#000000">
                    <path d="M9,7.58578644 L15.363961,1.22182541 C15.7544853,0.831301115 16.3876503,0.831301115 16.7781746,1.22182541 C17.1686989,1.6123497 17.1686989,2.24551468 16.7781746,2.63603897 L10.4142136,9 L16.7781746,15.363961 C17.1686989,15.7544853 17.1686989,16.3876503 16.7781746,16.7781746 C16.3876503,17.1686989 15.7544853,17.1686989 15.363961,16.7781746 L9,10.4142136 L2.63603897,16.7781746 C2.24551468,17.1686989 1.6123497,17.1686989 1.22182541,16.7781746 C0.831301115,16.3876503 0.831301115,15.7544853 1.22182541,15.363961 L7.58578644,9 L1.22182541,2.63603897 C0.831301115,2.24551468 0.831301115,1.6123497 1.22182541,1.22182541 C1.6123497,0.831301115 2.24551468,0.831301115 2.63603897,1.22182541 L9,7.58578644 Z" id="Path"></path>
                </g>
            </g>
        </g>
    </g>
</svg>