<?xml version="1.0" encoding="UTF-8"?>
<svg width="17px" height="12px" viewBox="0 0 17 12" version="1.1" xmlns="http://www.w3.org/2000/svg" xmlns:xlink="http://www.w3.org/1999/xlink">
    <!-- Generator: Sketch 52.6 (67491) - http://www.bohemiancoding.com/sketch -->
    <title>Path 2</title>
    <desc>Created with Sketch.</desc>
    <g id="Symbols" stroke="none" stroke-width="1" fill="none" fill-rule="evenodd">
        <g id="1/1,5" transform="translate(-50.000000, -527.000000)" fill="#000000" fill-rule="nonzero">
            <g id="Group" transform="translate(50.000000, 523.000000)">
                <g id="Path-2" transform="translate(0.000000, 4.000000)">
                    <path d="M15.7481817,5.05941556 C16.1644492,5.46068248 16.1644492,6.12851943 15.7547273,6.52429679 L11.0015018,11.2774033 C10.6012191,11.6926499 9.93766926,11.6926499 9.52938114,11.2843613 C9.12946711,10.8853795 9.12946711,10.2312058 9.52929833,9.81751251 L12.5223858,6.83000427 L1.03134783,6.83000427 C0.458374259,6.83000427 0,6.36247969 0,5.79100427 C0,5.21909619 0.4587074,4.76010264 1.03134783,4.75917819 L12.5239803,4.75917819 L9.52938114,1.76457867 C9.12846349,1.36459556 9.12846349,0.706216609 9.52896835,0.305711752 C9.9364252,-0.101745097 10.5965453,-0.10291586 10.9976359,0.308272888 L15.7481817,5.05941556 Z" id="Path" transform="translate(8.030603, 5.794857) scale(-1, 1) translate(-8.030603, -5.794857) "></path>
                </g>
            </g>
        </g>
    </g>
</svg>