<?xml version="1.0" encoding="UTF-8"?>
<svg width="50px" height="50px" viewBox="0 0 50 50" version="1.1" xmlns="http://www.w3.org/2000/svg" xmlns:xlink="http://www.w3.org/1999/xlink">
    <!-- Generator: Sketch 52.4 (67378) - http://www.bohemiancoding.com/sketch -->
    <title>2</title>
    <desc>Created with Sketch.</desc>
    <g id="Page-1" stroke="none" stroke-width="1" fill="none" fill-rule="evenodd">
        <g id="01-Главная" transform="translate(-231.000000, -922.000000)">
            <g id="2" transform="translate(231.000000, 922.000000)">
                <path d="M42.5175879,49.2060302 C39.5427136,49.1809045 36.2939698,49.1708543 32.2964824,49.1708543 L25.7638191,49.1708543 L19.2311558,49.1708543 L19.1582915,49.1708543 C13.5678392,49.1708543 9.88693467,46.3065327 8.51005025,40.879397 C8.17411503,39.5346615 7.99868793,38.1548599 7.98743719,36.7688442 C7.94974874,31.9120603 7.95477387,26.9698492 7.95979899,22.1959799 C7.95979899,20.4824121 7.95979899,18.7671692 7.95979899,17.0502513 L7.95979899,16.2512563 C3.99748744,15.5502513 1.79145729,13.580402 1.04271357,10.0929648 C0.547966247,7.83918151 1.10244618,5.48264181 2.55025126,3.68592965 C3.9729247,1.91583763 6.1210076,0.885681743 8.3919598,0.884422111 L11.5527638,0.884422111 L16.4723618,0.884422111 L21.3894472,0.884422111 C24.459799,0.884422111 26.9522613,0.884422111 29.2286432,0.851758794 L29.3442211,0.851758794 C32.9497487,0.851758794 35.7035176,2.42462312 37.7613065,5.66080402 C39.1331658,7.81658291 39.8015075,10.3517588 39.8040201,13.4120603 C39.8040201,18.0167504 39.8040201,22.6231156 39.8040201,27.2311558 L39.8040201,33.8140704 L41.9497487,33.8140704 C46.2211055,33.8140704 48.8919598,36.2914573 49.120603,40.4396985 C49.1948227,42.1019095 48.9342188,43.7620841 48.3542714,45.321608 C47.4145729,47.8492462 45.4170854,49.1859296 42.5753769,49.1859296 L42.5175879,49.2060302 Z M13.8969849,21.5879397 C13.8969849,26.3969849 13.8969849,31.2051926 13.8969849,36.0125628 C13.8969849,36.8190955 13.9371859,37.5979899 14.0100503,38.3316583 C14.3467337,41.6834171 16.1281407,43.3115578 19.4572864,43.3115578 L35.1005025,43.3115578 C33.9924623,40.5678392 33.8442211,37.8768844 33.8442211,35.3592965 C33.8743719,28.2638191 33.8969849,20.7035176 33.8190955,13.1432161 C33.7793439,11.8450752 33.5167255,10.5634292 33.0427136,9.35427136 C32.5985152,8.05324881 31.4873107,7.09282999 30.1356784,6.84170854 C30.0322321,6.821371 29.9270342,6.81127199 29.821608,6.81155779 C29.0787065,6.8129875 28.4100354,7.26240591 28.1281407,7.94974874 C27.8014869,8.80222394 28.2093471,9.76019525 29.0502513,10.1155779 C29.2211309,10.1915979 29.3975129,10.2545915 29.5778894,10.3040201 L29.8592965,10.3919598 C30.113748,10.479519 30.2850582,10.7183456 30.2864322,10.9874372 L30.2864322,15.6658291 C30.2864322,16.0127417 30.005204,16.2939698 29.6582915,16.2939698 L13.8894472,16.2939698 L13.8969849,21.5879397 Z M40.2035176,39.781407 C40.5,41.2487437 41.040201,42.1809045 41.9623116,42.8266332 C42.2561585,42.9848716 42.5834122,43.070991 42.9170854,43.0778894 C43.419598,42.3241206 43.4673367,41.3643216 43.0427136,40.1080402 C42.9371859,39.7939698 42.839196,39.7663317 42.5603015,39.7663317 C42.4447236,39.7663317 42.3291457,39.7663317 42.2110553,39.7839196 C42.0929648,39.8015075 41.9145729,39.8065327 41.7713568,39.8065327 L41.5753769,39.8065327 C41.3643216,39.7914573 41.1331658,39.7839196 40.8467337,39.7839196 L40.2336683,39.7839196 L40.2035176,39.781407 Z M14.9974874,6.76884422 C12.9673367,6.76884422 10.9271357,6.76884422 8.88944724,6.76884422 C7.5,6.76884422 6.8241206,7.35427136 6.8241206,8.55527638 C6.8241206,9.35929648 7.06030151,10.2839196 8.90703518,10.2864322 L14.4698492,10.2864322 L22.0653266,10.2864322 C22.1432161,10.2864322 22.2236181,10.2864322 22.298995,10.2864322 L22.298995,6.76884422 L14.9974874,6.76884422 Z" id="Shape" fill="#000000" fill-rule="nonzero"></path>
                <path d="M29.3542714,1.50753769 C32.8869347,1.50753769 35.4095477,3.14572864 37.241206,6.03015075 C38.6733668,8.29145729 39.1834171,10.8040201 39.1859296,13.4447236 C39.1859296,19.8919598 39.1859296,26.340871 39.1859296,32.7914573 L39.1859296,34.4773869 L41.9497487,34.4773869 C45.8040201,34.4773869 48.281407,36.638191 48.4824121,40.5075377 C48.5515291,42.0840637 48.3046438,43.6584917 47.7562814,45.138191 C46.9045226,47.4296482 45.1407035,48.5929648 42.5703518,48.5929648 L42.5025126,48.5929648 C39.0938023,48.5661642 35.6834171,48.5544389 32.2713568,48.5577889 C27.9070352,48.5577889 23.540201,48.5703518 19.1758794,48.5703518 L19.1482412,48.5703518 C13.9120603,48.5703518 10.4120603,45.8894472 9.09798995,40.758794 C8.77282692,39.4628353 8.60412023,38.1325831 8.59547739,36.7964824 C8.54522613,30.2261307 8.57035176,23.6557789 8.57035176,17.0854271 L8.57035176,15.7512563 C4.4798995,15.1658291 2.36683417,13.3844221 1.63819095,9.99748744 C1.17306437,7.94069743 1.66871707,5.78400727 2.98513374,4.13665332 C4.30155041,2.48929938 6.29579602,1.53014948 8.40452261,1.53015075 L11.5477387,1.53015075 C14.8341709,1.53015075 18.120603,1.53015075 21.4070352,1.53015075 C24.0234506,1.53015075 26.639866,1.51926298 29.2562814,1.49748744 L29.3643216,1.49748744 L29.3542714,1.50753769 Z M14.4447236,10.9145729 L22.0753769,10.9145729 C22.4271357,10.9145729 22.7788945,10.861809 22.9371859,10.8492462 L22.9371859,6.13819095 L15.0100503,6.13819095 C12.9782245,6.13819095 10.940536,6.13819095 8.89698492,6.13819095 C7.15577889,6.13819095 6.20603015,7.00753769 6.20603015,8.55276382 C6.20603015,10.0979899 7.1281407,10.9095477 8.91708543,10.9120603 L14.4447236,10.9120603 L14.4447236,10.9145729 Z M25.6758794,43.9271357 L36.0778894,43.9271357 C34.7135678,41.0904523 34.4773869,38.2487437 34.4899497,35.3492462 C34.5201005,27.9396985 34.540201,20.5251256 34.4648241,13.1256281 C34.4234723,11.753768 34.1472789,10.3991458 33.6482412,9.12060302 C33.1271901,7.61736427 31.8420023,6.50756002 30.2788945,6.21105528 C30.1339784,6.18315493 29.9867725,6.16885493 29.839196,6.16834171 C28.8291725,6.17027657 27.922761,6.78882767 27.5527638,7.72864322 C27.1252155,8.88734369 27.6764419,10.1783159 28.8090452,10.6708543 C29.0953257,10.7880642 29.3881028,10.8887325 29.6859296,10.9723618 L29.6859296,15.6507538 L13.2889447,15.6507538 L13.2889447,17.1582915 C13.2889447,23.4346734 13.2889447,29.7160804 13.2889447,36.0025126 C13.2889447,36.7939698 13.3266332,37.5929648 13.4045226,38.3819095 C13.7763819,42.0753769 15.8140704,43.9271357 19.4773869,43.9271357 L25.6809045,43.9271357 L25.6758794,43.9271357 Z M41.7613065,39.1532663 L41.6130653,39.1532663 C41.361809,39.1331658 41.1105528,39.1281407 40.8341709,39.1281407 C40.4145729,39.1281407 39.9698492,39.1432161 39.4648241,39.1432161 C39.7160804,40.9346734 40.258794,42.3768844 41.5879397,43.321608 C41.9889851,43.5544804 42.4433204,43.6799635 42.9070352,43.6859296 C43.0481502,43.705244 43.1911225,43.6672387 43.3040201,43.580402 C44.1457286,42.4824121 44.0577889,41.1758794 43.6281407,39.8869347 C43.5122655,39.3967604 43.051445,39.0680633 42.5502513,39.1180905 C42.298995,39.1180905 42.0175879,39.1582915 41.7613065,39.1582915 L41.7613065,39.1532663 Z M29.3567839,0.233668342 L29.2361809,0.233668342 C26.9572864,0.256281407 24.4623116,0.266331658 21.3994975,0.266331658 L16.4723618,0.266331658 L11.540201,0.266331658 L8.40452261,0.266331658 C5.9439238,0.266919014 3.61629641,1.38314525 2.07537688,3.30150754 C0.507670652,5.2458609 -0.0930389096,7.79656612 0.442211055,10.2361809 C1.22110553,13.8517588 3.42713568,15.9522613 7.34673367,16.7688442 L7.34673367,17.0477387 C7.34673367,18.7596315 7.34673367,20.4715243 7.34673367,22.1834171 C7.34673367,26.9572864 7.34673367,31.9045226 7.37437186,36.7562814 C7.38516323,38.1965569 7.56734928,39.6304286 7.91708543,41.0276382 C9.34924623,46.6758794 13.3467337,49.7864322 19.1733668,49.7864322 L19.201005,49.7864322 L25.7512563,49.7864322 L32.2839196,49.7864322 C36.281407,49.7864322 39.5276382,49.7864322 42.5050251,49.821608 L42.5829146,49.821608 C45.7060302,49.821608 47.9070352,48.3442211 48.9447236,45.5502513 C49.5560858,43.910034 49.8295696,42.1631562 49.7487437,40.4145729 C49.4974874,35.9623116 46.5175879,33.1959799 41.959799,33.1959799 L40.4522613,33.1959799 L40.4522613,27.2085427 C40.4522613,22.6155779 40.4522613,18.0226131 40.4522613,13.4296482 C40.4522613,10.2462312 39.7487437,7.60050251 38.3115578,5.34170854 C36.1582915,1.95728643 33.1482412,0.24120603 29.3643216,0.24120603 L29.3567839,0.233668342 Z M14.4371859,9.65075377 L8.90954774,9.65075377 C7.45477387,9.65075377 7.45477387,9.03768844 7.45477387,8.54773869 C7.45477387,7.96231156 7.56532663,7.3919598 8.8919598,7.38944724 C10.9321608,7.38944724 12.9690117,7.38944724 15.0025126,7.38944724 L21.6733668,7.38944724 L21.6733668,9.65075377 L14.4371859,9.65075377 Z M14.5276382,16.9020101 L29.6683417,16.9020101 C30.3621668,16.9020101 30.9246231,16.3395537 30.9246231,15.6457286 L30.9246231,10.9673367 C30.9249371,10.4281651 30.5811725,9.94891675 30.0703518,9.77638191 C29.9748744,9.74371859 29.8743719,9.71356784 29.7713568,9.68341709 C29.6199693,9.64095141 29.4714295,9.58892053 29.3266332,9.52763819 C28.7808525,9.30460031 28.5155479,8.68443665 28.7311558,8.13567839 C28.9270462,7.70287469 29.3566026,7.42336882 29.8316583,7.41959799 C29.895741,7.41898599 29.9597203,7.42487882 30.0226131,7.43718593 C31.1592437,7.65251751 32.0921838,8.4626013 32.4648241,9.55778894 C32.9131341,10.6986354 33.1621483,11.9080117 33.201005,13.1331658 C33.2788945,20.6884422 33.2562814,28.2462312 33.2261307,35.339196 C33.2261307,37.660804 33.3442211,40.1281407 34.2035176,42.6658291 L19.4623116,42.6658291 C16.4472362,42.6658291 14.9396985,41.3040201 14.6407035,38.2512563 C14.5655609,37.4998476 14.5286623,36.7451049 14.5301508,35.9899497 C14.5301508,31.1859296 14.5301508,26.3015075 14.5301508,21.5778894 L14.5301508,16.8969849 L14.5276382,16.9020101 Z M41.7613065,40.4145729 C41.9371859,40.4145729 42.1030151,40.4145729 42.2487437,40.3919598 L42.4673367,40.3768844 C42.781407,41.3517588 42.718593,41.9673367 42.5577889,42.3869347 C42.471276,42.366202 42.3870921,42.3367377 42.3065327,42.298995 C41.6722935,41.8276192 41.2162347,41.155486 41.0125628,40.3919598 C41.2035176,40.3919598 41.3668342,40.3919598 41.5150754,40.4145729 C41.5929648,40.4145729 41.6733668,40.4145729 41.7663317,40.4145729 L41.7613065,40.4145729 Z" id="Shape" fill="#FFFFFF" fill-rule="nonzero"></path>
                <path d="M36.0075377,43.9396985 C34.6432161,41.1030151 34.4095477,38.2613065 34.419598,35.361809 C34.4522613,27.9522613 34.4698492,20.5376884 34.3944724,13.138191 C34.354363,11.7661867 34.0781269,10.4113547 33.5778894,9.13316583 C33.0577326,7.6293206 31.7721202,6.5191497 30.2085427,6.22361809 C29.0568699,6.01337147 27.9165936,6.64393898 27.4824121,7.73115578 C27.0575623,8.88978732 27.6080062,10.178927 28.7386935,10.6733668 C29.0251167,10.7901971 29.317872,10.890858 29.6155779,10.9748744 L29.6155779,15.6532663 L13.218593,15.6532663 L13.218593,17.160804 C13.218593,23.4371859 13.218593,29.718593 13.218593,36.0050251 C13.218593,36.7964824 13.2562814,37.5954774 13.3366834,38.3844221 C13.7085427,42.0778894 15.7462312,43.9296482 19.4070352,43.9296482 L36.0125628,43.9296482 L36.0075377,43.9396985 Z" id="Path" fill="#FFF200"></path>
                <path d="M22.8693467,6.14321608 C18.2638191,6.14321608 13.5452261,6.14321608 8.82914573,6.14321608 C7.0879397,6.14321608 6.13819095,7.01256281 6.13567839,8.55778894 C6.13316583,10.1030151 7.05778894,10.9145729 8.84673367,10.9170854 C13.2336683,10.9170854 17.620603,10.9170854 22.0075377,10.9170854 C22.3567839,10.9170854 22.7085427,10.8643216 22.8693467,10.8517588 L22.8693467,6.14321608 Z" id="Path" fill="#FFF200"></path>
                <path d="M39.4020101,39.160804 C39.6532663,40.9522613 40.1959799,42.3944724 41.5251256,43.339196 C41.9673367,43.6532663 43.0628141,43.8417085 43.2437186,43.5904523 C44.0829146,42.4924623 43.9974874,41.1859296 43.5678392,39.8969849 C43.1959799,38.798995 42.2788945,39.218593 41.5577889,39.1633166 C40.8919598,39.120603 40.2261307,39.160804 39.4020101,39.160804 Z" id="Path" fill="#FFF200"></path>
                <rect id="Rectangle" fill="#000000" x="17.4949749" y="29.2060302" width="12.8341709" height="5.80150754"></rect>
                <path d="M29.701005,29.8341709 L29.701005,34.3819095 L18.1231156,34.3819095 L18.1231156,29.8341709 L29.701005,29.8341709 Z M30.9572864,28.5778894 L16.8668342,28.5778894 L16.8668342,35.638191 L30.9572864,35.638191 L30.9572864,28.5778894 Z" id="Shape" fill="#FFFFFF" fill-rule="nonzero"></path>
                <rect id="Rectangle" fill="#000000" x="17.4623116" y="19.8115578" width="12.8366834" height="5.71105528"></rect>
                <path d="M29.6708543,20.4396985 L29.6708543,24.8969849 L18.080402,24.8969849 L18.080402,20.4396985 L29.660804,20.4396985 L29.6708543,20.4396985 Z M30.9170854,19.1834171 L16.8241206,19.1834171 L16.8241206,26.1532663 L30.9170854,26.1532663 L30.9170854,19.1834171 Z" id="Shape" fill="#FFFFFF" fill-rule="nonzero"></path>
                <path d="M8.60050251,15.7361809 C4.51005025,15.1507538 2.39698492,13.3693467 1.66834171,9.98241206 C1.20964498,7.93296044 1.70407746,5.78604009 3.01299569,4.1436675 C4.32191392,2.50129491 6.30439127,1.54029855 8.40452261,1.53015075 C15.3517588,1.51256281 22.298995,1.57286432 29.258794,1.50502513 C32.8492462,1.47236181 35.4020101,3.11306533 37.2537688,6.02763819 C38.6859296,8.28894472 39.1959799,10.8015075 39.1984925,13.4422111 C39.1984925,19.8894472 39.1984925,26.3383585 39.1984925,32.7889447 L39.1984925,34.4748744 L41.9623116,34.4748744 C45.8165829,34.4748744 48.2939698,36.6356784 48.4949749,40.5050251 C48.564092,42.0815511 48.3172066,43.6559791 47.7688442,45.1356784 C46.9095477,47.4472362 45.120603,48.6105528 42.5150754,48.5904523 C34.7261307,48.5276382 26.9371859,48.5678392 19.160804,48.5678392 C13.9246231,48.5678392 10.4246231,45.8869347 9.11055276,40.7562814 C8.78538973,39.4603228 8.61668305,38.1300706 8.6080402,36.7939698 C8.55778894,30.2236181 8.58291457,23.6532663 8.58291457,17.0829146 L8.60050251,15.7361809 Z M36.0678392,43.9396985 C34.7035176,41.1030151 34.4673367,38.2613065 34.4798995,35.361809 C34.5100503,27.9522613 34.5301508,20.5376884 34.4547739,13.138191 C34.413422,11.7663308 34.1372287,10.4117086 33.638191,9.13316583 C33.1171398,7.62992709 31.831952,6.52012283 30.2688442,6.22361809 C29.1171714,6.01337147 27.9768951,6.64393898 27.5427136,7.73115578 C27.1151653,8.88985625 27.6663917,10.1808284 28.798995,10.6733668 C29.0852755,10.7905767 29.3780525,10.8912451 29.6758794,10.9748744 L29.6758794,15.6532663 L13.2788945,15.6532663 L13.2788945,17.160804 C13.2788945,23.4371859 13.2788945,29.718593 13.2788945,36.0050251 C13.2788945,36.7964824 13.3165829,37.5954774 13.3944724,38.3844221 C13.7663317,42.0778894 15.8040201,43.9296482 19.4673367,43.9296482 L36.0728643,43.9296482 L36.0678392,43.9396985 Z M22.9271357,6.14321608 C18.321608,6.14321608 13.6055276,6.14321608 8.88693467,6.14321608 C7.14572864,6.14321608 6.1959799,7.01256281 6.1959799,8.55778894 C6.1959799,10.1030151 7.11809045,10.9145729 8.90703518,10.9170854 C13.2939698,10.9170854 17.680067,10.9170854 22.0653266,10.9170854 C22.4170854,10.9170854 22.7688442,10.8643216 22.9271357,10.8517588 L22.9271357,6.14321608 Z M39.4623116,39.160804 C39.7135678,40.9522613 40.2562814,42.3944724 41.5854271,43.339196 C42.0276382,43.6532663 43.1231156,43.8417085 43.3015075,43.5904523 C44.1432161,42.4924623 44.0552764,41.1859296 43.6256281,39.8969849 C43.2562814,38.798995 42.339196,39.218593 41.6155779,39.1633166 C40.9447236,39.120603 40.2864322,39.160804 39.4623116,39.160804 Z" id="Shape" fill="#000000" fill-rule="nonzero"></path>
                <path d="M8.70729402,14.9900153 C9.08225536,15.04368 9.35915344,15.3672742 9.35420709,15.7460241 L9.33668342,17.0829146 C9.33668342,18.4520581 9.33589813,19.5472769 9.33354237,22.011399 C9.33132165,24.3342741 9.33055405,25.3666156 9.3304171,26.6569357 C9.32999535,30.6304907 9.33863421,33.7609776 9.36179328,36.789094 C9.37004663,38.0649829 9.53115049,39.3352868 9.84075212,40.5692617 C11.064642,45.3478145 14.2496318,47.8140704 19.160804,47.8140704 C20.9792361,47.8140704 22.433411,47.8124884 25.7109349,47.807736 C34.1110866,47.7955558 37.8492568,47.7990313 42.5207487,47.8367048 C44.8233865,47.8544686 46.3184275,46.8741313 47.0620491,44.8737469 C47.5754839,43.488296 47.8066441,42.01415 47.742221,40.5441292 C47.5648959,37.1306198 45.4727217,35.2286432 41.9623116,35.2286432 L39.1984925,35.2286432 C38.7821974,35.2286432 38.4447236,34.8911694 38.4447236,34.4748744 L38.4447236,32.7889447 C38.4447236,23.1139028 38.4447236,23.1139028 38.444724,13.4429282 C38.4421238,10.7101166 37.8752616,8.41771915 36.6175497,6.43185675 C34.8256448,3.61149079 32.4608755,2.22969496 29.2661408,2.25875816 C25.6551337,2.29395571 22.7692836,2.29730351 16.2830976,2.28623526 C12.3433458,2.27951233 10.5936498,2.27837992 8.40816477,2.2839108 C6.53622589,2.29295597 4.76915716,3.14953404 3.60246112,4.61345253 C2.43576509,6.07737102 1.9950558,7.99101498 2.40525046,9.82387828 C3.0664865,12.8974858 4.92929193,14.4493062 8.70729402,14.9900153 Z M7.83831913,16.3755721 C3.88123104,15.6485177 1.69208427,13.6766567 0.932771169,10.1470433 C0.424234155,7.8749059 0.972389839,5.49470917 2.42353025,3.67388247 C3.87467067,1.85305578 6.07255665,0.787641126 8.40261434,0.776384325 C10.592673,0.770839873 12.3437884,0.771973201 16.2856701,0.778699766 C22.7661038,0.789758205 25.6481112,0.786414856 29.251937,0.751287471 C32.9864343,0.717313737 35.8277547,2.37757075 37.8905671,5.6243326 C39.3140819,7.87198743 39.9494063,10.4412473 39.9522613,13.4422111 L39.9522613,33.7211055 L41.9623116,33.7211055 C46.2609467,33.7211055 49.0280254,36.2366316 49.2480204,40.4720106 C49.3215398,42.1489522 49.0589293,43.8236623 48.4753745,45.3983234 C47.5054563,48.0074603 45.4325021,49.3667502 42.509402,49.3441998 C37.8434733,49.3065714 34.1084926,49.3030989 25.7131209,49.3152721 C22.4348679,49.3200255 20.980208,49.321608 19.160804,49.321608 C13.5618074,49.321608 9.77525127,46.3895371 8.37944559,40.9397202 C8.03962897,39.5853587 7.86331946,38.1951582 7.8542934,36.7997346 C7.83110612,33.7679973 7.82245729,30.6338984 7.82287942,26.6567757 C7.82301643,25.3658862 7.82378424,24.33326 7.82600537,22.0099578 C7.82836067,19.5463161 7.82914573,18.4514176 7.82921,17.0730714 L7.83831913,16.3755721 Z M35.2085036,13.1305129 C35.2730669,19.4684799 35.2740782,25.4326311 35.2336613,35.3650749 C35.2186743,38.8240765 35.6039697,41.2361536 36.7471255,43.6129913 L36.0728643,43.9372816 L36.0728643,44.6834171 L19.4673367,44.6834171 C15.4119453,44.6834171 13.0546223,42.5334918 12.6443503,38.4584787 C12.5648266,37.6529805 12.5251256,36.8296734 12.5251256,36.0050251 L12.5251256,15.6532663 C12.5251256,15.2369713 12.8625994,14.8994975 13.2788945,14.8994975 L28.9221106,14.8994975 L28.9221106,11.5263814 C28.7816283,11.4767394 28.6407556,11.422971 28.4983952,11.3646029 C26.9992536,10.7126669 26.2696368,9.00390439 26.8427003,7.4516045 C27.4099304,6.03122627 28.8996273,5.20743072 30.4093211,5.48305498 C32.2327992,5.82894918 33.732926,7.12109253 34.3455076,8.87228417 C34.8726223,10.2271953 35.1643965,11.6622857 35.2085036,13.1305129 Z M36.0678392,43.9396985 L35.3936478,43.6026028 L35.398673,43.5925526 L36.0728643,43.9296482 L36.0728643,43.9372816 L36.0678392,43.9396985 Z M33.7261369,35.3587419 C33.7665257,25.433198 33.7655154,19.4748023 33.7013472,13.1609014 C33.6625907,11.8751413 33.4037316,10.6055372 32.9360143,9.40723771 L32.9259924,9.3800274 C32.4933549,8.13186311 31.4262419,7.21037405 30.1334753,6.96513189 C29.3347154,6.81931222 28.5438599,7.25665169 28.2498769,7.99209161 C27.9606937,8.77580811 28.3335297,9.64898995 29.0845952,9.97579965 C29.3441621,10.0820724 29.6096194,10.1733471 29.8796553,10.2491727 C30.2048915,10.3404986 30.4296482,10.6370593 30.4296482,10.9748744 L30.4296482,15.6532663 C30.4296482,16.0695614 30.0921744,16.4070352 29.6758794,16.4070352 L14.0326633,16.4070352 L14.0326633,36.0050251 C14.0326633,36.7807146 14.0699816,37.5546097 14.1444497,38.3089142 C14.4773034,41.614961 16.1887996,43.1758794 19.4673367,43.1758794 L34.9127353,43.1758807 C34.0214519,40.9017274 33.7124484,38.5180351 33.7261369,35.3587419 Z M36.0728643,43.1758794 C36.6332025,43.1758794 36.9976465,43.7655622 36.7470557,44.2667439 L36.7420305,44.2767942 C36.4618591,44.8371371 35.6600902,44.8309833 35.3885529,44.2664057 C35.2141954,43.9038834 35.0559485,43.5412961 34.9127348,43.1758794 L36.0728643,43.1758794 Z M22.9271357,5.38944724 C23.3434307,5.38944724 23.6809045,5.72692104 23.6809045,6.14321608 L23.6809045,10.8517588 C23.6809045,11.244927 23.3787069,11.5720589 22.9867711,11.6031649 C22.9553984,11.6056548 22.7310745,11.6303121 22.706471,11.6328578 C22.4687369,11.6574553 22.2681857,11.6708543 22.0653266,11.6708543 C15.4870184,11.6708543 15.4870184,11.6708543 8.90597651,11.6708535 C6.72631421,11.6677922 5.44221106,10.5470881 5.44221106,8.55778894 C5.44221106,6.57160279 6.7528028,5.38944724 8.88693467,5.38944724 L22.9271357,5.38944724 Z M8.88693467,6.89698492 C7.55270331,6.89698492 6.94974874,7.44085078 6.94974874,8.55778894 C6.94974874,9.66572566 7.51765184,10.1613645 8.90703518,10.1633166 L22.0653266,10.1633166 C22.1004735,10.1633166 22.1363602,10.1626846 22.1733668,10.1614331 L22.1733668,6.89698492 L8.88693467,6.89698492 Z M41.1487373,43.9535814 C39.7297513,42.9450016 39.0228824,41.4546474 38.7158487,39.2654973 C38.6522453,38.8120053 39.004381,38.4070352 39.4623116,38.4070352 C39.682755,38.4070352 39.8677642,38.4046841 40.2093182,38.3985828 C40.8947569,38.3863385 41.1509617,38.3856165 41.5095374,38.4025538 C41.5613986,38.4050035 41.6126578,38.4078355 41.6729902,38.4117374 C41.7653904,38.4187957 41.8614439,38.4150497 42.0996522,38.3972233 C42.1261687,38.3952391 42.1261687,38.3952391 42.1533354,38.3932311 C43.2864348,38.3099769 43.9722629,38.56328 44.3407161,39.6586223 C44.9067351,41.3566795 44.8383947,42.8210319 43.903337,44.0443221 C43.3940035,44.722214 41.8962571,44.4844904 41.1487373,43.9535814 Z M42.0218933,42.7246516 C42.1246322,42.7976196 42.3941913,42.8907125 42.6588655,42.9321048 C42.7213138,42.9418711 42.7793077,42.9481159 42.8294399,42.9511069 C43.2929581,42.2175757 43.3014648,41.3081205 42.9111969,40.1373085 C42.8209319,39.8689698 42.7911479,39.8579694 42.2638035,39.8967159 C42.2382958,39.8986013 42.2382958,39.8986013 42.2121552,39.9005572 C41.8960989,39.9242095 41.7530975,39.9297864 41.5676821,39.9155622 C41.5251857,39.9128564 41.4821427,39.9104784 41.4384081,39.9084126 C41.1449738,39.8945522 40.919006,39.8942243 40.3593557,39.9037307 C40.6536558,41.2342763 41.1660566,42.1163442 42.0218933,42.7246516 Z" id="Shape-Copy" fill="#FFFFFF" fill-rule="nonzero"></path>
            </g>
        </g>
    </g>
</svg>