<?xml version="1.0" encoding="UTF-8"?>
<svg width="150px" height="150px" viewBox="0 0 150 150" version="1.1" xmlns="http://www.w3.org/2000/svg" xmlns:xlink="http://www.w3.org/1999/xlink">
    <!-- Generator: Sketch 52.6 (67491) - http://www.bohemiancoding.com/sketch -->
    <title>Artboard Copy 7</title>
    <desc>Created with Sketch.</desc>
    <g id="Artboard-Copy-7" stroke="none" stroke-width="1" fill="none" fill-rule="evenodd">
        <g id="logo-shape">
            <g id="Group-6">
                <path d="M29.5125603,29.4537187 C4.39459044,54.4746562 4.39459044,95.0421562 29.5125603,120.064031 C54.6305302,145.085906 95.3562939,145.085906 120.474264,120.064031 C145.593175,95.0421562 145.593175,54.4746562 120.474264,29.4537187 C95.3562939,4.43184375 54.6305302,4.43184375 29.5125603,29.4537187 Z M22.0088856,127.538719 C-7.25290459,98.3890312 -7.25290459,51.1287187 22.0088856,21.9790312 C51.271617,-7.16971875 98.7152071,-7.16971875 127.977938,21.9790312 C157.239729,51.1287187 157.239729,98.3890312 127.977938,127.538719 C98.7152071,156.687469 51.271617,156.687469 22.0088856,127.538719 Z M81.6105369,81.3503437 C77.9617539,84.9850312 72.024129,84.9850312 68.375346,81.3503437 C64.7275042,77.7156562 64.7275042,71.8019062 68.375346,68.1672187 C72.024129,64.5325312 77.9617539,64.5325312 81.6105369,68.1672187 C85.2593199,71.8019062 85.2593199,77.7156562 81.6105369,81.3503437 Z" id="logo-shape-2" fill="#1D1D1B"></path>
                <path d="M33.9885074,33.9122813 C56.6341139,11.3541563 93.3515809,11.3541563 115.998128,33.9122813 C138.644676,56.4713438 138.644676,93.0460313 115.998128,115.605094 C93.3515809,138.164156 56.6341139,138.164156 33.9885074,115.605094 C11.342901,93.0460313 11.342901,56.4713438 33.9885074,33.9122813 Z M63.5028984,63.3126563 C57.1568206,69.6342188 57.1568206,79.8829688 63.5028984,86.2045313 C69.8489763,92.5260938 80.1384125,92.5260938 86.4835492,86.2045313 C92.829627,79.8829688 92.829627,69.6342188 86.4835492,63.3126563 C80.1384125,56.9910938 69.8489763,56.9910938 63.5028984,63.3126563 Z" id="logo-shape-1" fill="#FFF200"></path>
            </g>
        </g>
    </g>
</svg>