<?xml version="1.0" encoding="UTF-8"?>
<svg width="150px" height="150px" viewBox="0 0 150 150" version="1.1" xmlns="http://www.w3.org/2000/svg" xmlns:xlink="http://www.w3.org/1999/xlink">
    <!-- Generator: Sketch 52.6 (67491) - http://www.bohemiancoding.com/sketch -->
    <title>Artboard Copy 2</title>
    <desc>Created with Sketch.</desc>
    <g id="Artboard-Copy-2" stroke="none" stroke-width="1" fill="none" fill-rule="evenodd">
        <g id="Group" fill-rule="nonzero">
            <path d="M75,140 C110.898509,140 140,110.898509 140,75 C140,39.1014913 110.898509,10 75,10 C39.1014913,10 10,39.1014913 10,75 C10,110.898509 39.1014913,140 75,140 Z M75,150 C33.5786438,150 0,116.421356 0,75 C0,33.5786438 33.5786438,0 75,0 C116.421356,0 150,33.5786438 150,75 C150,116.421356 116.421356,150 75,150 Z" id="Oval" fill="#000000"></path>
            <circle id="Oval-Copy" fill="#FFF200" cx="75" cy="75" r="59"></circle>
            <g id="Shape-2" transform="translate(42.000000, 50.000000)" fill="#000000">
                <path d="M43.5,21.5 L61,21.5 C62.9329966,21.5 64.5,23.0670034 64.5,25 C64.5,26.9329966 62.9329966,28.5 61,28.5 L43.5,28.5 L43.5,45.0554332 C43.5,47.5072928 41.4906421,49.5 39.0057616,49.5 C38.1873079,49.5 37.3845606,49.2789676 36.6840401,48.8609762 L2.67341588,28.5672855 C0.550734617,27.3007096 -0.132762761,24.5751441 1.14134738,22.4750781 C1.52702663,21.8393781 2.06751938,21.308941 2.71384165,20.9323625 L36.7244659,1.11613715 C38.867864,-0.132709651 41.6272779,0.578325825 42.8834916,2.69878344 C43.2872753,3.38036032 43.5,4.15589453 43.5,4.94551706 L43.5,21.5 Z M33.5096026,14.4802883 L15.7675285,24.817674 L33.5096026,35.4041356 L33.5096026,14.4802883 Z" id="Shape" transform="translate(32.500137, 25.000096) scale(-1, 1) translate(-32.500137, -25.000096) "></path>
            </g>
        </g>
    </g>
</svg>