<?xml version="1.0" encoding="UTF-8"?>
<svg width="10px" height="14px" viewBox="0 0 10 14" version="1.1" xmlns="http://www.w3.org/2000/svg" xmlns:xlink="http://www.w3.org/1999/xlink">
    <!-- Generator: Sketch 61 (89581) - https://sketch.com -->
    <title>trash</title>
    <desc>Created with Sketch.</desc>
    <g id="Page-1" stroke="none" stroke-width="1" fill="none" fill-rule="evenodd">
        <g id="03-17-Оплата-картой-Список-карт" transform="translate(-1010.000000, -1049.000000)" fill="#FF3B30">
            <g id="Group-9-Copy" transform="translate(801.000000, 943.000000)">
                <g id="Group-2" transform="translate(24.000000, 0.000000)">
                    <path d="M194.5,108.5 L193.75,118.5 C193.75,119.3285 193.0785,120 192.25,120 L187.75,120 C186.9215,120 186.25,119.3285 186.25,118.5 L185.5,108.5 L194.5,108.5 Z M188.12325,109.5 L187.4985,109.5 L187.875,118 L188.5,118 L188.12325,109.5 Z M190.30475,109.5 L189.67975,109.5 L189.67975,118 L190.30475,118 L190.30475,109.5 Z M192.5015,109.5 L191.8765,109.5 L191.5,118 L192.125,118 L192.5015,109.5 Z M191.25,106 C191.388,106 191.75,106.112 191.75,106.25 L192.25,107 L194.375,107 C194.72025,107 195,107.27975 195,107.625 L195,108 L185,108 L185,107.625 C185,107.27975 185.27975,107 185.625,107 L187.75,107 L188.25,106.25 C188.25,106.112 188.612,106 188.75,106 L191.25,106 Z" id="trash"></path>
                </g>
            </g>
        </g>
    </g>
</svg>