<?xml version="1.0" encoding="UTF-8"?>
<svg width="17px" height="20px" viewBox="0 0 17 20" version="1.1" xmlns="http://www.w3.org/2000/svg" xmlns:xlink="http://www.w3.org/1999/xlink">
    <!-- Generator: Sketch 52.6 (67491) - http://www.bohemiancoding.com/sketch -->
    <title>Path 4</title>
    <desc>Created with Sketch.</desc>
    <g id="Page-1" stroke="none" stroke-width="1" fill="none" fill-rule="evenodd">
        <g id="18-01_Вопросы-по-вебинару" transform="translate(-788.000000, -670.000000)" fill="#535875">
            <g id="Group-3" transform="translate(620.000000, 548.000000)">
                <g id="Group-6" transform="translate(158.000000, 113.000000)">
                    <g id="Group-11">
                        <g id="Path-4" transform="translate(9.000000, 7.000000)">
                            <g id="Path-3" transform="translate(10.000000, 12.000000) rotate(-330.000000) translate(-10.000000, -12.000000) translate(5.000000, 2.000000)">
                                <path d="M9.41782874,2.89988764 C8.90019094,1.22041199 6.56835236,1.56497038e-12 4.72127559,1.56497038e-12 C2.49662992,1.56497038e-12 0.0957480315,1.77029963 0.0246476378,3.98071161 C0.0123799213,4.05382022 0.0246476378,4.20565543 0.0246476378,4.20565543 L0.0246476378,18.13397 C0.0246476378,18.833221 0.55028937,19.4001873 1.19879528,19.4001873 C1.84730118,19.4001873 2.37294291,18.6314232 2.37294291,18.13397 C2.37294291,17.6364794 2.37294291,4.11520599 2.37294291,4.11520599 C2.37294291,3.1411236 3.74861024,2.35153558 4.72127559,2.35153558 C5.65979331,2.35153558 6.9731122,3.08681648 7.06414764,4.01340824 L7.06414764,17.0486517 C7.06414764,18.0227715 5.86838189,18.0227715 5.86838189,17.0486517 L5.86838189,7.64250936 C5.86838189,6.99314607 5.34270276,6.46674157 4.69423425,6.46674157 C4.04572835,6.46674157 3.52004921,6.99314607 3.52004921,7.64250936 C3.52004921,7.64250936 3.58748425,18.0823596 3.70241929,18.2640075 C4.22009449,19.9434831 4.72120079,19.9880899 7.06945866,19.9880899 C9.41779134,19.9880899 9.41236811,16.9582022 9.41236811,16.9582022 L9.41236811,4.81048689 C9.41554724,4.77505618 9.41779134,4.73928839 9.41779134,4.70310861 C9.41782874,4.70307116 9.53280118,3.08153558 9.41782874,2.89988764 Z" id="Path"></path>
                            </g>
                        </g>
                    </g>
                </g>
            </g>
        </g>
    </g>
</svg>