<?xml version="1.0" encoding="UTF-8"?>
<svg width="28px" height="21px" viewBox="0 0 28 21" version="1.1" xmlns="http://www.w3.org/2000/svg" xmlns:xlink="http://www.w3.org/1999/xlink">
    <!-- Generator: Sketch 52.6 (67491) - http://www.bohemiancoding.com/sketch -->
    <title>Path 2</title>
    <desc>Created with Sketch.</desc>
    <g id="Page-1" stroke="none" stroke-width="1" fill="none" fill-rule="evenodd">
        <g id="03-05_Вебинар" transform="translate(-300.000000, -116.000000)" fill="#000000" fill-rule="nonzero">
            <g id="Path-2" transform="translate(300.000000, 116.000000)">
                <path d="M27.5626614,9.47045578 C28.1446988,10.0320693 28.1446988,10.9674199 27.5691186,11.5239991 L19.0384349,20.0629342 C18.4783428,20.6445344 17.5477521,20.6445344 16.9735863,20.0698049 C16.4134719,19.5104478 16.4134719,18.5882028 16.9735047,18.0081364 L23.0324586,11.9545436 L1.94628433,11.9545436 C1.14327342,11.9545436 0.5,11.2977851 0.5,10.4931018 C0.5,9.68924425 1.14237361,9.04583933 1.94628433,9.04453997 L23.0340315,9.04453997 L16.9735863,2.97814888 C16.4124818,2.4178031 16.4124818,1.49179187 16.9731791,0.930544488 C17.5465782,0.356582922 18.4735275,0.355479037 19.0347949,0.93324726 L27.5626614,9.47045578 Z" id="Path" transform="translate(14.250000, 10.499997) scale(-1, 1) translate(-14.250000, -10.499997) "></path>
            </g>
        </g>
    </g>
</svg>