<?xml version="1.0" encoding="UTF-8"?>
<svg width="30px" height="30px" viewBox="0 0 30 30" version="1.1" xmlns="http://www.w3.org/2000/svg" xmlns:xlink="http://www.w3.org/1999/xlink">
    <!-- Generator: Sketch 52.6 (67491) - http://www.bohemiancoding.com/sketch -->
    <title>Group 30</title>
    <desc>Created with Sketch.</desc>
    <g id="Symbols" stroke="none" stroke-width="1" fill="none" fill-rule="evenodd">
        <g id="menu-1-info-copy" transform="translate(-174.000000, -61.000000)">
            <g id="Group-30" transform="translate(174.000000, 61.000000)">
                <path d="M14.9785714,-4.61852778e-14 C6.70607143,-4.61852778e-14 1.81188398e-13,6.70821429 1.81188398e-13,14.9817857 C1.81188398e-13,23.2542857 6.70607143,29.9625 14.9785714,29.9625 C23.2553571,29.9625 29.9625,23.2532143 29.9625,14.9817857 C29.9625,6.70821429 23.2553571,-4.61852778e-14 14.9785714,-4.61852778e-14 Z M21.42,19.0382143 L19.0339286,21.4210714 C19.0339286,21.4210714 15.2592857,17.3710714 14.9775,17.3710714 C14.7,17.3710714 10.9242857,21.4210714 10.9242857,21.4210714 L8.53714286,19.0382143 C8.53714286,19.0382143 12.5914286,15.3182143 12.5914286,14.9871429 C12.5914286,14.6507143 8.53714286,10.9296429 8.53714286,10.9296429 L10.9242857,8.54142857 C10.9242857,8.54142857 14.7310714,12.5935714 14.9775,12.5935714 C15.2260714,12.5935714 19.0339286,8.54142857 19.0339286,8.54142857 L21.42,10.9296429 C21.42,10.9296429 17.3646429,14.7042857 17.3646429,14.9871429 C17.3646429,15.2560714 21.42,19.0382143 21.42,19.0382143 Z" id="Shape" fill="#FF1A40"></path>
                <path d="M21.42,19.0382143 L19.0339286,21.4210714 C19.0339286,21.4210714 15.2592857,17.3710714 14.9775,17.3710714 C14.7,17.3710714 10.9242857,21.4210714 10.9242857,21.4210714 L8.53714286,19.0382143 C8.53714286,19.0382143 12.5914286,15.3182143 12.5914286,14.9871429 C12.5914286,14.6507143 8.53714286,10.9296429 8.53714286,10.9296429 L10.9242857,8.54142857 C10.9242857,8.54142857 14.7310714,12.5935714 14.9775,12.5935714 C15.2260714,12.5935714 19.0339286,8.54142857 19.0339286,8.54142857 L21.42,10.9296429 C21.42,10.9296429 17.3646429,14.7042857 17.3646429,14.9871429 C17.3646429,15.2560714 21.42,19.0382143 21.42,19.0382143 Z" id="Path-Copy" fill="#FFFFFF" fill-rule="nonzero"></path>
            </g>
        </g>
    </g>
</svg>