<?xml version="1.0" encoding="UTF-8"?>
<svg width="15px" height="15px" viewBox="0 0 15 15" version="1.1" xmlns="http://www.w3.org/2000/svg" xmlns:xlink="http://www.w3.org/1999/xlink">
    <!-- Generator: Sketch 52.6 (67491) - http://www.bohemiancoding.com/sketch -->
    <title>Group 30</title>
    <desc>Created with Sketch.</desc>
    <g id="Symbols" stroke="none" stroke-width="1" fill="none" fill-rule="evenodd">
        <g id="Row/activity-12/2" transform="translate(-970.000000, -7.000000)">
            <g id="Group" transform="translate(878.000000, 7.000000)">
                <g id="Tag/pending">
                    <g id="Group-30" transform="translate(92.000000, 0.000000)">
                        <path d="M7.49865904,-4.61852778e-14 C3.35723225,-4.61852778e-14 1.81188398e-13,3.35830502 1.81188398e-13,7.50026819 C1.81188398e-13,11.641695 3.35723225,15 7.49865904,15 C11.6422314,15 15,11.6411586 15,7.50026819 C15,3.35830502 11.6422314,-4.61852778e-14 7.49865904,-4.61852778e-14 Z M10.7234043,9.53102092 L9.52887538,10.7239406 C9.52887538,10.7239406 7.63919185,8.69640622 7.49812265,8.69640622 C7.359199,8.69640622 5.46897908,10.7239406 5.46897908,10.7239406 L4.27391382,9.53102092 C4.27391382,9.53102092 6.30359378,7.66869301 6.30359378,7.50295012 C6.30359378,7.3345253 4.27391382,5.471661 4.27391382,5.471661 L5.46897908,4.27605936 C5.46897908,4.27605936 7.37475416,6.30466655 7.49812265,6.30466655 C7.62256392,6.30466655 9.52887538,4.27605936 9.52887538,4.27605936 L10.7234043,5.471661 C10.7234043,5.471661 8.69318791,7.36134454 8.69318791,7.50295012 C8.69318791,7.63758269 10.7234043,9.53102092 10.7234043,9.53102092 Z" id="Shape" fill="#0F1222"></path>
                        <path d="M10.71,9.51910714 L9.51696429,10.7105357 C9.51696429,10.7105357 7.62964286,8.68553571 7.48875,8.68553571 C7.35,8.68553571 5.46214286,10.7105357 5.46214286,10.7105357 L4.26857143,9.51910714 C4.26857143,9.51910714 6.29571429,7.65910714 6.29571429,7.49357143 C6.29571429,7.32535714 4.26857143,5.46482143 4.26857143,5.46482143 L5.46214286,4.27071429 C5.46214286,4.27071429 7.36553571,6.29678571 7.48875,6.29678571 C7.61303571,6.29678571 9.51696429,4.27071429 9.51696429,4.27071429 L10.71,5.46482143 C10.71,5.46482143 8.68232143,7.35214286 8.68232143,7.49357143 C8.68232143,7.62803571 10.71,9.51910714 10.71,9.51910714 Z" id="Path-Copy" fill="#FFFFFF" fill-rule="nonzero"></path>
                    </g>
                </g>
            </g>
        </g>
    </g>
</svg>