<?xml version="1.0" encoding="UTF-8"?>
<svg width="17px" height="20px" viewBox="0 0 17 20" version="1.1" xmlns="http://www.w3.org/2000/svg" xmlns:xlink="http://www.w3.org/1999/xlink">
    <!-- Generator: Sketch 52.6 (67491) - http://www.bohemiancoding.com/sketch -->
    <title>rubbish-bin-delete-button</title>
    <desc>Created with Sketch.</desc>
    <g id="Symbols" stroke="none" stroke-width="1" fill="none" fill-rule="evenodd">
        <g id="Row/activity-2" transform="translate(-1069.000000, -21.000000)" fill="#EA1F62" fill-rule="nonzero">
            <g id="Row/activity">
                <g id="Group-2" transform="translate(1061.000000, 14.000000)">
                    <g id="rubbish-bin-delete-button" transform="translate(8.000000, 7.000000)">
                        <path d="M2,17.7142857 L2,4 L15,4 L15,17.7142857 C15,18.9714286 14.025,20 12.8333333,20 L4.16666667,20 C2.975,20 2,18.9714286 2,17.7142857 Z M17,1 L17,3 L0,3 L0,1 L4.25,1 L5.46428571,0 L11.5357143,0 L12.75,1 L17,1 Z M12,6 L12,17 L13,17 L13,6 L12,6 Z M4,6 L4,17 L5,17 L5,6 L4,6 Z M8,6 L8,17 L9,17 L9,6 L8,6 Z" id="Combined-Shape"></path>
                    </g>
                </g>
            </g>
        </g>
    </g>
</svg>