<?xml version="1.0" encoding="UTF-8"?>
<svg width="18px" height="13px" viewBox="0 0 18 13" version="1.1" xmlns="http://www.w3.org/2000/svg" xmlns:xlink="http://www.w3.org/1999/xlink">
    <!-- Generator: Sketch 52.6 (67491) - http://www.bohemiancoding.com/sketch -->
    <title>cloud-storage-download</title>
    <desc>Created with Sketch.</desc>
    <g id="Page-1" stroke="none" stroke-width="1" fill="none" fill-rule="evenodd">
        <g id="13-01_Экзаменаторы" transform="translate(-994.000000, -427.000000)" fill="#535875" fill-rule="nonzero">
            <g id="Group-5" transform="translate(300.000000, 183.000000)">
                <g id="Group-6" transform="translate(686.000000, 234.000000)">
                    <g id="cloud-storage-download" transform="translate(8.000000, 10.000000)">
                        <path d="M17.2168888,7.17553693 C16.6949241,6.53938671 16.0278889,6.12705646 15.2152251,5.93829032 C15.471676,5.56088597 15.5995403,5.14081573 15.5995403,4.67817556 C15.5995403,4.0328461 15.3651225,3.48196368 14.8965495,3.0253364 C14.427878,2.56886903 13.8622739,2.3405394 13.1997373,2.3405394 C12.6059598,2.3405394 12.0872787,2.52927356 11.6436284,2.90674188 C11.2750417,2.03007634 10.6857628,1.32698482 9.87648105,0.79743534 C9.06719934,0.267725942 8.17497332,0.00290322581 7.19986866,0.00290322581 C5.87495964,0.00290322581 4.74365303,0.459594477 3.80614585,1.3727531 C2.86857299,2.28568783 2.39993433,3.38767656 2.39993433,4.67827151 C2.39993433,4.7573985 2.40620605,4.88830663 2.41868381,5.07086799 C1.68121494,5.40570241 1.0937748,5.90790607 0.65616637,6.57747897 C0.218722123,7.24724376 0,7.97761713 0,8.76917479 C0,9.89543894 0.411011082,10.8586196 1.23280339,11.6591326 C2.05462854,12.4599015 3.04372144,12.8600461 4.19995075,12.8600461 L14.4000657,12.8600461 C15.3936571,12.8600461 16.2420468,12.5174717 16.9452675,11.8327386 C17.6483897,11.1480056 18,10.32165 18,9.35351187 C17.9999015,8.53777475 17.7388863,7.81187905 17.2168888,7.17553693 Z M11.9062526,7.52709868 L8.61556985,10.732509 C8.55938706,10.7871047 8.48747571,10.8145785 8.39993433,10.8145785 C8.31245861,10.8145785 8.24054727,10.7871047 8.18429881,10.732509 L4.88438911,7.51811134 C4.82814065,7.46338771 4.80006567,7.39334402 4.80006567,7.30807622 C4.80006567,7.22894924 4.82961828,7.16044076 4.88898618,7.10264672 C4.94848543,7.0448207 5.01865645,7.01593967 5.09989328,7.01593967 L7.19990149,7.01593967 L7.19990149,3.80170193 C7.19990149,3.72257495 7.22961828,3.65406646 7.28895335,3.59614449 C7.34835408,3.53841442 7.41862361,3.50953339 7.49986045,3.50953339 L9.30004105,3.50953339 C9.38140922,3.50953339 9.45138323,3.53831847 9.51107949,3.59614449 C9.57031605,3.65406646 9.59996716,3.72257495 9.59996716,3.80170193 L9.59996716,7.01593967 L11.6999754,7.01593967 C11.7874839,7.01593967 11.8593953,7.04328549 11.9154795,7.09800912 C11.9717608,7.15273275 11.999606,7.22277644 11.999606,7.30804424 C11.999606,7.38141421 11.9686086,7.45417649 11.9062526,7.52709868 Z" id="Shape"></path>
                    </g>
                </g>
            </g>
        </g>
    </g>
</svg>