<?xml version="1.0" encoding="UTF-8"?>
<svg width="24px" height="24px" viewBox="0 0 24 24" version="1.1" xmlns="http://www.w3.org/2000/svg" xmlns:xlink="http://www.w3.org/1999/xlink">
    <!-- Generator: Sketch 52.6 (67491) - http://www.bohemiancoding.com/sketch -->
    <title>Component/icon/exam</title>
    <desc>Created with Sketch.</desc>
    <g id="Component/icon/exam" stroke="none" stroke-width="1" fill="none" fill-rule="evenodd">
        <g id="Group" transform="translate(2.000000, 2.000000)">
            <g id="checked-5" transform="translate(4.000000, 4.000000)"></g>
            <path d="M20,3 L20,17.1818182 C20,18.7360198 18.7486596,20 17.2,20 L2.8,20 C1.25134044,20 0,18.7360198 0,17.1818182 L0,3 C-2.22044605e-16,1.34314575 1.34314575,3.33066907e-16 3,0 L17,0 C18.6568542,-2.22044605e-16 20,1.34314575 20,3 Z M18,15.8292943 C17.6872211,15.9398458 17.3506354,16 17,16 L3,16 C2.64936458,16 2.31277893,15.9398458 2,15.8292943 L2,17.1818182 C2,17.6359248 2.36043446,18 2.8,18 L17.2,18 C17.6395655,18 18,17.6359248 18,17.1818182 L18,15.8292943 Z M18,13 L18,3 C18,2.44771525 17.5522847,2 17,2 L3,2 C2.44771525,2 2,2.44771525 2,3 L2,13 C2,13.5522847 2.44771525,14 3,14 L17,14 C17.5522847,14 18,13.5522847 18,13 Z M4.62692308,8.4 C4.54230769,8.32 4.5,8.2 4.5,8.12 C4.5,8.04 4.54230769,7.92 4.62692308,7.84 L5.21923077,7.28 C5.38846154,7.12 5.64230769,7.12 5.81153846,7.28 L5.85384615,7.32 L8.18076923,9.68 C8.26538462,9.76 8.39230769,9.76 8.47692308,9.68 L14.1461538,4.12 L14.1884615,4.12 C14.3576923,3.96 14.6115385,3.96 14.7807692,4.12 L15.3730769,4.68 C15.5423077,4.84 15.5423077,5.08 15.3730769,5.24 L8.60384615,11.88 C8.51923077,11.96 8.43461538,12 8.30769231,12 C8.18076923,12 8.09615385,11.96 8.01153846,11.88 L4.71153846,8.52 L4.62692308,8.4 Z" id="Combined-Shape" fill="#92929D"></path>
        </g>
    </g>
</svg>