<?xml version="1.0" encoding="UTF-8"?>
<svg width="21px" height="13px" viewBox="0 0 21 13" version="1.1" xmlns="http://www.w3.org/2000/svg" xmlns:xlink="http://www.w3.org/1999/xlink">
    <!-- Generator: Sketch 52.6 (67491) - http://www.bohemiancoding.com/sketch -->
    <title>Shape</title>
    <desc>Created with Sketch.</desc>
    <g id="Symbols" stroke="none" stroke-width="1" fill="none" fill-rule="evenodd">
        <g id="Row/activity-9" transform="translate(-1067.000000, -24.000000)" fill="#0364FF" fill-rule="nonzero">
            <g id="Row/activity-5">
                <g id="Row/activity">
                    <g id="Group-2" transform="translate(1061.000000, 14.000000)">
                        <path d="M16.4999999,10 C12.4877263,10 8.84918686,12.1920041 6.16431421,15.7524022 C5.9452286,16.0440975 5.9452286,16.4516129 6.16431421,16.7433082 C8.84918686,20.3079959 12.4877263,22.5 16.4999999,22.5 C20.5122737,22.5 24.1508131,20.3079959 26.8356858,16.7475978 C27.0547714,16.4559026 27.0547714,16.0483871 26.8356858,15.7566918 C24.1508131,12.1920041 20.5122737,10 16.4999999,10 Z M16.7878183,20.6511668 C14.1244247,20.8184626 11.924977,18.6264585 12.092513,15.9625944 C12.2299785,13.7663006 14.012734,11.9861016 16.2121817,11.8488332 C18.8755754,11.6815374 21.075023,13.8735415 20.9074869,16.5374056 C20.7657257,18.7294098 18.9829702,20.5096088 16.7878183,20.6511668 Z M16.6546487,18.6178792 C15.2198527,18.7079616 14.0342129,17.5283116 14.1287205,16.0955731 C14.201749,14.9116335 15.1640074,13.9550446 16.3496471,13.8778312 C17.784443,13.7877488 18.9700828,14.9673988 18.8755754,16.4001373 C18.798251,17.5883665 17.8359927,18.5449554 16.6546487,18.6178792 Z" id="Shape"></path>
                    </g>
                </g>
            </g>
        </g>
    </g>
</svg>