<?xml version="1.0" encoding="UTF-8"?>
<svg width="25px" height="30px" viewBox="0 0 25 30" version="1.1" xmlns="http://www.w3.org/2000/svg" xmlns:xlink="http://www.w3.org/1999/xlink">
    <!-- Generator: Sketch 52.6 (67491) - http://www.bohemiancoding.com/sketch -->
    <title>Group 7</title>
    <desc>Created with Sketch.</desc>
    <g id="Page-1" stroke="none" stroke-width="1" fill="none" fill-rule="evenodd">
        <g id="17-02_Вебинар-для-проводящих-вебинар" transform="translate(-1118.000000, -849.000000)" fill="#EDEEF2" fill-rule="nonzero">
            <g id="Group-15" transform="translate(1110.000000, 799.000000)">
                <g id="Group-14" transform="translate(8.000000, 50.000000)">
                    <g id="Group-7">
                        <path d="M16.8607453,0 L4.83298137,0 C3.07583851,0 1.64571429,1.43111801 1.64571429,3.18726708 L1.64571429,14.9732298 L1.33440994,14.9732298 C0.625217391,14.9732298 0.0500621118,15.5478261 0.0500621118,16.2576398 L0.0500621118,24.0467081 C0.0500621118,24.7564596 0.62515528,25.3309938 1.33440994,25.3309938 L1.64571429,25.3309938 L1.64571429,26.7592547 C1.64571429,28.5173292 3.07583851,29.9465217 4.83298137,29.9465217 L21.2443478,29.9465217 C23.0003727,29.9465217 24.4306832,28.5172671 24.4306832,26.7592547 L24.4306832,7.54341615 L16.8607453,0 Z M21.2443478,27.9945963 L4.83298137,27.9945963 C4.1526087,27.9945963 3.59857143,27.440559 3.59857143,26.7592547 L3.59857143,25.3309938 L18.8973292,25.3309938 C19.606646,25.3309938 20.1817391,24.7564596 20.1817391,24.0467081 L20.1817391,16.2576398 C20.1817391,15.5478261 19.606646,14.9732298 18.8973292,14.9732298 L3.59857143,14.9732298 L3.59857143,3.18726708 C3.59857143,2.5078882 4.15267081,1.95385093 4.83298137,1.95385093 L16.1304969,1.94204969 L16.1304969,6.11801242 C16.1304969,7.33776398 17.1201863,8.32838509 18.3408696,8.32838509 L22.431677,8.31664596 L22.4777019,26.7591925 C22.4777019,27.440559 21.9246584,27.9945963 21.2443478,27.9945963 Z" id="Shape"></path>
                    </g>
                </g>
            </g>
        </g>
    </g>
</svg>