<?xml version="1.0" encoding="UTF-8"?>
<svg width="26px" height="26px" viewBox="0 0 26 26" version="1.1" xmlns="http://www.w3.org/2000/svg" xmlns:xlink="http://www.w3.org/1999/xlink">
    <!-- Generator: Sketch 52.6 (67491) - http://www.bohemiancoding.com/sketch -->
    <title>228 - Error (Flat)</title>
    <desc>Created with Sketch.</desc>
    <g id="Page-1" stroke="none" stroke-width="1" fill="none" fill-rule="evenodd">
        <g id="05-05_Вебинар-включенное-видео-аудио" transform="translate(-260.000000, -522.000000)">
            <g id="Group-3" transform="translate(0.000000, 516.000000)">
                <g id="Group-4-Copy" transform="translate(244.000000, 6.000000)">
                    <g id="228---Error-(Flat)" transform="translate(16.000000, 0.000000)">
                        <path d="M26,13 C26,20.17964 20.17964,26 13,26 C5.82036,26 0,20.17964 0,13 C0,5.82036 5.82036,0 13,0 C20.17964,0 26,5.82036 26,13" id="Fill-716" fill="#D75A4A"></path>
                        <path d="M14.6082352,7.91601778 C16.9843232,8.61790222 18.72,10.8351822 18.72,13.4622222 C18.72,16.6531733 16.1590416,19.24 13,19.24 C9.8409584,19.24 7.28,16.6531733 7.28,13.4622222 C7.28,10.8328711 9.01888,8.61374222 11.3984,7.91416889 M13,6.76 L13,12.5377778" id="Stroke-799" stroke="#FFFFFF" stroke-linecap="round"></path>
                    </g>
                </g>
            </g>
        </g>
    </g>
</svg>