<?xml version="1.0" encoding="UTF-8"?>
<svg width="27px" height="26px" viewBox="0 0 27 26" version="1.1" xmlns="http://www.w3.org/2000/svg" xmlns:xlink="http://www.w3.org/1999/xlink">
    <!-- Generator: Sketch 52.6 (67491) - http://www.bohemiancoding.com/sketch -->
    <title>81 - Chat (Flat)</title>
    <desc>Created with Sketch.</desc>
    <g id="Page-1" stroke="none" stroke-width="1" fill="none" fill-rule="evenodd">
        <g id="03-07_Вебинар-начальное-окно" transform="translate(-24.000000, -522.000000)">
            <g id="Group" transform="translate(25.000000, 522.000000)">
                <g id="81---Chat-(Flat)">
                    <path d="M21.5172414,8.79194643 L21.5172414,18.607875 C21.5172414,19.8716607 20.5278966,20.8963393 19.3076897,20.8963393 L9.86206897,20.8963393 L5.37931034,26.0034821 L5.37931034,20.8963393 L2.20955172,20.8963393 C0.989344828,20.8963393 2.96705421e-13,19.8716607 2.96705421e-13,18.607875 L2.96705421e-13,8.79194643 C2.96705421e-13,7.52816071 0.989344828,6.50348214 2.20955172,6.50348214 L19.3076897,6.50348214 C20.5278966,6.50348214 21.5172414,7.52816071 21.5172414,8.79194643" id="Fill-368" stroke="#2A4077" fill="#FFFFFF"></path>
                    <path d="M23.7904483,2.1216362e-13 L6.69231034,2.1216362e-13 C5.47210345,2.1216362e-13 4.48275862,1.02467857 4.48275862,2.28892857 L4.48275862,6.5 L19.3076897,6.5 C20.5278966,6.5 21.5172414,7.52467857 21.5172414,8.78892857 L21.5172414,14.3928571 L23.7904483,14.3928571 C25.0106552,14.3928571 26,13.3681786 26,12.1039286 L26,2.28892857 C26,1.02467857 25.0106552,2.1216362e-13 23.7904483,2.1216362e-13" id="Fill-381" fill="#2A4077"></path>
                </g>
            </g>
        </g>
    </g>
</svg>