<?xml version="1.0" encoding="UTF-8"?>
<svg width="32px" height="26px" viewBox="0 0 32 26" version="1.1" xmlns="http://www.w3.org/2000/svg" xmlns:xlink="http://www.w3.org/1999/xlink">
    <!-- Generator: Sketch 52.6 (67491) - http://www.bohemiancoding.com/sketch -->
    <title>59 - Document Folder (Flat)</title>
    <desc>Created with Sketch.</desc>
    <g id="Page-1" stroke="none" stroke-width="1" fill="none" fill-rule="evenodd">
        <g id="03-07_Вебинар-начальное-окно" transform="translate(-100.000000, -522.000000)">
            <g id="Group-2" transform="translate(98.000000, 522.000000)">
                <g id="59---Document-Folder-(Flat)" transform="translate(2.000000, 0.000000)">
                    <path d="M25.558069,26 L0.863448276,26 C0.295172414,26 -0.118068966,25.4589787 0.0303448276,24.9091064 L5.63917241,9.49055319 C5.74068966,9.1132766 6.0822069,8.85106383 6.47227586,8.85106383 L31.1668966,8.85106383 C31.7351724,8.85106383 32,9.39595745 32,9.94251064 L26.3911724,25.3605106 C26.2896552,25.7377872 25.9481379,26 25.558069,26" id="Fill-1460" fill="#EFCE4A"></path>
                    <path d="M5.63917241,9.49055319 C5.74068966,9.1132766 6.0822069,8.85106383 6.47227586,8.85106383 L29.2413793,8.85106383 L29.2413793,3.87234043 L4.96551724,3.87234043 L1.65517241,7.19148936 L1.65517241,20.4420851 L5.63917241,9.49055319" id="Fill-1461" fill="#F4EFDC"></path>
                    <path d="M1.65517241,7.19148936 L4.96551724,3.87234043 L13.7931034,3.87234043 L11.0344828,0 L0.955586207,0 C0.428137931,0 0,0.428723404 0,0.958680851 L0,24.5948936 C0.0380689655,24.596 0.076137931,24.5982128 0.113103448,24.6004255 L1.65517241,20.3845532 L1.65517241,7.19148936" id="Fill-1462" fill="#EBBA16"></path>
                    <polygon id="Fill-2144" fill="#D1BF86" points="15.4482759 6.63829787 16.5517241 6.63829787 16.5517241 8.85106383 15.4482759 8.85106383"></polygon>
                    <polygon id="Fill-2145" fill="#D1BF86" points="19.3103448 6.63829787 20.4137931 6.63829787 20.4137931 8.85106383 19.3103448 8.85106383"></polygon>
                    <polygon id="Fill-2146" fill="#D1BF86" points="23.1724138 6.63829787 24.2758621 6.63829787 24.2758621 8.85106383 23.1724138 8.85106383"></polygon>
                    <polygon id="Fill-2147" fill="#D1BF86" points="7.72413793 6.63829787 8.82758621 6.63829787 8.82758621 8.85106383 7.72413793 8.85106383"></polygon>
                    <polygon id="Fill-2148" fill="#D1BF86" points="11.5862069 6.63829787 12.6896552 6.63829787 12.6896552 8.85106383 11.5862069 8.85106383"></polygon>
                    <polyline id="Fill-3078" fill="#D1BF86" points="4.96551724 7.19148936 4.96551724 3.87234043 1.65517241 7.19148936 4.96551724 7.19148936"></polyline>
                </g>
            </g>
        </g>
    </g>
</svg>