<svg width="34px" height="34px" viewBox="0 0 34 34" version="1.1" xmlns="http://www.w3.org/2000/svg" xmlns:xlink="http://www.w3.org/1999/xlink">
            <g id="Symbols" stroke="none" stroke-width="1" fill="none" fill-rule="evenodd">
                <g id="Navbar-mobile" transform="translate(-223.000000, -18.000000)">
                    <g id="Navbar">
                        <g>
                            <g id="Group" transform="translate(224.000000, 19.000000)">
                                <g id="Profile/more">
                                    <rect id="Rectangle-Copy-3" stroke="#2A4077" x="0" y="0" width="32" height="32" rx="16"></rect>
                                    <g id="Combination-Lock" transform="translate(8.000000, 5.333333)">
                                        <path d="M14.3589744,9.43589744 L12.7179487,9.43589744 L12.7179487,6.74789744 C12.7179487,4.14646154 10.6014359,2.02994872 8,2.02994872 C5.3985641,2.02994872 3.28205128,4.14646154 3.28205128,6.74789744 L3.28205128,9.43589744 L1.64102564,9.43589744 L1.64102564,6.74789744 C1.64102564,3.2414359 4.49353846,0.388923077 8,0.388923077 C11.5064615,0.388923077 14.3589744,3.2414359 14.3589744,6.74789744 L14.3589744,9.43589744" id="Fill-81" fill="#2A4077"></path>
                                        <path d="M13.1282051,21.3333333 L2.87179487,21.3333333 C1.28574359,21.3333333 0,20.0475897 0,18.4615385 L0,9.43589744 L16,9.43589744 L16,18.4615385 C16,20.0475897 14.7142564,21.3333333 13.1282051,21.3333333" id="Fill-87" fill="#2A4077"></path>
                                        <path d="M2.87179487,21.3333333 L7.79487179,21.3333333 L7.79487179,9.43589744 L0,9.43589744 L0,18.4615385 C0,20.0475897 1.28574359,21.3333333 2.87179487,21.3333333" id="Fill-88" fill="#2A4077"></path>
                                        <path d="M13.1282051,21.3333333 L2.87179487,21.3333333 C1.28574359,21.3333333 0,20.0475897 0,18.4615385 L16,18.4615385 C16,20.0475897 14.7142564,21.3333333 13.1282051,21.3333333" id="Fill-445" fill="#2A4077"></path>
                                        <polygon id="Fill-446" fill="#FFFFFF" points="10.6666667 11.4871795 12.7179487 11.4871795 12.7179487 16.4102564 10.6666667 16.4102564"></polygon>
                                        <polygon id="Fill-447" fill="#FFFFFF" points="6.97435897 11.4871795 9.02564103 11.4871795 9.02564103 16.4102564 6.97435897 16.4102564"></polygon>
                                        <polygon id="Fill-448" fill="#FFFFFF" points="3.28205128 11.4871795 5.33333333 11.4871795 5.33333333 16.4102564 3.28205128 16.4102564"></polygon>
                                        <polygon id="Fill-528" fill="#2A4077" points="3.69230769 11.8974359 4.92307692 11.8974359 4.92307692 12.7179487 3.69230769 12.7179487"></polygon>
                                        <polygon id="Fill-529" fill="#2A4077" points="3.69230769 13.5384615 4.92307692 13.5384615 4.92307692 14.3589744 3.69230769 14.3589744"></polygon>
                                        <polygon id="Fill-530" fill="#2A4077" points="3.69230769 15.1794872 4.92307692 15.1794872 4.92307692 16 3.69230769 16"></polygon>
                                        <polygon id="Fill-531" fill="#2A4077" points="7.38461538 11.8974359 8.61538462 11.8974359 8.61538462 12.7179487 7.38461538 12.7179487"></polygon>
                                        <polygon id="Fill-532" fill="#2A4077" points="7.38461538 13.5384615 8.61538462 13.5384615 8.61538462 14.3589744 7.38461538 14.3589744"></polygon>
                                        <polygon id="Fill-533" fill="#2A4077" points="7.38461538 15.1794872 8.61538462 15.1794872 8.61538462 16 7.38461538 16"></polygon>
                                        <polygon id="Fill-534" fill="#2A4077" points="11.0769231 11.8974359 12.3076923 11.8974359 12.3076923 12.7179487 11.0769231 12.7179487"></polygon>
                                        <polygon id="Fill-535" fill="#2A4077" points="11.0769231 13.5384615 12.3076923 13.5384615 12.3076923 14.3589744 11.0769231 14.3589744"></polygon>
                                        <polygon id="Fill-536" fill="#2A4077" points="11.0769231 15.1794872 12.3076923 15.1794872 12.3076923 16 11.0769231 16"></polygon>
                                        <path d="M0,18.4615385 C0,20.0475897 1.28574359,21.3333333 2.87179487,21.3333333 L7.79487179,21.3333333 L7.79487179,18.4615385 L0,18.4615385" id="Fill-549" fill="#2A4077"></path>
                                    </g>
                                </g>
                            </g>
                        </g>
                    </g>
                </g>
            </g>
        </svg>