<?xml version="1.0" encoding="UTF-8"?>
<svg width="32px" height="26px" viewBox="0 0 32 26" version="1.1" xmlns="http://www.w3.org/2000/svg" xmlns:xlink="http://www.w3.org/1999/xlink">
    <!-- Generator: Sketch 52.6 (67491) - http://www.bohemiancoding.com/sketch -->
    <title>support</title>
    <desc>Created with Sketch.</desc>
    <g id="Page-1" stroke="none" stroke-width="1" fill="none" fill-rule="evenodd">
        <g id="03-07_Вебинар-начальное-окно" transform="translate(-184.000000, -522.000000)" fill="#757991" fill-rule="nonzero">
            <g id="Group-3" transform="translate(181.000000, 522.000000)">
                <g id="support" transform="translate(3.000000, 0.000000)">
                    <path d="M28.862069,-3.61990631e-13 C30.3793103,-3.61990631e-13 31.6551724,1.24137931 31.6551724,2.79310345 L31.6551724,18.862069 C31.6551724,20.3793103 30.4137931,21.6551724 28.862069,21.6551724 L26.3793103,21.6551724 L26.3793103,25.1034483 C26.3793103,25.6206897 25.9655172,26 25.4827586,26 C25.2413793,26 25.0344828,25.8965517 24.862069,25.7241379 L20.8275862,21.6551724 L3,21.6551724 C1.48275862,21.6551724 0.206896552,20.4137931 0.206896552,18.862069 L0.206896552,2.79310345 C0.206896552,1.27586207 1.44827586,-3.61990631e-13 3,-3.61990631e-13 L28.862069,-3.61990631e-13 Z M18.1411638,17.8770335 L18.1411638,15.6897768 C18.1411638,15.5309653 18.0928565,15.393812 17.9962404,15.2783127 C17.8996244,15.1628134 17.7848945,15.1050647 17.6520474,15.1050647 L15.3695043,15.1050647 C15.2366572,15.1050647 15.1219274,15.1628134 15.0253113,15.2783127 C14.9286952,15.393812 14.8803879,15.5309653 14.8803879,15.6897768 L14.8803879,17.8770335 C14.8803879,18.035845 14.9286952,18.1729984 15.0253113,18.2884976 C15.1219274,18.4039969 15.2366572,18.4617457 15.3695043,18.4617457 L17.6520474,18.4617457 C17.7848945,18.4617457 17.8996244,18.4039969 17.9962404,18.2884976 C18.0928565,18.1729984 18.1411638,18.035845 18.1411638,17.8770335 Z M16.5821797,3.35668103 C15.7967334,3.35668103 15.1005528,3.49908426 14.4936171,3.78389498 C13.8866813,4.06870571 13.3719837,4.43149488 12.9495088,4.87227338 C12.5270339,5.31305188 12.2027446,5.79451041 11.9766313,6.3166634 C11.750518,6.8388164 11.6315128,7.33722769 11.6196121,7.81191223 C11.6196121,7.94753638 11.6582888,8.05603408 11.7356433,8.13740857 C11.8129979,8.21878306 11.9052269,8.2594697 12.0123332,8.2594697 L14.1901507,8.2594697 C14.416264,8.2594697 14.5679957,8.16792477 14.6453503,7.98483216 C14.7227048,7.80173955 14.8149339,7.60169692 14.9220402,7.38469828 C15.0291465,7.16769963 15.1987289,6.967657 15.4307926,6.78456439 C15.6628563,6.60147179 16.0466482,6.50992685 16.5821797,6.50992685 C17.129612,6.50992685 17.5342298,6.6218151 17.7960452,6.84559496 C18.0578606,7.06937481 18.1887664,7.37791514 18.1887664,7.77122518 C18.1887664,8.04247349 18.1084378,8.29337441 17.9477784,8.52393548 C17.7871189,8.75449654 17.5877851,8.98166359 17.3497711,9.20544344 C17.1117571,9.4292233 16.8529207,9.66317145 16.5732542,9.90729493 C16.2935878,10.1514184 16.0347514,10.4192721 15.7967374,10.710864 C15.5587233,11.002456 15.3593896,11.3245585 15.1987301,11.6771813 C15.0380706,12.0298041 14.9577421,12.4298894 14.9577421,12.8774491 C14.9577421,13.0266356 15.0053442,13.1554766 15.1005498,13.263976 C15.1957554,13.3724753 15.3088104,13.4267241 15.4397181,13.4267241 L17.6175356,13.4267241 C17.7484433,13.4267241 17.8525728,13.3724753 17.9299274,13.263976 C18.007282,13.1554766 18.0638094,13.0266356 18.0995115,12.8774491 C18.1709158,12.5790759 18.3047966,12.3044411 18.5011582,12.0535364 C18.6975198,11.8026318 18.9176795,11.5619025 19.1616438,11.3313414 C19.4056082,11.1007804 19.6584943,10.8668322 19.9203097,10.6294899 C20.1821252,10.3921477 20.4231108,10.124294 20.6432737,9.82592085 C20.8634367,9.52754771 21.0449197,9.19527351 21.1877281,8.8290883 C21.3305365,8.46290308 21.4019397,8.0356934 21.4019397,7.54744645 C21.4019397,6.93713775 21.2769842,6.37769651 21.0270694,5.86910593 C20.7771547,5.36051535 20.4350147,4.91974346 20.0006391,4.54677704 C19.5662635,4.17381061 19.054541,3.88222306 18.4654563,3.67200562 C17.8763716,3.46178818 17.248619,3.35668103 16.5821797,3.35668103 Z" id="Combined-Shape"></path>
                </g>
            </g>
        </g>
    </g>
</svg>