<?xml version="1.0" encoding="UTF-8"?>
<svg width="14px" height="15px" viewBox="0 0 14 15" version="1.1" xmlns="http://www.w3.org/2000/svg" xmlns:xlink="http://www.w3.org/1999/xlink">
    <!-- Generator: Sketch 52.6 (67491) - http://www.bohemiancoding.com/sketch -->
    <title>import</title>
    <desc>Created with Sketch.</desc>
    <g id="Symbols" stroke="none" stroke-width="1" fill="none" fill-rule="evenodd">
        <g id="import" transform="translate(-14.000000, -12.000000)" fill="#535875">
            <g id="Combined-Shape">
                <g transform="translate(14.000000, 12.060606)">
                    <path d="M11.3927721,3.77223953 C12.8547691,3.77223953 13.9997701,4.67012807 14,5.81677628 L14,11.9561555 C14,13.1021115 12.8545392,14 11.3932319,14 L2.60676814,14 C1.14500107,14 3.55271368e-15,13.102573 3.55271368e-15,11.9561555 L3.55271368e-15,5.81677628 C3.55271368e-15,4.67058959 1.14500107,3.77270105 2.60676814,3.77270105 L4.93079159,3.77270105 L4.93079159,5.15726318 L2.60676814,5.15726318 C1.91553782,5.15726318 1.3792424,5.51171109 1.3792424,5.81677628 L1.3792424,11.9559248 C1.3792424,12.2607592 1.91553782,12.6154379 2.60676814,12.6154379 L11.3927721,12.6154379 C12.0842323,12.6154379 12.6205277,12.2607592 12.6205277,11.9559248 L12.6205277,5.816084 C12.6205277,5.51101881 12.0842323,5.15680166 11.3927721,5.15680166 L9.06851879,5.15680166 L9.06851879,3.77223953 L11.3927721,3.77223953 Z M9.08667882,6.66597439 C9.26345172,6.66597439 9.439535,6.73381793 9.57424101,6.86881274 C9.84365302,7.13880235 9.84365302,7.57724703 9.57424101,7.84746741 L7.51526197,9.91438791 C7.38055597,10.0496135 7.20447269,10.1167647 7.02792966,10.1167647 C7.02632054,10.1167647 7.02448155,10.1167647 7.02287244,10.1167647 C7.02126332,10.1167647 7.01942433,10.1167647 7.01758534,10.1167647 C6.84150206,10.1167647 6.66495903,10.0496135 6.53025303,9.91438791 L4.47127399,7.84746741 C4.20186198,7.57724703 4.20186198,7.13880235 4.47127399,6.86881274 C4.60598,6.73358717 4.78252303,6.66574363 4.95883618,6.66574363 C5.13514934,6.66574363 5.31169236,6.73358717 5.44639837,6.86881274 L6.35646848,7.78216222 L6.35646848,4.72920272 L6.35646848,3.34464059 L6.35646848,0.692281066 C6.35646848,0.310141918 6.66518891,8.89066598e-13 7.04608968,8.89066598e-13 C7.42699046,8.89066598e-13 7.73571088,0.310141918 7.73571088,0.692281066 L7.73571088,3.34487135 L7.73571088,4.72943348 L7.73571088,7.73554863 L8.59911663,6.8690435 C8.73382264,6.73381793 8.91013579,6.66597439 9.08667882,6.66597439 Z"></path>
                </g>
            </g>
        </g>
    </g>
</svg>