<?xml version="1.0" encoding="UTF-8"?>
<svg width="22px" height="22px" viewBox="0 0 22 22" version="1.1" xmlns="http://www.w3.org/2000/svg" xmlns:xlink="http://www.w3.org/1999/xlink">
    <!-- Generator: Sketch 52.6 (67491) - http://www.bohemiancoding.com/sketch -->
    <title>Icon/calendar/active</title>
    <desc>Created with Sketch.</desc>
    <g id="Page-1" stroke="none" stroke-width="1" fill="none" fill-rule="evenodd" stroke-linecap="square">
        <g id="icons" transform="translate(-33.000000, -414.000000)" stroke="#FFFFFF">
            <g id="Icon/calendar/active" transform="translate(34.000000, 415.000000)">
                <path d="M8.3,6.3 L11.7,6.3 L11.7,2 L8.3,2 L8.3,6.3 Z M8.3,8.3 L8.3,18 L11.7,18 L11.7,8.3 L8.3,8.3 Z M18,6.3 L18,3 C18,2.44771525 17.5522847,2 17,2 L13.7,2 L13.7,6.3 L18,6.3 Z M18,8.3 L13.7,8.3 L13.7,18 L17,18 C17.5522847,18 18,17.5522847 18,17 L18,8.3 Z M2,6.3 L6.3,6.3 L6.3,2 L3,2 C2.44771525,2 2,2.44771525 2,3 L2,6.3 Z M2,8.3 L2,17 C2,17.5522847 2.44771525,18 3,18 L6.3,18 L6.3,8.3 L2,8.3 Z M3,0 L17,0 C18.6568542,-2.22044605e-16 20,1.34314575 20,3 L20,17 C20,18.6568542 18.6568542,20 17,20 L3,20 C1.34314575,20 2.22044605e-16,18.6568542 0,17 L0,3 C-2.22044605e-16,1.34314575 1.34314575,3.33066907e-16 3,0 Z" id="Shape" transform="translate(10.000000, 10.000000) rotate(-90.000000) translate(-10.000000, -10.000000) "></path>
            </g>
        </g>
    </g>
</svg>