<?xml version="1.0" encoding="UTF-8"?>
<svg width="24px" height="24px" viewBox="0 0 24 24" version="1.1" xmlns="http://www.w3.org/2000/svg" xmlns:xlink="http://www.w3.org/1999/xlink">
    <!-- Generator: Sketch 52.6 (67491) - http://www.bohemiancoding.com/sketch -->
    <title>Icon/dashboard/active</title>
    <desc>Created with Sketch.</desc>
    <g id="Icon/dashboard/active" stroke="none" stroke-width="1" fill="none" fill-rule="evenodd">
        <g>
            <rect id="Rectangle" fill-rule="nonzero" x="0" y="0" width="24" height="24"></rect>
            <g id="layout" transform="translate(2.000000, 2.000000)" fill="#92929D">
                <path d="M6,18 L6,8 L2,8 L2,17 C2,17.5522847 2.44771525,18 3,18 L6,18 Z M8,18 L17,18 C17.5522847,18 18,17.5522847 18,17 L18,8 L8,8 L8,18 Z M2,6 L18,6 L18,3 C18,2.44771525 17.5522847,2 17,2 L3,2 C2.44771525,2 2,2.44771525 2,3 L2,6 Z M3,0 L17,0 C18.6568542,-2.22044605e-16 20,1.34314575 20,3 L20,17 C20,18.6568542 18.6568542,20 17,20 L3,20 C1.34314575,20 2.22044605e-16,18.6568542 0,17 L0,3 C-2.22044605e-16,1.34314575 1.34314575,3.33066907e-16 3,0 Z" id="Combined-Shape"></path>
            </g>
        </g>
    </g>
</svg>