<?xml version="1.0" encoding="UTF-8"?>
<svg width="30px" height="30px" viewBox="0 0 30 30" version="1.1" xmlns="http://www.w3.org/2000/svg" xmlns:xlink="http://www.w3.org/1999/xlink">
    <!-- Generator: Sketch 52.6 (67491) - http://www.bohemiancoding.com/sketch -->
    <title>Group 9</title>
    <desc>Created with Sketch.</desc>
    <g id="Page-1" stroke="none" stroke-width="1" fill="none" fill-rule="evenodd">
        <g id="03-03_Вебинар-просмотр" transform="translate(-1364.000000, -840.000000)">
            <g id="Group-6" transform="translate(1110.000000, 824.000000)">
                <g id="Group-2">
                    <g id="list-item-message-copy">
                        <g id="Group-10" transform="translate(16.000000, 16.000000)">
                            <g id="Group-9" transform="translate(238.000000, 0.000000)">
                                <rect id="Rectangle" stroke="#535875" fill="#FFFFFF" fill-rule="nonzero" opacity="0.239999995" x="0.5" y="0.5" width="29" height="29" rx="3"></rect>
                                <g id="Group-8" transform="translate(7.000000, 6.000000)" fill="#535875">
                                    <path d="M12.2186667,7.7792 C12.3050667,7.97013333 12.2730667,8.19413333 12.1344,8.35093333 L8.40106667,12.6176 C8.29973333,12.7328 8.1536,12.8 8,12.8 C7.8464,12.8 7.70026667,12.7338667 7.59893333,12.6176 L3.8656,8.35093333 C3.728,8.19306667 3.69386667,7.97013333 3.78133333,7.7792 C3.86773333,7.58933333 4.0576,7.46666667 4.26666667,7.46666667 L6.4,7.46666667 L6.4,0.533333333 C6.4,0.238933333 6.63893333,-3.64153152e-13 6.93333333,-3.64153152e-13 L9.06666667,-3.64153152e-13 C9.36106667,-3.64153152e-13 9.6,0.238933333 9.6,0.533333333 L9.6,7.46666667 L11.7333333,7.46666667 C11.9424,7.46666667 12.1322667,7.58826667 12.2186667,7.7792 Z M13.8666667,11.7333333 L16,11.7333333 L16,16 C16,16.5898667 15.5232,17.0666667 14.9333333,17.0666667 L1.06666667,17.0666667 C0.477866667,17.0666667 0,16.5898667 0,16 L0,11.7333333 L2.13333333,11.7333333 L2.13333333,14.9333333 L13.8666667,14.9333333 L13.8666667,11.7333333 Z" id="Combined-Shape"></path>
                                </g>
                            </g>
                        </g>
                    </g>
                </g>
            </g>
        </g>
    </g>
</svg>