<?xml version="1.0" encoding="UTF-8"?>
<svg width="20px" height="20px" viewBox="0 0 20 20" version="1.1" xmlns="http://www.w3.org/2000/svg" xmlns:xlink="http://www.w3.org/1999/xlink">
    <!-- Generator: Sketch 52.6 (67491) - http://www.bohemiancoding.com/sketch -->
    <title>Icon/calendar/active</title>
    <desc>Created with Sketch.</desc>
    <g id="Page-1" stroke="none" stroke-width="1" fill="none" fill-rule="evenodd">
        <g id="icons" transform="translate(-34.000000, -315.000000)" fill="#FFFFFF">
            <g id="Icon/calendar/active" transform="translate(34.000000, 315.000000)">
                <path d="M20,3 L20,17.1818182 C20,18.7360198 18.7486596,20 17.2,20 L2.8,20 C1.25134044,20 0,18.7360198 0,17.1818182 L0,3 C-2.22044605e-16,1.34314575 1.34314575,3.33066907e-16 3,0 L17,0 C18.6568542,-2.22044605e-16 20,1.34314575 20,3 Z M18,15.8292943 C17.6872211,15.9398458 17.3506354,16 17,16 L3,16 C2.64936458,16 2.31277893,15.9398458 2,15.8292943 L2,17.1818182 C2,17.6359248 2.36043446,18 2.8,18 L17.2,18 C17.6395655,18 18,17.6359248 18,17.1818182 L18,15.8292943 Z M18,13 L18,3 C18,2.44771525 17.5522847,2 17,2 L3,2 C2.44771525,2 2,2.44771525 2,3 L2,13 C2,13.5522847 2.44771525,14 3,14 L17,14 C17.5522847,14 18,13.5522847 18,13 Z" id="Shape"></path>
                <path d="M13.6125677,7.48015519 L7.9322684,4.13167675 C7.41463391,3.82622211 6.99711319,4.07043218 7.00001504,4.67561507 L7.02910261,11.322012 C7.03172809,11.9270552 7.4543616,12.1733603 7.9735161,11.8702801 L13.6103568,8.58088132 C14.1289585,8.27835971 14.130064,7.78560983 13.6125677,7.48015519 Z" id="Path"></path>
            </g>
        </g>
    </g>
</svg>