<?xml version="1.0" encoding="UTF-8"?>
<svg width="50px" height="50px" viewBox="0 0 50 50" version="1.1" xmlns="http://www.w3.org/2000/svg" xmlns:xlink="http://www.w3.org/1999/xlink">
    <!-- Generator: Sketch 52.6 (67491) - http://www.bohemiancoding.com/sketch -->
    <title>Group 21</title>
    <desc>Created with Sketch.</desc>
    <g id="Page-1" stroke="none" stroke-width="1" fill="none" fill-rule="evenodd">
        <g id="03-03_Вебинар-просмотр" transform="translate(-1034.000000, -253.000000)">
            <g id="Group-21" transform="translate(1034.000000, 253.000000)">
                <circle id="Oval" fill="#FFFFFF" fill-rule="nonzero" cx="25" cy="25" r="25"></circle>
                <g id="Group-13" transform="translate(10.000000, 12.000000)" fill="#0F1222">
                    <path d="M1.44,19.53696 L6.984,19.53696 L13.128,24.16896 C14.088,24.88896 15.43224,24.21696 15.43224,23.01696 L15.43224,1.60896 C15.43224,0.43296 14.064,-0.26304 13.128,0.45696 L6.984,5.08896 L1.44,5.08896 C0.648,5.08896 4.61852778e-14,5.73696 4.61852778e-14,6.52896 L4.61852778e-14,18.1212 C4.61852778e-14,18.88896 0.648,19.53696 1.44,19.53696 Z" id="Path"></path>
                    <path d="M29.376,7.10496 C28.728,6.45696 27.648,6.45696 27,7.10496 L24.168,9.93696 L21.336,7.10496 C20.688,6.45696 19.608,6.45696 18.96,7.10496 C18.31224,7.75296 18.31224,8.83296 18.96,9.48096 L21.79224,12.31296 L18.96,15.14496 C18.31224,15.79296 18.31224,16.87296 18.96,17.52096 C19.296,17.85672 19.728,18.02496 20.16,18.02496 C20.59224,18.02496 21.024,17.85696 21.36,17.52096 L24.19224,14.68872 L27.024,17.52096 C27.36,17.85672 27.79224,18.02496 28.224,18.02496 C28.65624,18.02496 29.08824,17.85696 29.424,17.52096 C30.07224,16.87296 30.07224,15.79296 29.424,15.14496 L26.544,12.31296 L29.37624,9.48096 C30.024,8.83296 30.024,7.75296 29.376,7.10496 Z" id="Path"></path>
                </g>
            </g>
        </g>
    </g>
</svg>