<?xml version="1.0" encoding="UTF-8"?>
<svg width="20px" height="16px" viewBox="0 0 20 16" version="1.1" xmlns="http://www.w3.org/2000/svg" xmlns:xlink="http://www.w3.org/1999/xlink">
    <!-- Generator: Sketch 52.6 (67491) - http://www.bohemiancoding.com/sketch -->
    <title>support 2</title>
    <desc>Created with Sketch.</desc>
    <g id="Page-1" stroke="none" stroke-width="1" fill="none" fill-rule="evenodd">
        <g id="03-01_Вебинары" transform="translate(-1155.000000, -235.000000)" fill="#757991" fill-rule="nonzero">
            <g id="Group-2" transform="translate(300.000000, 167.000000)">
                <g id="CTA/Primary/Small-Copy-2" transform="translate(843.000000, 55.000000)">
                    <g id="support-2" transform="translate(12.000000, 13.000000)">
                        <g id="support">
                            <path d="M17.5756775,-4.35207426e-14 C18.5062789,-4.35207426e-14 19.2888301,0.73964687 19.2888301,1.66420546 L19.2888301,11.2385233 C19.2888301,12.1425361 18.5274289,12.9027287 17.5756775,12.9027287 L16.0528751,12.9027287 L16.0528751,14.9573034 C16.0528751,15.2654896 15.7990747,15.4914928 15.5029742,15.4914928 C15.354924,15.4914928 15.2280238,15.4298555 15.1222736,15.3271268 L12.6477198,12.9027287 L1.71315268,12.9027287 C0.782551223,12.9027287 2.89546165e-13,12.1630819 2.89546165e-13,11.2385233 L2.89546165e-13,1.66420546 C2.89546165e-13,0.760192616 0.76140119,-4.35207426e-14 1.71315268,-4.35207426e-14 L17.5756775,-4.35207426e-14 Z M11,10.6516129 L11,9.3483871 C11,9.25376297 10.9703707,9.17204335 10.9111111,9.10322581 C10.8518516,9.03440826 10.7814819,9 10.7,9 L9.3,9 C9.21851811,9 9.14814844,9.03440826 9.08888889,9.10322581 C9.02962933,9.17204335 9,9.25376297 9,9.3483871 L9,10.6516129 C9,10.746237 9.02962933,10.8279566 9.08888889,10.8967742 C9.14814844,10.9655917 9.21851811,11 9.3,11 L10.7,11 C10.7814819,11 10.8518516,10.9655917 10.9111111,10.8967742 C10.9703707,10.8279566 11,10.746237 11,10.6516129 Z M10.0437956,2 C9.56204139,2 9.13503836,2.08484764 8.76277372,2.25454545 C8.39050909,2.42424327 8.07481881,2.64040273 7.81569343,2.9030303 C7.55656805,3.16565788 7.35766493,3.4525237 7.2189781,3.76363636 C7.08029128,4.07474903 7.00729931,4.37171576 7,4.65454545 C7,4.73535394 7.02372239,4.79999976 7.07116788,4.84848485 C7.11861338,4.89696994 7.17518215,4.92121212 7.24087591,4.92121212 L8.57664234,4.92121212 C8.71532916,4.92121212 8.80839392,4.86666721 8.85583942,4.75757576 C8.90328491,4.6484843 8.95985369,4.52929358 9.02554745,4.4 C9.0912412,4.27070642 9.19525476,4.1515157 9.33759124,4.04242424 C9.47992772,3.93333279 9.71532682,3.87878788 10.0437956,3.87878788 C10.3795637,3.87878788 10.6277364,3.94545388 10.7883212,4.07878788 C10.9489059,4.21212188 11.0291971,4.39595842 11.0291971,4.63030303 C11.0291971,4.79192 10.9799275,4.94141345 10.8813869,5.07878788 C10.7828462,5.2161623 10.6605847,5.35151448 10.5145985,5.48484848 C10.3686124,5.61818248 10.2098549,5.75757503 10.0383212,5.9030303 C9.86678746,6.04848558 9.70802993,6.20807994 9.5620438,6.38181818 C9.41605766,6.55555642 9.29379611,6.7474737 9.19525547,6.95757576 C9.09671484,7.16767782 9.04744526,7.40605927 9.04744526,7.67272727 C9.04744526,7.76161661 9.07664204,7.83838352 9.1350365,7.9030303 C9.19343095,7.96767709 9.26277332,8 9.34306569,8 L10.6788321,8 C10.7591245,8 10.8229925,7.96767709 10.870438,7.9030303 C10.9178834,7.83838352 10.9525546,7.76161661 10.9744526,7.67272727 C11.0182484,7.49494861 11.1003644,7.33131388 11.2208029,7.18181818 C11.3412415,7.03232248 11.4762766,6.88888958 11.6259124,6.75151515 C11.7755482,6.61414073 11.9306561,6.47474818 12.0912409,6.33333333 C12.2518256,6.19191848 12.3996344,6.03232412 12.5346715,5.85454545 C12.6697087,5.67676679 12.7810215,5.47878897 12.8686131,5.26060606 C12.9562048,5.04242315 13,4.78788024 13,4.4969697 C13,4.13333152 12.9233584,3.80000152 12.770073,3.4969697 C12.6167876,3.19393788 12.4069356,2.93131424 12.1405109,2.70909091 C11.8740863,2.48686758 11.5602208,2.31313194 11.1989051,2.18787879 C10.8375894,2.06262564 10.4525568,2 10.0437956,2 Z" id="Combined-Shape"></path>
                        </g>
                    </g>
                </g>
            </g>
        </g>
    </g>
</svg>