<?xml version="1.0" encoding="UTF-8"?>
<svg width="50px" height="50px" viewBox="0 0 50 50" version="1.1" xmlns="http://www.w3.org/2000/svg" xmlns:xlink="http://www.w3.org/1999/xlink">
    <!-- Generator: Sketch 52.6 (67491) - http://www.bohemiancoding.com/sketch -->
    <title>Group 23</title>
    <desc>Created with Sketch.</desc>
    <g id="Page-1" stroke="none" stroke-width="1" fill="none" fill-rule="evenodd">
        <g id="18-02_Вебинар-для-проводящих-вебинар" transform="translate(-949.000000, -253.000000)" fill-rule="nonzero">
            <g id="Group-3" transform="translate(300.000000, 237.000000)">
                <g id="Group-21" transform="translate(649.000000, 16.000000)">
                    <g id="Group-23">
                        <g id="Group-18">
                            <circle id="Oval-Copy" fill="#FFFFFF" cx="25" cy="25" r="25"></circle>
                            <path d="M12,12 L38,12 C39.1045695,12 40,12.8954305 40,14 L40,31 C40,32.1045695 39.1045695,33 38,33 L12,33 C10.8954305,33 10,32.1045695 10,31 L10,14 C10,12.8954305 10.8954305,12 12,12 Z M12,13 C11.4477153,13 11,13.4477153 11,14 L11,28 L39,28 L39,14 C39,13.4477153 38.5522847,13 38,13 L12,13 Z M25,31 C25.5522847,31 26,30.5522847 26,30 C26,29.4477153 25.5522847,29 25,29 C24.4477153,29 24,29.4477153 24,30 C24,30.5522847 24.4477153,31 25,31 Z M22,34 L28,34 L28,34.5 C28,35.3284271 28.6715729,36 29.5,36 L30,36 C30.5522847,36 31,36.4477153 31,37 C31,37.5522847 30.5522847,38 30,38 L20,38 C19.4477153,38 19,37.5522847 19,37 C19,36.4477153 19.4477153,36 20,36 L20.5,36 C21.3284271,36 22,35.3284271 22,34.5 L22,34 Z" id="Combined-Shape" fill="#000000"></path>
                        </g>
                    </g>
                </g>
            </g>
        </g>
    </g>
</svg>