<?xml version="1.0" encoding="UTF-8"?>
<svg width="24px" height="24px" viewBox="0 0 24 24" version="1.1" xmlns="http://www.w3.org/2000/svg" xmlns:xlink="http://www.w3.org/1999/xlink">
    <!-- Generator: Sketch 52.6 (67491) - http://www.bohemiancoding.com/sketch -->
    <title>Component/icon/veBinar Copy</title>
    <desc>Created with Sketch.</desc>
    <g id="Component/icon/veBinar-Copy" stroke="none" stroke-width="1" fill="none" fill-rule="evenodd">
        <path d="M16,19 L16,5 L3,5 C2.44771525,5 2,5.44771525 2,6 L2,18 C2,18.5522847 2.44771525,19 3,19 L16,19 Z M18,19 L21,19 C21.5522847,19 22,18.5522847 22,18 L22,6 C22,5.44771525 21.5522847,5 21,5 L18,5 L18,19 Z M3,3 L21,3 C22.6568542,3 24,4.34314575 24,6 L24,18 C24,19.6568542 22.6568542,21 21,21 L3,21 C1.34314575,21 2.22044605e-16,19.6568542 0,18 L0,6 C-2.22044605e-16,4.34314575 1.34314575,3 3,3 Z M12.6125677,11.4801552 C13.130064,11.7856098 13.1289585,12.2783597 12.6103568,12.5808813 L6.9735161,15.8702801 C6.4543616,16.1733603 6.03172809,15.9270552 6.02910261,15.322012 L6.00001504,8.67561507 C5.99711319,8.07043218 6.41463391,7.82622211 6.9322684,8.13167675 L12.6125677,11.4801552 Z" id="Combined-Shape" fill="#FFFFFF"></path>
    </g>
</svg>