<?xml version="1.0" encoding="UTF-8"?>
<svg width="22px" height="22px" viewBox="0 0 22 22" version="1.1" xmlns="http://www.w3.org/2000/svg" xmlns:xlink="http://www.w3.org/1999/xlink">
    <!-- Generator: Sketch 52.6 (67491) - http://www.bohemiancoding.com/sketch -->
    <title>Icon/calendar/active</title>
    <desc>Created with Sketch.</desc>
    <g id="Page-1" stroke="none" stroke-width="1" fill="none" fill-rule="evenodd" stroke-linecap="square">
        <g id="icons" transform="translate(-33.000000, -364.000000)" stroke="#FFFFFF">
            <g id="Icon/calendar/active" transform="translate(34.000000, 365.000000)">
                <path d="M20,12.3794434 L15.0985601,7.47951132 C14.9125861,7.29360598 14.6111269,7.2936338 14.4251872,7.47957348 L9.88035652,12.0244042 L7.49680674,9.40249944 C7.31429617,9.19970992 6.99905632,9.19141987 6.80613963,9.38433656 L5.32907052e-14,16.1904762 L5.40308539e-14,3.33333333 C5.38193828e-14,1.49238417 1.49238417,7.42263394e-15 3.33333333,7.10542736e-15 L16.6666667,7.10542736e-15 C18.5076158,6.78822078e-15 20,1.49238417 20,3.33333333 L20,12.3794434 Z M6.66666667,6.66666667 C7.71863762,6.66666667 8.57142857,5.81387571 8.57142857,4.76190476 C8.57142857,3.70993381 7.71863762,2.85714286 6.66666667,2.85714286 C5.61469571,2.85714286 4.76190476,3.70993381 4.76190476,4.76190476 C4.76190476,5.81387571 5.61469571,6.66666667 6.66666667,6.66666667 Z M6.66666667,5.71428571 C6.14068119,5.71428571 5.71428571,5.28789024 5.71428571,4.76190476 C5.71428571,4.23591929 6.14068119,3.80952381 6.66666667,3.80952381 C7.19265214,3.80952381 7.61904762,4.23591929 7.61904762,4.76190476 C7.61904762,5.28789024 7.19265214,5.71428571 6.66666667,5.71428571 Z M20,13.8998034 L20,16.6081454 C20,18.4113637 18.6065624,19.8859284 16.8477326,19.9936901 L10.4491893,12.8861156 L14.7218821,8.57142857 L20,13.8998034 Z M15.5562051,20 L3.2057892,20 C1.70098089,20 0.427300122,19.0006993 5.32907052e-14,17.6233981 L7.02613874,10.528203 L15.5562051,20 Z" id="Combined-Shape"></path>
            </g>
        </g>
    </g>
</svg>