<?xml version="1.0" encoding="UTF-8"?>
<svg width="32px" height="32px" viewBox="0 0 32 32" version="1.1" xmlns="http://www.w3.org/2000/svg" xmlns:xlink="http://www.w3.org/1999/xlink">
    <!-- Generator: Sketch 63.1 (92452) - https://sketch.com -->
    <title>Icon</title>
    <desc>Created with Sketch.</desc>
    <g id="V6" stroke="none" stroke-width="1" fill="none" fill-rule="evenodd">
        <g id="Litro.kz-1" transform="translate(-900.000000, -6072.000000)">
            <g id="CTA" transform="translate(0.000000, 5684.000000)">
                <g id="Right" transform="translate(876.000000, 268.000000)">
                    <g id="Item">
                        <g id="Group-9" transform="translate(24.000000, 120.000000)">
                            <g id="Icon">
                                <g id="Border" opacity="0.0599999987" fill="#15D858">
                                    <rect id="Shape" x="0" y="0" width="32" height="32" rx="16"></rect>
                                </g>
                                <g id="Icon_Email" transform="translate(6.000000, 6.000000)">
                                    <g id="Group">
                                        <rect id="Base" x="0" y="0" width="20" height="20"></rect>
                                        <polygon id="path" points="0 0 20 0 20 20 0 20"></polygon>
                                        <path d="M18.4666667,7.89133408 L18.4666667,15.4167553 C18.4666667,16.9631526 17.213064,18.2167553 15.6666667,18.2167553 L4.46666667,18.2167553 C2.92026937,18.2167553 1.66666667,16.9631526 1.66666667,15.4167553 L1.66666667,7.89133408 C1.66666667,7.50073624 1.85822143,7.13496689 2.17941048,6.91144317 L4.2242568,5.488382 C4.40558291,5.36219249 4.65487358,5.40688954 4.78106308,5.58821566 C4.90725259,5.76954177 4.86255554,6.01883243 4.68122943,6.14502194 L2.63638311,7.56808311 C2.53156821,7.6410265 2.46871665,7.75898795 2.46671592,7.88512263 C2.59181357,7.84091313 2.7264309,7.81685775 2.86666667,7.81685775 C3.08066587,7.81685775 3.29077194,7.87408465 3.47521242,7.98260824 L10.0666667,11.8609774 L16.6581209,7.98260824 C16.9757917,7.7956928 17.3442815,7.7716801 17.6666224,7.88544245 C17.6647229,7.75918737 17.6018537,7.64108815 17.4969502,7.56808311 L15.5106452,6.18576235 C15.3293191,6.05957284 15.2846221,5.81028218 15.4108116,5.62895606 C15.5370011,5.44762995 15.7862917,5.4029329 15.9676179,5.52912241 L17.9539229,6.91144317 C18.2751119,7.13496689 18.4666667,7.50073624 18.4666667,7.89133408 Z" id="path" fill="#1FB760"></path>
                                        <path d="M14.1666667,1.66666667 C15.2712362,1.66666667 16.1666667,2.56209717 16.1666667,3.66666667 L16.1666667,7.66666667 L10.1666667,11.2666667 L4.16666667,7.66666667 L4.16666667,3.66666667 C4.16666667,2.56209717 5.06209717,1.66666667 6.16666667,1.66666667 L14.1666667,1.66666667 Z M12.5666667,7.26666667 L7.76666667,7.26666667 C7.54575277,7.26666667 7.36666667,7.44575277 7.36666667,7.66666667 C7.36666667,7.88758057 7.54575277,8.06666667 7.76666667,8.06666667 L12.5666667,8.06666667 C12.7875806,8.06666667 12.9666667,7.88758057 12.9666667,7.66666667 C12.9666667,7.44575277 12.7875806,7.26666667 12.5666667,7.26666667 Z M12.5666667,4.86666667 L7.76666667,4.86666667 C7.54575277,4.86666667 7.36666667,5.04575277 7.36666667,5.26666667 C7.36666667,5.48758057 7.54575277,5.66666667 7.76666667,5.66666667 L12.5666667,5.66666667 C12.7875806,5.66666667 12.9666667,5.48758057 12.9666667,5.26666667 C12.9666667,5.04575277 12.7875806,4.86666667 12.5666667,4.86666667 Z" id="path" fill-opacity="0.5" fill="#1FB760"></path>
                                    </g>
                                </g>
                            </g>
                        </g>
                    </g>
                </g>
            </g>
        </g>
    </g>
</svg>