<?xml version="1.0" encoding="UTF-8"?>
<svg width="141px" height="43px" viewBox="0 0 141 43" version="1.1" xmlns="http://www.w3.org/2000/svg" xmlns:xlink="http://www.w3.org/1999/xlink">
    <!-- Generator: Sketch 52.6 (67491) - http://www.bohemiancoding.com/sketch -->
    <title>Group 5</title>
    <desc>Created with Sketch.</desc>
    <defs>
        <polygon id="path-1" points="0 0.0177224199 10.9556386 0.0177224199 10.9556386 10.8820498 0 10.8820498"></polygon>
    </defs>
    <g id="Symbols" stroke="none" stroke-width="1" fill="none" fill-rule="evenodd">
        <g id="Navbar" transform="translate(-53.000000, -15.000000)">
            <g id="Group-5" transform="translate(52.000000, 15.000000)">
                <text id="GENIUS" font-family="Rubik-Regular, Rubik" font-size="32" font-weight="normal" fill="#0F1222">
                    <tspan x="0" y="42">GENIUS</tspan>
                </text>
                <g id="Group-4" transform="translate(102.000000, 0.000000)">
                    <g id="Group-2">
                        <g id="Group">
                            <g id="Group-3" transform="translate(0.000000, 0.053452)">
                                <mask id="mask-2" fill="white">
                                    <use xlink:href="#path-1"></use>
                                </mask>
                                <g id="Clip-2"></g>
                                <path d="M10.9556386,5.449879 C10.9556386,8.44995018 8.50310117,10.8820498 5.47781931,10.8820498 C2.45246568,10.8820498 0,8.44995018 0,5.449879 C0,2.44980783 2.45246568,0.0177081851 5.47781931,0.0177081851 C8.50310117,0.0177081851 10.9556386,2.44980783 10.9556386,5.449879" id="Fill-1" fill="#008ECF" mask="url(#mask-2)"></path>
                            </g>
                            <path d="M18.2077383,13.5088185 C18.2077383,15.8276797 16.3120835,17.7075374 13.9736643,17.7075374 C11.6353168,17.7075374 9.73966207,15.8276797 9.73966207,13.5088185 C9.73966207,11.1898861 11.6353168,9.31002847 13.9736643,9.31002847 C16.3120835,9.31002847 18.2077383,11.1898861 18.2077383,13.5088185" id="Fill-4" fill="#0094B5"></path>
                            <path d="M24.5074602,6.88577224 C24.5074602,8.69509609 23.0283729,10.1618577 21.2038446,10.1618577 C19.3793164,10.1618577 17.9002291,8.69509609 17.9002291,6.88577224 C17.9002291,5.0764484 19.3793164,3.60968683 21.2038446,3.60968683 C23.0283729,3.60968683 24.5074602,5.0764484 24.5074602,6.88577224" id="Fill-6" fill="#009999"></path>
                            <path d="M29.0262484,10.9354875 C29.0262484,12.0231032 28.1371309,12.9048114 27.0403756,12.9048114 C25.9436203,12.9048114 25.0544311,12.0231032 25.0544311,10.9354875 C25.0544311,9.84787189 25.9436203,8.9661637 27.0403756,8.9661637 C28.1371309,8.9661637 29.0262484,9.84787189 29.0262484,10.9354875" id="Fill-8" fill="#00A07C"></path>
                            <path d="M30.5966231,7.44905338 C30.5966231,8.07702491 30.0832345,8.58613523 29.4499142,8.58613523 C28.8166656,8.58613523 28.3033488,8.07702491 28.3033488,7.44905338 C28.3033488,6.82101068 28.8166656,6.31190036 29.4499142,6.31190036 C30.0832345,6.31190036 30.5966231,6.82101068 30.5966231,7.44905338" id="Fill-10" fill="#00A45F"></path>
                            <path d="M27.5618708,14.4327753 L27.9722636,14.4327753 L26.7488285,18.2721418 L26.3229492,18.2721418 L25.246636,15.0010015 L24.1703228,18.2721418 L23.7444435,18.2721418 L22.5210084,14.4327753 L22.9314012,14.4327753 L23.9612548,17.7730242 L25.0453112,14.4327753 L25.4479608,14.4327753 L26.5320172,17.7730242 L27.5618708,14.4327753 Z M31.9213264,14.4327753 L32.3162326,14.4327753 L32.3162326,18.2721418 L31.9213264,18.2721418 L31.9213264,17.404445 C31.756136,17.7013575 31.5290026,17.9342767 31.2399195,18.1032097 C30.9508363,18.2721427 30.6230416,18.3566079 30.2565254,18.3566079 C29.7041701,18.3566079 29.2318359,18.1633617 28.8395088,17.7768635 C28.4471816,17.3903654 28.251021,16.9155685 28.251021,16.3524586 C28.251021,15.7893486 28.4471816,15.3145517 28.8395088,14.9280536 C29.2318359,14.5415554 29.7041701,14.3483092 30.2565254,14.3483092 C30.6230416,14.3483092 30.9508363,14.4327744 31.2399195,14.6017074 C31.5290026,14.7706404 31.756136,15.0035596 31.9213264,15.3004721 L31.9213264,14.4327753 Z M29.1182661,17.5119473 C29.4383225,17.8293365 29.8280627,17.9880287 30.2874984,17.9880287 C30.7469342,17.9880287 31.1340933,17.8293365 31.4489875,17.5119473 C31.7638816,17.194558 31.9213264,16.8080657 31.9213264,16.3524586 C31.9213264,15.8968514 31.7638816,15.5103591 31.4489875,15.1929699 C31.1340933,14.8755806 30.7469342,14.7168884 30.2874984,14.7168884 C29.8280627,14.7168884 29.439613,14.8755806 29.1221378,15.1929699 C28.8046625,15.5103591 28.6459273,15.8968514 28.6459273,16.3524586 C28.6459273,16.8080657 28.803372,17.194558 29.1182661,17.5119473 Z M33.5086947,18.2721418 L33.5086947,12.6666667 L33.8958577,12.6666667 L33.8958577,18.2721418 L33.5086947,18.2721418 Z M35.0883198,18.2721418 L35.0883198,12.6666667 L35.4754828,12.6666667 L35.4754828,18.2721418 L35.0883198,18.2721418 Z M39.5019782,14.4327753 L39.9201142,14.4327753 L38.24757,18.6253635 C38.0978662,19.0041829 37.8862192,19.3023708 37.6126227,19.519936 C37.3390261,19.7375011 37.039623,19.8334844 36.7144045,19.8078884 L36.7144045,19.446988 C36.96219,19.4674647 37.1854518,19.397077 37.3841965,19.2358228 C37.5829412,19.0745686 37.7442575,18.8454887 37.8681502,18.5485762 L37.9533261,18.3412504 L36.1723763,14.4327753 L36.5905123,14.4327753 L38.1546509,17.8498115 L39.5019782,14.4327753 Z" id="wally" fill="#000000"></path>
                        </g>
                    </g>
                </g>
            </g>
        </g>
    </g>
</svg>