<?xml version="1.0" encoding="UTF-8"?>
<svg width="138px" height="33px" viewBox="0 0 138 33" version="1.1" xmlns="http://www.w3.org/2000/svg" xmlns:xlink="http://www.w3.org/1999/xlink">
    <!-- Generator: Sketch 52.6 (67491) - http://www.bohemiancoding.com/sketch -->
    <title>Group 7 Copy</title>
    <desc>Created with Sketch.</desc>
    <defs>
        <polygon id="path-1" points="0 0.0230391459 14.2423302 0.0230391459 14.2423302 14.1466648 0 14.1466648"></polygon>
    </defs>
    <g id="Symbols" stroke="none" stroke-width="1" fill="none" fill-rule="evenodd">
        <g id="Group-7-Copy">
            <g id="Group-6" transform="translate(0.000000, 14.000000)" fill="#0F1222">
                <path d="M0.44,7.416 C0.47200016,6.5359956 0.6279986,5.70400392 0.908,4.92 C1.1880014,4.13599608 1.61199716,3.44800296 2.18,2.856 C2.74800284,2.26399704 3.45599576,1.80000168 4.304,1.464 C5.15200424,1.12799832 6.15199424,0.96 7.304,0.96 C8.39200544,0.96 9.34799588,1.1199984 10.172,1.44 C10.9960041,1.7600016 11.6839972,2.15599764 12.236,2.628 C12.7880028,3.10000236 13.2039986,3.60399732 13.484,4.14 C13.7640014,4.67600268 13.9119999,5.15999784 13.928,5.592 C13.9440001,5.73600072 13.8960006,5.85999948 13.784,5.964 C13.6719994,6.06800052 13.5440007,6.12 13.4,6.12 L12.416,6.12 C12.0319981,6.12 11.8000004,6.03200088 11.72,5.856 C11.527999,5.47199808 11.3080012,5.11200168 11.06,4.776 C10.8119988,4.43999832 10.5200017,4.1520012 10.184,3.912 C9.84799832,3.6719988 9.44400236,3.48000072 8.972,3.336 C8.49999764,3.19199928 7.9440032,3.12 7.304,3.12 C6.64799672,3.12 6.04400276,3.21199908 5.492,3.396 C4.93999724,3.58000092 4.464002,3.85599816 4.064,4.224 C3.663998,4.59200184 3.3440012,5.05199724 3.104,5.604 C2.8639988,6.15600276 2.73600008,6.79999632 2.72,7.536 C2.68799984,8.2560036 2.672,8.91999696 2.672,9.528 C2.672,10.136003 2.68799984,10.7999964 2.72,11.52 C2.73600008,12.2880038 2.8639988,12.9599971 3.104,13.536 C3.3440012,14.1120029 3.663998,14.5879981 4.064,14.964 C4.464002,15.3400019 4.93999724,15.6199991 5.492,15.804 C6.04400276,15.9880009 6.64799672,16.08 7.304,16.08 C7.9440032,16.08 8.5439972,16.0000008 9.104,15.84 C9.6640028,15.6799992 10.1519979,15.4200018 10.568,15.06 C10.9840021,14.6999982 11.3079988,14.2320029 11.54,13.656 C11.7720012,13.0799971 11.888,12.3760042 11.888,11.544 L11.888,10.872 L8.432,10.872 C8.25599912,10.872 8.10400064,10.8080006 7.976,10.68 C7.84799936,10.5519994 7.784,10.4000009 7.784,10.224 L7.784,9.36 C7.784,9.18399912 7.84799936,9.03200064 7.976,8.904 C8.10400064,8.77599936 8.25599912,8.712 8.432,8.712 L13.52,8.712 C13.6960009,8.712 13.8479994,8.77599936 13.976,8.904 C14.1040006,9.03200064 14.168,9.18399912 14.168,9.36 L14.168,11.64 C14.168,12.6000048 14.0160015,13.483996 13.712,14.292 C13.4079985,15.100004 12.9640029,15.7959971 12.38,16.38 C11.7959971,16.9640029 11.0760043,17.4199984 10.22,17.748 C9.36399572,18.0760016 8.39200544,18.24 7.304,18.24 C6.15199424,18.24 5.15200424,18.0680017 4.304,17.724 C3.45599576,17.3799983 2.7520028,16.912003 2.192,16.32 C1.6319972,15.727997 1.20800144,15.032004 0.92,14.232 C0.63199856,13.431996 0.47200016,12.5680046 0.44,11.64 C0.39199976,10.231993 0.39199976,8.82400704 0.44,7.416 Z M27.824,15.84 C28.0000009,15.84 28.1519994,15.9039994 28.28,16.032 C28.4080006,16.1600006 28.472,16.3119991 28.472,16.488 L28.472,17.352 C28.472,17.5280009 28.4080006,17.6799994 28.28,17.808 C28.1519994,17.9360006 28.0000009,18 27.824,18 L18.128,18 C17.9519991,18 17.8000006,17.9360006 17.672,17.808 C17.5439994,17.6799994 17.48,17.5280009 17.48,17.352 L17.48,1.848 C17.48,1.67199912 17.5439994,1.52000064 17.672,1.392 C17.8000006,1.26399936 17.9519991,1.2 18.128,1.2 L27.632,1.2 C27.8080009,1.2 27.9599994,1.26399936 28.088,1.392 C28.2160006,1.52000064 28.28,1.67199912 28.28,1.848 L28.28,2.712 C28.28,2.88800088 28.2160006,3.03999936 28.088,3.168 C27.9599994,3.29600064 27.8080009,3.36 27.632,3.36 L19.76,3.36 L19.76,8.424 L27.104,8.424 C27.2800009,8.424 27.4319994,8.48799936 27.56,8.616 C27.6880006,8.74400064 27.752,8.89599912 27.752,9.072 L27.752,9.936 C27.752,10.1120009 27.6880006,10.2639994 27.56,10.392 C27.4319994,10.5200006 27.2800009,10.584 27.104,10.584 L19.76,10.584 L19.76,15.84 L27.824,15.84 Z M42.728,18 C42.5039989,18 42.3160008,17.9240008 42.164,17.772 C42.0119992,17.6199992 41.8800006,17.4560009 41.768,17.28 L33.968,5.544 L33.968,17.352 C33.968,17.5280009 33.9040006,17.6799994 33.776,17.808 C33.6479994,17.9360006 33.4960009,18 33.32,18 L32.336,18 C32.1599991,18 32.0080006,17.9360006 31.88,17.808 C31.7519994,17.6799994 31.688,17.5280009 31.688,17.352 L31.688,1.848 C31.688,1.67199912 31.7519994,1.52000064 31.88,1.392 C32.0080006,1.26399936 32.1599991,1.2 32.336,1.2 L33.176,1.2 C33.4000011,1.2 33.5879992,1.27599924 33.74,1.428 C33.8920008,1.58000076 34.0239994,1.74399912 34.136,1.92 L41.936,13.656 L41.936,1.848 C41.936,1.67199912 41.9999994,1.52000064 42.128,1.392 C42.2560006,1.26399936 42.4079991,1.2 42.584,1.2 L43.568,1.2 C43.7440009,1.2 43.8959994,1.26399936 44.024,1.392 C44.1520006,1.52000064 44.216,1.67199912 44.216,1.848 L44.216,17.352 C44.216,17.5280009 44.1520006,17.6799994 44.024,17.808 C43.8959994,17.9360006 43.7440009,18 43.568,18 L42.728,18 Z M48.992,18 C48.8159991,18 48.6640006,17.9360006 48.536,17.808 C48.4079994,17.6799994 48.344,17.5280009 48.344,17.352 L48.344,1.848 C48.344,1.67199912 48.4079994,1.52000064 48.536,1.392 C48.6640006,1.26399936 48.8159991,1.2 48.992,1.2 L49.976,1.2 C50.1520009,1.2 50.3039994,1.26399936 50.432,1.392 C50.5600006,1.52000064 50.624,1.67199912 50.624,1.848 L50.624,17.352 C50.624,17.5280009 50.5600006,17.6799994 50.432,17.808 C50.3039994,17.9360006 50.1520009,18 49.976,18 L48.992,18 Z M66.872,1.2 C67.0480009,1.2 67.1999994,1.26399936 67.328,1.392 C67.4560006,1.52000064 67.52,1.67199912 67.52,1.848 L67.52,11.448 C67.52,12.440005 67.3960012,13.3479959 67.148,14.172 C66.8999988,14.9960041 66.5160026,15.711997 65.996,16.32 C65.4759974,16.928003 64.8080041,17.3999983 63.992,17.736 C63.1759959,18.0720017 62.2000057,18.24 61.064,18.24 C59.9119942,18.24 58.9280041,18.0720017 58.112,17.736 C57.2959959,17.3999983 56.6280026,16.928003 56.108,16.32 C55.5879974,15.711997 55.2080012,14.9960041 54.968,14.172 C54.7279988,13.3479959 54.608,12.440005 54.608,11.448 L54.608,1.848 C54.608,1.67199912 54.6719994,1.52000064 54.8,1.392 C54.9280006,1.26399936 55.0799991,1.2 55.256,1.2 L56.24,1.2 C56.4160009,1.2 56.5679994,1.26399936 56.696,1.392 C56.8240006,1.52000064 56.888,1.67199912 56.888,1.848 L56.888,11.568 C56.888,13.1360078 57.2559963,14.2999962 57.992,15.06 C58.7280037,15.8200038 59.7519934,16.2 61.064,16.2 C62.3760066,16.2 63.4039963,15.8200038 64.148,15.06 C64.8920037,14.2999962 65.264,13.1360078 65.264,11.568 L65.264,1.848 C65.264,1.67199912 65.3279994,1.52000064 65.456,1.392 C65.5840006,1.26399936 65.7359991,1.2 65.912,1.2 L66.872,1.2 Z M76.664,0.96 C77.6400049,0.96 78.4999963,1.11199848 79.244,1.416 C79.9880037,1.72000152 80.6199974,2.0919978 81.14,2.532 C81.6600026,2.9720022 82.0559986,3.44399748 82.328,3.948 C82.6000014,4.45200252 82.7439999,4.903998 82.76,5.304 C82.7760001,5.44800072 82.7280006,5.57199948 82.616,5.676 C82.5039994,5.78000052 82.3760007,5.832 82.232,5.832 L81.248,5.832 C81.0719991,5.832 80.9320005,5.80000032 80.828,5.736 C80.7239995,5.67199968 80.6160006,5.52800112 80.504,5.304 C80.4239996,5.1439992 80.2920009,4.94000124 80.108,4.692 C79.9239991,4.44399876 79.6760016,4.20400116 79.364,3.972 C79.0519984,3.73999884 78.6720022,3.54000084 78.224,3.372 C77.7759978,3.20399916 77.256003,3.12 76.664,3.12 C76.2159978,3.12 75.788002,3.17199948 75.38,3.276 C74.971998,3.38000052 74.6080016,3.53599896 74.288,3.744 C73.9679984,3.95200104 73.712001,4.21199844 73.52,4.524 C73.327999,4.83600156 73.232,5.19999792 73.232,5.616 C73.232,6.03200208 73.3239991,6.38399856 73.508,6.672 C73.6920009,6.96000144 73.987998,7.21999884 74.396,7.452 C74.804002,7.68400116 75.3199969,7.89599904 75.944,8.088 C76.5680031,8.28000096 77.3279955,8.4959988 78.224,8.736 C79.1360046,8.9760012 79.9079968,9.23999856 80.54,9.528 C81.1720032,9.81600144 81.687998,10.1399982 82.088,10.5 C82.488002,10.8600018 82.7799991,11.2759976 82.964,11.748 C83.1480009,12.2200024 83.24,12.751997 83.24,13.344 C83.24,14.0640036 83.0840016,14.723997 82.772,15.324 C82.4599984,15.924003 82.0240028,16.4399978 81.464,16.872 C80.9039972,17.3040022 80.228004,17.6399988 79.436,17.88 C78.643996,18.1200012 77.7600049,18.24 76.784,18.24 C75.8559954,18.24 75.0000039,18.1040014 74.216,17.832 C73.4319961,17.5599986 72.7600028,17.2080022 72.2,16.776 C71.6399972,16.3439978 71.1960016,15.8640026 70.868,15.336 C70.5399984,14.8079974 70.3680001,14.2880026 70.352,13.776 C70.352,13.6319993 70.4039995,13.5080005 70.508,13.404 C70.6120005,13.2999995 70.7359993,13.248 70.88,13.248 L71.864,13.248 C72.0240008,13.248 72.1639994,13.2799997 72.284,13.344 C72.4040006,13.4080003 72.5119995,13.5519989 72.608,13.776 C72.7040005,14.0000011 72.851999,14.2439987 73.052,14.508 C73.252001,14.7720013 73.5199983,15.0199988 73.856,15.252 C74.1920017,15.4840012 74.5999976,15.6799992 75.08,15.84 C75.5600024,16.0000008 76.1279967,16.08 76.784,16.08 C77.3440028,16.08 77.8759975,16.0160006 78.38,15.888 C78.8840025,15.7599994 79.3279981,15.5760012 79.712,15.336 C80.0960019,15.0959988 80.3999989,14.8080017 80.624,14.472 C80.8480011,14.1359983 80.96,13.7600021 80.96,13.344 C80.96,12.9279979 80.8320013,12.5720015 80.576,12.276 C80.3199987,11.9799985 79.9520024,11.7120012 79.472,11.472 C78.9919976,11.2319988 78.4040035,11.012001 77.708,10.812 C77.0119965,10.611999 76.2240044,10.4000011 75.344,10.176 C74.543996,9.96799896 73.8640028,9.71600148 73.304,9.42 C72.7439972,9.12399852 72.2880018,8.78400192 71.936,8.4 C71.5839982,8.01599808 71.3320008,7.59200232 71.18,7.128 C71.0279992,6.66399768 70.952,6.16000272 70.952,5.616 C70.952,5.02399704 71.0719988,4.4480028 71.312,3.888 C71.5520012,3.3279972 71.9079976,2.83200216 72.38,2.4 C72.8520024,1.96799784 73.4439964,1.62000132 74.156,1.356 C74.8680036,1.09199868 75.7039952,0.96 76.664,0.96 Z" id="GENIUS"></path>
            </g>
            <path d="M3.308,0.6 C4.1480042,0.6 4.8179975,0.8099979 5.318,1.23 C5.8180025,1.6500021 6.068,2.26799592 6.068,3.084 C6.068,3.90000408 5.8180025,4.5179979 5.318,4.938 C4.8179975,5.3580021 4.1480042,5.568 3.308,5.568 L0.884,5.568 L0.884,8.736 C0.884,8.91200088 0.79200092,9 0.608,9 L0.392,9 C0.21599912,9 0.128,8.91200088 0.128,8.736 L0.128,0.876 C0.128,0.69199908 0.21599912,0.6 0.392,0.6 L3.308,0.6 Z M0.884,4.848 L3.248,4.848 C3.95200352,4.848 4.47199832,4.6980015 4.808,4.398 C5.14400168,4.0979985 5.312,3.66000288 5.312,3.084 C5.312,2.50799712 5.14400168,2.0700015 4.808,1.77 C4.47199832,1.4699985 3.95200352,1.32 3.248,1.32 L0.884,1.32 L0.884,4.848 Z M11.468,9 C11.2919991,9 11.204,8.91200088 11.204,8.736 L11.204,8.172 C11.1319996,8.28400056 11.0380006,8.39599944 10.922,8.508 C10.8059994,8.62000056 10.6640008,8.71999956 10.496,8.808 C10.3279992,8.89600044 10.1280012,8.9699997 9.896,9.03 C9.66399884,9.0900003 9.39200156,9.12 9.08,9.12 C8.79199856,9.12 8.5180013,9.07400046 8.258,8.982 C7.9979987,8.88999954 7.77000098,8.7640008 7.574,8.604 C7.37799902,8.4439992 7.22200058,8.25600108 7.106,8.04 C6.98999942,7.82399892 6.932,7.58800128 6.932,7.332 C6.932,7.05999864 6.98999942,6.81600108 7.106,6.6 C7.22200058,6.38399892 7.38399896,6.19400082 7.592,6.03 C7.80000104,5.86599918 8.04999854,5.73000054 8.342,5.622 C8.63400146,5.51399946 8.95599824,5.43600024 9.308,5.388 L11.204,5.124 L11.204,4.704 C11.204,4.27199784 11.0740013,3.9360012 10.814,3.696 C10.5539987,3.4559988 10.1400028,3.336 9.572,3.336 C9.12399776,3.336 8.77800122,3.42199914 8.534,3.594 C8.28999878,3.76600086 8.13600032,3.951999 8.072,4.152 C8.03999984,4.24800048 8.00200022,4.31399982 7.958,4.35 C7.91399978,4.38600018 7.85600036,4.404 7.784,4.404 L7.616,4.404 C7.54399964,4.404 7.48200026,4.37800026 7.43,4.326 C7.37799974,4.27399974 7.352,4.21200036 7.352,4.14 C7.352,4.02799944 7.3919996,3.88800084 7.472,3.72 C7.5520004,3.55199916 7.6819991,3.3880008 7.862,3.228 C8.0420009,3.0679992 8.2719986,2.93000058 8.552,2.814 C8.8320014,2.69799942 9.171998,2.64 9.572,2.64 C10.0440024,2.64 10.4339985,2.70399936 10.742,2.832 C11.0500015,2.96000064 11.2919991,3.12599898 11.468,3.33 C11.6440009,3.53400102 11.7659997,3.75999876 11.834,4.008 C11.9020003,4.25600124 11.936,4.4999988 11.936,4.74 L11.936,8.736 C11.936,8.91200088 11.8480009,9 11.672,9 L11.468,9 Z M9.2,8.424 C9.47200136,8.424 9.72999878,8.37800046 9.974,8.286 C10.2180012,8.19399954 10.4319991,8.05600092 10.616,7.872 C10.8000009,7.68799908 10.9439995,7.4560014 11.048,7.176 C11.1520005,6.8959986 11.204,6.56800188 11.204,6.192 L11.204,5.784 L9.656,6 C8.32799336,6.18400092 7.664,6.60799668 7.664,7.272 C7.664,7.472001 7.70999954,7.64399928 7.802,7.788 C7.89400046,7.93200072 8.01199928,8.05199952 8.156,8.148 C8.30000072,8.24400048 8.46399908,8.31399978 8.648,8.358 C8.83200092,8.40200022 9.01599908,8.424 9.2,8.424 Z M13.784,4.692 C13.7119996,4.692 13.6520002,4.67000022 13.604,4.626 C13.5559998,4.58199978 13.532,4.52400036 13.532,4.452 C13.532,4.20399876 13.5839995,3.96800112 13.688,3.744 C13.7920005,3.51999888 13.939999,3.3280008 14.132,3.168 C14.324001,3.0079992 14.5619986,2.88000048 14.846,2.784 C15.1300014,2.68799952 15.4519982,2.64 15.812,2.64 C16.2520022,2.64 16.6239985,2.69799942 16.928,2.814 C17.2320015,2.93000058 17.4739991,3.0779991 17.654,3.258 C17.8340009,3.4380009 17.9639996,3.6379989 18.044,3.858 C18.1240004,4.0780011 18.164,4.29199896 18.164,4.5 C18.164,4.67600088 18.1380003,4.8339993 18.086,4.974 C18.0339997,5.1140007 17.9720004,5.23799946 17.9,5.346 C17.8279996,5.45400054 17.7480004,5.54599962 17.66,5.622 C17.5719996,5.69800038 17.4920004,5.7559998 17.42,5.796 C17.7240015,5.96400084 17.9419993,6.16199886 18.074,6.39 C18.2060007,6.61800114 18.276,6.9119982 18.284,7.272 C18.292,7.5920016 18.2320006,7.86799884 18.104,8.1 C17.9759994,8.33200116 17.8000011,8.52399924 17.576,8.676 C17.3519989,8.82800076 17.0880015,8.93999964 16.784,9.012 C16.4799985,9.08400036 16.1560017,9.12 15.812,9.12 C15.3719978,9.12 15.0000015,9.06200058 14.696,8.946 C14.3919985,8.82999942 14.144001,8.68800084 13.952,8.52 C13.759999,8.35199916 13.6220004,8.17000098 13.538,7.974 C13.4539996,7.77799902 13.412,7.59600084 13.412,7.428 C13.412,7.35599964 13.4359998,7.29800022 13.484,7.254 C13.5320002,7.20999978 13.5919996,7.188 13.664,7.188 L13.868,7.188 C13.9400004,7.188 13.9999998,7.20599982 14.048,7.242 C14.0960002,7.27800018 14.1319999,7.34399952 14.156,7.44 C14.2040002,7.63200096 14.2879994,7.78999938 14.408,7.914 C14.5280006,8.03800062 14.6659992,8.13799962 14.822,8.214 C14.9780008,8.29000038 15.1419991,8.34399984 15.314,8.376 C15.4860009,8.40800016 15.6519992,8.424 15.812,8.424 C16.0280011,8.424 16.2419989,8.40200022 16.454,8.358 C16.6660011,8.31399978 16.8519992,8.24400048 17.012,8.148 C17.1720008,8.05199952 17.3019995,7.93200072 17.402,7.788 C17.5020005,7.64399928 17.552,7.472001 17.552,7.272 C17.552,7.05599892 17.5120004,6.8780007 17.432,6.738 C17.3519996,6.5979993 17.2400007,6.49000038 17.096,6.414 C16.9519993,6.33799962 16.778001,6.28400016 16.574,6.252 C16.369999,6.21999984 16.1440012,6.204 15.896,6.204 L14.888,6.204 C14.7119991,6.204 14.624,6.11600088 14.624,5.94 L14.624,5.772 C14.624,5.59599912 14.7119991,5.508 14.888,5.508 L15.812,5.508 C16.0280011,5.508 16.233999,5.49000018 16.43,5.454 C16.626001,5.41799982 16.7979993,5.3600004 16.946,5.28 C17.0940007,5.1999996 17.2119996,5.09600064 17.3,4.968 C17.3880004,4.83999936 17.432,4.68400092 17.432,4.5 C17.432,4.35599928 17.4060003,4.21600068 17.354,4.08 C17.3019997,3.94399932 17.2120006,3.82000056 17.084,3.708 C16.9559994,3.59599944 16.790001,3.50600034 16.586,3.438 C16.381999,3.36999966 16.1240016,3.336 15.812,3.336 C15.3079975,3.336 14.9460011,3.42999906 14.726,3.618 C14.5059989,3.80600094 14.3560004,4.0799982 14.276,4.44 C14.2519999,4.53600048 14.2160002,4.60199982 14.168,4.638 C14.1199998,4.67400018 14.0600004,4.692 13.988,4.692 L13.784,4.692 Z M22.676,9.12 C22.1719975,9.12 21.7600016,9.02800092 21.44,8.844 C21.1199984,8.65999908 20.860001,8.43600132 20.66,8.172 L20.66,11.016 C20.66,11.1920009 20.5720009,11.28 20.396,11.28 L20.192,11.28 C20.0159991,11.28 19.928,11.1920009 19.928,11.016 L19.928,3.024 C19.928,2.84799912 20.0159991,2.76 20.192,2.76 L20.396,2.76 C20.5720009,2.76 20.66,2.84799912 20.66,3.024 L20.66,3.588 C20.860001,3.31599864 21.1199984,3.0900009 21.44,2.91 C21.7600016,2.7299991 22.1719975,2.64 22.676,2.64 C23.1400023,2.64 23.5339984,2.72199918 23.858,2.886 C24.1820016,3.05000082 24.443999,3.26599866 24.644,3.534 C24.844001,3.80200134 24.9899995,4.1059983 25.082,4.446 C25.1740005,4.7860017 25.2279999,5.13199824 25.244,5.484 C25.252,5.6040006 25.256,5.73599928 25.256,5.88 C25.256,6.02400072 25.252,6.1559994 25.244,6.276 C25.2279999,6.62800176 25.1740005,6.9739983 25.082,7.314 C24.9899995,7.6540017 24.844001,7.95799866 24.644,8.226 C24.443999,8.49400134 24.1820016,8.70999918 23.858,8.874 C23.5339984,9.03800082 23.1400023,9.12 22.676,9.12 Z M20.66,5.448 C20.652,5.5680006 20.648,5.72399904 20.648,5.916 C20.648,6.10800096 20.652,6.2639994 20.66,6.384 C20.668,6.6240012 20.7099996,6.86599878 20.786,7.11 C20.8620004,7.35400122 20.9799992,7.57199904 21.14,7.764 C21.3000008,7.95600096 21.4999988,8.11399938 21.74,8.238 C21.9800012,8.36200062 22.2679983,8.424 22.604,8.424 C22.9560018,8.424 23.2499988,8.3640006 23.486,8.244 C23.7220012,8.1239994 23.9139993,7.96200102 24.062,7.758 C24.2100007,7.55399898 24.3179997,7.31800134 24.386,7.05 C24.4540003,6.78199866 24.4959999,6.50400144 24.512,6.216 C24.52,5.99199888 24.52,5.76800112 24.512,5.544 C24.4959999,5.25599856 24.4540003,4.98000132 24.386,4.716 C24.3179997,4.45199868 24.2100007,4.21800102 24.062,4.014 C23.9139993,3.80999898 23.7220012,3.64600062 23.486,3.522 C23.2499988,3.39799938 22.9560018,3.336 22.604,3.336 C22.2599983,3.336 21.9680012,3.39999936 21.728,3.528 C21.4879988,3.65600064 21.2900008,3.82199898 21.134,4.026 C20.9779992,4.23000102 20.8620004,4.45599876 20.786,4.704 C20.7099996,4.95200124 20.668,5.19999876 20.66,5.448 Z M30.956,9 C30.7799991,9 30.692,8.91200088 30.692,8.736 L30.692,8.172 C30.6199996,8.28400056 30.5260006,8.39599944 30.41,8.508 C30.2939994,8.62000056 30.1520008,8.71999956 29.984,8.808 C29.8159992,8.89600044 29.6160012,8.9699997 29.384,9.03 C29.1519988,9.0900003 28.8800016,9.12 28.568,9.12 C28.2799986,9.12 28.0060013,9.07400046 27.746,8.982 C27.4859987,8.88999954 27.258001,8.7640008 27.062,8.604 C26.865999,8.4439992 26.7100006,8.25600108 26.594,8.04 C26.4779994,7.82399892 26.42,7.58800128 26.42,7.332 C26.42,7.05999864 26.4779994,6.81600108 26.594,6.6 C26.7100006,6.38399892 26.871999,6.19400082 27.08,6.03 C27.288001,5.86599918 27.5379985,5.73000054 27.83,5.622 C28.1220015,5.51399946 28.4439982,5.43600024 28.796,5.388 L30.692,5.124 L30.692,4.704 C30.692,4.27199784 30.5620013,3.9360012 30.302,3.696 C30.0419987,3.4559988 29.6280028,3.336 29.06,3.336 C28.6119978,3.336 28.2660012,3.42199914 28.022,3.594 C27.7779988,3.76600086 27.6240003,3.951999 27.56,4.152 C27.5279998,4.24800048 27.4900002,4.31399982 27.446,4.35 C27.4019998,4.38600018 27.3440004,4.404 27.272,4.404 L27.104,4.404 C27.0319996,4.404 26.9700003,4.37800026 26.918,4.326 C26.8659997,4.27399974 26.84,4.21200036 26.84,4.14 C26.84,4.02799944 26.8799996,3.88800084 26.96,3.72 C27.0400004,3.55199916 27.1699991,3.3880008 27.35,3.228 C27.5300009,3.0679992 27.7599986,2.93000058 28.04,2.814 C28.3200014,2.69799942 28.659998,2.64 29.06,2.64 C29.5320024,2.64 29.9219985,2.70399936 30.23,2.832 C30.5380015,2.96000064 30.7799991,3.12599898 30.956,3.33 C31.1320009,3.53400102 31.2539997,3.75999876 31.322,4.008 C31.3900003,4.25600124 31.424,4.4999988 31.424,4.74 L31.424,8.736 C31.424,8.91200088 31.3360009,9 31.16,9 L30.956,9 Z M28.688,8.424 C28.9600014,8.424 29.2179988,8.37800046 29.462,8.286 C29.7060012,8.19399954 29.9199991,8.05600092 30.104,7.872 C30.2880009,7.68799908 30.4319995,7.4560014 30.536,7.176 C30.6400005,6.8959986 30.692,6.56800188 30.692,6.192 L30.692,5.784 L29.144,6 C27.8159934,6.18400092 27.152,6.60799668 27.152,7.272 C27.152,7.472001 27.1979995,7.64399928 27.29,7.788 C27.3820005,7.93200072 27.4999993,8.05199952 27.644,8.148 C27.7880007,8.24400048 27.9519991,8.31399978 28.136,8.358 C28.3200009,8.40200022 28.5039991,8.424 28.688,8.424 Z M33.008,5.988 C33.008,5.43599724 33.0859992,4.9500021 33.242,4.53 C33.3980008,4.1099979 33.5939988,3.73400166 33.83,3.402 C34.0660012,3.06999834 34.3219986,2.77200132 34.598,2.508 C34.8740014,2.24399868 35.1299988,2.0020011 35.366,1.782 C35.6020012,1.5619989 35.7979992,1.35000102 35.954,1.146 C36.1100008,0.94199898 36.188,0.72800112 36.188,0.504 C36.188,0.32799912 36.2759991,0.24 36.452,0.24 L36.656,0.24 C36.8320009,0.24 36.92,0.32799912 36.92,0.504 C36.92,0.79200144 36.8500007,1.05399882 36.71,1.29 C36.5699993,1.52600118 36.3940011,1.75999884 36.182,1.992 C35.9699989,2.22400116 35.7360013,2.4599988 35.48,2.7 C35.2239987,2.9400012 34.9800012,3.20399856 34.748,3.492 C35.0280014,3.40399956 35.3239984,3.36 35.636,3.36 C36.0680022,3.36 36.4479984,3.43199928 36.776,3.576 C37.1040016,3.72000072 37.3779989,3.91999872 37.598,4.176 C37.8180011,4.43200128 37.9839994,4.73599824 38.096,5.088 C38.2080006,5.44000176 38.264,5.81999796 38.264,6.228 C38.264,6.63600204 38.2080006,7.01799822 38.096,7.374 C37.9839994,7.73000178 37.8180011,8.03599872 37.598,8.292 C37.3779989,8.54800128 37.1040016,8.74999926 36.776,8.898 C36.4479984,9.04600074 36.0680022,9.12 35.636,9.12 C35.2039978,9.12 34.8240016,9.04600074 34.496,8.898 C34.1679984,8.74999926 33.8940011,8.54800128 33.674,8.292 C33.4539989,8.03599872 33.2880006,7.73000178 33.176,7.374 C33.0639994,7.01799822 33.008,6.63600204 33.008,6.228 L33.008,5.988 Z M33.74,6.228 C33.74,6.53200152 33.7799996,6.81799866 33.86,7.086 C33.9400004,7.35400134 34.0579992,7.58599902 34.214,7.782 C34.3700008,7.97800098 34.5679988,8.13399942 34.808,8.25 C35.0480012,8.36600058 35.3239984,8.424 35.636,8.424 C35.9480016,8.424 36.2239988,8.36600058 36.464,8.25 C36.7040012,8.13399942 36.9019992,7.97800098 37.058,7.782 C37.2140008,7.58599902 37.3319996,7.35400134 37.412,7.086 C37.4920004,6.81799866 37.532,6.53200152 37.532,6.228 C37.532,5.92399848 37.4920004,5.64000132 37.412,5.376 C37.3319996,5.11199868 37.2140008,4.88200098 37.058,4.686 C36.9019992,4.48999902 36.7040012,4.33600056 36.464,4.224 C36.2239988,4.11199944 35.9480016,4.056 35.636,4.056 C35.3319985,4.056 35.0640012,4.10799948 34.832,4.212 C34.5999988,4.31600052 34.4060008,4.45999908 34.25,4.644 C34.0939992,4.82800092 33.9720004,5.04199878 33.884,5.286 C33.7959996,5.53000122 33.748,5.79599856 33.74,6.084 L33.74,6.228 Z M42.224,2.64 C42.6560022,2.64 43.0359984,2.7099993 43.364,2.85 C43.6920016,2.9900007 43.9659989,3.18199878 44.186,3.426 C44.4060011,3.67000122 44.5739994,3.95999832 44.69,4.296 C44.8060006,4.63200168 44.8719999,4.99199808 44.888,5.376 C44.888,5.44000032 44.89,5.51599956 44.894,5.604 C44.898,5.69200044 44.9,5.78399952 44.9,5.88 C44.9,5.97600048 44.898,6.06999954 44.894,6.162 C44.89,6.25400046 44.888,6.32799972 44.888,6.384 C44.8719999,6.76800192 44.8060006,7.12799832 44.69,7.464 C44.5739994,7.80000168 44.4060011,8.08999878 44.186,8.334 C43.9659989,8.57800122 43.6920016,8.7699993 43.364,8.91 C43.0359984,9.0500007 42.6560022,9.12 42.224,9.12 C41.7919978,9.12 41.4120016,9.0500007 41.084,8.91 C40.7559984,8.7699993 40.4820011,8.57800122 40.262,8.334 C40.0419989,8.08999878 39.8720006,7.80000168 39.752,7.464 C39.6319994,7.12799832 39.568,6.76800192 39.56,6.384 C39.56,6.32799972 39.558,6.25400046 39.554,6.162 C39.55,6.06999954 39.548,5.97600048 39.548,5.88 C39.548,5.78399952 39.55,5.69200044 39.554,5.604 C39.558,5.51599956 39.56,5.44000032 39.56,5.376 C39.568,4.99199808 39.6319994,4.63200168 39.752,4.296 C39.8720006,3.95999832 40.0419989,3.67000122 40.262,3.426 C40.4820011,3.18199878 40.7559984,2.9900007 41.084,2.85 C41.4120016,2.7099993 41.7919978,2.64 42.224,2.64 Z M44.156,5.436 C44.1319999,4.74799656 43.9440018,4.22600178 43.592,3.87 C43.2399982,3.51399822 42.7840028,3.336 42.224,3.336 C41.6639972,3.336 41.2080018,3.51399822 40.856,3.87 C40.5039982,4.22600178 40.3160001,4.74799656 40.292,5.436 C40.284,5.5560006 40.28,5.70399912 40.28,5.88 C40.28,6.05600088 40.284,6.2039994 40.292,6.324 C40.3160001,7.01200344 40.5039982,7.53399822 40.856,7.89 C41.2080018,8.24600178 41.6639972,8.424 42.224,8.424 C42.7840028,8.424 43.2399982,8.24600178 43.592,7.89 C43.9440018,7.53399822 44.1319999,7.01200344 44.156,6.324 C44.164,6.2039994 44.168,6.05600088 44.168,5.88 C44.168,5.70399912 44.164,5.5560006 44.156,5.436 Z M48.308,9 C48.1319991,9 48.044,8.91200088 48.044,8.736 L48.044,3.456 L45.848,3.456 C45.6719991,3.456 45.584,3.36800088 45.584,3.192 L45.584,3.024 C45.584,2.84799912 45.6719991,2.76 45.848,2.76 L50.972,2.76 C51.1480009,2.76 51.236,2.84799912 51.236,3.024 L51.236,3.192 C51.236,3.36800088 51.1480009,3.456 50.972,3.456 L48.776,3.456 L48.776,8.736 C48.776,8.91200088 48.6880009,9 48.512,9 L48.308,9 Z M53.528,5.88 L56.888,8.52 C56.9920005,8.6000004 57.044,8.6799996 57.044,8.76 C57.044,8.9200008 56.9640008,9 56.804,9 L56.588,9 C56.4679994,9 56.3800003,8.98600014 56.324,8.958 C56.2679997,8.92999986 56.1880005,8.8760004 56.084,8.796 L53.096,6.456 L53.096,8.736 C53.096,8.91200088 53.0080009,9 52.832,9 L52.628,9 C52.4519991,9 52.364,8.91200088 52.364,8.736 L52.364,3.024 C52.364,2.84799912 52.4519991,2.76 52.628,2.76 L52.832,2.76 C53.0080009,2.76 53.096,2.84799912 53.096,3.024 L53.096,5.304 L55.868,2.964 C55.9800006,2.87599956 56.0619997,2.82000012 56.114,2.796 C56.1660003,2.77199988 56.2519994,2.76 56.372,2.76 L56.564,2.76 C56.7240008,2.76 56.804,2.8399992 56.804,3 C56.804,3.03200016 56.7940001,3.06999978 56.774,3.114 C56.7539999,3.15800022 56.7120003,3.1999998 56.648,3.24 L53.528,5.88 Z M62.168,9 C61.9919991,9 61.904,8.91200088 61.904,8.736 L61.904,8.172 C61.8319996,8.28400056 61.7380006,8.39599944 61.622,8.508 C61.5059994,8.62000056 61.3640008,8.71999956 61.196,8.808 C61.0279992,8.89600044 60.8280012,8.9699997 60.596,9.03 C60.3639988,9.0900003 60.0920016,9.12 59.78,9.12 C59.4919986,9.12 59.2180013,9.07400046 58.958,8.982 C58.6979987,8.88999954 58.470001,8.7640008 58.274,8.604 C58.077999,8.4439992 57.9220006,8.25600108 57.806,8.04 C57.6899994,7.82399892 57.632,7.58800128 57.632,7.332 C57.632,7.05999864 57.6899994,6.81600108 57.806,6.6 C57.9220006,6.38399892 58.083999,6.19400082 58.292,6.03 C58.500001,5.86599918 58.7499985,5.73000054 59.042,5.622 C59.3340015,5.51399946 59.6559982,5.43600024 60.008,5.388 L61.904,5.124 L61.904,4.704 C61.904,4.27199784 61.7740013,3.9360012 61.514,3.696 C61.2539987,3.4559988 60.8400028,3.336 60.272,3.336 C59.8239978,3.336 59.4780012,3.42199914 59.234,3.594 C58.9899988,3.76600086 58.8360003,3.951999 58.772,4.152 C58.7399998,4.24800048 58.7020002,4.31399982 58.658,4.35 C58.6139998,4.38600018 58.5560004,4.404 58.484,4.404 L58.316,4.404 C58.2439996,4.404 58.1820003,4.37800026 58.13,4.326 C58.0779997,4.27399974 58.052,4.21200036 58.052,4.14 C58.052,4.02799944 58.0919996,3.88800084 58.172,3.72 C58.2520004,3.55199916 58.3819991,3.3880008 58.562,3.228 C58.7420009,3.0679992 58.9719986,2.93000058 59.252,2.814 C59.5320014,2.69799942 59.871998,2.64 60.272,2.64 C60.7440024,2.64 61.1339985,2.70399936 61.442,2.832 C61.7500015,2.96000064 61.9919991,3.12599898 62.168,3.33 C62.3440009,3.53400102 62.4659997,3.75999876 62.534,4.008 C62.6020003,4.25600124 62.636,4.4999988 62.636,4.74 L62.636,8.736 C62.636,8.91200088 62.5480009,9 62.372,9 L62.168,9 Z M59.9,8.424 C60.1720014,8.424 60.4299988,8.37800046 60.674,8.286 C60.9180012,8.19399954 61.1319991,8.05600092 61.316,7.872 C61.5000009,7.68799908 61.6439995,7.4560014 61.748,7.176 C61.8520005,6.8959986 61.904,6.56800188 61.904,6.192 L61.904,5.784 L60.356,6 C59.0279934,6.18400092 58.364,6.60799668 58.364,7.272 C58.364,7.472001 58.4099995,7.64399928 58.502,7.788 C58.5940005,7.93200072 58.7119993,8.05199952 58.856,8.148 C59.0000007,8.24400048 59.1639991,8.31399978 59.348,8.358 C59.5320009,8.40200022 59.7159991,8.424 59.9,8.424 Z" id="Разработка" fill="#232323"></path>
            <g id="Group-4" transform="translate(85.000000, 2.000000)">
                <g id="Group-2">
                    <g id="Group">
                        <g id="Group-3" transform="translate(0.000000, 0.069488)">
                            <mask id="mask-2" fill="white">
                                <use xlink:href="#path-1"></use>
                            </mask>
                            <g id="Clip-2"></g>
                            <path d="M14.2423302,7.0848427 C14.2423302,10.9849352 11.0540315,14.1466648 7.12116511,14.1466648 C3.18820539,14.1466648 0,10.9849352 0,7.0848427 C0,3.18475018 3.18820539,0.0230206406 7.12116511,0.0230206406 C11.0540315,0.0230206406 14.2423302,3.18475018 14.2423302,7.0848427" id="Fill-1" fill="#008ECF" mask="url(#mask-2)"></path>
                        </g>
                        <path d="M23.6700598,17.5614641 C23.6700598,20.5759836 21.2057085,23.0197986 18.1657636,23.0197986 C15.1259119,23.0197986 12.6615607,20.5759836 12.6615607,17.5614641 C12.6615607,14.546852 15.1259119,12.103037 18.1657636,12.103037 C21.2057085,12.103037 23.6700598,14.546852 23.6700598,17.5614641" id="Fill-4" fill="#0094B5"></path>
                        <path d="M31.8596982,8.95150391 C31.8596982,11.3036249 29.9368847,13.2104149 27.564998,13.2104149 C25.1931113,13.2104149 23.2702978,11.3036249 23.2702978,8.95150391 C23.2702978,6.59938292 25.1931113,4.69259288 27.564998,4.69259288 C29.9368847,4.69259288 31.8596982,6.59938292 31.8596982,8.95150391" id="Fill-6" fill="#009999"></path>
                        <path d="M37.7341229,14.2161338 C37.7341229,15.6300342 36.5782702,16.7762548 35.1524883,16.7762548 C33.7267064,16.7762548 32.5707604,15.6300342 32.5707604,14.2161338 C32.5707604,12.8022335 33.7267064,11.6560128 35.1524883,11.6560128 C36.5782702,11.6560128 37.7341229,12.8022335 37.7341229,14.2161338" id="Fill-8" fill="#00A07C"></path>
                        <path d="M39.77561,9.6837694 C39.77561,10.5001324 39.1082049,11.1619758 38.2848884,11.1619758 C37.4616652,11.1619758 36.7943534,10.5001324 36.7943534,9.6837694 C36.7943534,8.86731388 37.4616652,8.20547046 38.2848884,8.20547046 C39.1082049,8.20547046 39.77561,8.86731388 39.77561,9.6837694" id="Fill-10" fill="#00A45F"></path>
                        <path d="M35.6870904,18.7184133 L35.8304321,18.6126079 L36.5691725,18.6126079 L34.9163964,23.7993264 L34.7734771,23.9037844 L34.219834,23.9037844 L34.0773487,23.8006667 L32.8206268,19.9812267 L31.5639049,23.8006667 L31.4214197,23.9037844 L30.8677766,23.9037844 L30.7248573,23.7993264 L29.0720811,18.6126079 L29.8108216,18.6126079 L29.9541632,18.7184133 L31.1532983,22.6077133 L32.4162304,18.7163038 L32.5589046,18.6126079 L33.082349,18.6126079 L33.2250233,18.7163038 L34.4879553,22.6077133 L35.6870904,18.7184133 Z M41.3477243,18.7626079 L41.4977243,18.6126079 L42.0111024,18.6126079 L42.1611024,18.7626079 L42.1611024,23.7537844 L42.0111024,23.9037844 L41.4977243,23.9037844 L41.3477243,23.7537844 L41.3477243,23.1087115 C41.1625179,23.3296472 40.9423066,23.5148229 40.6875766,23.6636807 C40.2882338,23.8970466 39.8359484,24.0135903 39.333483,24.0135903 C38.57606,24.0135903 37.9242039,23.7468962 37.3860922,23.2167795 C36.8472684,22.6859612 36.5763273,22.030162 36.5763273,21.2581961 C36.5763273,20.4862302 36.8472684,19.8304311 37.3860922,19.2996128 C37.9242039,18.769496 38.57606,18.502802 39.333483,18.502802 C39.8359484,18.502802 40.2882338,18.6193456 40.6875766,18.8527115 C40.9423066,19.0015694 41.1625179,19.1867451 41.3477243,19.4076807 L41.3477243,18.7626079 Z M39.373748,23.2344373 C39.9313287,23.2344373 40.3962199,23.0438836 40.7772,22.6598848 C41.1585387,22.2755245 41.3477243,21.8111154 41.3477243,21.2581961 C41.3477243,20.7052769 41.1585387,20.2408677 40.7772,19.8565075 C40.3962199,19.4725086 39.9313287,19.2819549 39.373748,19.2819549 C38.8160012,19.2819549 38.3492342,19.4726419 37.9648308,19.8569412 C37.58037,20.2412978 37.3897055,20.7055323 37.3897055,21.2581961 C37.3897055,21.8109078 37.578749,22.2751758 37.9598003,22.6594518 C38.347544,23.0437605 38.8160443,23.2344373 39.373748,23.2344373 Z M43.4113031,23.7537844 L43.4113031,16.4666667 L43.5613031,16.3166667 L44.0646151,16.3166667 L44.2146151,16.4666667 L44.2146151,23.7537844 L44.0646151,23.9037844 L43.5613031,23.9037844 L43.4113031,23.7537844 Z M45.4648158,23.7537844 L45.4648158,16.4666667 L45.6148158,16.3166667 L46.1181277,16.3166667 L46.2681277,16.4666667 L46.2681277,23.7537844 L46.1181277,23.9037844 L45.6148158,23.9037844 L45.4648158,23.7537844 Z M51.2130274,18.707586 L51.3525716,18.6126079 L52.1174831,18.6126079 L52.0354714,18.8181878 L49.8613429,24.2681017 C49.6574248,24.7841084 49.3669012,25.1934249 48.98977,25.4933212 C48.6049302,25.7993475 48.1783387,25.936105 47.7169566,25.8997926 L47.5787258,25.750255 L47.5787258,25.2810844 L47.7410795,25.131594 C48.0243405,25.1550023 48.2763725,25.0755442 48.5049463,24.8900878 C48.7427746,24.6971226 48.938164,24.4196566 49.089848,24.0561474 L49.1758913,23.8467103 L46.7909013,18.6126079 L47.567666,18.6126079 L47.704056,18.7001757 L49.5907646,22.8219024 L51.2130274,18.707586 Z" id="wally" fill="#000000" fill-rule="nonzero"></path>
                    </g>
                </g>
            </g>
        </g>
    </g>
</svg>