<?xml version="1.0" encoding="UTF-8"?>
<svg width="167px" height="40px" viewBox="0 0 167 40" version="1.1" xmlns="http://www.w3.org/2000/svg" xmlns:xlink="http://www.w3.org/1999/xlink">
    <!-- Generator: Sketch 52.6 (67491) - http://www.bohemiancoding.com/sketch -->
    <title>logo kaztrans oil</title>
    <desc>Created with Sketch.</desc>
    <g id="Symbols" stroke="none" stroke-width="1" fill="none" fill-rule="evenodd">
        <g id="Logo" transform="translate(-52.000000, -30.000000)" fill="#FFFFFF">
            <g id="logo-kaztrans-oil" transform="translate(52.000000, 30.000000)">
                <g id="Combined-Shape-2">
                    <path d="M3.76126126,15.6390977 C1.68397403,15.6390977 0,13.9559577 0,11.8796992 C0,9.80344079 1.68397403,8.12030075 3.76126126,8.12030075 C5.8385485,8.12030075 7.52252252,9.80344079 7.52252252,11.8796992 C7.52252252,13.9559577 5.8385485,15.6390977 3.76126126,15.6390977 Z M3.76126126,23.7593985 C1.68397403,23.7593985 0,22.0762585 0,20 C0,17.9237415 1.68397403,16.2406015 3.76126126,16.2406015 C5.8385485,16.2406015 7.52252252,17.9237415 7.52252252,20 C7.52252252,22.0762585 5.8385485,23.7593985 3.76126126,23.7593985 Z M11.8855856,15.6390977 C9.80829835,15.6390977 8.12432432,13.9559577 8.12432432,11.8796992 C8.12432432,9.80344079 9.80829835,8.12030075 11.8855856,8.12030075 C13.9628728,8.12030075 15.6468468,9.80344079 15.6468468,11.8796992 C15.6468468,13.9559577 13.9628728,15.6390977 11.8855856,15.6390977 Z M11.8855856,23.7593985 C9.80829835,23.7593985 8.12432432,22.0762585 8.12432432,20 C8.12432432,17.9237415 9.80829835,16.2406015 11.8855856,16.2406015 C13.9628728,16.2406015 15.6468468,17.9237415 15.6468468,20 C15.6468468,22.0762585 13.9628728,23.7593985 11.8855856,23.7593985 Z M20.0099099,15.6390977 C17.9326227,15.6390977 16.2486486,13.9559577 16.2486486,11.8796992 C16.2486486,9.80344079 17.9326227,8.12030075 20.0099099,8.12030075 C22.0871971,8.12030075 23.7711712,9.80344079 23.7711712,11.8796992 C23.7711712,13.9559577 22.0871971,15.6390977 20.0099099,15.6390977 Z M20.0099099,23.7593985 C17.9326227,23.7593985 16.2486486,22.0762585 16.2486486,20 C16.2486486,17.9237415 17.9326227,16.2406015 20.0099099,16.2406015 C22.0871971,16.2406015 23.7711712,17.9237415 23.7711712,20 C23.7711712,22.0762585 22.0871971,23.7593985 20.0099099,23.7593985 Z M28.1342342,15.6390977 C26.056947,15.6390977 24.372973,13.9559577 24.372973,11.8796992 C24.372973,9.80344079 26.056947,8.12030075 28.1342342,8.12030075 C30.2115215,8.12030075 31.8954955,9.80344079 31.8954955,11.8796992 C31.8954955,13.9559577 30.2115215,15.6390977 28.1342342,15.6390977 Z M28.1342342,7.51879699 C26.056947,7.51879699 24.372973,5.83565695 24.372973,3.7593985 C24.372973,1.68314004 26.056947,0 28.1342342,0 C30.2115215,0 31.8954955,1.68314004 31.8954955,3.7593985 C31.8954955,5.83565695 30.2115215,7.51879699 28.1342342,7.51879699 Z M28.1342342,23.7593985 C26.056947,23.7593985 24.372973,22.0762585 24.372973,20 C24.372973,17.9237415 26.056947,16.2406015 28.1342342,16.2406015 C30.2115215,16.2406015 31.8954955,17.9237415 31.8954955,20 C31.8954955,22.0762585 30.2115215,23.7593985 28.1342342,23.7593985 Z M36.2585586,15.6390977 C34.1812713,15.6390977 32.4972973,13.9559577 32.4972973,11.8796992 C32.4972973,9.80344079 34.1812713,8.12030075 36.2585586,8.12030075 C38.3358458,8.12030075 40.0198198,9.80344079 40.0198198,11.8796992 C40.0198198,13.9559577 38.3358458,15.6390977 36.2585586,15.6390977 Z M36.2585586,23.7593985 C34.1812713,23.7593985 32.4972973,22.0762585 32.4972973,20 C32.4972973,17.9237415 34.1812713,16.2406015 36.2585586,16.2406015 C38.3358458,16.2406015 40.0198198,17.9237415 40.0198198,20 C40.0198198,22.0762585 38.3358458,23.7593985 36.2585586,23.7593985 Z M44.3828829,23.7593985 C42.3055956,23.7593985 40.6216216,22.0762585 40.6216216,20 C40.6216216,17.9237415 42.3055956,16.2406015 44.3828829,16.2406015 C46.4601701,16.2406015 48.1441441,17.9237415 48.1441441,20 C48.1441441,22.0762585 46.4601701,23.7593985 44.3828829,23.7593985 Z M3.76126126,31.8796992 C1.68397403,31.8796992 0,30.1965592 0,28.1203008 C0,26.0440423 1.68397403,24.3609023 3.76126126,24.3609023 C5.8385485,24.3609023 7.52252252,26.0440423 7.52252252,28.1203008 C7.52252252,30.1965592 5.8385485,31.8796992 3.76126126,31.8796992 Z M11.8855856,31.8796992 C9.80829835,31.8796992 8.12432432,30.1965592 8.12432432,28.1203008 C8.12432432,26.0440423 9.80829835,24.3609023 11.8855856,24.3609023 C13.9628728,24.3609023 15.6468468,26.0440423 15.6468468,28.1203008 C15.6468468,30.1965592 13.9628728,31.8796992 11.8855856,31.8796992 Z M20.0099099,31.8796992 C17.9326227,31.8796992 16.2486486,30.1965592 16.2486486,28.1203008 C16.2486486,26.0440423 17.9326227,24.3609023 20.0099099,24.3609023 C22.0871971,24.3609023 23.7711712,26.0440423 23.7711712,28.1203008 C23.7711712,30.1965592 22.0871971,31.8796992 20.0099099,31.8796992 Z M28.1342342,31.8796992 C26.056947,31.8796992 24.372973,30.1965592 24.372973,28.1203008 C24.372973,26.0440423 26.056947,24.3609023 28.1342342,24.3609023 C30.2115215,24.3609023 31.8954955,26.0440423 31.8954955,28.1203008 C31.8954955,30.1965592 30.2115215,31.8796992 28.1342342,31.8796992 Z M28.1342342,40 C26.056947,40 24.372973,38.31686 24.372973,36.2406015 C24.372973,34.164343 26.056947,32.481203 28.1342342,32.481203 C30.2115215,32.481203 31.8954955,34.164343 31.8954955,36.2406015 C31.8954955,38.31686 30.2115215,40 28.1342342,40 Z M58.2942603,26.500235 L55.3657658,26.500235 L55.3657658,12.5143914 L58.2942603,12.5143914 L58.2942603,18.7464756 L58.4688063,18.7464756 L63.6373082,12.5143914 L66.8955008,12.5143914 L61.7948779,18.6495536 L67.2542898,26.500235 L63.7439752,26.500235 L59.6809315,20.6461466 L58.2942603,22.2841283 L58.2942603,26.500235 Z M72.1971396,24.5424107 C73.5062348,24.5424107 74.495329,23.7088816 74.495329,22.6233553 L74.495329,21.8382871 L72.3328976,21.9739779 C71.1207724,22.0612077 70.5292553,22.4973567 70.5292553,23.2630404 C70.5292553,24.0578008 71.2177424,24.5424107 72.1971396,24.5424107 Z M71.2662274,26.6650023 C69.210463,26.6650023 67.7656098,25.4050164 67.7656098,23.4471922 C67.7656098,21.5087523 69.249251,20.3844572 71.9062295,20.229382 L74.495329,20.0743069 L74.495329,19.2020089 C74.495329,18.3103266 73.8553268,17.8063322 72.6916866,17.8063322 C71.6735015,17.8063322 70.9947113,18.1552514 70.7619833,18.7949366 L68.1631869,18.7949366 C68.3474299,16.8177279 70.1607692,15.5771264 72.8468387,15.5771264 C75.6783632,15.5771264 77.2783684,16.9146499 77.2783684,19.2020089 L77.2783684,26.500235 L74.543814,26.500235 L74.543814,25.1045583 L74.3692679,25.1045583 C73.8165388,26.0834704 72.6528986,26.6650023 71.2662274,26.6650023 Z M79.4090877,26.500235 L79.4090877,24.8331767 L84.8200146,18.232789 L84.8200146,18.0583294 L79.4866637,18.0583294 L79.4866637,15.8097392 L88.1945712,15.8097392 L88.1945712,17.6706414 L83.0939483,24.0771852 L83.0939483,24.2516447 L88.3206322,24.2516447 L88.3206322,26.500235 L79.4090877,26.500235 Z M96.2792495,26.500235 L93.350755,26.500235 L93.350755,15.0149789 L89.1519532,15.0149789 L89.1519532,12.5143914 L100.478051,12.5143914 L100.478051,15.0149789 L96.2792495,15.0149789 L96.2792495,26.500235 Z M101.270584,26.500235 L101.270584,15.8097392 L104.005139,15.8097392 L104.005139,17.5155663 L104.179685,17.5155663 C104.460898,16.4494243 105.566356,15.9360315 106.923936,15.9360315 C107.311816,15.9360315 107.786969,15.9844925 108.029394,16.0717223 L107.034128,18.867644 C106.625733,18.6244258 106.262364,18.5028167 105.944022,18.5028167 C104.402199,18.5028167 104.092412,19.4858439 104.092412,20.9881348 L104.092412,26.500235 L101.270584,26.500235 Z M113.175881,24.5424107 C114.484976,24.5424107 115.474071,23.7088816 115.474071,22.6233553 L115.474071,21.8382871 L113.311639,21.9739779 C112.099514,22.0612077 111.507997,22.4973567 111.507997,23.2630404 C111.507997,24.0578008 112.196484,24.5424107 113.175881,24.5424107 Z M112.244969,26.6650023 C110.189205,26.6650023 108.744351,25.4050164 108.744351,23.4471922 C108.744351,21.5087523 110.227993,20.3844572 112.884971,20.229382 L114.603333,20.12646 C115.092427,20.0971656 115.474071,19.6919794 115.474071,19.2020089 C115.474071,18.3103266 114.834068,17.8063322 113.670428,17.8063322 C112.652243,17.8063322 111.973453,18.1552514 111.740725,18.7949366 L109.141928,18.7949366 C109.326171,16.8177279 111.139511,15.5771264 113.82558,15.5771264 C116.657105,15.5771264 118.25711,16.9146499 118.25711,19.2020089 C118.25711,21.5353812 118.25711,23.3746801 118.25711,24.7199057 C118.25711,25.2474748 118.35741,25.8409179 118.558011,26.500235 L116.918232,26.500235 C116.147421,26.500235 115.522556,25.8753692 115.522556,25.1045583 L115.34801,25.1045583 C114.79528,26.0834704 113.63164,26.6650023 112.244969,26.6650023 Z M120.630254,26.500235 L120.630254,15.8097392 L123.364809,15.8097392 L123.364809,17.5252585 L123.539355,17.5252585 C124.033902,16.3234258 125.119966,15.5771264 126.700577,15.5771264 C129.076343,15.5771264 130.356347,17.0309563 130.356347,19.5896969 L130.356347,26.500235 L127.534519,26.500235 L127.534519,20.2584586 C127.534519,18.7852444 126.904214,18.0098684 125.566028,18.0098684 C124.256933,18.0098684 123.452082,18.9306273 123.452082,20.3359962 L123.452082,26.500235 L120.630254,26.500235 Z M132.448278,18.9500117 C132.448278,16.9243421 134.232527,15.5771264 136.899202,15.5771264 C139.614362,15.5771264 141.214368,16.7111137 141.36952,18.7561678 L138.761026,18.7561678 C138.615571,18.0680216 137.965872,17.6415648 136.918596,17.6415648 C135.910108,17.6415648 135.163439,18.0970982 135.163439,18.7755522 C135.163439,19.2989309 135.619198,19.6187735 136.608292,19.8416941 L138.615571,20.277843 C140.69073,20.7333764 141.621642,21.6056743 141.621642,23.2048872 C141.621642,25.3371711 139.711332,26.7328477 136.908899,26.7328477 C134.087071,26.7328477 132.380399,25.579476 132.186459,23.5247298 L134.940408,23.5247298 C135.153742,24.2516447 135.842229,24.6684093 136.967081,24.6684093 C138.062842,24.6684093 138.819208,24.2128759 138.819208,23.5247298 C138.819208,23.001351 138.411934,22.6815085 137.471325,22.4779723 L135.531925,22.0418233 C133.456766,21.5862899 132.448278,20.5976856 132.448278,18.9500117 Z M149.890563,12.1557801 C154.021486,12.1557801 156.610585,14.9762101 156.610585,19.5024671 C156.610585,24.0384164 154.031183,26.8588463 149.890563,26.8588463 C145.740246,26.8588463 143.151147,24.0384164 143.151147,19.5024671 C143.151147,14.9665179 145.779034,12.1557801 149.890563,12.1557801 Z M149.890563,14.7242129 C147.621465,14.7242129 146.14752,16.5754229 146.14752,19.5024671 C146.14752,22.4198191 147.592374,24.2904135 149.890563,24.2904135 C152.169358,24.2904135 153.623909,22.4198191 153.623909,19.5024671 C153.623909,16.5754229 152.169358,14.7242129 149.890563,14.7242129 Z M158.574775,26.6303454 L158.574775,15.9398496 L161.396602,15.9398496 L161.396602,26.6303454 L158.574775,26.6303454 Z M158.574775,14.5503759 L158.574775,11.7293233 L161.396602,11.7293233 L161.396602,14.5503759 L158.574775,14.5503759 Z M163.990991,26.500235 L163.990991,11.7293233 L166.812818,11.7293233 L166.812818,26.500235 L163.990991,26.500235 Z M36.2585586,31.8796992 C34.1812713,31.8796992 32.4972973,30.1965592 32.4972973,28.1203008 C32.4972973,26.0440423 34.1812713,24.3609023 36.2585586,24.3609023 C38.3358458,24.3609023 40.0198198,26.0440423 40.0198198,28.1203008 C40.0198198,30.1965592 38.3358458,31.8796992 36.2585586,31.8796992 Z" id="Combined-Shape" fill-rule="nonzero"></path>
                </g>
            </g>
        </g>
    </g>
</svg>