<?xml version="1.0" encoding="UTF-8"?>
<svg width="119px" height="60px" viewBox="0 0 119 60" version="1.1" xmlns="http://www.w3.org/2000/svg" xmlns:xlink="http://www.w3.org/1999/xlink">
    <!-- Generator: Sketch 52.6 (67491) - http://www.bohemiancoding.com/sketch -->
    <title>Group 4</title>
    <desc>Created with Sketch.</desc>
    <defs>
        <polygon id="path-1" points="0 0.0531672598 32.5930249 0.0531672598 32.5930249 32.6461495 0 32.6461495"></polygon>
    </defs>
    <g id="Symbols" stroke="none" stroke-width="1" fill="none" fill-rule="evenodd">
        <g id="Logo" transform="translate(-68.000000, -20.000000)">
            <g id="Group-4" transform="translate(68.000000, 20.000000)">
                <g id="Group-2">
                    <g id="Group">
                        <g id="Group-3" transform="translate(0.000000, 0.160356)">
                            <mask id="mask-2" fill="white">
                                <use xlink:href="#path-1"></use>
                            </mask>
                            <g id="Clip-2"></g>
                            <path d="M32.5930249,16.349637 C32.5930249,25.3498505 25.296726,32.6461495 16.2965125,32.6461495 C7.29608541,32.6461495 0,25.3498505 0,16.349637 C0,7.34942349 7.29608541,0.0531245552 16.2965125,0.0531245552 C25.296726,0.0531245552 32.5930249,7.34942349 32.5930249,16.349637" id="Fill-1" fill="#008ECF" mask="url(#mask-2)"></path>
                        </g>
                        <path d="M54.1680214,40.5264555 C54.1680214,47.4830391 48.5284484,53.1226121 41.5716512,53.1226121 C34.6150676,53.1226121 28.9754947,47.4830391 28.9754947,40.5264555 C28.9754947,33.5696584 34.6150676,27.9300854 41.5716512,27.9300854 C48.5284484,27.9300854 54.1680214,33.5696584 54.1680214,40.5264555" id="Fill-4" fill="#0094B5"></path>
                        <path d="M72.909694,20.6573167 C72.909694,26.0852883 68.5094093,30.485573 63.0814377,30.485573 C57.6534662,30.485573 53.2531815,26.0852883 53.2531815,20.6573167 C53.2531815,15.2293452 57.6534662,10.8290605 63.0814377,10.8290605 C68.5094093,10.8290605 72.909694,15.2293452 72.909694,20.6573167" id="Fill-6" fill="#009999"></path>
                        <path d="M86.353089,32.8064626 C86.353089,36.0693096 83.7079644,38.7144342 80.4451174,38.7144342 C77.1822705,38.7144342 74.5369324,36.0693096 74.5369324,32.8064626 C74.5369324,29.5436157 77.1822705,26.8984911 80.4451174,26.8984911 C83.7079644,26.8984911 86.353089,29.5436157 86.353089,32.8064626" id="Fill-8" fill="#00A07C"></path>
                        <path d="M91.0249537,22.3471601 C91.0249537,24.2310747 89.4976228,25.7584057 87.6134947,25.7584057 C85.7295801,25.7584057 84.2024626,24.2310747 84.2024626,22.3471601 C84.2024626,20.463032 85.7295801,18.9357011 87.6134947,18.9357011 C89.4976228,18.9357011 91.0249537,20.463032 91.0249537,22.3471601" id="Fill-10" fill="#00A45F"></path>
                        <path d="M81.9965657,43.2983258 L83.2174843,43.2983258 L79.5777648,54.8164255 L78.3107739,54.8164255 L75.1087421,45.0030046 L71.9067104,54.8164255 L70.6397195,54.8164255 L67,43.2983258 L68.2209186,43.2983258 L71.2847331,53.3190725 L74.509801,43.2983258 L75.7076833,43.2983258 L78.9327512,53.3190725 L81.9965657,43.2983258 Z M94.9659459,43.2983258 L96.1407921,43.2983258 L96.1407921,54.8164255 L94.9659459,54.8164255 L94.9659459,52.213335 C94.4745046,53.1040725 93.7987828,53.8028302 92.9387604,54.3096291 C92.078738,54.816428 91.1035486,55.0698237 90.0131631,55.0698237 C88.369906,55.0698237 86.9647119,54.4900851 85.7975386,53.3305906 C84.6303654,52.1710961 84.0467875,50.7467054 84.0467875,49.0573757 C84.0467875,47.3680459 84.6303654,45.9436552 85.7975386,44.7841607 C86.9647119,43.6246662 88.369906,43.0449276 90.0131631,43.0449276 C91.1035486,43.0449276 92.078738,43.2983233 92.9387604,43.8051222 C93.7987828,44.3119211 94.4745046,45.0106789 94.9659459,45.9014164 L94.9659459,43.2983258 Z M86.6268418,52.5358418 C87.5790095,53.4880094 88.7384866,53.9640861 90.1053079,53.9640861 C91.4721292,53.9640861 92.6239277,53.4880094 93.5607378,52.5358418 C94.4975479,51.5836741 94.9659459,50.424197 94.9659459,49.0573757 C94.9659459,47.6905543 94.4975479,46.5310772 93.5607378,45.5789096 C92.6239277,44.6267419 91.4721292,44.1506652 90.1053079,44.1506652 C88.7384866,44.1506652 87.5828488,44.6267419 86.6383599,45.5789096 C85.693871,46.5310772 85.2216336,47.6905543 85.2216336,49.0573757 C85.2216336,50.424197 85.6900317,51.5836741 86.6268418,52.5358418 Z M99.6883668,54.8164255 L99.6883668,38 L100.840177,38 L100.840177,54.8164255 L99.6883668,54.8164255 Z M104.387751,54.8164255 L104.387751,38 L105.539561,38 L105.539561,54.8164255 L104.387751,54.8164255 Z M117.518385,43.2983258 L118.76234,43.2983258 L113.786521,55.8760906 C113.341152,57.0125488 112.711502,57.9071123 111.897552,58.5598079 C111.083603,59.2125034 110.192879,59.5004531 109.225353,59.4236653 L109.225353,58.340964 C109.962515,58.4023941 110.626719,58.1912311 111.217985,57.7074685 C111.80925,57.2237059 112.289166,56.5364661 112.657747,55.6457287 L112.911145,55.0237513 L107.612819,43.2983258 L108.856774,43.2983258 L113.510086,53.5494345 L117.518385,43.2983258 Z" id="wally" fill="#FFFFFF"></path>
                    </g>
                </g>
            </g>
        </g>
    </g>
</svg>