<?xml version="1.0" encoding="UTF-8"?>
<svg width="152px" height="88px" viewBox="0 0 152 88" version="1.1" xmlns="http://www.w3.org/2000/svg" xmlns:xlink="http://www.w3.org/1999/xlink">
    <!-- Generator: Sketch 61 (89581) - https://sketch.com -->
    <title>Group 4</title>
    <desc>Created with Sketch.</desc>
    <defs>
        <filter x="-10.7%" y="-9.8%" width="121.5%" height="120.5%" filterUnits="objectBoundingBox" id="filter-1">
            <feOffset dx="0" dy="2" in="SourceAlpha" result="shadowOffsetOuter1"></feOffset>
            <feGaussianBlur stdDeviation="7" in="shadowOffsetOuter1" result="shadowBlurOuter1"></feGaussianBlur>
            <feColorMatrix values="0 0 0 0 0   0 0 0 0 0   0 0 0 0 0  0 0 0 0.297016531 0" type="matrix" in="shadowBlurOuter1" result="shadowMatrixOuter1"></feColorMatrix>
            <feMerge>
                <feMergeNode in="shadowMatrixOuter1"></feMergeNode>
                <feMergeNode in="SourceGraphic"></feMergeNode>
            </feMerge>
        </filter>
        <polygon id="path-2" points="0 0.0558256228 34.5102617 0.0558256228 34.5102617 34.2784569 0 34.2784569"></polygon>
    </defs>
    <g id="Page-1" stroke="none" stroke-width="1" fill="none" fill-rule="evenodd">
        <g id="00-00-Авторизация" transform="translate(-642.000000, -269.000000)">
            <g id="Group" filter="url(#filter-1)" transform="translate(575.000000, 280.000000)">
                <g id="Group-5">
                    <g id="Group-4">
                        <g transform="translate(81.000000, 0.000000)">
                            <g id="Group-2">
                                <g id="Group">
                                    <g id="Group-3" transform="translate(0.000000, 0.168374)">
                                        <mask id="mask-3" fill="white">
                                            <use xlink:href="#path-2"></use>
                                        </mask>
                                        <g id="Clip-2"></g>
                                        <path d="M34.5102617,17.1671189 C34.5102617,26.6173431 26.7847687,34.2784569 17.2551308,34.2784569 C7.7252669,34.2784569 0,26.6173431 0,17.1671189 C0,7.71689466 7.7252669,0.0557807829 17.2551308,0.0557807829 C26.7847687,0.0557807829 34.5102617,7.71689466 34.5102617,17.1671189" id="Fill-1" fill="#008ECF" mask="url(#mask-3)"></path>
                                    </g>
                                    <path d="M57.3543755,42.5527783 C57.3543755,49.8571911 51.383063,55.7787427 44.0170425,55.7787427 C36.6512481,55.7787427 30.6799355,49.8571911 30.6799355,42.5527783 C30.6799355,35.2481413 36.6512481,29.3265897 44.0170425,29.3265897 C51.383063,29.3265897 57.3543755,35.2481413 57.3543755,42.5527783" id="Fill-4" fill="#0094B5"></path>
                                    <path d="M77.1984995,21.6901826 C77.1984995,27.3895527 72.5393745,32.0098516 66.7921105,32.0098516 C61.0448466,32.0098516 56.3857216,27.3895527 56.3857216,21.6901826 C56.3857216,15.9908125 61.0448466,11.3705135 66.7921105,11.3705135 C72.5393745,11.3705135 77.1984995,15.9908125 77.1984995,21.6901826" id="Fill-6" fill="#009999"></path>
                                    <path d="M91.4326824,34.4467858 C91.4326824,37.8727751 88.6319623,40.6501559 85.1771832,40.6501559 C81.722404,40.6501559 78.9214578,37.8727751 78.9214578,34.4467858 C78.9214578,31.0207964 81.722404,28.2434157 85.1771832,28.2434157 C88.6319623,28.2434157 91.4326824,31.0207964 91.4326824,34.4467858" id="Fill-8" fill="#00A07C"></path>
                                    <path d="M96.3793628,23.4645181 C96.3793628,25.4426285 94.7621888,27.046326 92.7672296,27.046326 C90.7724965,27.046326 89.1555487,25.4426285 89.1555487,23.4645181 C89.1555487,21.4861836 90.7724965,19.8824861 92.7672296,19.8824861 C94.7621888,19.8824861 96.3793628,21.4861836 96.3793628,23.4645181" id="Fill-10" fill="#00A45F"></path>
                                    <path d="M86.8198931,45.4632421 L88.1126304,45.4632421 L84.2588098,57.5572468 L82.91729,57.5572468 L79.5269035,47.2531548 L76.1365169,57.5572468 L74.7949971,57.5572468 L70.9411765,45.4632421 L72.2339138,45.4632421 L75.4779527,55.9850262 L78.8927304,45.4632421 L80.1610765,45.4632421 L83.5758542,55.9850262 L86.8198931,45.4632421 Z M100.552178,45.4632421 L101.796133,45.4632421 L101.796133,57.5572468 L100.552178,57.5572468 L100.552178,54.8240017 C100.031828,55.7592761 99.3163583,56.4929717 98.4057463,57.0251106 C97.4951343,57.5572494 96.4625809,57.8233149 95.308055,57.8233149 C93.5681358,57.8233149 92.0802832,57.2145894 90.8444527,55.9971202 C89.6086221,54.7796509 88.9907161,53.2840407 88.9907161,51.5102444 C88.9907161,49.7364482 89.6086221,48.2408379 90.8444527,47.0233687 C92.0802832,45.8058995 93.5681358,45.197174 95.308055,45.197174 C96.4625809,45.197174 97.4951343,45.4632395 98.4057463,45.9953783 C99.3163583,46.5275172 100.031828,47.2612128 100.552178,48.1964872 L100.552178,45.4632421 Z M91.7225384,55.1626338 C92.7307159,56.1624099 93.9583975,56.6622904 95.4056201,56.6622904 C96.8528427,56.6622904 98.072394,56.1624099 99.0643106,55.1626338 C100.056227,54.1628578 100.552178,52.9454068 100.552178,51.5102444 C100.552178,50.075082 100.056227,48.8576311 99.0643106,47.857855 C98.072394,46.858079 96.8528427,46.3581985 95.4056201,46.3581985 C93.9583975,46.3581985 92.7347811,46.858079 91.734734,47.857855 C90.7346869,48.8576311 90.2346709,50.075082 90.2346709,51.5102444 C90.2346709,52.9454068 90.7306218,54.1628578 91.7225384,55.1626338 Z M105.552388,57.5572468 L105.552388,39.9 L106.771952,39.9 L106.771952,57.5572468 L105.552388,57.5572468 Z M110.528207,57.5572468 L110.528207,39.9 L111.747771,39.9 L111.747771,57.5572468 L110.528207,57.5572468 Z M124.431231,45.4632421 L125.74836,45.4632421 L120.479846,58.6698952 C120.008279,59.8631763 119.341591,60.8024679 118.479761,61.4877983 C117.617932,62.1731286 116.674813,62.4754757 115.650374,62.3948486 L115.650374,61.2580122 C116.430899,61.3225139 117.134173,61.1007926 117.760219,60.5928419 C118.386265,60.0848912 118.894411,59.3632895 119.284673,58.4280151 L119.552977,57.7749388 L113.942985,45.4632421 L115.260114,45.4632421 L120.18715,56.2269062 L124.431231,45.4632421 Z" id="wally" fill="#FFFFFF"></path>
                                </g>
                            </g>
                        </g>
                    </g>
                </g>
            </g>
        </g>
    </g>
</svg>