<?xml version="1.0" encoding="UTF-8"?>
<svg width="108px" height="32px" viewBox="0 0 108 32" version="1.1" xmlns="http://www.w3.org/2000/svg" xmlns:xlink="http://www.w3.org/1999/xlink">
    <!-- Generator: Sketch 52.6 (67491) - http://www.bohemiancoding.com/sketch -->
    <title>google white</title>
    <desc>Created with Sketch.</desc>
    <defs>
        <linearGradient x1="50%" y1="0%" x2="50%" y2="38.9125982%" id="linearGradient-1">
            <stop stop-color="#FBDA09" offset="0%"></stop>
            <stop stop-color="#FFBC00" offset="100%"></stop>
        </linearGradient>
        <path d="M18.0229747,9.2022158 C19.1479831,9.8278671 19.1482407,10.8421198 18.0229747,11.4679325 L2.05175724,20.3502685 C0.92674878,20.9759379 0.014749229,20.458014 0.014749229,19.1927834 L0.014749229,1.4776557 C0.014749229,0.212724898 0.926491229,-0.305656765 2.05175724,0.320137766 L18.0229747,9.2022158 Z" id="path-2"></path>
        <linearGradient x1="0%" y1="58.4755255%" x2="69.3064856%" y2="39.0830098%" id="linearGradient-4">
            <stop stop-color="#01E2FF" offset="0%"></stop>
            <stop stop-color="#01C4FF" offset="100%"></stop>
        </linearGradient>
        <linearGradient x1="20.2810876%" y1="20.1019903%" x2="83.820166%" y2="83.6214476%" id="linearGradient-5">
            <stop stop-color="#28D781" offset="0%"></stop>
            <stop stop-color="#02F076" offset="100%"></stop>
        </linearGradient>
        <linearGradient x1="74.4881466%" y1="17.4301299%" x2="10.1079427%" y2="91.1838038%" id="linearGradient-6">
            <stop stop-color="#F2414E" offset="0%"></stop>
            <stop stop-color="#E02554" offset="100%"></stop>
        </linearGradient>
    </defs>
    <g id="Symbols" stroke="none" stroke-width="1" fill="none" fill-rule="evenodd">
        <g id="Group-8" transform="translate(-16.000000, -8.000000)">
            <g id="google-white" transform="translate(16.000000, 8.000000)">
                <g id="Playstore">
                    <path d="M0,3.63688332 C0,1.62828813 1.66530631,0 3.71956115,0 L104.280439,0 C106.334696,0 108,1.62789868 108,3.63688332 L108,28.3046497 C108,30.3132449 106.334694,31.941533 104.280439,31.941533 L3.71956115,31.941533 C1.66530425,31.941533 0,30.3136343 0,28.3046497 L0,3.63688332 Z" id="background" fill="#FFFFFF"></path>
                    <path d="M0.743801653,3.63688332 L0.743801653,28.3046497 C0.743801653,29.9118252 2.07594372,31.2142602 3.71956115,31.2142602 L104.280439,31.2142602 C105.923905,31.2142602 107.256198,29.9115815 107.256198,28.3046497 L107.256198,3.63688332 C107.256198,2.0297078 105.924056,0.727272727 104.280439,0.727272727 L3.71956115,0.727272727 C2.07609489,0.727272727 0.743801653,2.02995146 0.743801653,3.63688332 Z M0,3.63688332 C0,1.62828813 1.66530631,0 3.71956115,0 L104.280439,0 C106.334696,0 108,1.62789868 108,3.63688332 L108,28.3046497 C108,30.3132449 106.334694,31.941533 104.280439,31.941533 L3.71956115,31.941533 C1.66530425,31.941533 0,30.3136343 0,28.3046497 L0,3.63688332 Z" id="background-copy" fill="#A6A6A6" fill-rule="nonzero"></path>
                    <path d="M0.371900826,3.63688332 L0.371900826,28.3046497 C0.371900826,30.1126625 1.8705552,31.5778966 3.71956115,31.5778966 L104.280439,31.5778966 C106.1293,31.5778966 107.628099,30.1124128 107.628099,28.3046497 L107.628099,3.63688332 C107.628099,1.82887049 106.129445,0.363636364 104.280439,0.363636364 L3.71956115,0.363636364 C1.87070025,0.363636364 0.371900826,1.82912014 0.371900826,3.63688332 Z M0,3.63688332 C0,1.62828813 1.66530631,0 3.71956115,0 L104.280439,0 C106.334696,0 108,1.62789868 108,3.63688332 L108,28.3046497 C108,30.3132449 106.334694,31.941533 104.280439,31.941533 L3.71956115,31.941533 C1.66530425,31.941533 0,30.3136343 0,28.3046497 L0,3.63688332 Z" id="background-copy" fill="#8F8F8F" fill-rule="nonzero"></path>
                    <g id="get-it-on" transform="translate(33.099174, 5.381818)" fill="#333333">
                        <path d="M24.6942149,5.23636364 C23.2153698,5.23636364 22.0165289,4.06416371 22.0165289,2.61818182 C22.0165289,1.17219993 23.2153698,0 24.6942149,0 C26.17306,0 27.3719008,1.17219993 27.3719008,2.61818182 C27.3719008,4.06416371 26.17306,5.23636364 24.6942149,5.23636364 Z M24.6942149,4.43636364 C25.7211907,4.43636364 26.553719,3.62233591 26.553719,2.61818182 C26.553719,1.61402773 25.7211907,0.8 24.6942149,0.8 C23.6672391,0.8 22.8347107,1.61402773 22.8347107,2.61818182 C22.8347107,3.62233591 23.6672391,4.43636364 24.6942149,4.43636364 Z" id="o"></path>
                        <path d="M6.54545455,2.90909091 L6.54545455,4.50909091 L8.70247934,4.50909091 L8.70247934,5.09090909 L6.54545455,5.09090909 L5.72727273,5.09090909 L5.72727273,0.290909091 L5.72727273,0.218181818 L8.70247934,0.218181818 L8.70247934,0.8 L6.54545455,0.8 L6.54545455,2.32727273 L8.47933884,2.32727273 L8.47933884,2.90909091 L6.54545455,2.90909091 Z" id="e"></path>
                        <path d="M11.6033058,0.8 L11.6033058,5.09090909 L10.785124,5.09090909 L10.785124,0.8 L9.52066116,0.8 L9.52066116,0.218181818 L12.8677686,0.218181818 L12.8677686,0.8 L11.6033058,0.8 Z" id="t"></path>
                        <path d="M18.892562,0.8 L18.892562,5.09090909 L18.0743802,5.09090909 L18.0743802,0.8 L16.8099174,0.8 L16.8099174,0.218181818 L20.1570248,0.218181818 L20.1570248,0.8 L18.892562,0.8 Z" id="t"></path>
                        <rect id="i" x="15.2479339" y="0.218181818" width="1" height="4.87272727"></rect>
                        <path d="M28.8595041,0.218181818 L29.0082645,0.218181818 L31.2396694,3.78359202 L31.2396694,0.218181818 L32.0578512,0.218181818 L32.0578512,5.09090909 L31.2396694,5.09090909 L28.8595041,1.28780488 L28.8595041,5.09090909 L28.0413223,5.09090909 L28.0413223,0.218181818 L28.8595041,0.218181818 Z" id="n"></path>
                        <g id="g" transform="translate(0.000000, 0.072727)">
                            <polygon id="Rectangle-1" points="2.66156493 2.33964446 4.90171541 2.33964446 4.8795357 3.03287244 2.66156493 3.03287244"></polygon>
                            <path d="M4.46088965,0.708547543 L3.94828049,1.2092234 C3.62855077,0.889930792 3.17443922,0.714891362 2.65047507,0.714891362 C1.6031416,0.714891362 0.754110063,1.54415784 0.754110063,2.56710989 C0.754110063,3.59006194 1.6031416,4.41932842 2.65047507,4.41932842 C3.69780855,4.41932842 4.44139983,3.82794368 4.43984032,2.56710989 C4.44161169,2.48919119 4.43975395,2.41334407 4.43442622,2.33964446 L5.08878859,2.33964446 C5.08886283,2.34821625 5.08890001,2.35680548 5.08890001,2.36541203 C5.33504278,4.13072319 4.10411232,5.14720934 2.62829537,5.13421978 C1.17672932,5.13218687 0,3.98488553 0,2.56710989 C0,1.14933425 1.17672792,0 2.62829537,0 C3.38703669,0 4.02486975,0.258913542 4.46088965,0.708547543 Z" id="Oval-1"></path>
                        </g>
                    </g>
                    <g id="googleplay" transform="translate(32.727273, 13.963636)" fill="#333333">
                        <g id="big-P" transform="translate(46.413223, 0.363636)">
                            <path d="M0.371900826,2.55610311e-07 L4.58872762,0 C4.58872762,0 7.01623857,0.403835227 7.01623838,3.1294399 C7.01623819,5.85504458 4.58872762,6.2588798 4.58872762,6.2588798 L0.371900826,6.25888006 L0.371900826,2.55610311e-07 Z M1.19008264,1.51395729 L1.19008264,4.87272727 L4.0526707,4.87272727 C4.0526707,4.87272727 5.3553719,4.87272727 5.3553719,3.19334228 C5.3553719,1.51395729 4.0526707,1.51395729 4.0526707,1.51395729 L1.19008264,1.51395729 Z" id="Combined-Shape"></path>
                            <rect id="Rectangle-6" x="0" y="0" width="1.48760331" height="10.1818182"></rect>
                        </g>
                        <rect id="y" x="54.2975207" y="0.363636364" width="1.48760331" height="10.1818182"></rect>
                        <path d="M61.2987783,9.81746423 C60.8890399,10.148016 60.233971,10.45912 59.1993545,10.5223011 C56.8291043,10.6670456 56.8278693,8.55220157 56.8278693,8.40958807 C56.8278693,8.26697457 56.7109603,6.54229404 58.5964321,6.26814631 C59.9315317,6.07402274 60.8666263,6.39746992 61.2987783,6.60284002 L61.2987783,6.30368032 C61.1928027,5.90747466 60.8639344,5.17947443 59.8780009,5.17947443 C58.5234749,5.17947443 58.2243497,5.89552557 58.2243497,5.89552557 L56.9852371,5.17947443 C56.9852371,5.17947443 57.6786221,3.78181818 59.759167,3.78181818 C62.3461226,3.78181818 62.7865359,5.52650036 62.7865359,6.11410689 C62.7865359,6.11696708 62.7864843,6.11980877 62.7863816,6.12263209 L62.7863816,10.5421875 L61.2987783,10.5421875 L61.2987783,9.81746423 Z M61.1925105,7.6365767 C61.1925105,7.6365767 58.3266224,6.88128556 58.2270009,8.45550426 C58.1273794,10.029723 60.9764158,9.27382814 61.2309717,8.15788352 C61.2309717,7.80301845 61.1925105,7.6365767 61.1925105,7.6365767 Z" id="a"></path>
                        <path d="M65.5777678,10.1591579 L62.9256198,4 L64.4132231,4 L66.3215695,8.43180637 L68.2147469,4.03522727 L69.7023502,4.03522727 L65.677686,13.3818182 L64.1900826,13.3818182 L65.5777678,10.1591579 Z" id="y"></path>
                        <path d="M43.0828771,6.38004772 L38.3780367,8.28124721 C38.3780367,8.28124721 38.6818926,9.33279768 40.0964367,9.33984561 C41.2040774,9.3453644 41.8293469,8.37989685 41.8293469,8.37989685 L43.023028,9.17032875 C43.023028,9.17032875 42.0597928,10.693555 40.0870344,10.693555 C37.6627864,10.693555 36.5950413,8.62085422 36.5950413,7.27477393 C36.5950413,5.97786031 37.4425563,3.78181818 39.9365981,3.78181818 C42.43064,3.78181818 43.0828771,6.38004772 43.0828771,6.38004772 Z M41.2927848,5.84146567 C41.2927848,5.84146567 40.7008505,4.96086604 39.7930328,5.12326807 C37.8727101,5.4667999 38.1143664,7.10993158 38.1143664,7.10993158 L41.2927848,5.84146567 Z" id="e"></path>
                        <rect id="i" x="34.3636364" y="0.363636364" width="1.57379491" height="10.1604278"></rect>
                        <path d="M31.8451162,4.0026373 L33.2999363,4.01492608 L33.2999363,10.4258446 C33.2999363,12.0638166 32.3025727,13.7928533 29.9545372,13.7928533 C27.6065017,13.7928533 26.8481727,11.7586951 26.8481727,11.7586951 L28.1842892,11.2092647 C28.1842892,11.2092647 28.5917961,12.462915 30.0239693,12.4629133 C31.6549011,12.4629114 31.845297,11.0120977 31.845297,10.51548 L31.845297,9.81974681 C31.845297,9.81974681 31.2809802,10.6833372 29.8793191,10.6833391 C28.3596324,10.6833411 26.553719,9.41024277 26.553719,7.23986249 C26.553719,5.06948221 28.2542185,3.82804904 29.8969031,3.78289158 C31.2126783,3.74672088 31.8451162,4.63670617 31.8451162,4.63670617 L31.8451162,4.0026373 Z M30.0035375,9.38056408 C31.0644519,9.38056408 31.924493,8.43033302 31.924493,7.25816361 C31.924493,6.08599419 31.0644519,5.13576313 30.0035375,5.13576313 C28.942623,5.13576313 28.0825819,6.08599419 28.0825819,7.25816361 C28.0825819,8.43033302 28.942623,9.38056408 30.0035375,9.38056408 Z" id="g"></path>
                        <path d="M22.3592204,10.6909091 C20.4035588,10.6909091 18.8181818,9.14425641 18.8181818,7.23636364 C18.8181818,5.32847086 20.4035588,3.78181818 22.3592204,3.78181818 C24.314882,3.78181818 25.9002589,5.32847086 25.9002589,7.23636364 C25.9002589,9.14425641 24.314882,10.6909091 22.3592204,10.6909091 Z M22.3360763,9.33618538 C23.4353371,9.33618538 24.326464,8.39606316 24.326464,7.23636364 C24.326464,6.07666411 23.4353371,5.13654189 22.3360763,5.13654189 C21.2368156,5.13654189 20.3456886,6.07666411 20.3456886,7.23636364 C20.3456886,8.39606316 21.2368156,9.33618538 22.3360763,9.33618538 Z" id="o"></path>
                        <path d="M14.6980633,10.6909091 C12.7424018,10.6909091 11.1570248,9.14425641 11.1570248,7.23636364 C11.1570248,5.32847086 12.7424018,3.78181818 14.6980633,3.78181818 C16.6537249,3.78181818 18.2391019,5.32847086 18.2391019,7.23636364 C18.2391019,9.14425641 16.6537249,10.6909091 14.6980633,10.6909091 Z M14.6749193,9.33618538 C15.7741801,9.33618538 16.665307,8.39606316 16.665307,7.23636364 C16.665307,6.07666411 15.7741801,5.13654189 14.6749193,5.13654189 C13.5756585,5.13654189 12.6845316,6.07666411 12.6845316,7.23636364 C12.6845316,8.39606316 13.5756585,9.33618538 14.6749193,9.33618538 Z" id="o"></path>
                        <g id="big-g">
                            <polygon id="Rectangle-1" points="5.55457028 4.87700535 10.2296669 4.87700535 10.1833789 6.32204397 5.55457028 6.32204397"></polygon>
                            <path d="M9.30968274,1.47697234 L8.23988971,2.5206347 C7.57262769,1.855067 6.62491662,1.49019608 5.53142624,1.49019608 C3.34568681,1.49019608 1.57379491,3.2188079 1.57379491,5.35115865 C1.57379491,7.48350939 3.34568681,9.21212121 5.53142624,9.21212121 C7.71716567,9.21212121 9.26900835,7.97937556 9.26575372,5.35115865 C9.26945048,5.18873656 9.26557346,5.03063271 9.25445471,4.87700535 L10.6200805,4.87700535 C10.6202355,4.89487331 10.6203131,4.91277761 10.6203131,4.93071803 C11.1340023,8.61052158 8.56510398,10.7293941 5.48513815,10.7023173 C2.45578292,10.6980797 0,8.30652196 0,5.35115865 C0,2.39579533 2.45578,0 5.48513815,0 C7.06859832,0 8.39972818,0.539707101 9.30968274,1.47697234 Z" id="Oval-1"></path>
                        </g>
                    </g>
                    <g id="logo_play" transform="translate(8.107438, 5.600000)">
                        <mask id="mask-3" fill="white">
                            <use xlink:href="#path-2"></use>
                        </mask>
                        <use id="yellow" fill="url(#linearGradient-1)" xlink:href="#path-2"></use>
                        <polygon id="blue" fill="url(#linearGradient-4)" mask="url(#mask-3)" points="-7.49400542e-15 0.0655555552 10.3973686 10.1699448 -0.134297521 20.673709"></polygon>
                        <polygon id="green" fill="url(#linearGradient-5)" mask="url(#mask-3)" points="-2.1380854 -2.0145786 10.3961346 10.1729003 14.1227043 6.69681661"></polygon>
                        <polygon id="red" fill="url(#linearGradient-6)" mask="url(#mask-3)" points="10.3978421 10.1705751 16.1028466 15.7931663 -0.940312213 21.4157576"></polygon>
                    </g>
                </g>
            </g>
        </g>
    </g>
</svg>