<?xml version="1.0" encoding="UTF-8"?>
<svg width="20px" height="20px" viewBox="0 0 20 20" version="1.1" xmlns="http://www.w3.org/2000/svg" xmlns:xlink="http://www.w3.org/1999/xlink">
    <!-- Generator: Sketch 52.6 (67491) - http://www.bohemiancoding.com/sketch -->
    <title>Group 2</title>
    <desc>Created with Sketch.</desc>
    <defs>
        <linearGradient x1="0%" y1="0%" x2="100%" y2="100%" id="linearGradient-1">
            <stop stop-color="#F030C1" offset="0%"></stop>
            <stop stop-color="#6094EA" offset="100%"></stop>
        </linearGradient>
    </defs>
    <g id="Symbols" stroke="none" stroke-width="1" fill="none" fill-rule="evenodd">
        <g id="app-badge" transform="translate(-294.000000, -14.000000)" fill-rule="nonzero">
            <g id="Group-7">
                <g id="Group-6">
                    <g id="Group-5" transform="translate(264.000000, 14.000000)">
                        <g id="Group-2" transform="translate(30.000000, 0.000000)">
                            <rect id="Rectangle-Copy" fill="url(#linearGradient-1)" x="0" y="0" width="20" height="20" rx="10"></rect>
                            <g id="003-instagram" transform="translate(4.000000, 4.000000)" fill="#FFFFFF">
                                <path d="M11.9982222,8.97244444 C11.9982222,10.6415556 10.6406667,11.9991111 8.97155556,11.9991111 L3.02666667,11.9991111 C1.35777778,11.9991111 -2.08721929e-13,10.6415556 -2.08721929e-13,8.97244444 L-2.08721929e-13,3.02755556 C-2.08721929e-13,1.35866667 1.35777778,0.000888888889 3.02666667,0.000888888889 L8.97155556,0.000888888889 C10.6406667,0.000888888889 11.9982222,1.35866667 11.9982222,3.02755556 L11.9982222,8.97244444 Z M8.97155556,1.30666667 L3.02666667,1.30666667 C2.07777778,1.30666667 1.30577778,2.07866667 1.30577778,3.02755556 L1.30577778,8.97244444 C1.30577778,9.92133333 2.07777778,10.6935556 3.02666667,10.6935556 L8.97155556,10.6935556 C9.92044444,10.6935556 10.6926667,9.92155556 10.6926667,8.97244444 L10.6926667,3.02755556 C10.6926667,2.07866667 9.92066667,1.30666667 8.97155556,1.30666667 Z M5.99911111,9.09022222 C4.29533333,9.09022222 2.90911111,7.704 2.90911111,6 C2.90911111,4.29622222 4.29533333,2.91 5.99911111,2.91 C7.70311111,2.91 9.08933333,4.29622222 9.08933333,6 C9.08933333,7.70377778 7.70288889,9.09022222 5.99911111,9.09022222 Z M5.99911111,4.21577778 C5.01555556,4.21577778 4.21466667,5.01622222 4.21466667,5.99977778 C4.21466667,6.98377778 5.01555556,7.78444444 5.99911111,7.78444444 C6.98311111,7.78444444 7.78333333,6.98377778 7.78333333,5.99977778 C7.78333333,5.01644444 6.98288889,4.21577778 5.99911111,4.21577778 Z M9.18866667,3.54888889 C8.78533333,3.54888889 8.45733333,3.22088889 8.45733333,2.81777778 C8.45733333,2.41466667 8.78533333,2.08666667 9.18866667,2.08666667 C9.59177778,2.08666667 9.91977778,2.41466667 9.91977778,2.81777778 C9.91977778,3.22088889 9.59177778,3.54888889 9.18866667,3.54888889 Z" id="Combined-Shape"></path>
                            </g>
                        </g>
                    </g>
                </g>
            </g>
        </g>
    </g>
</svg>