<?xml version="1.0" encoding="UTF-8"?>
<svg width="108px" height="32px" viewBox="0 0 108 32" version="1.1" xmlns="http://www.w3.org/2000/svg" xmlns:xlink="http://www.w3.org/1999/xlink">
    <!-- Generator: Sketch 52.6 (67491) - http://www.bohemiancoding.com/sketch -->
    <title>Group 4</title>
    <desc>Created with Sketch.</desc>
    <g id="Symbols" stroke="none" stroke-width="1" fill="none" fill-rule="evenodd">
        <g id="app-badge" transform="translate(-140.000000, -8.000000)">
            <g id="Group-7">
                <g id="Group-6">
                    <g id="Group-4" transform="translate(140.000000, 8.000000)">
                        <g id="ios">
                            <g id="Appstore">
                                <path d="M0,3.63576491 C0,1.6277874 1.66530631,0 3.71956115,0 L104.280439,0 C106.334696,0 108,1.62811324 108,3.63576491 L108,28.3642351 C108,30.3722126 106.334694,32 104.280439,32 L3.71956115,32 C1.66530425,32 0,30.3718868 0,28.3642351 L0,3.63576491 Z" id="backfround-copy-2" fill="#000000"></path>
                                <path d="M0.743801653,3.63576491 L0.743801653,28.3642351 C0.743801653,29.9702967 2.07616783,31.2727273 3.71956115,31.2727273 L104.280439,31.2727273 C105.923956,31.2727273 107.256198,29.9704992 107.256198,28.3642351 L107.256198,3.63576491 C107.256198,2.02970327 105.923832,0.727272727 104.280439,0.727272727 L3.71956115,0.727272727 C2.07604369,0.727272727 0.743801653,2.02950081 0.743801653,3.63576491 Z M0,3.63576491 C0,1.6277874 1.66530631,0 3.71956115,0 L104.280439,0 C106.334696,0 108,1.62811324 108,3.63576491 L108,28.3642351 C108,30.3722126 106.334694,32 104.280439,32 L3.71956115,32 C1.66530425,32 0,30.3718868 0,28.3642351 L0,3.63576491 Z" id="backfround-copy" fill="#A6A6A6" fill-rule="nonzero"></path>
                                <path d="M0.371900826,3.63576491 L0.371900826,28.3642351 C0.371900826,30.171148 1.8707936,31.6363636 3.71956115,31.6363636 L104.280439,31.6363636 C106.129325,31.6363636 107.628099,30.1713555 107.628099,28.3642351 L107.628099,3.63576491 C107.628099,1.82885199 106.129206,0.363636364 104.280439,0.363636364 L3.71956115,0.363636364 C1.87067464,0.363636364 0.371900826,1.82864445 0.371900826,3.63576491 Z M0,3.63576491 C0,1.6277874 1.66530631,0 3.71956115,0 L104.280439,0 C106.334696,0 108,1.62811324 108,3.63576491 L108,28.3642351 C108,30.3722126 106.334694,32 104.280439,32 L3.71956115,32 C1.66530425,32 0,30.3718868 0,28.3642351 L0,3.63576491 Z" id="backfround-copy" fill="#8F8F8F" fill-rule="nonzero"></path>
                                <path d="M41.454376,24.8727273 L43.2695716,24.8727273 L39.2959711,14.1117187 L37.4578948,14.1117187 L33.4842943,24.8727273 L35.2384749,24.8727273 L36.252849,22.0165483 L40.4476288,22.0165483 L41.454376,24.8727273 Z M38.2892239,16.065554 L38.4188807,16.065554 L40.0128971,20.6145597 L36.6875807,20.6145597 L38.2892239,16.065554 Z M48.082593,16.6174006 C46.9538159,16.6174006 45.9775762,17.1692472 45.4742026,18.0939631 L45.3521727,18.0939631 L45.3521727,16.7516335 L43.7734101,16.7516335 L43.7734101,27.5051847 L45.4131877,27.5051847 L45.4131877,23.6422585 L45.5428445,23.6422585 C45.9775762,24.499858 46.9156815,25.0069602 48.0978467,25.0069602 C50.1952367,25.0069602 51.5299393,23.3887074 51.5299393,20.8084517 C51.5299393,18.228196 50.1952367,16.6174006 48.082593,16.6174006 L48.082593,16.6174006 Z M47.6173538,23.5676847 C46.2445168,23.5676847 45.3826802,22.5087358 45.3826802,20.8159091 C45.3826802,19.115625 46.2445168,18.0566761 47.6249807,18.0566761 C49.0130714,18.0566761 49.8444005,19.0932528 49.8444005,20.8084517 C49.8444005,22.531108 49.0130714,23.5676847 47.6173538,23.5676847 L47.6173538,23.5676847 Z M56.5870207,16.6174006 C55.4582435,16.6174006 54.4820039,17.1692472 53.9786303,18.0939631 L53.8566003,18.0939631 L53.8566003,16.7516335 L52.2778377,16.7516335 L52.2778377,27.5051847 L53.9176153,27.5051847 L53.9176153,23.6422585 L54.0472721,23.6422585 C54.4820039,24.499858 55.4201092,25.0069602 56.6022744,25.0069602 C58.6996643,25.0069602 60.034367,23.3887074 60.034367,20.8084517 C60.034367,18.228196 58.6996643,16.6174006 56.5870207,16.6174006 L56.5870207,16.6174006 Z M56.1217814,23.5676847 C54.7489444,23.5676847 53.8871078,22.5087358 53.8871078,20.8159091 C53.8871078,19.115625 54.7489444,18.0566761 56.1294083,18.0566761 C57.5174991,18.0566761 58.3488282,19.0932528 58.3488282,20.8084517 C58.3488282,22.531108 57.5174991,23.5676847 56.1217814,23.5676847 L56.1217814,23.5676847 Z M63.5055237,21.9792614 C63.6275537,23.903267 65.2673313,25.1337358 67.7079304,25.1337358 C70.3163208,25.1337358 71.9484715,23.843608 71.9484715,21.7853693 C71.9484715,20.1671165 71.0179931,19.2722301 68.7604388,18.7576705 L67.5477661,18.4668324 C66.1139141,18.1387074 65.5342718,17.6987216 65.5342718,16.9306108 C65.5342718,15.9611506 66.4342428,15.3272727 67.7841992,15.3272727 C69.0655137,15.3272727 69.9502309,15.9462358 70.1103953,16.9380682 L71.7730534,16.9380682 C71.6739041,15.1259233 70.0417534,13.8507102 67.8070798,13.8507102 C65.404615,13.8507102 63.8029718,15.1259233 63.8029718,17.0424716 C63.8029718,18.6234375 64.7105696,19.5630682 66.7011833,20.0179687 L68.1197816,20.3535511 C69.5765142,20.6891335 70.2171715,21.181321 70.2171715,22.0016335 C70.2171715,22.956179 69.2104243,23.6497159 67.8375873,23.6497159 C66.3656009,23.6497159 65.3436,23.0009233 65.1986894,21.9792614 L63.5055237,21.9792614 Z M73.3599078,14.7828835 L73.3599078,16.7889205 L71.9946976,16.7889205 L71.9946976,18.1387074 L73.3599078,18.1387074 L73.3599078,22.725 C73.3599078,24.2910511 74.0844607,24.9174716 75.9072832,24.9174716 C76.2276118,24.9174716 76.5250599,24.8801847 76.7843735,24.8354403 L76.7843735,23.5005682 C76.5555674,23.5229403 76.4259105,23.5378551 76.1742237,23.5378551 C75.3581484,23.5378551 74.9996854,23.1649858 74.9996854,22.3148438 L74.9996854,18.1387074 L76.8606423,18.1387074 L76.8606423,16.7889205 L74.9996854,16.7889205 L74.9996854,14.7828835 L73.3599078,14.7828835 Z M80.9262302,23.6049716 C79.500005,23.6049716 78.6991834,22.5833097 78.6991834,20.8084517 C78.6991834,19.0485085 79.500005,18.0193892 80.9262302,18.0193892 C82.3448284,18.0193892 83.1532769,19.0485085 83.1532769,20.8084517 C83.1532769,22.5758523 82.3448284,23.6049716 80.9262302,23.6049716 L80.9262302,23.6049716 Z M80.9262302,25.0293324 C83.3515756,25.0293324 84.8388157,23.4409091 84.8388157,20.8084517 C84.8388157,18.1909091 83.3439487,16.5950284 80.9262302,16.5950284 C78.5008847,16.5950284 77.0060177,18.1909091 77.0060177,20.8084517 C77.0060177,23.4409091 78.4932579,25.0293324 80.9262302,25.0293324 L80.9262302,25.0293324 Z M85.5867141,24.8727273 L87.2264917,24.8727273 L87.2264917,20.0776278 C87.2264917,18.9366477 88.103582,18.1685369 89.3391353,18.1685369 C89.6137027,18.1685369 90.1170763,18.2207386 90.2467332,18.265483 L90.2467332,16.684517 C90.0713151,16.6397727 89.7586133,16.6174006 89.5221803,16.6174006 C88.4391644,16.6174006 87.5239397,17.1990767 87.2875067,17.997017 L87.1654767,17.997017 L87.1654767,16.7516335 L85.5867141,16.7516335 L85.5867141,24.8727273 Z M93.9386043,17.9597301 C95.151277,17.9597301 95.9444718,18.7875 95.9826061,20.0627131 L91.7878263,20.0627131 C91.8793488,18.7949574 92.7259316,17.9597301 93.9386043,17.9597301 L93.9386043,17.9597301 Z M95.9749792,22.6802557 C95.6699043,23.3141335 94.9911127,23.6646307 93.9996193,23.6646307 C92.6877972,23.6646307 91.8412144,22.7622869 91.7878263,21.3379261 L91.7878263,21.2484375 L97.6528912,21.2484375 L97.6528912,20.6891335 C97.6528912,18.1387074 96.2571735,16.5950284 93.9462312,16.5950284 C91.6047813,16.5950284 90.1175412,18.2431108 90.1175412,20.8382812 C90.1175412,23.4334517 91.5742739,25.0293324 93.9538581,25.0293324 C95.8529493,25.0293324 97.1800251,24.134446 97.5537418,22.6802557 L95.9749792,22.6802557 Z" id="App-Store" fill="#FFFFFF"></path>
                                <path d="M35.0210001,5.71207386 L35.0210001,10.8363636 L36.9131909,10.8363636 C38.4748838,10.8363636 39.3792129,9.8953125 39.3792129,8.25823864 C39.3792129,6.64602273 38.4676201,5.71207386 36.9131909,5.71207386 L35.0210001,5.71207386 Z M35.8345332,6.43650568 L36.8223948,6.43650568 C37.9083161,6.43650568 38.5511525,7.11122159 38.5511525,8.26889205 C38.5511525,9.44431818 37.9192116,10.1119318 36.8223948,10.1119318 L35.8345332,10.1119318 L35.8345332,6.43650568 Z M42.2418324,10.2326705 C41.5626776,10.2326705 41.1813339,9.74616477 41.1813339,8.90099432 C41.1813339,8.06292614 41.5626776,7.57286932 42.2418324,7.57286932 C42.9173554,7.57286932 43.3023308,8.06292614 43.3023308,8.90099432 C43.3023308,9.74261364 42.9173554,10.2326705 42.2418324,10.2326705 L42.2418324,10.2326705 Z M42.2418324,10.9109375 C43.3967588,10.9109375 44.1049684,10.1545455 44.1049684,8.90099432 C44.1049684,7.65454545 43.3931269,6.89460227 42.2418324,6.89460227 C41.086906,6.89460227 40.3750646,7.65454545 40.3750646,8.90099432 C40.3750646,10.1545455 41.0832741,10.9109375 42.2418324,10.9109375 L42.2418324,10.9109375 Z M50.2253519,6.96917614 L49.4445054,6.96917614 L48.7399277,9.92017045 L48.6781863,9.92017045 L47.8646533,6.96917614 L47.1164934,6.96917614 L46.3029604,9.92017045 L46.2448509,9.92017045 L45.5366413,6.96917614 L44.7448993,6.96917614 L45.8344525,10.8363636 L46.63709,10.8363636 L47.4506231,7.98835227 L47.5123644,7.98835227 L48.3295293,10.8363636 L49.1394305,10.8363636 L50.2253519,6.96917614 Z M51.2175717,10.8363636 L51.9984181,10.8363636 L51.9984181,8.57428977 C51.9984181,7.97059659 52.3833936,7.59417614 53.0117026,7.59417614 C53.5927976,7.59417614 53.8760815,7.903125 53.8760815,8.52457386 L53.8760815,10.8363636 L54.6569279,10.8363636 L54.6569279,8.3328125 C54.6569279,7.41306818 54.1593653,6.89460227 53.2768272,6.89460227 C52.6812048,6.89460227 52.2199606,7.15383523 52.0274729,7.58352273 L51.9693634,7.58352273 L51.9693634,6.96917614 L51.2175717,6.96917614 L51.2175717,10.8363636 Z M55.9760137,10.8363636 L56.7568601,10.8363636 L56.7568601,5.45994318 L55.9760137,5.45994318 L55.9760137,10.8363636 Z M59.7829126,10.2326705 C59.1037577,10.2326705 58.7224141,9.74616477 58.7224141,8.90099432 C58.7224141,8.06292614 59.1037577,7.57286932 59.7829126,7.57286932 C60.4584356,7.57286932 60.843411,8.06292614 60.843411,8.90099432 C60.843411,9.74261364 60.4584356,10.2326705 59.7829126,10.2326705 L59.7829126,10.2326705 Z M59.7829126,10.9109375 C60.937839,10.9109375 61.6460486,10.1545455 61.6460486,8.90099432 C61.6460486,7.65454545 60.9342071,6.89460227 59.7829126,6.89460227 C58.6279862,6.89460227 57.9161448,7.65454545 57.9161448,8.90099432 C57.9161448,10.1545455 58.6243543,10.9109375 59.7829126,10.9109375 L59.7829126,10.9109375 Z M64.0619512,10.2575284 C63.6370254,10.2575284 63.3283187,10.0551136 63.3283187,9.70710227 C63.3283187,9.36619318 63.5752841,9.18508523 64.1200607,9.14957386 L65.0861312,9.08920455 L65.0861312,9.41235795 C65.0861312,9.89176136 64.6503099,10.2575284 64.0619512,10.2575284 L64.0619512,10.2575284 Z M63.8621998,10.9002841 C64.3815535,10.9002841 64.8137429,10.6801136 65.0498128,10.2930398 L65.1115541,10.2930398 L65.1115541,10.8363636 L65.8633458,10.8363636 L65.8633458,8.19431818 C65.8633458,7.37755682 65.3040418,6.89460227 64.3125484,6.89460227 C63.415483,6.89460227 62.7762784,7.32073864 62.6963778,7.98480114 L63.4518014,7.98480114 C63.5389657,7.71136364 63.8404087,7.55511364 64.27623,7.55511364 C64.8101111,7.55511364 65.0861312,7.7859375 65.0861312,8.19431818 L65.0861312,8.528125 L64.0147372,8.58849432 C63.0740896,8.6453125 62.5438404,9.04659091 62.5438404,9.74261364 C62.5438404,10.4492898 63.0995125,10.9002841 63.8621998,10.9002841 L63.8621998,10.9002841 Z M68.6061144,10.9002841 C69.150891,10.9002841 69.6121352,10.6481534 69.8482051,10.2255682 L69.9099464,10.2255682 L69.9099464,10.8363636 L70.6581063,10.8363636 L70.6581063,5.45994318 L69.8772598,5.45994318 L69.8772598,7.58352273 L69.8191503,7.58352273 C69.6048715,7.15738636 69.1472592,6.90525568 68.6061144,6.90525568 C67.6073573,6.90525568 66.9645209,7.67940341 66.9645209,8.90099432 C66.9645209,10.1261364 67.6000936,10.9002841 68.6061144,10.9002841 L68.6061144,10.9002841 Z M68.8276569,7.590625 C69.4813888,7.590625 69.8917872,8.0984375 69.8917872,8.90454545 C69.8917872,9.71420455 69.4850207,10.2149148 68.8276569,10.2149148 C68.1666613,10.2149148 67.7707903,9.72130682 67.7707903,8.90099432 C67.7707903,8.08778409 68.1702931,7.590625 68.8276569,7.590625 L68.8276569,7.590625 Z M75.9039418,10.2326705 C75.2247869,10.2326705 74.8434433,9.74616477 74.8434433,8.90099432 C74.8434433,8.06292614 75.2247869,7.57286932 75.9039418,7.57286932 C76.5794647,7.57286932 76.9644402,8.06292614 76.9644402,8.90099432 C76.9644402,9.74261364 76.5794647,10.2326705 75.9039418,10.2326705 L75.9039418,10.2326705 Z M75.9039418,10.9109375 C77.0588682,10.9109375 77.7670777,10.1545455 77.7670777,8.90099432 C77.7670777,7.65454545 77.0552363,6.89460227 75.9039418,6.89460227 C74.7490154,6.89460227 74.0371739,7.65454545 74.0371739,8.90099432 C74.0371739,10.1545455 74.7453835,10.9109375 75.9039418,10.9109375 L75.9039418,10.9109375 Z M78.8900439,10.8363636 L79.6708904,10.8363636 L79.6708904,8.57428977 C79.6708904,7.97059659 80.0558658,7.59417614 80.6841748,7.59417614 C81.2652699,7.59417614 81.5485537,7.903125 81.5485537,8.52457386 L81.5485537,10.8363636 L82.3294002,10.8363636 L82.3294002,8.3328125 C82.3294002,7.41306818 81.8318376,6.89460227 80.9492995,6.89460227 C80.353677,6.89460227 79.8924329,7.15383523 79.6999451,7.58352273 L79.6418356,7.58352273 L79.6418356,6.96917614 L78.8900439,6.96917614 L78.8900439,10.8363636 Z M86.1079707,6.03167614 L86.1079707,6.98693182 L85.4578706,6.98693182 L85.4578706,7.6296875 L86.1079707,7.6296875 L86.1079707,9.81363636 C86.1079707,10.559375 86.4529959,10.8576705 87.3210066,10.8576705 C87.473544,10.8576705 87.615186,10.8399148 87.7386686,10.818608 L87.7386686,10.1829545 C87.6297133,10.193608 87.567972,10.2007102 87.4481211,10.2007102 C87.0595138,10.2007102 86.8888171,10.0231534 86.8888171,9.61832386 L86.8888171,7.6296875 L87.7749871,7.6296875 L87.7749871,6.98693182 L86.8888171,6.98693182 L86.8888171,6.03167614 L86.1079707,6.03167614 Z M88.8870577,10.8363636 L89.6679042,10.8363636 L89.6679042,8.57784091 C89.6679042,7.99190341 90.0637752,7.59772727 90.7029797,7.59772727 C91.2913385,7.59772727 91.5855178,7.91022727 91.5855178,8.528125 L91.5855178,10.8363636 L92.3663643,10.8363636 L92.3663643,8.33991477 C92.3663643,7.42017045 91.8579061,6.89815341 90.9681043,6.89815341 C90.3724819,6.89815341 89.9148696,7.15738636 89.7223818,7.590625 L89.6606405,7.590625 L89.6606405,5.45994318 L88.8870577,5.45994318 L88.8870577,10.8363636 Z M95.2761977,7.54446023 C95.8536609,7.54446023 96.2313727,7.93863636 96.2495319,8.54588068 L94.2520177,8.54588068 C94.2955998,7.9421875 94.6987345,7.54446023 95.2761977,7.54446023 L95.2761977,7.54446023 Z M96.2459001,9.79232955 C96.1006263,10.0941761 95.7773922,10.2610795 95.3052525,10.2610795 C94.6805753,10.2610795 94.2774406,9.83139205 94.2520177,9.153125 L94.2520177,9.11051136 L97.0449057,9.11051136 L97.0449057,8.84417614 C97.0449057,7.6296875 96.3802783,6.89460227 95.2798295,6.89460227 C94.1648534,6.89460227 93.4566439,7.67940341 93.4566439,8.91519886 C93.4566439,10.1509943 94.1503261,10.9109375 95.2834614,10.9109375 C96.1877905,10.9109375 96.8197314,10.4848011 96.9976918,9.79232955 L96.2459001,9.79232955 Z" id="Download-on-the" fill="#FFFFFF"></path>
                                <g id="logo_apple" transform="translate(9.669421, 5.672727)" fill="#FFFFFF">
                                    <path d="M14.3807182,10.9493985 C14.3567818,8.34828058 16.5589243,7.08282822 16.6596219,7.02391367 C15.4124566,5.24598538 13.4793915,5.00306373 12.8000949,4.98369456 C11.1765514,4.81663548 9.60170592,5.93359087 8.77466442,5.93359087 C7.93111511,5.93359087 6.65753724,4.99983553 5.28491248,5.02727519 C3.51857635,5.05390779 1.86614414,6.05384113 0.959865136,7.60660283 C-0.910470224,10.7726549 0.484440084,15.4252906 2.27636333,17.984442 C3.17273764,19.2385957 4.22015846,20.6372111 5.59113244,20.5879811 C6.93239235,20.5347159 7.43340451,19.7518787 9.0519957,19.7518787 C10.6557299,19.7518787 11.1262026,20.5879811 12.5244144,20.5556992 C13.9638958,20.5347159 14.8701749,19.2975103 15.7351843,18.0320579 C16.7710497,16.5971253 17.1870466,15.1807549 17.2035544,15.1081205 C17.1705388,15.0976289 14.4087814,14.0670277 14.3807182,10.9493985" id="Fill-2"></path>
                                    <path d="M11.7394679,3.30019097 C12.4608594,2.41808674 12.954443,1.21800533 12.8174281,0.000168840926 C11.7733089,0.0453635681 10.4675408,0.706336452 9.71560984,1.56907151 C9.05034492,2.32931139 8.45606361,3.57539458 8.60958628,4.74722929 C9.78246649,4.83277645 10.9867115,4.16857537 11.7394679,3.30019097" id="Fill-3"></path>
                                </g>
                            </g>
                        </g>
                    </g>
                </g>
            </g>
        </g>
    </g>
</svg>