<?xml version="1.0" encoding="UTF-8"?>
<svg width="26px" height="26px" viewBox="0 0 26 26" version="1.1" xmlns="http://www.w3.org/2000/svg" xmlns:xlink="http://www.w3.org/1999/xlink">
    <!-- Generator: Sketch 52.6 (67491) - http://www.bohemiancoding.com/sketch -->
    <title>Group 9</title>
    <desc>Created with Sketch.</desc>
    <defs>
        <circle id="path-1" cx="13" cy="13" r="13"></circle>
    </defs>
    <g id="Page-1" stroke="none" stroke-width="1" fill="none" fill-rule="evenodd">
        <g id="03-10-Выбор-аватарки" transform="translate(-842.000000, -532.000000)" fill-rule="nonzero">
            <g id="Group-3" transform="translate(484.000000, 328.000000)">
                <g id="Group-11" transform="translate(40.000000, 204.000000)">
                    <g id="Group-10">
                        <g id="Group-9" transform="translate(318.000000, 0.000000)">
                            <g id="Oval" stroke-linejoin="square">
                                <circle stroke="#FFFFFF" stroke-width="3" fill="#FFF200" fill-rule="evenodd" cx="13" cy="13" r="11.5"></circle>
                                <circle stroke="#000000" stroke-width="2" cx="13" cy="13" r="12"></circle>
                            </g>
                            <path d="M13,20.5 C9.41014913,20.5 6.5,17.5898509 6.5,14 L6.5,13.5 L19.5,13.5 L19.5,14 C19.5,17.5898509 16.5898509,20.5 13,20.5 Z" id="Oval" stroke="#000000" fill="#FFFFFF"></path>
                            <circle id="Oval" stroke="#FFFFFF" fill="#000000" cx="17" cy="9" r="2"></circle>
                            <path d="M12,10 C12,8.34314575 10.8807119,7 9.5,7 C8.11928813,7 7,8.34314575 7,10 C7,10.8124451 6.79229082,6.96536731 9.5,7 C12.2077092,7.03463269 12,10.8444092 12,10 Z" id="Oval-Copy-6" stroke="#000000"></path>
                        </g>
                    </g>
                </g>
            </g>
        </g>
    </g>
</svg>