<?xml version="1.0" encoding="UTF-8"?>
<svg width="18px" height="18px" viewBox="0 0 18 18" version="1.1" xmlns="http://www.w3.org/2000/svg" xmlns:xlink="http://www.w3.org/1999/xlink">
    <!-- Generator: Sketch 52.6 (67491) - http://www.bohemiancoding.com/sketch -->
    <title>Group 8</title>
    <desc>Created with Sketch.</desc>
    <g id="Page-1" stroke="none" stroke-width="1" fill="none" fill-rule="evenodd">
        <g id="03-03-Мои-займы" transform="translate(-969.000000, -680.000000)" fill-rule="nonzero">
            <g id="Group-9-Copy" transform="translate(801.000000, 547.000000)">
                <g id="Group-8" transform="translate(168.000000, 133.000000)">
                    <path d="M13.158,7.578 C13.158,7.47 13.104,7.416 12.996,7.416 L5.004,7.416 C4.896,7.416 4.842,7.47 4.842,7.578 L4.842,13.32 C4.842,13.428 4.896,13.482 5.004,13.482 L12.996,13.482 C13.104,13.482 13.158,13.428 13.158,13.32 L13.158,7.578 Z M6.408,5.238 C6.408,5.466 6.534,5.58 6.786,5.58 C7.038,5.58 7.164,5.466 7.164,5.238 L7.164,4.842 L7.164,4.428 C7.164,4.2 7.038,4.086 6.786,4.086 C6.534,4.086 6.408,4.2 6.408,4.428 L6.408,4.842 L6.408,5.238 Z M10.836,5.238 C10.836,5.466 10.968,5.58 11.232,5.58 C11.484,5.58 11.6100588,5.466 11.6100588,5.238 L11.6100588,4.842 L11.6100588,4.428 C11.6100588,4.2 11.4840588,4.086 11.232,4.086 C10.968,4.086 10.836,4.2 10.836,4.428 L10.836,4.842 L10.836,5.238 Z M9,0 C10.236,0 11.403,0.237 12.501,0.711 C13.599,1.185 14.553,1.827 15.363,2.637 C16.173,3.447 16.815,4.401 17.289,5.499 C17.763,6.597 18,7.764 18,9 C18,9.828 17.892,10.626 17.676,11.394 C17.4599118,12.1619118 17.157,12.8789118 16.767,13.545 C16.377,14.211 15.909,14.817 15.363,15.363 C14.8170588,15.909 14.211,16.3770882 13.545,16.767 C12.8789412,17.157 12.162,17.46 11.3939412,17.676 C10.626,17.892 9.828,18 9,18 C8.172,18 7.374,17.892 6.606,17.676 C5.838,17.4599118 5.121,17.157 4.455,16.767 C3.789,16.377 3.183,15.909 2.637,15.363 C2.091,14.8170588 1.623,14.211 1.233,13.545 C0.843,12.8789412 0.54,12.162 0.324,11.3939706 C0.108,10.626 0,9.828 0,9 C0,8.172 0.108,7.374 0.324,6.606 C0.54,5.838 0.843,5.121 1.233,4.455 C1.623,3.789 2.091,3.183 2.637,2.637 C3.183,2.091 3.789,1.623 4.455,1.233 C5.121,0.843 5.838,0.54 6.606,0.324 C7.374,0.108 8.172,0 9,0 Z" id="Shape" fill="#333333"></path>
                    <circle id="Oval" fill="#333333" cx="6.48" cy="9.36" r="1"></circle>
                    <circle id="Oval-Copy-7" fill="#333333" cx="6.48" cy="11.52" r="1"></circle>
                    <circle id="Oval-Copy-3" fill="#333333" cx="9" cy="9.36" r="1"></circle>
                    <circle id="Oval-Copy-8" fill="#333333" cx="9" cy="11.52" r="1"></circle>
                    <circle id="Oval-Copy-5" fill="#333333" cx="11.52" cy="9.36" r="1"></circle>
                    <circle id="Oval-Copy-9" fill="#333333" cx="11.52" cy="11.52" r="1"></circle>
                    <path d="M13.158,5.004 C13.158,4.896 13.104,4.842 12.996,4.842 L12.15,4.842 L12.15,5.238 C12.15,5.442 12.081,5.637 11.9430588,5.823 C11.8050882,6.009 11.5680882,6.102 11.232,6.102 C10.884,6.102 10.6440588,6.009 10.5120294,5.823 C10.3800294,5.637 10.3140294,5.442 10.3140294,5.238 L10.3140294,4.842 L7.70402941,4.842 L7.70402941,5.238 C7.70402941,5.442 7.63802941,5.637 7.50602941,5.823 C7.37402941,6.009 7.13402941,6.102 6.78602941,6.102 C6.43802941,6.102 6.19802941,6.009 6.06602941,5.823 C5.93402941,5.637 5.86802941,5.442 5.86802941,5.238 L5.86802941,4.842 L5.00402941,4.842 C4.89602941,4.842 4.84202941,4.896 4.84202941,5.004 L4.84202941,6.678 C4.84202941,6.786 4.89602941,6.84 5.00402941,6.84 L12.9960294,6.84 C13.1040294,6.84 13.1580294,6.786 13.1580294,6.678 L13.158,5.004 Z" id="Path" fill="#FFF200"></path>
                </g>
            </g>
        </g>
    </g>
</svg>