<?xml version="1.0" encoding="UTF-8"?>
<svg width="26px" height="26px" viewBox="0 0 26 26" version="1.1" xmlns="http://www.w3.org/2000/svg" xmlns:xlink="http://www.w3.org/1999/xlink">
    <!-- Generator: Sketch 52.6 (67491) - http://www.bohemiancoding.com/sketch -->
    <title>Group 8 Copy</title>
    <desc>Created with Sketch.</desc>
    <g id="Page-1" stroke="none" stroke-width="1" fill="none" fill-rule="evenodd">
        <g id="03-02-Мои-займы" transform="translate(-1032.000000, -314.000000)" fill-rule="nonzero">
            <g id="Group-9" transform="translate(801.000000, 291.000000)">
                <g id="Group-8-Copy" transform="translate(232.000000, 24.000000)">
                    <circle id="Oval" stroke="#000000" cx="12" cy="12" r="12"></circle>
                    <path d="M12,11.3512481 L16.2168872,7.13436091 C16.3960351,6.95521303 16.6864912,6.95521303 16.8656391,7.13436091 C17.044787,7.3135088 17.044787,7.60396491 16.8656391,7.78311279 L12.6487519,12 L16.8656391,16.2168872 C17.044787,16.3960351 17.044787,16.6864912 16.8656391,16.8656391 C16.6864912,17.044787 16.3960351,17.044787 16.2168872,16.8656391 L12,12.6487519 L7.78311279,16.8656391 C7.60396491,17.044787 7.3135088,17.044787 7.13436091,16.8656391 C6.95521303,16.6864912 6.95521303,16.3960351 7.13436091,16.2168872 L11.3512481,12 L7.13436091,7.78311279 C6.95521303,7.60396491 6.95521303,7.3135088 7.13436091,7.13436091 C7.3135088,6.95521303 7.60396491,6.95521303 7.78311279,7.13436091 L12,11.3512481 Z" id="Path" fill="#000000"></path>
                </g>
            </g>
        </g>
    </g>
</svg>