<?xml version="1.0" encoding="UTF-8"?>
<svg width="42px" height="48px" viewBox="0 0 42 48" version="1.1" xmlns="http://www.w3.org/2000/svg" xmlns:xlink="http://www.w3.org/1999/xlink">
    <!-- Generator: Sketch 52.4 (67378) - http://www.bohemiancoding.com/sketch -->
    <title>Group</title>
    <desc>Created with Sketch.</desc>
    <g id="Page-1" stroke="none" stroke-width="1" fill="none" fill-rule="evenodd">
        <g id="01-Главная" transform="translate(-300.000000, -923.000000)">
            <g id="Group" transform="translate(299.000000, 922.000000)">
                <path d="M10.0101457,4.93529 L33.5440963,4.93529 C35.878309,4.93529 37.7705623,6.8275433 37.7705623,9.16175605 L37.7705623,40.7435462 C37.7705623,43.0777589 35.878309,44.9700122 33.5440963,44.9700122 L10.0101457,44.9700122 C7.67593291,44.9700122 5.7836796,43.0777589 5.7836796,40.7435462 L5.7836796,9.16175605 C5.7836796,6.8275433 7.67593291,4.93529 10.0101457,4.93529 Z" id="Rectangle" fill="#1D1D1B" transform="translate(21.777121, 24.952651) rotate(-345.000000) translate(-21.777121, -24.952651) "></path>
                <path d="M33.5440963,5.70689494 C35.4482157,5.71639197 36.9894603,7.25763662 36.9989574,9.16175605 L36.9989574,40.7435462 C36.9894603,42.6476656 35.4482157,44.1889102 33.5440963,44.1984073 L10.0101457,44.1984073 C8.10602622,44.1889102 6.56478157,42.6476656 6.55528454,40.7435462 L6.55528454,9.16175605 C6.56478157,7.25763662 8.10602622,5.71639197 10.0101457,5.70689494 L33.5440963,5.70689494 Z M33.5440963,4.16368506 L10.0101457,4.16368506 C7.25110928,4.16687409 5.01526369,6.40271968 5.01207466,9.16175605 L5.01207466,40.7435462 C5.01526369,43.5025825 7.25110928,45.7384281 10.0101457,45.7416172 L33.5440963,45.7416172 C36.3031326,45.7384281 38.5389782,43.5025825 38.5421673,40.7435462 L38.5421673,9.16175605 C38.5389782,6.40271968 36.3031326,4.16687409 33.5440963,4.16368506 Z" id="Shape" fill="#FFFFFF" fill-rule="nonzero" transform="translate(21.777121, 24.952651) rotate(-345.000000) translate(-21.777121, -24.952651) "></path>
                <path d="M11.4260407,10.1513394 L32.1282012,10.1513394 C32.604419,10.1513394 32.9904697,10.5373901 32.9904697,11.0136079 L32.9904697,38.8916943 C32.9904697,39.3679121 32.604419,39.7539628 32.1282012,39.7539628 L11.4260407,39.7539628 C10.949823,39.7539628 10.5637722,39.3679121 10.5637722,38.8916943 L10.5637722,11.0136079 C10.5637722,10.5373901 10.949823,10.1513394 11.4260407,10.1513394 Z" id="Rectangle" fill="#FFF200" transform="translate(21.777121, 24.952651) rotate(-345.000000) translate(-21.777121, -24.952651) "></path>
                <path d="M32.1280697,10.634591 C32.3411426,10.634591 32.5138722,10.8073206 32.5138722,11.0203935 L32.5138722,38.8984799 C32.5138722,39.1115527 32.3411426,39.2842824 32.1280697,39.2842824 L11.4297673,39.2842824 C11.2166945,39.2842824 11.0439648,39.1115527 11.0439648,38.8984799 L11.0439648,11.0146064 C11.0439648,10.8015336 11.2166945,10.628804 11.4297673,10.628804 L32.1319278,10.628804 L32.1280697,10.634591 Z M32.1319278,9.66429779 L11.4297673,9.66429779 C10.6840124,9.66429779 10.0794586,10.2688516 10.0794586,11.0146064 L10.0794586,38.8926928 C10.0794586,39.6384477 10.6840124,40.2430015 11.4297673,40.2430015 L32.1319278,40.2430015 C32.8776826,40.2430015 33.4822364,39.6384477 33.4822364,38.8926928 L33.4822364,11.0146064 C33.4822364,10.2688516 32.8776826,9.66429779 32.1319278,9.66429779 Z" id="Shape" fill="#FFFFFF" fill-rule="nonzero" transform="translate(21.780848, 24.953650) rotate(-345.000000) translate(-21.780848, -24.953650) "></path>
                <polygon id="Rectangle" fill="#FFFFFF" transform="translate(23.580783, 18.217566) rotate(-345.000000) translate(-23.580783, -18.217566) " points="16.0856057 15.3983141 31.0759606 15.3983141 31.0759606 21.0368172 16.0856057 21.0368172"></polygon>
                <path d="M30.306219,16.1704183 L30.306219,20.2657115 L16.8590739,20.2657115 L16.8590739,16.1704183 L30.306219,16.1704183 Z M31.8494288,14.6272084 L15.315864,14.6272084 L15.315864,21.8089214 L31.8494288,21.8089214 L31.8494288,14.6272084 Z" id="Shape" fill="#1D1D1B" fill-rule="nonzero" transform="translate(23.582646, 18.218065) rotate(-345.000000) translate(-23.582646, -18.218065) "></path>
                <polygon id="Rectangle" fill="#FFFFFF" transform="translate(17.115883, 22.966761) rotate(-345.000000) translate(-17.115883, -22.966761) " points="14.6361374 20.6828101 19.5956281 20.6828101 19.5956281 25.2507114 14.6361374 25.2507114"></polygon>
                <path d="M18.8258865,21.4549143 L18.8258865,24.4796057 L15.4096056,24.4796057 L15.4096056,21.4549143 L18.8258865,21.4549143 Z M20.3690963,19.9117045 L13.8663957,19.9117045 L13.8663957,26.0228156 L20.3690963,26.0228156 L20.3690963,19.9117045 Z" id="Shape" fill="#1D1D1B" fill-rule="nonzero" transform="translate(17.117746, 22.967260) rotate(-345.000000) translate(-17.117746, -22.967260) "></path>
                <polygon id="Rectangle" fill="#FFFFFF" transform="translate(21.960418, 24.264850) rotate(-345.000000) translate(-21.960418, -24.264850) " points="19.4806728 21.9808995 24.4401635 21.9808995 24.4401635 26.5488007 19.4806728 26.5488007"></polygon>
                <path d="M23.6704219,22.7530037 L23.6704219,25.7776951 L20.254141,25.7776951 L20.254141,22.7530037 L23.6704219,22.7530037 Z M25.2136317,21.2097938 L18.7109311,21.2097938 L18.7109311,27.3209049 L25.2136317,27.3209049 L25.2136317,21.2097938 Z" id="Shape" fill="#1D1D1B" fill-rule="nonzero" transform="translate(21.962281, 24.265349) rotate(-345.000000) translate(-21.962281, -24.265349) "></path>
                <polygon id="Rectangle" fill="#FFFFFF" transform="translate(26.806817, 25.563439) rotate(-345.000000) translate(-26.806817, -25.563439) " points="24.3270715 23.2794881 29.2865622 23.2794881 29.2865622 27.8473893 24.3270715 27.8473893"></polygon>
                <path d="M28.5149573,24.051093 L28.5149573,27.0757844 L25.0986764,27.0757844 L25.0986764,24.051093 L28.5149573,24.051093 Z M30.0581671,22.5078832 L23.5554665,22.5078832 L23.5554665,28.6189943 L30.0581671,28.6189943 L30.0581671,22.5078832 Z" id="Shape" fill="#1D1D1B" fill-rule="nonzero" transform="translate(26.806817, 25.563439) rotate(-345.000000) translate(-26.806817, -25.563439) "></path>
                <polygon id="Rectangle" fill="#FFFFFF" transform="translate(15.923138, 27.418143) rotate(-345.000000) translate(-15.923138, -27.418143) " points="13.443393 25.1341929 18.4028837 25.1341929 18.4028837 29.7020941 13.443393 29.7020941"></polygon>
                <path d="M17.6331421,25.9062971 L17.6331421,28.9309884 L14.2168612,28.9309884 L14.2168612,25.9062971 L17.6331421,25.9062971 Z M19.1763519,24.3630872 L12.6736513,24.3630872 L12.6736513,30.4741983 L19.1763519,30.4741983 L19.1763519,24.3630872 Z" id="Shape" fill="#1D1D1B" fill-rule="nonzero" transform="translate(15.925002, 27.418643) rotate(-345.000000) translate(-15.925002, -27.418643) "></path>
                <polygon id="Rectangle" fill="#FFFFFF" transform="translate(20.767674, 28.716233) rotate(-345.000000) translate(-20.767674, -28.716233) " points="18.2879284 26.4322822 23.2474191 26.4322822 23.2474191 31.0001834 18.2879284 31.0001834"></polygon>
                <path d="M22.4776775,27.2043864 L22.4776775,30.2290778 L19.0613966,30.2290778 L19.0613966,27.2043864 L22.4776775,27.2043864 Z M24.0208873,25.6611765 L17.5181867,25.6611765 L17.5181867,31.7722876 L24.0208873,31.7722876 L24.0208873,25.6611765 Z" id="Shape" fill="#1D1D1B" fill-rule="nonzero" transform="translate(20.769537, 28.716732) rotate(-345.000000) translate(-20.769537, -28.716732) "></path>
                <polygon id="Rectangle" fill="#FFFFFF" transform="translate(25.614072, 30.014821) rotate(-345.000000) translate(-25.614072, -30.014821) " points="23.1343271 27.7308708 28.0938178 27.7308708 28.0938178 32.298772 23.1343271 32.298772"></polygon>
                <path d="M27.3222129,28.5024758 L27.3222129,31.5271671 L23.905932,31.5271671 L23.905932,28.5024758 L27.3222129,28.5024758 Z M28.8654227,26.9592659 L22.3627221,26.9592659 L22.3627221,33.070377 L28.8654227,33.070377 L28.8654227,26.9592659 Z" id="Shape" fill="#1D1D1B" fill-rule="nonzero" transform="translate(25.614072, 30.014821) rotate(-345.000000) translate(-25.614072, -30.014821) "></path>
                <polygon id="Rectangle" fill="#FFFFFF" transform="translate(14.730394, 31.869526) rotate(-345.000000) translate(-14.730394, -31.869526) " points="12.2506486 29.5855756 17.2101393 29.5855756 17.2101393 34.1534768 12.2506486 34.1534768"></polygon>
                <path d="M16.4403977,30.3576798 L16.4403977,33.3823711 L13.0241168,33.3823711 L13.0241168,30.3576798 L16.4403977,30.3576798 Z M17.9836075,28.8144699 L11.4809069,28.8144699 L11.4809069,34.925581 L17.9836075,34.925581 L17.9836075,28.8144699 Z" id="Shape" fill="#1D1D1B" fill-rule="nonzero" transform="translate(14.732257, 31.870025) rotate(-345.000000) translate(-14.732257, -31.870025) "></path>
                <polygon id="Rectangle" fill="#FFFFFF" transform="translate(19.574929, 33.167616) rotate(-345.000000) translate(-19.574929, -33.167616) " points="17.095184 30.8836649 22.0546747 30.8836649 22.0546747 35.4515662 17.095184 35.4515662"></polygon>
                <path d="M21.2849331,31.6557691 L21.2849331,34.6804605 L17.8686522,34.6804605 L17.8686522,31.6557691 L21.2849331,31.6557691 Z M22.8281429,30.1125592 L16.3254423,30.1125592 L16.3254423,36.2236704 L22.8281429,36.2236704 L22.8281429,30.1125592 Z" id="Shape" fill="#1D1D1B" fill-rule="nonzero" transform="translate(19.576793, 33.168115) rotate(-345.000000) translate(-19.576793, -33.168115) "></path>
                <polygon id="Rectangle" fill="#FFFFFF" transform="translate(24.421328, 34.466204) rotate(-345.000000) translate(-24.421328, -34.466204) " points="21.9415827 32.1822535 26.9010734 32.1822535 26.9010734 36.7501548 21.9415827 36.7501548"></polygon>
                <path d="M26.1294685,32.9538585 L26.1294685,35.9785498 L22.7131876,35.9785498 L22.7131876,32.9538585 L26.1294685,32.9538585 Z M27.6726783,31.4106486 L21.1699777,31.4106486 L21.1699777,37.5217597 L27.6726783,37.5217597 L27.6726783,31.4106486 Z" id="Shape" fill="#1D1D1B" fill-rule="nonzero" transform="translate(24.421328, 34.466204) rotate(-345.000000) translate(-24.421328, -34.466204) "></path>
            </g>
        </g>
    </g>
</svg>