<?xml version="1.0" encoding="UTF-8"?>
<svg width="51px" height="48px" viewBox="0 0 51 48" version="1.1" xmlns="http://www.w3.org/2000/svg" xmlns:xlink="http://www.w3.org/1999/xlink">
    <!-- Generator: Sketch 52.4 (67378) - http://www.bohemiancoding.com/sketch -->
    <title>7</title>
    <desc>Created with Sketch.</desc>
    <g id="Page-1" stroke="none" stroke-width="1" fill="none" fill-rule="evenodd">
        <g id="01-Главная" transform="translate(-92.000000, -924.000000)">
            <g id="7" transform="translate(92.000000, 924.000000)">
                <polygon id="Path" fill="#000000" points="49.4356364 47.2538182 1.21745455 47.2538182 14.3083636 32.5636364 36.3447273 32.5636364"></polygon>
                <path d="M47.7717984,46.7083636 L35.7654196,33.1090909 L14.4179474,33.1090909 L2.4115686,46.7083636 L47.7717984,46.7083636 Z M0.000774390905,47.7992727 L13.9334132,32.0181818 L36.2499538,32.0181818 L50.1825926,47.7992727 L0.000774390905,47.7992727 Z" id="Path-Copy-3" fill="#FFFFFF" fill-rule="nonzero"></path>
                <path d="M25.3265455,47.2538182 L25.3265455,32.5636364" id="Path" stroke="#FFFFFF" stroke-width="5"></path>
                <polygon id="Path" fill="#FFFFFF" fill-rule="nonzero" points="19.4813633 32.3400992 20.4764549 32.7871736 13.8764549 47.4773554 12.8813633 47.030281"></polygon>
                <polygon id="Path" fill="#FFFFFF" fill-rule="nonzero" points="30.1744542 32.7871736 31.1695458 32.3400992 37.7695458 47.030281 36.7744542 47.4773554"></polygon>
                <polygon id="Path" fill="#FFFFFF" fill-rule="nonzero" points="11.1098182 36.6981818 11.1098182 35.6072727 39.3883636 35.6072727 39.3883636 36.6981818"></polygon>
                <polygon id="Path" fill="#FFFFFF" fill-rule="nonzero" points="6.89672727 41.4261818 6.89672727 40.3352727 43.7367273 40.3352727 43.7367273 41.4261818"></polygon>
                <path d="M11.6661818,21.8465455 L11.6487273,21.8072727 C10.816191,19.9174981 10.3881169,17.8744847 10.392,15.8094545 C10.4004162,7.56446815 17.0815604,0.882347948 25.3265455,0.872727273 C33.5718848,0.882345643 40.2536544,7.56411521 40.2632727,15.8094545 C40.2663208,17.8743988 39.8382824,19.9172415 39.0065455,21.8072727 L38.9890909,21.8465455 L25.3265455,46.0865455 L11.6661818,21.8465455 Z" id="Path" fill="#000000"></path>
                <path d="M25.3265455,1.74545455 C33.0938782,1.74545455 39.3905455,8.04212182 39.3905455,15.8094545 C39.3914885,17.7534288 38.988033,19.6763437 38.2058182,21.456 L25.3330909,44.3083636 L12.4603636,21.456 C11.6788986,19.6761826 11.2761875,17.7532742 11.2778182,15.8094545 C11.2772395,12.0796505 12.7584927,8.50241146 15.3956579,5.86483709 C18.0328231,3.22726273 21.6098322,1.7454545 25.3396364,1.74545455 L25.3265455,1.74545455 Z M25.3396364,0 C16.6131554,0.0108216083 9.54198084,7.08297221 9.53236364,15.8094545 C9.52904762,17.9944756 9.98159672,20.1561592 10.8610909,22.1563636 L10.896,22.2370909 L10.9396364,22.3112727 L23.8123636,45.1658182 L25.3396364,47.8625455 L26.8669091,45.1658182 L39.7396364,22.3112727 L39.7832727,22.2370909 L39.8181818,22.1563636 C40.6984258,20.1563207 41.1517194,17.9946306 41.1490909,15.8094545 C41.1382718,7.08261926 34.0664716,0.0108191484 25.3396364,0 Z" id="Shape" fill="#FFFFFF" fill-rule="nonzero"></path>
                <path d="M16.0450909,19.6887273 L16.0450909,19.6669091 C15.4808923,18.38308 15.1903557,16.9957864 15.192,15.5934545 C15.1980126,9.99276709 19.7367671,5.45401255 25.3374545,5.448 C30.938142,5.45401255 35.4768965,9.99276709 35.4829091,15.5934545 C35.4845534,16.9957864 35.1940168,18.38308 34.6298182,19.6669091 L34.6298182,19.6887273 L25.3483636,36.4516364 L16.0450909,19.6887273 Z" id="Path" fill="#FFF200"></path>
                <path d="M25.3265455,5.99345455 C30.6284791,5.99345455 34.9265455,10.2915209 34.9265455,15.5934545 C34.9273396,16.9198795 34.6524351,18.2319913 34.1192727,19.4465455 L25.3265455,35.3258182 L16.5338182,19.4465455 C16.0006558,18.2319913 15.7257513,16.9198795 15.7265455,15.5934545 C15.7265455,10.2915209 20.0246119,5.99345455 25.3265455,5.99345455 Z M25.3265455,4.90254545 C19.4246119,4.90855864 14.6416495,9.69152103 14.6356364,15.5934545 C14.6338264,17.0709188 14.9399724,18.5325427 15.5345455,19.8850909 L15.5563636,19.9309091 L15.5803636,19.9767273 L24.3730909,35.8538182 L25.3265455,37.5774545 L26.28,35.8538182 L35.0727273,19.9767273 L35.0967273,19.9309091 L35.1185455,19.8850909 C35.7131185,18.5325427 36.0192645,17.0709188 36.0174545,15.5934545 C36.0114414,9.69152103 31.228479,4.90855864 25.3265455,4.90254545 Z" id="Shape" fill="#FFFFFF" fill-rule="nonzero"></path>
                <path d="M25.3265455,19.1476364 C23.3646218,19.145232 21.774768,17.5553782 21.7723636,15.5934545 C21.774768,13.6315309 23.3646218,12.041677 25.3265455,12.0392727 C27.2884691,12.041677 28.878323,13.6315309 28.8807273,15.5934545 C28.878323,17.5553782 27.2884691,19.145232 25.3265455,19.1476364 Z" id="Path" fill="#000000"></path>
                <path d="M25.3265455,12.5847273 C26.124687,12.5841479 26.8903053,12.9009518 27.4546767,13.4653233 C28.0190482,14.0296947 28.3358521,14.795313 28.3352727,15.5934545 C28.3352727,17.2551287 26.9882196,18.6021818 25.3265455,18.6021818 C23.6648713,18.6021818 22.3178182,17.2551287 22.3178182,15.5934545 C22.3172388,14.795313 22.6340427,14.0296947 23.1984142,13.4653233 C23.7627856,12.9009518 24.5284039,12.5841479 25.3265455,12.5847273 Z M25.3265455,11.4938182 C23.0633758,11.4962233 21.2293142,13.3302849 21.2269091,15.5934545 C21.2293142,17.8566242 23.0633758,19.6906858 25.3265455,19.6930909 C27.5897151,19.6906858 29.4237767,17.8566242 29.4261818,15.5934545 C29.4237767,13.3302849 27.5897151,11.4962233 25.3265455,11.4938182 Z" id="Shape" fill="#FFFFFF" fill-rule="nonzero"></path>
            </g>
        </g>
    </g>
</svg>