<?xml version="1.0" encoding="UTF-8"?>
<svg width="50px" height="46px" viewBox="0 0 50 46" version="1.1" xmlns="http://www.w3.org/2000/svg" xmlns:xlink="http://www.w3.org/1999/xlink">
    <!-- Generator: Sketch 52.4 (67378) - http://www.bohemiancoding.com/sketch -->
    <title>4</title>
    <desc>Created with Sketch.</desc>
    <g id="Page-1" stroke="none" stroke-width="1" fill="none" fill-rule="evenodd">
        <g id="01-Главная" transform="translate(-24.000000, -926.000000)">
            <g id="4" transform="translate(24.000000, 926.000000)">
                <path d="M11.5424976,31.6831396 C11.6942184,30.7967159 12.5358008,30.2011216 13.4222244,30.3528424 C14.3086481,30.5045632 14.9042424,31.3461456 14.7525216,32.2325692 C14.0748624,36.1917699 12.2621344,38.5057471 9.29118774,38.5057471 C8.83391793,38.5057471 8.3953767,38.6873969 8.07203812,39.0107354 C7.74869953,39.334074 7.56704981,39.7726152 7.56704954,40.2308163 C7.56678812,40.6879193 7.7482558,41.1263757 8.07147647,41.4495963 C8.39469714,41.772817 8.83315347,41.9542847 9.29118774,41.954023 C13.0838315,41.954023 16.2634068,41.1229126 18.9080861,39.6104263 C21.0477682,38.3867468 22.7672634,36.7584732 24.1110998,34.8644241 C24.8914686,33.7608932 25.5486598,32.575233 26.0709246,31.3286396 C26.4184304,30.4991784 27.3725506,30.1084763 28.2020118,30.4559821 C29.031473,30.8034878 29.422175,31.7576081 29.0746693,32.5870693 C28.460542,34.052929 27.687756,35.4471378 26.7686553,36.746848 C25.1618655,39.0115167 23.0979882,40.9659024 20.5248641,42.4374664 C17.3838287,44.2338177 13.6464677,45.210728 9.29211902,45.2107277 C7.97063888,45.2114835 6.70306602,44.6868622 5.76863829,43.7524345 C4.83421057,42.8180068 4.30958931,41.5504339 4.31034483,40.2298851 C4.31034483,38.9088834 4.8351107,37.6419865 5.76919994,36.7078973 C6.70328918,35.773808 7.97018607,35.2490421 9.29118774,35.2490421 C10.3292923,35.2490421 11.1006998,34.2643277 11.5424976,31.6831396 Z" id="Path" fill="#FFFFFF" fill-rule="nonzero"></path>
                <path d="M5.15517241,0.862068966 L44.7145594,0.862068966 C47.085575,0.862068966 49.0076628,2.78415685 49.0076628,5.15517241 L49.0076628,28.5268199 C49.0076628,30.8978355 47.085575,32.8199234 44.7145594,32.8199234 L5.15517241,32.8199234 C2.78415685,32.8199234 0.862068966,30.8978355 0.862068966,28.5268199 L0.862068966,5.15517241 C0.862068966,2.78415685 2.78415685,0.862068966 5.15517241,0.862068966 Z" id="Rectangle" fill="#1D1D1B"></path>
                <path d="M44.7145594,1.72413793 C46.605547,1.73356947 48.1361623,3.26418484 48.1455939,5.15517241 L48.1455939,28.5268199 C48.1361623,30.4178075 46.605547,31.9484229 44.7145594,31.9578544 L5.15517241,31.9578544 C3.26418484,31.9484229 1.73356947,30.4178075 1.72413793,28.5268199 L1.72413793,5.15517241 C1.73356947,3.26418484 3.26418484,1.73356947 5.15517241,1.72413793 L44.7145594,1.72413793 Z M44.7145594,-1.13686838e-13 L5.15517241,-1.13686838e-13 C2.30936228,0.00316729302 0.00316729302,2.30936228 0,5.15517241 L0,28.5268199 C0.00316729302,31.3726301 2.30936228,33.678825 5.15517241,33.6819923 L44.7145594,33.6819923 C47.5603695,33.678825 49.8665645,31.3726301 49.8697318,28.5268199 L49.8697318,5.15517241 C49.8665645,2.30936228 47.5603695,0.00316729302 44.7145594,-9.190775e-14 Z" id="Shape" fill="#FFFFFF" fill-rule="nonzero"></path>
                <path d="M6.31609195,5.70498084 L43.5536398,5.70498084 C44.0265733,5.70498084 44.4099617,6.08836919 44.4099617,6.56130268 L44.4099617,27.1206897 C44.4099617,27.5936231 44.0265733,27.9770115 43.5536398,27.9770115 L6.31609195,27.9770115 C5.84315846,27.9770115 5.45977011,27.5936231 5.45977011,27.1206897 L5.45977011,6.56130268 C5.45977011,6.08836919 5.84315846,5.70498084 6.31609195,5.70498084 Z" id="Rectangle" fill="#FFF200"></path>
                <path d="M43.5478927,6.18390805 C43.7594961,6.18390805 43.9310345,6.35544646 43.9310345,6.56704981 L43.9310345,27.1264368 C43.9310345,27.3380401 43.7594961,27.5095785 43.5478927,27.5095785 L6.31034483,27.5095785 C6.09874148,27.5095785 5.92720307,27.3380401 5.92720307,27.1264368 L5.92720307,6.56130268 C5.92720307,6.34969933 6.09874148,6.17816092 6.31034483,6.17816092 L43.5478927,6.17816092 L43.5478927,6.18390805 Z M43.5478927,5.22030651 L6.31034483,5.22030651 C5.56973309,5.22030651 4.96934866,5.82069095 4.96934866,6.56130268 L4.96934866,27.1206897 C4.96934866,27.8613014 5.56973309,28.4616858 6.31034483,28.4616858 L43.5478927,28.4616858 C44.2885045,28.4616858 44.8888889,27.8613014 44.8888889,27.1206897 L44.8888889,6.56130268 C44.8888889,5.82069095 44.2885045,5.22030651 43.5478927,5.22030651 Z" id="Shape" fill="#FFFFFF" fill-rule="nonzero"></path>
                <path d="M13.1475096,31.9578544 C12.5881226,35.2260536 11.2969349,36.8773946 9.29118774,36.8773946 C8.402052,36.8773946 7.54933294,37.2306024 6.92061903,37.8593163 C6.29190512,38.4880303 5.93869732,39.3407493 5.93869732,40.2298851 C5.93818872,41.1191766 6.29123319,41.9721912 6.92005738,42.6010154 C7.54888158,43.2298396 8.40189618,43.5828841 9.29118774,43.5823755 C18.0766284,43.5823755 22.9233716,39.3524904 25.440613,35.8045977 C26.2896123,34.6040155 27.0046009,33.314081 27.5727969,31.9578544" id="Path" fill="#1D1D1B"></path>
                <path d="M16.7931034,27.4980843 C16.7931034,31.9578544 16.0957854,40.2298851 9.2605364,40.2298851 C23.4980843,40.2298851 25.4137931,27.4980843 25.4137931,27.4980843" id="Path-Copy" fill="#FFF200"></path>
                <path d="M9.2605364,40.7088123 C8.62196679,40.7088123 8.62196679,39.7509579 9.2605364,39.7509579 C12.1475001,39.7509579 14.0323006,38.1991959 15.1441201,35.3616753 C15.9886951,33.2062003 16.3141762,30.5545927 16.3141762,27.4980843 L17.2720307,27.4980843 C17.2720307,30.6640805 16.9337744,33.4197635 16.0359566,35.7111216 C15.4339651,37.2474889 14.6062043,38.4665241 13.5365031,39.3159206 C17.3793944,38.4772581 20.2453048,36.4621911 22.2856623,33.5868272 C23.2448214,32.2351369 23.9496544,30.7847034 24.438132,29.3345447 C24.6088436,28.8277477 24.7401526,28.3579434 24.8369637,27.9376516 C24.8705618,27.7917905 24.8974001,27.6629508 24.9180992,27.5526975 C24.9301461,27.4885306 24.937304,27.4460513 24.940197,27.426824 L25.8873892,27.5693446 C25.8706433,27.6806378 25.8333665,27.8791909 25.7703758,28.1526562 C25.666711,28.6027023 25.5269622,29.1027031 25.3458718,29.6403116 C24.829201,31.1741687 24.0839621,32.7077511 23.0668281,34.1411422 C20.156076,38.2431053 15.6490932,40.7088123 9.2605364,40.7088123 Z" id="Path" fill="#FFFFFF" fill-rule="nonzero"></path>
            </g>
        </g>
    </g>
</svg>