<?xml version="1.0" encoding="UTF-8"?>
<svg width="45px" height="56px" viewBox="0 0 45 56" version="1.1" xmlns="http://www.w3.org/2000/svg" xmlns:xlink="http://www.w3.org/1999/xlink">
    <!-- Generator: Sketch 52.4 (67378) - http://www.bohemiancoding.com/sketch -->
    <title>3</title>
    <desc>Created with Sketch.</desc>
    <g id="Page-1" stroke="none" stroke-width="1" fill="none" fill-rule="evenodd">
        <g id="01-Главная" transform="translate(-165.000000, -916.000000)">
            <g id="3" transform="translate(165.000000, 916.000000)">
                <path d="M34.7930435,32.0965217 C34.7076624,32.0967788 34.6229973,32.0809471 34.5434783,32.0498551 L11.0072464,23.2197101 C10.8306831,23.1543677 10.6880042,23.020469 10.6115942,22.8484058 C10.532773,22.6776603 10.5261889,22.4823323 10.5933333,22.3066667 L18.4495652,1.37362319 C18.553163,1.09595888 18.8187125,0.912179194 19.1150725,0.913043478 L19.1272464,0.913043478 C19.4284263,0.917552533 19.693791,1.11209905 19.7886957,1.39797101 L23.4834783,12.4823188 L30.097971,6.23304348 C30.2282158,6.10539317 30.4025774,6.03274248 30.5849275,6.03014493 C30.6679287,6.03029312 30.750287,6.04470582 30.8284058,6.07275362 C31.081554,6.16551263 31.260619,6.39327069 31.2910145,6.66115942 L32.3176812,15.7915942 L42.3002899,9.76144928 C42.4109736,9.69410095 42.5379732,9.65831652 42.6675362,9.65797101 C42.8334697,9.65860986 42.9940636,9.71668178 43.122029,9.82231884 C43.351552,10.0175448 43.4328834,10.3363637 43.3249275,10.6176812 L35.4423188,31.6217391 C35.3445362,31.8987683 35.0866794,32.0873261 34.7930435,32.0965217 Z M32.8350725,27.0747826 L36.1544928,18.2324638 L29.9498551,21.98 C29.8392974,22.0476375 29.7122151,22.0834452 29.5826087,22.0834783 C29.4733109,22.083721 29.3655196,22.0579901 29.2681159,22.0084058 C29.0510687,21.9022908 28.9033448,21.6925688 28.8765217,21.4524638 L28.0162319,13.7910145 L22.4628986,19.037971 C22.332031,19.1659249 22.1569248,19.2385831 21.973913,19.2408696 C21.915815,19.2411262 21.8579015,19.2343128 21.8014493,19.2205797 C21.5661419,19.1612052 21.3772658,18.9860933 21.3002899,18.755942 L18.9344928,11.6544928 L15.5765217,20.6043478 L32.8350725,27.0747826 Z" id="Shape" fill="#FFFFFF" fill-rule="nonzero"></path>
                <path d="M19.1231884,1.62318841 L23.1689855,13.7646377 L30.5930435,6.75043478 L31.7434783,16.9866667 L42.6756522,10.3823188 L34.7930435,31.3863768 L11.2568116,22.5562319 L19.1150725,1.62318841 L19.1231884,1.62318841 Z M33.2428986,27.9898551 L37.5301449,16.5686957 L29.5744928,21.3733333 L28.56,12.2976812 L21.9718841,18.5205797 L18.9730435,9.52202899 L14.6614493,21.0182609 L33.2510145,27.995942 L33.2428986,27.9898551 Z M19.1211594,0.208985507 C18.5295488,0.209281584 18.0000828,0.576270232 17.7921739,1.13014493 L9.93594203,22.0631884 C9.80381998,22.4155726 9.81695548,22.8059887 9.97246377,23.1486957 C10.1280138,23.4916083 10.4133687,23.758718 10.7657971,23.8913043 L34.302029,32.7214493 C34.4613936,32.7822542 34.6305895,32.8132047 34.8011594,32.8127536 C35.3927701,32.8124575 35.9222361,32.4454689 36.1301449,31.8915942 L44.0066667,10.8733333 C44.2188333,10.3073098 44.0494898,9.66901502 43.5846377,9.2826087 C43.3293906,9.07013934 43.007758,8.95383467 42.6756522,8.95391304 C42.4169102,8.95337989 42.1629382,9.02353791 41.9411594,9.15681159 L32.906087,14.6228986 L32.0031884,6.59217391 C31.9429385,6.05727791 31.5854832,5.60240626 31.08,5.4173913 C30.923395,5.35981211 30.7578691,5.33027844 30.5910145,5.33014493 C30.2281389,5.32990672 29.8789348,5.46857194 29.6150725,5.71768116 L23.8101449,11.195942 L20.4684058,1.16666667 C20.277809,0.59636992 19.7487372,0.20789637 19.1475362,0.196811594 L19.1211594,0.208985507 Z M16.4834783,20.1884058 L18.906087,13.7747826 L20.6368116,18.9710145 C20.7906848,19.4309593 21.1686208,19.7805884 21.6391304,19.8982609 C21.7519284,19.9265307 21.8677714,19.9408407 21.984058,19.9408696 C22.3469336,19.9411078 22.6961376,19.8024425 22.96,19.5533333 L27.4785507,15.2924638 L28.1805797,21.5397101 C28.2354459,22.0205434 28.5313731,22.4403471 28.9657971,22.6536232 C29.1602982,22.7514159 29.3750521,22.8021506 29.5927536,22.8017391 C29.8514956,22.8022723 30.1054676,22.7321143 30.3272464,22.5988406 L34.7808696,19.9084058 L32.4292754,26.1718841 L16.5017391,20.1924638 L16.4834783,20.1884058 Z" id="Shape" fill="#FFFFFF" fill-rule="nonzero"></path>
                <circle id="Oval" fill="#FFFFFF" cx="19.2611594" cy="36.5623188" r="19.2611594"></circle>
                <circle id="Oval" fill="#FFFFFF" cx="19.2611594" cy="36.5623188" r="16.9197101"></circle>
                <path d="M6.71594203,49.1055072 C10.0431188,52.4327468 14.5557765,54.3019757 19.2611594,54.3019757 C23.9665423,54.3019757 28.4792,52.4327468 31.8063768,49.1055072 C38.7338811,42.1765492 38.7338811,30.9440305 31.8063768,24.0150725 C24.8774188,17.0875682 13.6449001,17.0875682 6.71594203,24.0150725 C3.38870251,27.3422492 1.51947354,31.854907 1.51947354,36.5602899 C1.51947354,41.2656727 3.38870251,45.7783305 6.71594203,49.1055072 Z M8.49130435,25.7924638 C14.4387993,19.8450663 24.0814905,19.8450663 30.0289855,25.7924638 C35.976383,31.7399587 35.976383,41.3826499 30.0289855,47.3301449 C24.0814905,53.2775424 14.4387993,53.2775424 8.49130435,47.3301449 C2.54390686,41.3826499 2.54390686,31.7399587 8.49130435,25.7924638 Z" id="Shape" fill="#1D1D1B" fill-rule="nonzero"></path>
                <circle id="Oval" fill="#FFF200" cx="19.2611594" cy="36.5481159" r="14.0507246"></circle>
                <path d="M19.2611594,48.2513043 C12.8076348,48.2434785 7.57797078,43.0138145 7.57014493,36.5602899 C7.57126232,35.8088455 8.18014986,35.199958 8.9315942,35.1988406 C9.68303855,35.199958 10.2919261,35.8088455 10.2930435,36.5602899 C10.2986343,41.5109259 14.3105234,45.522815 19.2611594,45.5284058 C24.2114661,45.522813 28.2227737,41.5105977 28.2272464,36.5602899 C28.2294797,35.8085174 28.8389497,35.1999543 29.5907246,35.1988406 C30.342169,35.199958 30.9510565,35.8088455 30.9521739,36.5602899 C30.9443481,43.0138145 25.7146841,48.2434785 19.2611594,48.2513043 Z" id="Path" fill="#000000"></path>
                <path d="M29.5907246,35.6046377 C30.1185168,35.6046377 30.5463768,36.0324977 30.5463768,36.5602899 C30.5396672,42.790162 25.4910316,47.8387976 19.2611594,47.8455072 C13.0312873,47.8387976 7.98265164,42.790162 7.97594203,36.5602899 C7.97594203,36.0324977 8.40380208,35.6046377 8.9315942,35.6046377 C9.45938632,35.6046377 9.88724638,36.0324977 9.88724638,36.5602899 C9.89283769,41.7350413 14.086408,45.9286116 19.2611594,45.9342029 C24.4355816,45.9286096 28.6285704,41.7347131 28.6330435,36.5602899 C28.6330429,36.3064832 28.7340059,36.0631013 28.9136645,35.8838234 C29.0933231,35.7045454 29.3369186,35.6040988 29.5907246,35.6046377 Z M29.5907246,34.7930435 C28.6148349,34.7941588 27.8236844,35.584402 27.8214493,36.5602899 C27.816977,41.2864823 23.9873506,45.1170164 19.2611594,45.1226087 C14.5346388,45.1170185 10.7044308,41.2868105 10.6988406,36.5602899 C10.6977225,35.5847301 9.90715391,34.7941616 8.9315942,34.7930435 C7.9560345,34.7941616 7.16546595,35.5847301 7.16434783,36.5602899 C7.17105837,43.2383928 12.5830564,48.6503909 19.2611594,48.6571014 C25.9387995,48.649275 31.3501446,43.2379299 31.357971,36.5602899 C31.3568529,35.5847301 30.5662843,34.7941616 29.5907246,34.7930435 Z" id="Shape" fill="#FFFFFF" fill-rule="nonzero"></path>
                <path d="M26.5857971,34.9289855 C25.8343528,34.9278681 25.2254652,34.3189806 25.2243478,33.5675362 C25.2221178,32.7056168 24.5239484,32.0074475 23.662029,32.0052174 C22.7993173,32.006332 22.0999154,32.7048267 22.0976812,33.5675362 C22.0965638,34.3189806 21.4876762,34.9278681 20.7362319,34.9289855 C19.9847875,34.9278681 19.3759,34.3189806 19.3747826,33.5675362 C19.3781377,31.2014751 21.2959665,29.2845539 23.662029,29.2823188 C26.0272991,29.2856715 27.9438938,31.2022661 27.9472464,33.5675362 C27.946129,34.3189806 27.3372414,34.9278681 26.5857971,34.9289855 Z" id="Path" fill="#000000"></path>
                <path d="M23.662029,29.6881159 C25.8031838,29.6914676 27.5380976,31.4263814 27.5414493,33.5675362 C27.5414493,34.0953284 27.1135892,34.5231884 26.5857971,34.5231884 C26.058005,34.5231884 25.6301449,34.0953284 25.6301449,33.5675362 C25.6290266,32.4810394 24.7485258,31.6005387 23.662029,31.5994203 C22.5747399,31.5994197 21.6930038,32.4802477 21.6918841,33.5675362 C21.6918841,33.8209909 21.5911996,34.0640648 21.41198,34.2432844 C21.2327605,34.4225039 20.9896866,34.5231884 20.7362319,34.5231884 C20.2084398,34.5231884 19.7805797,34.0953284 19.7805797,33.5675362 C19.7839341,31.4255905 21.5200818,29.6903503 23.662029,29.6881159 Z M23.662029,28.8765217 C21.0718512,28.8787573 18.9723411,30.9773596 18.9689855,33.5675362 C18.9701036,34.5430959 19.7606722,35.3336645 20.7362319,35.3347826 C21.7117916,35.3336645 22.5023601,34.5430959 22.5034783,33.5675362 C22.5045975,32.9284788 23.0229706,32.4110135 23.662029,32.4110145 C24.3002951,32.4121313 24.8174339,32.9292701 24.8185507,33.5675362 C24.8196688,34.5430959 25.6102374,35.3336645 26.5857971,35.3347826 C27.5613568,35.3336645 28.3519254,34.5430959 28.3530435,33.5675362 C28.350806,30.9776878 26.2518774,28.8787592 23.662029,28.8765217 Z" id="Shape" fill="#FFFFFF" fill-rule="nonzero"></path>
                <path d="M17.784058,34.9289855 C17.0326136,34.9278681 16.4237261,34.3189806 16.4226087,33.5675362 C16.4214909,32.7051548 15.7226713,32.0063352 14.8602899,32.0052174 C13.9979084,32.0063352 13.2990888,32.7051548 13.297971,33.5675362 C13.2968536,34.3189806 12.6879661,34.9278681 11.9365217,34.9289855 C11.1847468,34.9278718 10.5752768,34.3193087 10.5730435,33.5675362 C10.5763985,31.2014751 12.4942274,29.2845539 14.8602899,29.2823188 C17.2260228,29.2845559 19.1432701,31.2018033 19.1455072,33.5675362 C19.1443899,34.3189806 18.5355023,34.9278681 17.784058,34.9289855 Z" id="Path" fill="#000000"></path>
                <path d="M14.8602899,29.6881159 C17.0014447,29.6914676 18.7363585,31.4263814 18.7397101,33.5675362 C18.7397101,34.0953284 18.3118501,34.5231884 17.784058,34.5231884 C17.2562658,34.5231884 16.8284058,34.0953284 16.8284058,33.5675362 C16.8272874,32.4810394 15.9467867,31.6005387 14.8602899,31.5994203 C13.773793,31.6005387 12.8932923,32.4810394 12.8921739,33.5675362 C12.8921739,33.8209909 12.7914894,34.0640648 12.6122699,34.2432844 C12.4330503,34.4225039 12.1899765,34.5231884 11.9365217,34.5231884 C11.6827157,34.5237273 11.4391202,34.4232807 11.2594616,34.2440027 C11.079803,34.0647247 10.97884,33.8213429 10.9788406,33.5675362 C10.9821949,31.4255905 12.7183427,29.6903503 14.8602899,29.6881159 Z M14.8602899,28.8765217 C12.2701121,28.8787573 10.170602,30.9773596 10.1672464,33.5675362 C10.168366,34.5438876 10.9601698,35.3347833 11.9365217,35.3347826 C12.9120814,35.3336645 13.70265,34.5430959 13.7037681,33.5675362 C13.7037681,32.9288069 14.2215605,32.4110145 14.8602899,32.4110145 C15.498556,32.4121313 16.0156948,32.9292701 16.0168116,33.5675362 C16.0179297,34.5430959 16.8084983,35.3336645 17.784058,35.3347826 C18.7600812,35.3347826 19.5513043,34.5435595 19.5513043,33.5675362 C19.5490669,30.9776878 17.4501383,28.8787592 14.8602899,28.8765217 Z" id="Shape" fill="#FFFFFF" fill-rule="nonzero"></path>
                <polygon id="Path" fill="#FFFFFF" points="34.0301449 29.6881159 12.9713043 21.7852174 19.0562319 5.57362319 22.5785507 16.1426087 29.5846377 9.52405797 30.6701449 19.18 40.1150725 13.4765217"></polygon>
                <path d="M33.2588369,27.9900111 L37.5457626,16.5686919 L29.5895514,21.3731837 L28.5692788,12.2975249 L21.981128,18.5212573 L18.9824039,9.52335751 L14.6695092,21.0138639 L33.2588369,27.9900111 Z M42.6843823,10.3843516 L34.801453,31.3862208 L11.2730995,22.5565708 L19.1300599,1.62388886 L23.1759734,13.7639601 L30.5999966,6.75059102 L31.7507385,16.9868163 L42.6843823,10.3843516 Z" id="Path-Copy-2" fill="#1D1D1B" fill-rule="nonzero"></path>
            </g>
        </g>
    </g>
</svg>