<?xml version="1.0" encoding="UTF-8"?>
<svg width="14px" height="17px" viewBox="0 0 14 17" version="1.1" xmlns="http://www.w3.org/2000/svg" xmlns:xlink="http://www.w3.org/1999/xlink">
    <!-- Generator: Sketch 52.6 (67491) - http://www.bohemiancoding.com/sketch -->
    <title>Group 6</title>
    <desc>Created with Sketch.</desc>
    <g id="Page-1" stroke="none" stroke-width="1" fill="none" fill-rule="evenodd">
        <g id="07-01-Изменить-мои-данные" transform="translate(-998.000000, -308.000000)" fill="#000000" fill-rule="nonzero">
            <g id="Group-4" transform="translate(590.000000, 127.000000)">
                <g id="Group-3" transform="translate(60.000000, 136.000000)">
                    <g id="Group-6" transform="translate(348.000000, 45.000000)">
                        <g id="Shape-Copy-2">
                            <g id="Shape-Copy-4">
                                <g id="Shape-Copy-6">
                                    <path d="M12.5981789,6.86154209 L12.2544146,6.86154209 L12.2544146,5.31206366 C12.2544146,2.4461848 9.89290171,0.0521519507 6.94129149,0.00104722793 C6.86064244,-0.000349075975 6.69948933,-0.000349075975 6.61887653,0.00104722793 C3.66719382,0.0521519507 1.30571717,2.4461848 1.30571717,5.31206366 L1.30571717,6.86154209 L0.961916615,6.86154209 C0.432133917,6.86154209 2.50466314e-13,7.38801848 2.50466314e-13,8.0382423 L2.50466314e-13,15.8097906 C2.50466314e-13,16.4592813 0.432133917,16.9906797 0.961952861,16.9906797 L12.5981789,16.9906797 C13.1279616,16.9906797 13.5601318,16.4592813 13.5601318,15.8097906 L13.5601318,8.0382423 C13.5601318,7.38805339 13.1279979,6.86154209 12.5981789,6.86154209 Z M7.87022355,11.9161273 L7.87022355,14.2643963 C7.87022355,14.5332895 7.63646817,14.7608522 7.35704187,14.7608522 L6.2031624,14.7608522 C5.92369985,14.7608522 5.68994447,14.5332895 5.68994447,14.2643963 L5.68994447,11.9161273 C5.41892742,11.6592074 5.26114525,11.3039528 5.26114525,10.910963 C5.26114525,10.1662444 5.85889063,9.52631828 6.61891278,9.49675154 C6.69945308,9.49360986 6.86078743,9.49360986 6.94132774,9.49675154 C7.70134988,9.52631828 8.29909526,10.1662444 8.29909526,10.910963 C8.29902277,11.3039528 8.1412406,11.6592074 7.87022355,11.9161273 Z M9.98866565,6.86154209 L6.94129149,6.86154209 L6.61887653,6.86154209 L3.57153861,6.86154209 L3.57153861,5.31206366 C3.57153861,3.6049076 5.01212999,2.19334908 6.78006589,2.19334908 C8.54800179,2.19334908 9.98866565,3.6049076 9.98866565,5.31206366 L9.98866565,6.86154209 Z" id="Shape-Copy"></path>
                                </g>
                            </g>
                        </g>
                    </g>
                </g>
            </g>
        </g>
    </g>
</svg>