<?xml version="1.0" encoding="UTF-8"?>
<svg width="23px" height="22px" viewBox="0 0 23 22" version="1.1" xmlns="http://www.w3.org/2000/svg" xmlns:xlink="http://www.w3.org/1999/xlink">
    <!-- Generator: Sketch 52.4 (67378) - http://www.bohemiancoding.com/sketch -->
    <title>Group 2</title>
    <desc>Created with Sketch.</desc>
    <g id="web" stroke="none" stroke-width="1" fill="none" fill-rule="evenodd">
        <g id="01-Главная" transform="translate(-12.000000, -253.000000)">
            <g id="Group-5">
                <g id="Group-3" transform="translate(0.000000, 243.000000)">
                    <g id="Group-2" transform="translate(12.000000, 10.000000)">
                        <circle id="Oval" fill="#FFFFFF" cx="11.1361905" cy="10.9615873" r="10.4552381"></circle>
                        <path d="M5.13857143,4.96396825 C2.71183372,7.39023726 1.98568103,11.0394718 3.29874209,14.2099147 C4.61180316,17.3803575 7.70546952,19.4475874 11.1370635,19.4475874 C14.5686575,19.4475874 17.6623238,17.3803575 18.9753849,14.2099147 C20.288446,11.0394718 19.5622933,7.39023726 17.1355556,4.96396825 C15.5450044,3.37241405 13.3871519,2.47820385 11.1370635,2.47820385 C8.88697508,2.47820385 6.72912262,3.37241405 5.13857143,4.96396825 Z" id="Path" fill="#FFF200"></path>
                        <polygon id="Path" fill="#FFFFFF" points="14.9146032 2.34142857 10.0868254 3.34365079 7.64238095 6.72571429 8.77730159 10.3277778 9.12301587 9.80396825 9.58746032 9.10206349 9.65031746 7.72444444 11.0820635 5.96269841 13.584127 6.72571429 12.5312698 8.1452381 10.5233333 9.01825397 8.69 11.1885714 9.91222222 12.8473016 12.7931746 11.1885714 16.6431746 9.39015873 18.7366667 6.05 16.7531746 3.41174603"></polygon>
                        <path d="M19.7371429,4.13809524 L20.295873,5.09666667 C19.4595238,5.73396825 19.0736508,6.66809524 18.7069841,7.59873016 C17.9038095,9.6084127 16.4825397,10.8690476 14.3838095,11.3753968 C14.3052381,11.3946032 14.2284127,11.4295238 14.1166667,11.4679365 C14.1673016,11.5814286 14.2126984,11.6896825 14.2650794,11.7944444 C14.9903451,13.2179279 14.7419466,14.943719 13.6446654,16.1048777 C12.5473841,17.2660364 10.8383921,17.6115838 9.37619048,16.9679365 C7.90823126,16.3068234 7.01429505,14.7943309 7.14301587,13.1895238 C7.19122034,12.4972426 7.44267715,11.834587 7.86587302,11.2846032 C7.99709153,11.1277671 8.02504526,10.9089099 7.93746032,10.724127 C7.58825397,9.56825397 7.2652381,8.40365079 6.93,7.23206349 C6.7983422,6.81398792 6.87846739,6.35799093 7.1447619,6.00984127 C7.86761905,5.05825397 8.59571429,4.10492063 9.3884127,3.21619048 C9.62761905,2.94555556 10.0711111,2.81111111 10.4465079,2.7115873 C11.8834921,2.33619048 13.3309524,2.00095238 14.7749206,1.64650794 C14.9739683,1.59761905 15.1712698,1.53650794 15.4052381,1.47190476 L15.8295238,2.55968254 C15.0892063,2.75 14.3785714,2.93857143 13.6644444,3.1131746 C12.6761905,3.35761905 11.6809524,3.56888889 10.6961905,3.84301587 C10.3807665,3.93269281 10.0969717,4.10938377 9.87730159,4.35285714 C9.28714286,5.04079365 8.73888889,5.76714286 8.20460317,6.50047619 C8.0923261,6.68113087 8.05183236,6.89730511 8.09111111,7.10634921 C8.2884127,8.00206349 8.52587302,8.88730159 8.7615873,9.83015873 L9.58222222,9.10206349 C9.47222222,8.64809524 9.35698413,8.15920635 9.23301587,7.67206349 C9.14396825,7.32285714 9.28190476,7.01904762 9.63984127,6.94222222 C10.2596825,6.80777778 10.6874603,6.43412698 11.0768254,5.96269841 C11.4015873,5.56111111 11.6547619,5.5331746 12.0598413,5.85095238 C12.5242857,6.21412698 13.0725397,6.15126984 13.6050794,6.17396825 C13.7016028,6.17071981 13.7978254,6.16138914 13.8931746,6.14603175 C14.2039683,6.11984127 14.4903175,6.17396825 14.6020635,6.50746032 C14.7033333,6.80079365 14.5653968,7.01730159 14.3419048,7.23031746 C13.802381,7.74190476 13.2942857,8.29539683 12.7704762,8.80174603 C12.5785655,8.97106688 12.3618786,9.11002911 12.1279365,9.21380952 C11.4766667,9.53333333 10.8044444,9.81619048 10.1636508,10.1549206 C9.94295231,10.2963625 9.75439162,10.4825439 9.61015873,10.7014286 C9.401078,10.9386307 9.37744287,11.2867117 9.55253968,11.55 C9.7568254,11.8555556 10.0553968,12.0895238 10.4255556,11.9638095 C10.9644027,11.8035469 11.4780903,11.5684496 11.9515873,11.2653968 C12.6735486,10.7594059 13.4809475,10.3879432 14.3349206,10.1688889 C15.7928571,9.78825397 16.8561905,8.93619048 17.4620635,7.52365079 C17.7746032,6.79206349 18.1465079,6.0831746 18.5253968,5.38126984 C18.8023152,4.85967089 19.2228041,4.42827597 19.7371429,4.13809524 Z M8.59571429,12.2938095 C7.97743309,13.4595861 8.3230084,14.9032725 9.40213546,15.6627403 C10.4812625,16.4222081 11.9568698,16.2602332 12.8455556,15.2847619 C13.7046032,14.3646032 13.7796825,12.9398413 13.0201587,12.0022222 C11.604127,12.8665079 10.2090476,13.9106349 8.59571429,12.2938095 Z M12.5330159,7.31936508 C11.9777778,6.94047619 11.497619,7.05222222 11.0855556,7.54809524 C11.0546593,7.57527252 11.0206684,7.59871456 10.9842857,7.61793651 C10.4884127,7.95142857 10.4884127,7.95142857 10.6752381,8.51365079 C11.3980952,8.27269841 12.157619,8.08761905 12.5330159,7.31936508 Z" id="Shape" fill="#000000" fill-rule="nonzero"></path>
                        <path d="M10.8952381,17.4707937 C10.3449843,17.4699129 9.8013418,17.3508237 9.30111111,17.1215873 C7.77447828,16.4313636 6.84238004,14.860192 6.9684127,13.1895238 C7.01854785,12.4627265 7.28283898,11.7670636 7.72793651,11.1903175 C7.82396825,11.0680952 7.83095238,10.9895238 7.76984127,10.7887302 C7.52365079,9.97857143 7.28793651,9.14920635 7.06095238,8.34428571 C6.96142857,7.99507937 6.86365079,7.64587302 6.76238095,7.29666667 C6.61656708,6.82631157 6.70696536,6.3144882 7.00507937,5.92253968 C7.67555556,5.03904762 8.43507937,4.04031746 9.25746032,3.1131746 C9.51761905,2.81984127 9.95587302,2.6731746 10.4028571,2.55619048 C11.4085714,2.29428571 12.4352381,2.04634921 13.4287302,1.80714286 L14.7330159,1.49111111 C14.8657143,1.45968254 14.9949206,1.42126984 15.1363492,1.37936508 L15.3580952,1.31650794 L15.511746,1.27285714 L16.0634921,2.69238095 L15.18,2.92111111 C14.684127,3.04857143 14.1952381,3.17428571 13.7063492,3.2947619 C13.3722751,3.37740741 13.037619,3.45772487 12.702381,3.53571429 C12.0598413,3.68587302 11.3928571,3.84301587 10.7485714,4.02285714 C10.4675619,4.1003789 10.2136542,4.25453714 10.0152381,4.46809524 C9.37619048,5.21365079 8.79301587,6.00111111 8.35126984,6.6052381 C8.26829773,6.7455437 8.23855107,6.91100946 8.26746032,7.07142857 C8.41238095,7.72619048 8.5747619,8.36873016 8.74936508,9.04968254 C8.78777778,9.2015873 8.82619048,9.3552381 8.86634921,9.51063492 L9.39015873,9.04269841 L9.3168254,8.73888889 C9.23650794,8.40714286 9.15444444,8.06142857 9.06539683,7.71746032 C9.00332202,7.50610604 9.02979078,7.27860074 9.13873016,7.08714286 C9.24401119,6.92245189 9.41276553,6.80868491 9.60492063,6.77285714 C10.1025397,6.66460317 10.5146032,6.38174603 10.942381,5.85444444 C11.0907937,5.67111111 11.2915873,5.4615873 11.5849206,5.4615873 C11.8023854,5.47745488 12.0080102,5.56672314 12.1680952,5.7147619 C12.5173016,5.98190476 12.9153968,5.98714286 13.3449206,5.99412698 L13.6138095,5.99412698 C13.663583,5.99361083 13.7132265,5.98893851 13.7622222,5.98015873 L13.8774603,5.96619048 C13.9240212,5.96619048 13.971164,5.96619048 14.0188889,5.96619048 C14.4047619,5.96619048 14.6561905,6.12857143 14.7661905,6.4515873 C14.905873,6.86365079 14.6771429,7.15 14.4606349,7.35603175 C14.1830159,7.61793651 13.912381,7.89730159 13.6487302,8.16793651 C13.3850794,8.43857143 13.144127,8.69174603 12.8822222,8.93444444 C12.6781681,9.1165012 12.4473198,9.26608148 12.1977778,9.37793651 C11.935873,9.50714286 11.6739683,9.62761905 11.4068254,9.74984127 C11.0192063,9.92444444 10.617619,10.1147619 10.2352381,10.3155556 C10.0392445,10.4478382 9.87131978,10.6175431 9.74111111,10.8149206 C9.57364696,10.9903446 9.5518022,11.2590351 9.68873016,11.4592063 C9.80222222,11.6338095 9.98555556,11.8311111 10.2125397,11.8311111 C10.261407,11.8305895 10.3098269,11.8217322 10.3557143,11.8049206 C10.8785853,11.6521665 11.3775392,11.4270789 11.8380952,11.1361905 C12.5780042,10.6166768 13.4063299,10.2362387 14.2825397,10.0134921 C15.7387302,9.63285714 16.7269841,8.8 17.2944444,7.46777778 C17.6226984,6.70126984 18.0190476,5.95396825 18.3647619,5.31142857 C18.6569825,4.75603064 19.1023701,4.29609979 19.6480952,3.98619048 L19.798254,3.90063492 L20.5228571,5.14206349 L20.4006349,5.23634921 C19.5904762,5.85269841 19.2220635,6.77285714 18.867619,7.66333333 C18.0434921,9.72714286 16.5488889,11.0331746 14.4222222,11.5447619 C14.3973801,11.5509779 14.3728987,11.5585555 14.3488889,11.5674603 C14.3715873,11.6180952 14.3942857,11.6669841 14.4187302,11.715873 C15.191917,13.2104761 14.9248997,15.0318154 13.7552381,16.2415873 C13.0076767,17.0216837 11.9756859,17.4652255 10.8952381,17.4707937 Z M8.65507937,12.5906349 C8.21091923,13.6547587 8.57561374,14.8845086 9.52809524,15.5344444 C9.92944455,15.8182936 10.4088955,15.9707908 10.9004762,15.9709524 C11.5925665,15.9673571 12.2513694,15.6734296 12.7163492,15.1607937 C13.4814707,14.3658896 13.5856125,13.1438615 12.9660317,12.2309524 L12.8473016,12.3042857 C12.0563492,12.8019048 11.2374603,13.3152381 10.3609524,13.3152381 C9.75857143,13.3152381 9.19809524,13.0777778 8.65507937,12.5906349 Z M11.8974603,7.26698413 C11.661746,7.26698413 11.44,7.39619048 11.221746,7.65984127 C11.1879992,7.69584999 11.1484569,7.7259493 11.1047619,7.74888889 L11.0820635,7.76285714 C10.8952381,7.8868254 10.7607937,7.97761905 10.7328571,8.03349206 C10.7292849,8.12262074 10.7453802,8.21144283 10.78,8.29365079 L10.8061905,8.29365079 C11.4015873,8.09984127 11.9655556,7.91650794 12.2938095,7.39095238 C12.1733951,7.31736564 12.0366185,7.27477292 11.8957143,7.26698413 L11.8974603,7.26698413 Z" id="Shape" fill="#000000" fill-rule="nonzero"></path>
                        <path d="M15.4052381,1.49111111 C15.5361905,1.82460317 15.6688889,2.16507937 15.8295238,2.57888889 C15.0892063,2.76920635 14.3785714,2.95777778 13.6644444,3.13238095 C12.6761905,3.3768254 11.6809524,3.58809524 10.6961905,3.86222222 C10.382951,3.94652365 10.0993888,4.11641911 9.87730159,4.35285714 C9.28714286,5.04079365 8.73888889,5.76714286 8.20460317,6.50047619 C8.09248682,6.68119329 8.05200479,6.8973051 8.09111111,7.10634921 C8.2884127,8.00206349 8.52587302,8.88730159 8.7615873,9.83015873 L9.58222222,9.10206349 C9.47222222,8.64809524 9.35698413,8.15920635 9.23301587,7.67206349 C9.14396825,7.32285714 9.28190476,7.01904762 9.63984127,6.94222222 C10.2596825,6.80777778 10.6874603,6.43412698 11.0768254,5.96269841 C11.2514286,5.74095238 11.4120635,5.63444444 11.5831746,5.63444444 C11.7615424,5.65225716 11.9290701,5.7283503 12.0598413,5.85095238 C12.5242857,6.21412698 13.0725397,6.15126984 13.6050794,6.17396825 L13.6277778,6.17396825 C13.7150794,6.17396825 13.802381,6.15301587 13.8931746,6.14603175 L14.0206349,6.14603175 C14.277299,6.11299682 14.5212702,6.26685254 14.6020635,6.51269841 C14.7033333,6.80603175 14.5653968,7.02253968 14.3419048,7.23555556 C13.802381,7.74714286 13.2942857,8.30063492 12.7704762,8.80698413 C12.5785655,8.97630497 12.3618786,9.1152672 12.1279365,9.21904762 C11.4766667,9.53857143 10.8044444,9.82142857 10.1636508,10.1601587 C9.94295231,10.3016006 9.75439162,10.487782 9.61015873,10.7066667 C9.401078,10.9438688 9.37744287,11.2919498 9.55253968,11.5552381 C9.72714286,11.8031746 9.94714286,12.0039683 10.2230159,12.0039683 C10.2908142,12.0031398 10.358032,11.9913472 10.4220635,11.9690476 C10.9609107,11.808785 11.4745982,11.5736877 11.9480952,11.2706349 C12.6700565,10.764644 13.4774554,10.3931813 14.3314286,10.174127 C15.7893651,9.79349206 16.8526984,8.94142857 17.4585714,7.52888889 C17.7711111,6.79730159 18.1430159,6.0884127 18.5219048,5.38650794 C18.7994866,4.85831411 19.2239603,4.42171258 19.744127,4.12936508 L20.3028571,5.08793651 C19.4665079,5.7252381 19.0806349,6.65936508 18.7139683,7.59 C17.9107937,9.59968254 16.4895238,10.8603175 14.3907937,11.3666667 C14.3122222,11.385873 14.2353968,11.4207937 14.1236508,11.4592063 C14.1742857,11.5726984 14.2196825,11.6809524 14.2720635,11.7857143 C15.0093966,13.2150962 14.7537553,14.9554233 13.6365079,16.112381 C12.9233827,16.8604456 11.9357317,17.2848958 10.9022222,17.2874603 C10.3776464,17.2880892 9.85904235,17.1761517 9.38142857,16.9592063 C7.9146156,16.3008395 7.01898669,14.7925222 7.14301587,13.1895238 C7.19122034,12.4972426 7.44267715,11.834587 7.86587302,11.2846032 C7.99709153,11.1277671 8.02504526,10.9089099 7.93746032,10.724127 C7.58825397,9.56825397 7.2652381,8.40365079 6.93,7.23206349 C6.7983422,6.81398792 6.87846739,6.35799093 7.1447619,6.00984127 C7.86761905,5.05825397 8.59571429,4.10492063 9.3884127,3.21619048 C9.62761905,2.94555556 10.0711111,2.81111111 10.4465079,2.7115873 C11.8834921,2.33619048 13.3309524,2.00095238 14.7749206,1.64650794 C14.9739683,1.59761905 15.1712698,1.53650794 15.4052381,1.47190476 L15.4052381,1.49111111 Z M10.6752381,8.51365079 C11.3980952,8.27269841 12.157619,8.08761905 12.5330159,7.31936508 C12.3487032,7.18047762 12.126326,7.10127479 11.8957143,7.09238095 C11.5702758,7.11271974 11.2719333,7.28053735 11.0855556,7.54809524 C11.0546593,7.57527252 11.0206684,7.59871456 10.9842857,7.61793651 C10.4884127,7.95142857 10.4884127,7.95142857 10.6752381,8.51365079 Z M10.3574603,13.1406349 C9.79349206,13.1406349 9.21031746,12.9119048 8.59571429,12.2938095 C7.97415086,13.4683182 8.33066939,14.9221632 9.42507937,15.675873 C9.85515842,15.9812392 10.3695218,16.1453718 10.8969841,16.1455556 C11.6379887,16.1422617 12.3441043,15.8303307 12.8455556,15.2847619 C13.7046032,14.3646032 13.7796825,12.9398413 13.0201587,12.0022222 C12.1471429,12.54 11.2863492,13.144127 10.3714286,13.144127 L10.3574603,13.1406349 Z M15.6304762,1.06507937 L15.3249206,1.15063492 L15.1031746,1.21349206 C14.9634921,1.25365079 14.8325397,1.29206349 14.7050794,1.32349206 L13.4077778,1.63777778 C12.4107937,1.87698413 11.382381,2.12492063 10.3731746,2.39031746 C9.9052381,2.51253968 9.43206349,2.67142857 9.14047619,2.99968254 C8.30587302,3.93555556 7.53761905,4.93079365 6.86714286,5.81428571 C6.53434852,6.2500808 6.43287036,6.81991969 6.5947619,7.34380952 C6.69603175,7.69301587 6.79380952,8.04222222 6.89333333,8.39142857 C7.12206349,9.19285714 7.35603175,10.0204762 7.60396825,10.835873 C7.65285714,11 7.64063492,11.0104762 7.59,11.0803175 C7.12323052,11.6846196 6.84615281,12.4137715 6.79380952,13.1755556 C6.65747285,14.926867 7.63567181,16.5751323 9.23825397,17.2944444 C9.76126443,17.5324317 10.329358,17.6551018 10.9039683,17.654127 C12.0325896,17.6490499 13.1107708,17.185892 13.8914286,16.3707937 C15.1011972,15.1214061 15.3883777,13.243526 14.6073016,11.6896825 C16.72,11.1431746 18.2111111,9.81269841 19.0404762,7.73666667 C19.3896825,6.86365079 19.7388889,5.97142857 20.517619,5.38301587 L20.7620635,5.19619048 L20.6066667,4.92904762 L20.0461905,3.97047619 L19.8715873,3.67190476 L19.5712698,3.84650794 C18.9965256,4.17278391 18.5279463,4.65773015 18.2215873,5.24333333 C17.872381,5.88761905 17.4760317,6.64015873 17.1442857,7.41365079 C16.5960317,8.69349206 15.6496825,9.4931746 14.2493651,9.85809524 C13.3551652,10.0865043 12.5097957,10.4751731 11.7542857,11.0052381 C11.3077153,11.2868817 10.8240673,11.5049052 10.3173016,11.6530159 C10.2892552,11.6629891 10.2597637,11.6682976 10.23,11.6687302 C10.0693651,11.6687302 9.92269841,11.4836508 9.84936508,11.3753968 C9.75589026,11.2358815 9.77495961,11.0495886 9.8947619,10.9319048 C10.0108785,10.7557364 10.1596391,10.6034196 10.3330159,10.4831746 C10.7101587,10.284127 11.108254,10.0990476 11.494127,9.92095238 C11.7560317,9.80047619 12.0179365,9.67650794 12.2903175,9.54730159 C12.5552723,9.42680089 12.8006913,9.26730791 13.0184127,9.07412698 C13.2820635,8.82095238 13.5422222,8.55031746 13.7884127,8.30238095 C14.0346032,8.05444444 14.3209524,7.75587302 14.5968254,7.49571429 C14.7452381,7.35428571 15.1415873,6.97190476 14.9460317,6.40619048 C14.8692063,6.18095238 14.6492063,5.80380952 14.0328571,5.80380952 C13.9839683,5.80380952 13.9298413,5.80380952 13.8757143,5.80380952 L13.7534921,5.81777778 C13.7159925,5.82449242 13.6780693,5.82857646 13.64,5.83 L13.3588889,5.83 C12.9415873,5.83 12.5819048,5.81777778 12.2868254,5.58730159 C12.0926683,5.41580889 11.8469444,5.31383347 11.5884127,5.29746032 C11.2234921,5.29746032 10.9703175,5.55761905 10.8114286,5.75492063 C10.4046032,6.25603175 10.0344444,6.51269841 9.57174603,6.61222222 C9.33280559,6.65699708 9.12335523,6.7993727 8.99380952,7.00507937 C8.85893198,7.2369542 8.82486113,7.51393759 8.89952381,7.7715873 C8.9868254,8.12079365 9.07412698,8.45428571 9.14920635,8.78603175 C9.16666667,8.85412698 9.18238095,8.92396825 9.19984127,8.99206349 L9.05142857,9.12126984 L8.96412698,9.19984127 L8.91698413,8.99904762 C8.74238095,8.31984127 8.58174603,7.67904762 8.43857143,7.02603175 C8.41895745,6.91477323 8.43806081,6.8001531 8.49269841,6.70126984 C8.92920635,6.10063492 9.51238095,5.31492063 10.1479365,4.57460317 C10.3237371,4.3879474 10.5470836,4.25273224 10.7939683,4.18349206 C11.4365079,4.00888889 12.101746,3.84825397 12.7442857,3.69809524 C13.0795238,3.61952381 13.4147619,3.54095238 13.748254,3.45714286 C14.242381,3.33666667 14.7242857,3.21095238 15.234127,3.08 L15.9168254,2.90539683 L16.2974603,2.80761905 L16.1542857,2.44095238 L15.8749206,1.7215873 L15.731746,1.3531746 L15.6165079,1.05809524 L15.6304762,1.06507937 Z M10.9860317,8.04920635 C11.0401587,8.00904762 11.1169841,7.9584127 11.1920635,7.90777778 L11.2042857,7.90777778 C11.2668019,7.87492684 11.3225004,7.83048657 11.3684127,7.7768254 C11.4902462,7.59153017 11.6890553,7.47096204 11.9096825,7.44857143 C11.9538504,7.44945727 11.997778,7.45531429 12.0406349,7.46603175 C11.7804762,7.76285714 11.4085714,7.9147619 10.9930159,8.05619048 L10.9860317,8.04920635 Z M10.3714286,13.4898413 C11.2880952,13.4898413 12.1174603,12.9660317 12.924127,12.4701587 C13.383254,13.3075205 13.2522337,14.3451166 12.5993651,15.0420635 C12.1669094,15.5186838 11.5545113,15.792268 10.9109524,15.7963492 C10.4555345,15.7961427 10.0114045,15.6546067 9.63984127,15.3912698 C8.83030172,14.8389709 8.4703597,13.8268987 8.74936508,12.8874603 C9.20440116,13.2693136 9.77745024,13.4821252 10.3714286,13.4898413 Z" id="Shape" fill="#FFFFFF" fill-rule="nonzero"></path>
                        <path d="M3.38555556,18.7139683 C7.66646623,22.9943319 14.6067048,22.9940363 18.8872508,18.7133079 C23.1677968,14.4325796 23.1677968,7.49234104 18.8872508,3.21161269 C14.6067048,-1.06911566 7.66646623,-1.06941129 3.38555556,3.21095238 C1.32955621,5.26668902 0.174485713,8.05502391 0.174485713,10.9624603 C0.174485713,13.8698967 1.32955621,16.6582316 3.38555556,18.7139683 Z M4.48380952,4.30920635 C7.17483084,1.61804599 11.2220047,0.812931545 14.7381031,2.269294 C18.2542015,3.72565645 20.5467723,7.15668315 20.5467723,10.9624603 C20.5467723,14.7682375 18.2542015,18.1992642 14.7381031,19.6556266 C11.2220047,21.1119891 7.17483084,20.3068746 4.48380952,17.6157143 C2.7188885,15.8513571 1.72731878,13.4580369 1.72731878,10.9624603 C1.72731878,8.46688377 2.7188885,6.07356349 4.48380952,4.30920635 Z" id="Shape" fill="#1D1D1B" fill-rule="nonzero"></path>
                        <polygon id="Path" fill="#FFFFFF" points="17.8025397 -4.88498131e-15 14.684127 3.22666667 18.5201587 5.3952381 21.1898413 2.47936508"></polygon>
                    </g>
                </g>
            </g>
        </g>
    </g>
</svg>