<?xml version="1.0" encoding="UTF-8"?>
<svg width="22px" height="22px" viewBox="0 0 22 22" version="1.1" xmlns="http://www.w3.org/2000/svg" xmlns:xlink="http://www.w3.org/1999/xlink">
    <!-- Generator: Sketch 52.4 (67378) - http://www.bohemiancoding.com/sketch -->
    <title>6</title>
    <desc>Created with Sketch.</desc>
    <g id="web" stroke="none" stroke-width="1" fill="none" fill-rule="evenodd">
        <g id="01-Главная" transform="translate(-12.000000, -576.000000)">
            <g id="Group-5">
                <g id="Group-3" transform="translate(0.000000, 243.000000)">
                    <g id="6" transform="translate(12.000000, 333.000000)">
                        <ellipse id="Oval" fill="#FFFFFF" cx="11.0485039" cy="10.9615873" rx="10.3729134" ry="10.4552381"></ellipse>
                        <path d="M5.09811024,4.96396825 C2.6904807,7.39023726 1.97004575,11.0394718 3.27276775,14.2099147 C4.57548975,17.3803575 7.64479653,19.4475874 11.0493701,19.4475874 C14.4539436,19.4475874 17.5232504,17.3803575 18.8259724,14.2099147 C20.1286944,11.0394718 19.4082595,7.39023726 17.0006299,4.96396825 C15.4226028,3.37241405 13.2817413,2.47820385 11.0493701,2.47820385 C8.81699889,2.47820385 6.67613741,3.37241405 5.09811024,4.96396825 Z" id="Path" fill="#FFF200"></path>
                        <path d="M3.35889764,18.7139683 C7.60610036,22.9943319 14.4916914,22.9940363 18.7385323,18.7133079 C22.9853732,14.4325796 22.9853732,7.49234104 18.7385323,3.21161269 C14.4916914,-1.06911566 7.60610036,-1.06941129 3.35889764,3.21095238 C1.31908726,5.26668902 0.17311181,8.05502391 0.17311181,10.9624603 C0.17311181,13.8698967 1.31908726,16.6582316 3.35889764,18.7139683 Z M4.44850394,4.30920635 C7.11833611,1.61804599 11.1336424,0.812931545 14.622055,2.269294 C18.1104677,3.72565645 20.3849867,7.15668315 20.3849867,10.9624603 C20.3849867,14.7682375 18.1104677,18.1992642 14.622055,19.6556266 C11.1336424,21.1119891 7.11833611,20.3068746 4.44850394,17.6157143 C2.69747993,15.8513571 1.71371785,13.4580369 1.71371785,10.9624603 C1.71371785,8.46688377 2.69747993,6.07356349 4.44850394,4.30920635 Z" id="Shape" fill="#1D1D1B" fill-rule="nonzero"></path>
                        <path d="M9.52929134,4.76492063 C10.6660213,4.7395582 11.6501118,5.55624293 11.843622,6.68555556 C11.967744,7.34212772 11.9314774,8.01928265 11.7379528,8.65857143 L11.672126,8.85587302 C11.635748,8.96238095 11.5976378,9.06714286 11.5543307,9.17539683 C11.4216611,9.5182892 11.2010818,9.81954928 10.9151181,10.0484127 C10.9815367,10.2414301 11.0578601,10.4308388 11.1437795,10.615873 C11.2984232,10.9514384 11.4901909,11.2683164 11.7154331,11.5604762 C12.0362645,11.4269274 12.3799724,11.3581148 12.7270866,11.3579365 C13.2096004,11.3611115 13.6832148,11.4891726 14.1025197,11.7298413 C15.2735433,12.3863492 16.0686614,13.9874603 15.8348031,15.2219048 C15.7523504,15.7392682 15.4387998,16.1898331 14.984252,16.444127 C14.6438181,16.6543381 14.2896179,16.8410107 13.9240945,17.0028571 C13.9137008,17.0028571 12.7530709,17.4865079 12.0185827,17.4865079 C11.8736558,17.487352 11.7292378,17.4691565 11.5889764,17.432381 C10.4577953,17.1180952 9.73543307,16.4528571 9.03385827,15.7404762 C7.96503937,14.6596825 7.11622047,13.2960317 6.43543307,11.55 C6.14439764,10.8142693 5.94313274,10.0456207 5.83606299,9.26095238 C5.75299192,8.63682999 5.76174764,8.00376804 5.86204724,7.38222222 C6.01968504,6.38349206 6.58267717,5.65714286 7.44535433,5.33412698 C7.57007874,5.28698413 7.69133858,5.23634921 7.82125984,5.18222222 C8.02566929,5.0984127 8.25259843,5.00761905 8.49165354,4.92380952 C8.79960982,4.82372399 9.12085314,4.77132841 9.44440945,4.7684127 L9.52409449,4.7684127 L9.52929134,4.76492063 Z M12.0740157,15.2009524 C12.405532,15.1306688 12.7301754,15.0307499 13.0440945,14.902381 C13.2358399,14.8183547 13.4226548,14.7233315 13.603622,14.6177778 C13.5183555,14.2529634 13.3040203,13.9320131 13.0007874,13.7150794 C12.9185024,13.6630233 12.8241553,13.6335316 12.7270866,13.6295238 C12.6674758,13.6297922 12.6085406,13.6422668 12.5538583,13.6661905 C12.4712823,13.706227 12.391423,13.751723 12.3148031,13.802381 C12.2333858,13.8512698 12.1519685,13.9019048 12.0670866,13.9473016 C11.8950212,14.0466683 11.7006524,14.1001533 11.5023622,14.1026984 C11.3369867,14.1039184 11.1742998,14.0605124 11.0311811,13.9769841 L10.9809449,13.9490476 C10.759266,13.8355773 10.5578775,13.6856974 10.3850394,13.5055556 C9.85589451,12.9298757 9.41770503,12.2756193 9.08582677,11.5657143 C8.81295043,10.9962963 8.62610653,10.3889424 8.53149606,9.76380952 C8.41772493,9.15734763 8.75757194,8.5573404 9.33354331,8.34777778 L9.36299213,8.33031746 C9.39590551,8.31111111 9.43401575,8.2884127 9.4807874,8.26396825 C9.49984252,8.21333333 9.51543307,8.16619048 9.53275591,8.11904762 L9.56220472,8.0352381 C9.65236281,7.7493496 9.67432261,7.44605278 9.62629921,7.15 C9.62035266,7.11501214 9.60986917,7.0809639 9.59511811,7.04873016 C9.57037221,7.04582759 9.54537582,7.04582759 9.52062992,7.04873016 L9.50503937,7.04873016 C9.40332988,7.04814693 9.30198678,7.06106212 9.20362205,7.08714286 C9.0303937,7.1447619 8.85716535,7.21634921 8.68393701,7.2931746 C8.53496063,7.35603175 8.38598425,7.41714286 8.23527559,7.46777778 C8.17984252,7.48873016 8.13133858,7.50619048 8.09322835,7.74365079 C8.02836569,8.14802805 8.02252965,8.55979324 8.07590551,8.96587302 C8.1584903,9.56799769 8.31321557,10.1578058 8.53669291,10.722381 C9.11007874,12.1820635 9.77700787,13.2680952 10.6362205,14.137619 C11.1368504,14.6457143 11.5422047,15.0263492 12.0792126,15.2061905 L12.0740157,15.2009524 Z M9.52929134,4.24111111 L9.4392126,4.24111111 C9.06307535,4.2431022 8.68936266,4.30195824 8.33055118,4.41571429 C8.0776378,4.50126984 7.84204724,4.59904762 7.6376378,4.68460317 C7.50771654,4.74047619 7.38992126,4.78936508 7.27385827,4.83126984 C6.22582677,5.22412698 5.5415748,6.09714286 5.35795276,7.28968254 C5.24958259,7.96145958 5.23966049,8.6456348 5.32850394,9.32031746 C5.4412291,10.1469933 5.65355765,10.9567273 5.9607874,11.7315873 C6.66582677,13.5334921 7.55275591,14.96 8.67181102,16.0966667 C9.39417323,16.83 10.2066142,17.5738095 11.4573228,17.9230159 C11.6426654,17.9726941 11.8337305,17.9973539 12.0255118,17.9963492 C12.8777953,17.9963492 14.1181102,17.4725397 14.1302362,17.4725397 C14.5168346,17.3026612 14.8913227,17.1060552 15.2510236,16.884127 C15.835005,16.5554008 16.2395633,15.9774604 16.3510236,15.3126984 C16.6247244,13.8477778 15.7308661,12.0301587 14.3588976,11.2601587 C13.8621664,10.9764847 13.3014665,10.8261789 12.7305512,10.8236508 C12.4568549,10.8232368 12.1842893,10.8590455 11.9198425,10.9301587 C11.8061429,10.7563342 11.705394,10.5742472 11.6184252,10.3853968 C11.5872441,10.3138095 11.556063,10.2474603 11.5300787,10.1828571 C11.7462576,9.94513436 11.9181886,9.67010896 12.0376378,9.37095238 C12.0861417,9.25222222 12.1259843,9.13873016 12.1658268,9.02174603 L12.2247244,8.82444444 L12.2247244,8.81222222 L12.2247244,8.79825397 C12.4402292,8.0787056 12.4794597,7.31722419 12.3390551,6.57904762 C12.102695,5.20164146 10.9019269,4.20593005 9.51543307,4.23761905 L9.52929134,4.24111111 Z M8.59732283,7.88333333 L8.88141732,7.7768254 L9.11874016,7.67904762 C9.10661417,7.74365079 9.09275591,7.81174603 9.07370079,7.8868254 L9.07370079,7.90079365 C8.88903052,7.98402263 8.7188293,8.09662207 8.5696063,8.23428571 C8.5696063,8.12079365 8.58692913,8.00730159 8.60251969,7.88507937 L8.59732283,7.88333333 Z M11.9388976,14.5619048 C12.0731467,14.5244203 12.2027422,14.4717021 12.3251969,14.4047619 C12.4187402,14.354127 12.4984252,14.3 12.5954331,14.244127 C12.6387402,14.2179365 12.6976378,14.1812698 12.735748,14.1603175 L12.7530709,14.1690476 C12.8291855,14.2241487 12.8934202,14.2942391 12.9418898,14.3750794 L12.8466142,14.4169841 C12.6093066,14.5110484 12.3662948,14.5897793 12.1190551,14.6526984 C12.0595199,14.6260427 12.0016679,14.5957209 11.9458268,14.5619048 L11.9388976,14.5619048 Z" id="Shape" fill="#FFFFFF" fill-rule="nonzero"></path>
                        <path d="M9.52755906,6.14253968 C10.0576378,6.14253968 10.3937008,6.43063492 10.5045669,6.96666667 C10.581642,7.4113415 10.5519424,7.86815507 10.4179528,8.29888889 C10.376378,8.41761905 10.3365354,8.53809524 10.2897638,8.64809524 C10.2334823,8.81392372 10.1119302,8.94907111 9.95370079,9.02174603 C9.85322835,9.06365079 9.76661417,9.13698413 9.66440945,9.17365079 C9.43574803,9.25396825 9.39070866,9.41809524 9.42015748,9.63634921 C9.50243115,10.1724063 9.66479818,10.6928077 9.90173228,11.1798413 C10.1942864,11.807278 10.5817378,12.3851158 11.0502362,12.8926984 C11.1792434,13.0139551 11.3258685,13.1146399 11.4850394,13.1912698 C11.494066,13.1940924 11.5037293,13.1940924 11.5127559,13.1912698 C11.5619866,13.1855825 11.6093344,13.1688792 11.6513386,13.142381 C11.8418898,13.0393651 12.0185827,12.9066667 12.2177953,12.8228571 C12.3819159,12.7517179 12.5588292,12.71546 12.7374803,12.7163492 C12.9866626,12.72045 13.230624,12.7889887 13.4459843,12.9153968 C14.1007874,13.2820635 14.6274016,14.2842857 14.5026772,14.9530159 C14.4896584,15.0735287 14.415563,15.1786143 14.3069291,15.2306349 C14.0168314,15.4114674 13.714696,15.5719016 13.4026772,15.7107937 C13.0735433,15.8504762 12.3303937,16.0879365 12.0307087,16.0879365 C12.0048191,16.0910993 11.9786454,16.0910993 11.9527559,16.0879365 C11.1333858,15.8592063 10.5859843,15.3371429 10.0125984,14.7557143 C8.97322835,13.695873 8.25952756,12.4177778 7.71905512,11.0366667 C7.46682773,10.4051707 7.29229958,9.74490946 7.19937008,9.07063492 C7.13444693,8.57930362 7.14145076,8.08102629 7.22015748,7.59174603 C7.2911811,7.14650794 7.47826772,6.7868254 7.9303937,6.61746032 C8.26645669,6.49174603 8.59385827,6.33809524 8.93511811,6.22285714 C9.11533729,6.16714135 9.3026778,6.13831724 9.4911811,6.13730159 L9.53275591,6.13730159 L9.52755906,6.14253968 Z M9.53275591,5.65539683 L9.47732283,5.65539683 C9.24227909,5.65633562 9.00870627,5.69282674 8.78440945,5.76365079 C8.57133858,5.83698413 8.36866142,5.92079365 8.1711811,6.00285714 C8.03086614,6.06047619 7.8992126,6.11460317 7.76582677,6.1652381 C7.20110236,6.38 6.85464567,6.83746032 6.74377953,7.52190476 C6.65761782,8.05740081 6.65003013,8.60275541 6.72125984,9.14047619 C6.81864002,9.85323756 7.00128137,10.5514931 7.26519685,11.22 C7.89401575,12.8403175 8.68566929,14.1061905 9.66614173,15.1101587 C10.303622,15.7561905 10.9064567,16.3114286 11.8159055,16.5663492 C11.8832754,16.5834822 11.9525719,16.5916994 12.0220472,16.5907937 C12.4620472,16.5907937 13.3299213,16.2834921 13.5811024,16.1769841 C13.9113517,16.0301023 14.2313957,15.8609353 14.5390551,15.6706349 C14.7679745,15.5480917 14.9255067,15.3232039 14.9634646,15.0647619 C15.1262992,14.2022222 14.5096063,12.9869841 13.6711811,12.5173016 C13.3850646,12.3504608 13.0610785,12.2608529 12.7305512,12.2571429 C12.4923167,12.2585224 12.2567487,12.3077907 12.0376378,12.4020635 C11.8910484,12.4677647 11.7497327,12.544821 11.6149606,12.6325397 L11.531811,12.6657143 C11.4850223,12.6396112 11.44191,12.6073139 11.403622,12.5696825 C10.9675823,12.0992648 10.6069784,11.5631969 10.3348031,10.9807937 C10.1209308,10.5451381 9.97319351,10.0795741 9.89653543,9.59968254 C9.95581367,9.57249205 10.0136359,9.54218586 10.0697638,9.50888889 C10.0932368,9.49358948 10.1175253,9.47960019 10.1425197,9.46698413 C10.4171393,9.34548674 10.6309795,9.11671471 10.7349606,8.8331746 C10.7713386,8.74063492 10.804252,8.64984127 10.8337008,8.56253968 L10.8700787,8.45777778 L10.8700787,8.43857143 L10.8700787,8.42111111 C11.0263661,7.91733375 11.0584738,7.38275231 10.963622,6.86365079 C10.858135,6.14852343 10.2356759,5.62794759 9.51889764,5.65539683 L9.53275591,5.65539683 Z" id="Shape" fill="#FFFFFF" fill-rule="nonzero"></path>
                        <path d="M12.0220472,17.4777778 C11.8765503,17.4786151 11.7315604,17.4604209 11.5907087,17.4236508 C10.4612598,17.1093651 9.73716535,16.444127 9.03559055,15.731746 C7.96677165,14.6509524 7.11795276,13.2873016 6.43716535,11.5412698 C6.1469208,10.8052764 5.94568156,10.0367258 5.83779528,9.25222222 C5.75646212,8.62799633 5.7652143,7.99519017 5.86377953,7.37349206 C6.02141732,6.3747619 6.58440945,5.6484127 7.44708661,5.32539683 C7.57181102,5.27825397 7.69480315,5.22761905 7.82299213,5.17349206 C8.02740157,5.08968254 8.25433071,4.99888889 8.49338583,4.91507937 C8.8013421,4.81499383 9.12258542,4.76259826 9.44614173,4.75968254 L9.52582677,4.75968254 C10.6629494,4.73419424 11.6476037,5.55073567 11.8418898,6.68031746 C11.9653809,7.33703543 11.9285207,8.01417528 11.7344882,8.65333333 L11.6686614,8.85063492 C11.6322835,8.95714286 11.5959055,9.06190476 11.5508661,9.17015873 C11.4181966,9.51305111 11.1976173,9.81431118 10.9116535,10.0431746 C10.9705512,10.2177778 11.0450394,10.392381 11.140315,10.6106349 C11.2962676,10.9454927 11.4879496,11.262229 11.7119685,11.5552381 C12.4914632,11.2371087 13.3732966,11.3016103 14.0990551,11.7298413 C15.271811,12.3863492 16.0669291,13.9874603 15.8313386,15.2219048 C15.7475216,15.7392005 15.4335597,16.1894395 14.9790551,16.444127 C14.6391993,16.6543007 14.2855776,16.8409734 13.9206299,17.0028571 C13.9154331,16.997619 12.7548031,17.4777778 12.0220472,17.4777778 Z M9.52755906,7.03825397 L9.51370079,7.03825397 C9.41198157,7.03750659 9.31061708,7.0504245 9.21228346,7.07666667 C9.03905512,7.13428571 8.86582677,7.20587302 8.69259843,7.28269841 C8.54362205,7.34555556 8.39464567,7.40666667 8.24393701,7.45730159 C8.18677165,7.47825397 8.14,7.49571429 8.10188976,7.7331746 C8.03647629,8.13746884 8.0300567,8.54923056 8.08283465,8.95539683 C8.16602721,9.55758549 8.32133312,10.1473897 8.54535433,10.7119048 C9.11700787,12.1715873 9.78393701,13.257619 10.6431496,14.1271429 C11.1455118,14.6352381 11.5491339,15.015873 12.0861417,15.1957143 C12.4182283,15.1254591 12.7434493,15.0255408 13.0579528,14.8971429 C13.2493678,14.8124086 13.4361443,14.7174049 13.6174803,14.6125397 C13.5285074,14.2475466 13.3104624,13.9278168 13.004252,13.7133333 C12.874631,13.6211918 12.7071046,13.6027232 12.5607874,13.6644444 C12.4788036,13.704549 12.399525,13.7500439 12.3234646,13.8006349 C12.240315,13.8495238 12.1588976,13.9001587 12.075748,13.9455556 C11.7594518,14.1419646 11.3632001,14.1532808 11.036378,13.9752381 L10.9861417,13.9473016 C10.7650266,13.8337501 10.564221,13.6838684 10.3919685,13.5038095 C9.86225926,12.928581 9.4240078,12.2742322 9.09275591,11.5639683 C8.81923268,10.9946663 8.63180143,10.3873012 8.53669291,9.76206349 C8.42236491,9.15499416 8.76331382,8.55433879 9.34047244,8.34603175 L9.36992126,8.32857143 L9.48598425,8.26222222 C9.50503937,8.2115873 9.5223622,8.16444444 9.53795276,8.11730159 L9.56740157,8.03349206 C9.65840861,7.74776905 9.68038326,7.44426726 9.63149606,7.14825397 C9.62627725,7.11309436 9.61576236,7.07894415 9.60031496,7.04698413 C9.57558218,7.0438618 9.55055955,7.0438618 9.52582677,7.04698413 L9.52755906,7.03825397 Z" id="Shape" fill="#1D1D1B" fill-rule="nonzero"></path>
                        <path d="M12.0220472,16.3411111 C11.9753763,16.3418689 11.9288018,16.3365876 11.8834646,16.3253968 C11.0173228,16.0861905 10.4491339,15.5536508 9.83590551,14.9285714 C8.87795276,13.9595238 8.10362205,12.7163492 7.48692913,11.1292063 C7.23028872,10.4791502 7.0523125,9.80028695 6.95685039,9.10730159 C6.88995308,8.59268036 6.89753876,8.07099557 6.97937008,7.55857143 C7.07464567,6.95793651 7.35700787,6.57730159 7.84551181,6.39571429 C7.98409449,6.34333333 8.12094488,6.28746032 8.25779528,6.22111111 C8.45181102,6.14079365 8.65275591,6.05873016 8.85716535,5.98888889 C9.05968009,5.9255408 9.27047687,5.89317006 9.48251969,5.89285714 L9.53102362,5.89285714 C10.1353998,5.86371838 10.6617223,6.30479099 10.743622,6.90904762 C10.8300222,7.39062261 10.7991103,7.88614225 10.6535433,8.35301587 L10.6119685,8.47 C10.5825197,8.55730159 10.5513386,8.64460317 10.5166929,8.73015873 C10.4370157,8.95434483 10.2699371,9.13599472 10.0541732,9.23301587 C10.0185753,9.24864526 9.98438048,9.26733881 9.9519685,9.28888889 C9.88824038,9.32884047 9.8209701,9.36274256 9.75102362,9.39015873 C9.67826772,9.41460317 9.64188976,9.42857143 9.66440945,9.59444444 C9.73607582,10.1154323 9.88926469,10.6216674 10.1182677,11.0942857 C10.3999369,11.6998675 10.7740298,12.2572121 11.2269291,12.7460317 C11.3172363,12.8317595 11.4200602,12.903012 11.531811,12.9573016 C11.5993701,12.922381 11.6634646,12.8804762 11.7292913,12.8403175 C11.853587,12.7593194 11.9838946,12.688103 12.1190551,12.6273016 C12.3102503,12.5452013 12.5158011,12.5024589 12.723622,12.5015873 C13.0133725,12.5054231 13.2972928,12.584181 13.548189,12.7303175 C14.2948031,13.1493651 14.8647244,14.2633333 14.7226772,15.0228571 C14.6971696,15.2123408 14.5813828,15.3772937 14.4125984,15.4646032 C14.1141747,15.6506999 13.8033565,15.8158017 13.4823622,15.9587302 C13.163622,16.0844444 12.3737008,16.3411111 12.0220472,16.3411111 Z" id="Path" fill="#FFFFFF"></path>
                        <path d="M10.223937,7.71222222 C10.223937,8.29714286 9.97102362,8.77031746 9.65748031,8.77031746 C9.34393701,8.77031746 9.09102362,8.29714286 9.09102362,7.71222222 C9.09102362,7.12730159 9.35779528,6.66460317 9.65748031,6.57206349 C10.1702362,6.41142857 10.223937,7.12730159 10.223937,7.71222222 Z" id="Path" fill="#1D1D1B"></path>
                        <path d="M13.6348031,13.6749206 C13.2710236,13.2192063 12.7218898,13.0568254 12.4100787,13.31 C12.0982677,13.5631746 12.1381102,14.1393651 12.5018898,14.5950794 C12.8656693,15.0507937 13.4217323,15.1922222 13.7785827,15.0228571 C14.3900787,14.7330159 13.9985827,14.1306349 13.6348031,13.6749206 Z" id="Path" fill="#1D1D1B"></path>
                    </g>
                </g>
            </g>
        </g>
    </g>
</svg>