<?xml version="1.0" encoding="UTF-8"?>
<svg width="22px" height="22px" viewBox="0 0 22 22" version="1.1" xmlns="http://www.w3.org/2000/svg" xmlns:xlink="http://www.w3.org/1999/xlink">
    <!-- Generator: Sketch 52.4 (67378) - http://www.bohemiancoding.com/sketch -->
    <title>8</title>
    <desc>Created with Sketch.</desc>
    <g id="web" stroke="none" stroke-width="1" fill="none" fill-rule="evenodd">
        <g id="01-Главная" transform="translate(-12.000000, -416.000000)">
            <g id="Group-5">
                <g id="Group-3" transform="translate(0.000000, 243.000000)">
                    <g id="8" transform="translate(12.000000, 173.000000)">
                        <circle id="Oval" fill="#FFFFFF" cx="11.0485039" cy="11.0485039" r="10.3729134"></circle>
                        <path d="M5.09811024,5.09637795 C2.6904807,7.50354248 1.97004575,11.1240429 3.27276775,14.2695217 C4.57548975,17.4150004 7.64479653,19.4659528 11.0493701,19.4659528 C14.4539436,19.4659528 17.5232504,17.4150004 18.8259724,14.2695217 C20.1286944,11.1240429 19.4082595,7.50354248 17.0006299,5.09637795 C13.7136539,1.81003682 8.38508622,1.81003682 5.09811024,5.09637795 Z" id="Path" fill="#FFF200"></path>
                        <path d="M3.35889764,18.7329134 C7.60610036,22.9795734 14.4916914,22.9792801 18.7385323,18.7322583 C22.9853732,14.4852365 22.9853732,7.59964544 18.7385323,3.35262361 C14.4916914,-0.894398219 7.60610036,-0.894691515 3.35889764,3.3519685 C1.31908726,5.39151824 0.17311181,8.15789774 0.17311181,11.0424409 C0.17311181,13.9269841 1.31908726,16.6933637 3.35889764,18.7329134 Z M4.45543307,4.44677165 C8.101288,0.801685071 14.0116999,0.802100314 17.6570426,4.44769915 C21.3023853,8.09329798 21.3023853,14.0037099 17.6570426,17.6493087 C14.0116999,21.2949076 8.101288,21.2953228 4.45543307,17.6502362 C0.809810361,14.004029 0.809810361,8.09297892 4.45543307,4.44677165 Z" id="Shape" fill="#1D1D1B" fill-rule="nonzero"></path>
                        <circle id="Oval" fill="#1D1D1B" cx="11.0485039" cy="11.0485039" r="4.76377953"></circle>
                        <circle id="Oval" fill="#FFFFFF" cx="13.963937" cy="8.62330709" r="1.97653543"></circle>
                    </g>
                </g>
            </g>
        </g>
    </g>
</svg>