<?xml version="1.0" encoding="UTF-8"?>
<svg width="20px" height="20px" viewBox="0 0 20 20" version="1.1" xmlns="http://www.w3.org/2000/svg" xmlns:xlink="http://www.w3.org/1999/xlink">
    <!-- Generator: Sketch 52.6 (67491) - http://www.bohemiancoding.com/sketch -->
    <title>Group 3</title>
    <desc>Created with Sketch.</desc>
    <g id="Symbols" stroke="none" stroke-width="1" fill="none" fill-rule="evenodd">
        <g id="1/1,5" transform="translate(-242.000000, -97.000000)" fill-rule="nonzero">
            <g id="Group-9" transform="translate(211.000000, 66.000000)">
                <g id="Group-3" transform="translate(31.000000, 31.000000)">
                    <circle id="Oval" fill="#FE4832" cx="10" cy="10" r="10"></circle>
                    <g id="Group" transform="translate(4.000000, 5.000000)" fill="#FFFFFF" stroke="#FFFFFF" stroke-width="0.3">
                        <path d="M11.6007605,1.48007246 C11.851711,1.72101449 12,2.05374396 12,2.43236715 L12,8.14613527 C12,8.51328502 11.8403042,8.85748792 11.6007605,9.09842995 C11.3612167,9.35084541 11.0304183,9.5 10.6539924,9.5 L1.3460076,9.5 C0.980988593,9.5 0.63878327,9.33937198 0.399239544,9.09842995 C0.148288973,8.85748792 -7.77078444e-13,8.52475845 -7.76267939e-13,8.14613527 L-7.76267939e-13,2.43236715 C-7.76267939e-13,2.06521739 0.159695817,1.72101449 0.399239544,1.48007246 C0.63878327,1.227657 0.969581749,1.07850242 1.3460076,1.07850242 L3.22813688,1.07850242 L3.22813688,1.05555556 C3.22813688,0.768719807 3.34220532,0.504830918 3.53612167,0.309782609 C3.73003802,0.1147343 3.99239544,3.06421555e-13 4.28897338,3.06421555e-13 L7.71102662,3.06421555e-13 C7.99619772,3.06421555e-13 8.25855513,0.1147343 8.45247148,0.309782609 C8.64638783,0.493357488 8.76045627,0.768719807 8.76045627,1.05555556 L8.76045627,1.07850242 L10.6539924,1.07850242 C11.0304183,1.07850242 11.3612167,1.227657 11.6007605,1.48007246 Z M11.4068441,8.14613527 L11.4068441,2.43236715 C11.4068441,2.22584541 11.3269962,2.04227053 11.1901141,1.90458937 C11.0532319,1.76690821 10.8707224,1.6865942 10.6653992,1.6865942 L8.46387833,1.6865942 C8.29277567,1.6865942 8.15589354,1.54891304 8.15589354,1.37681159 L8.15589354,1.04408213 C8.15589354,0.917874396 8.11026616,0.803140097 8.03041825,0.722826087 C7.95057034,0.642512077 7.8365019,0.596618357 7.71102662,0.596618357 L4.30038023,0.596618357 C4.17490494,0.596618357 4.0608365,0.642512077 3.98098859,0.722826087 C3.90114068,0.803140097 3.85551331,0.917874396 3.85551331,1.04408213 L3.85551331,1.37681159 C3.85551331,1.54891304 3.71863118,1.6865942 3.54752852,1.6865942 L1.3460076,1.6865942 C1.14068441,1.6865942 0.958174905,1.76690821 0.821292776,1.90458937 C0.684410646,2.04227053 0.604562738,2.22584541 0.604562738,2.43236715 L0.604562738,8.14613527 C0.604562738,8.352657 0.684410646,8.53623188 0.821292776,8.67391304 C0.958174905,8.8115942 1.14068441,8.89190821 1.3460076,8.89190821 L10.6539924,8.89190821 C10.8593156,8.89190821 11.0418251,8.8115942 11.1787072,8.67391304 C11.3155894,8.53623188 11.3954373,8.352657 11.3954373,8.14613527 L11.4068441,8.14613527 Z M6,2.46678744 C6.7756654,2.46678744 7.48288973,2.78804348 7.98479087,3.2928744 C8.48669202,3.79770531 8.80608365,4.50905797 8.80608365,5.28925121 C8.80608365,6.06944444 8.49809886,6.76932367 7.98479087,7.28562802 C7.48288973,7.79045894 6.7756654,8.11171498 6,8.11171498 C5.2243346,8.11171498 4.52851711,7.80193237 4.01520913,7.28562802 C3.51330798,6.7807971 3.19391635,6.06944444 3.19391635,5.28925121 C3.19391635,4.50905797 3.50190114,3.80917874 4.01520913,3.2928744 C4.51711027,2.78804348 5.2243346,2.46678744 6,2.46678744 Z M7.5513308,6.86111111 C7.95057034,6.45954106 8.20152091,5.90881643 8.19011407,5.30072464 C8.19011407,4.69263285 7.95057034,4.14190821 7.5513308,3.74033816 C7.15209125,3.35024155 6.60456274,3.09782609 6,3.09782609 C5.39543726,3.09782609 4.84790875,3.33876812 4.4486692,3.74033816 C4.0608365,4.14190821 3.80988593,4.69263285 3.80988593,5.30072464 C3.80988593,5.90881643 4.04942966,6.45954106 4.4486692,6.86111111 C4.84790875,7.25120773 5.39543726,7.50362319 6,7.50362319 C6.60456274,7.50362319 7.15209125,7.25120773 7.5513308,6.86111111 Z M10.0608365,3.57971014 C9.75214503,3.57971014 9.50190114,3.3280055 9.50190114,3.01751208 C9.50190114,2.70701866 9.75214503,2.45531401 10.0608365,2.45531401 C10.369528,2.45531401 10.6197719,2.70701866 10.6197719,3.01751208 C10.6197719,3.3280055 10.369528,3.57971014 10.0608365,3.57971014 Z" id="Combined-Shape"></path>
                    </g>
                </g>
            </g>
        </g>
    </g>
</svg>