<?xml version="1.0" encoding="UTF-8"?>
<svg width="54px" height="68px" viewBox="0 0 54 68" version="1.1" xmlns="http://www.w3.org/2000/svg" xmlns:xlink="http://www.w3.org/1999/xlink">
    <!-- Generator: Sketch 52.4 (67378) - http://www.bohemiancoding.com/sketch -->
    <title>Group 2</title>
    <desc>Created with Sketch.</desc>
    <g id="Page-1" stroke="none" stroke-width="1" fill="none" fill-rule="evenodd">
        <g id="01-Главная" transform="translate(-431.000000, -907.000000)">
            <g id="Group-2" transform="translate(431.000000, 901.000000)">
                <path d="M12.4376016,8.29173438 L50.0153965,33.3435976 C53.691626,35.7944173 54.6850169,40.7613721 52.2341973,44.4376016 C51.6483184,45.3164199 50.8942148,46.0705235 50.0153965,46.6564024 L12.4376016,71.7082656 C8.76137206,74.1590853 3.79441732,73.1656943 1.34359765,69.4894648 C0.46750422,68.1753247 1.93420701e-16,66.6312631 0,65.0518633 L-2.66453526e-15,14.9481367 C-5.16772785e-15,10.5298587 3.581722,6.94813673 8,6.94813673 C9.57939988,6.94813673 11.1234614,7.41564095 12.4376016,8.29173438 Z" id="Rectangle" fill="#333333" fill-rule="nonzero"></path>
                <path d="M8.17431641,45 L8.17431641,35.6054688 L11.449707,35.6054688 C12.5922909,35.6054688 13.4079565,35.7969545 13.8967285,36.1799316 C14.3855005,36.5629088 14.6298828,37.2029578 14.6298828,38.1000977 C14.6298828,39.1157277 14.3029818,39.906003 13.6491699,40.4709473 C12.9953581,41.0358915 12.0802468,41.3183594 10.9038086,41.3183594 L10.0913086,41.3183594 L10.0913086,45 L8.17431641,45 Z M10.0913086,40.0297852 L10.472168,40.0297852 C11.1407911,40.0297852 11.6686992,39.8742691 12.0559082,39.5632324 C12.4431172,39.2521957 12.6367188,38.8300808 12.6367188,38.296875 C12.6367188,37.361649 12.0421609,36.894043 10.8530273,36.894043 L10.0913086,36.894043 L10.0913086,40.0297852 Z M16.1469727,45 L16.1469727,35.6054688 L18.1020508,35.6054688 L18.1020508,43.6669922 L22.3359375,43.6669922 L22.3359375,45 L16.1469727,45 Z M22.6787109,45 L26.3349609,35.6054688 L28.2900391,35.6054688 L31.9462891,45 L29.9404297,45 L28.9628906,42.4926758 L25.078125,42.4926758 L24.1005859,45 L22.6787109,45 Z M25.5605469,41.2421875 L28.4804688,41.2421875 L27.0205078,37.4970703 L25.5605469,41.2421875 Z M35.5136719,45 L35.5136719,41.0644531 L32.3588867,35.6054688 L34.5170898,35.6054688 L36.8085938,39.5727539 L39.2016602,35.6054688 L40.7504883,35.6054688 L37.46875,41.0517578 L37.46875,45 L35.5136719,45 Z" id="PLAY" fill="#FFFFFF"></path>
            </g>
        </g>
    </g>
</svg>